<svg width="22" height="22" viewBox="0 0 22 22" fill="none" xmlns="http://www.w3.org/2000/svg">
<path d="M1.56177 2.16599L19.9121 20.5165" stroke="#E00030" stroke-width="1.84887"/>
<path fill-rule="evenodd" clip-rule="evenodd" d="M6.37806 0C5.92723 0 5.49487 0.179089 5.17609 0.49787C4.85731 0.81665 4.67822 1.24901 4.67822 1.69983V2.04489L6.37806 3.74473V1.69983L18.2769 1.69983V15.6437L19.9472 17.3139C19.9667 17.2106 19.9767 17.105 19.9767 16.9983V1.69983C19.9767 1.24901 19.7976 0.816652 19.4789 0.49787C19.1601 0.179089 18.7277 0 18.2769 0H6.37806ZM19.1368 18.4646L17.6705 16.9983H6.37806L6.37806 5.70577L4.67822 4.00592V16.9983C4.67822 17.4492 4.85731 17.8815 5.17609 18.2003C5.49487 18.5191 5.92723 18.6982 6.37806 18.6982H18.2769C18.5818 18.6982 18.8782 18.6163 19.1368 18.4646ZM11.7212 11.0489H9.35277C8.88337 11.0489 8.50285 11.4294 8.50285 11.8988C8.50285 12.3682 8.88337 12.7488 9.35277 12.7488H13.421L11.7212 11.0489ZM15.3786 12.7454C15.8122 12.7067 16.1521 12.3425 16.1521 11.8988C16.1521 11.4294 15.7716 11.0489 15.3022 11.0489H13.6822L15.3786 12.7454ZM11.2686 8.63526L12.3275 7.57634L13.4263 8.67519C13.7582 9.0071 14.2964 9.0071 14.6283 8.67519C14.9602 8.34328 14.9602 7.80514 14.6283 7.47323L13.5294 6.37438L14.6283 5.27552C14.9602 4.94361 14.9602 4.40547 14.6283 4.07356C14.2964 3.74165 13.7582 3.74165 13.4263 4.07356L12.3275 5.17241L11.2286 4.07356C10.8967 3.74165 10.3586 3.74165 10.0267 4.07356C9.69475 4.40547 9.69475 4.94361 10.0267 5.27552L11.1255 6.37438L10.0666 7.4333L11.2686 8.63526ZM14.3242 13.652C14.2318 13.6175 14.1317 13.5987 14.0273 13.5987H9.35277C8.88337 13.5987 8.50285 13.9792 8.50285 14.4486C8.50285 14.918 8.88337 15.2985 9.35277 15.2985H14.0273C14.4967 15.2985 14.8772 14.918 14.8772 14.4486C14.8772 14.3442 14.8584 14.2441 14.8239 14.1517L14.3242 13.652Z" fill="#E00030"/>
</svg>
