<svg width="17" height="19" viewBox="0 0 17 19" fill="none" xmlns="http://www.w3.org/2000/svg">
<path d="M13.079 18.15H13.0791C13.9205 18.1492 14.7272 17.8146 15.3222 17.2197C15.9171 16.6247 16.2517 15.818 16.2525 14.9766V14.9765V9.79326V9.79312C16.2517 8.95173 15.9171 8.14502 15.3222 7.55007C14.7272 6.95511 13.9205 6.62051 13.0791 6.61971H13.079L11.3512 6.61971C11.1205 6.61971 10.8993 6.71136 10.7361 6.8745C10.573 7.03764 10.4814 7.2589 10.4814 7.48961C10.4814 7.72032 10.573 7.94158 10.7361 8.10471C10.8993 8.26785 11.1205 8.3595 11.3512 8.3595H13.0789C13.459 8.36024 13.8232 8.51154 14.092 8.78028C14.3608 9.04906 14.5121 9.41342 14.5128 9.79353L14.5128 14.9762C14.5121 15.3563 14.3608 15.7207 14.092 15.9895C13.8232 16.2583 13.4588 16.4096 13.0787 16.4102H3.86464C3.48452 16.4096 3.12017 16.2583 2.85138 15.9895C2.58263 15.7207 2.43133 15.3564 2.4306 14.9763L2.4306 9.79341C2.43133 9.41333 2.58263 9.04903 2.85138 8.78028C3.12012 8.51154 3.4844 8.36024 3.86445 8.3595H5.59211C5.82282 8.3595 6.04408 8.26785 6.20722 8.10471C6.37035 7.94158 6.462 7.72032 6.462 7.48961C6.462 7.2589 6.37035 7.03764 6.20722 6.8745C6.04408 6.71136 5.82282 6.61971 5.59211 6.61971L3.86437 6.61971L3.86423 6.61971C3.02283 6.62051 2.21613 6.95511 1.62117 7.55007C1.02622 8.14502 0.691621 8.95173 0.69082 9.79312V9.79326L0.69082 14.9765L0.69082 14.9766C0.691621 15.818 1.02622 16.6247 1.62117 17.2197C2.21613 17.8146 3.02283 18.1492 3.86423 18.15H3.86437H13.079Z" fill="#4B4B4B" stroke="#4B4B4B" stroke-width="0.3"/>
<path d="M9.08565 1.10479C8.92251 0.941656 8.70125 0.850007 8.47054 0.850007C8.23983 0.850007 8.01857 0.941656 7.85543 1.10479C7.6923 1.26793 7.60065 1.48919 7.60065 1.7199L7.60065 13.2382C7.60065 13.4689 7.69229 13.6901 7.85543 13.8533C8.01857 14.0164 8.23983 14.1081 8.47054 14.1081C8.70125 14.1081 8.92251 14.0164 9.08564 13.8533C9.24878 13.6901 9.34043 13.4689 9.34043 13.2382L9.34043 1.7199C9.34043 1.48919 9.24878 1.26793 9.08565 1.10479Z" fill="#4B4B4B" stroke="#4B4B4B" stroke-width="0.3"/>
<path d="M4.97306 9.75601C4.8119 9.91979 4.72156 10.1404 4.72156 10.3702C4.72156 10.6004 4.81222 10.8214 4.97392 10.9852L4.97462 10.9859L7.85419 13.8655L7.85419 13.8655L7.8549 13.8662C8.01877 14.0279 8.23973 14.1186 8.46994 14.1186C8.70016 14.1186 8.92111 14.0279 9.08498 13.8662L9.08569 13.8655L11.9653 10.9859C12.1286 10.8226 12.2203 10.6011 12.2203 10.3702C12.2203 10.1392 12.1286 9.91774 11.9653 9.75443C11.802 9.59113 11.5805 9.49938 11.3495 9.49938C11.1186 9.49938 10.8971 9.59113 10.7338 9.75443L8.4702 12.018L6.20638 9.74317L6.20617 9.74296C6.12529 9.66202 6.0292 9.59789 5.92342 9.55426C5.81764 9.51063 5.70428 9.48838 5.58986 9.48877L5.58853 9.48878C5.47312 9.4902 5.35917 9.51465 5.25334 9.56069C5.14788 9.60657 5.0526 9.67296 4.97306 9.75601ZM4.97306 9.75601C4.97335 9.75572 4.97363 9.75543 4.97392 9.75514L5.08069 9.8605L4.97222 9.75689C4.9725 9.7566 4.97278 9.75631 4.97306 9.75601Z" fill="#4B4B4B" stroke="#4B4B4B" stroke-width="0.3"/>
</svg>
