<svg width="1280" height="225" viewBox="0 0 1280 225" fill="none" xmlns="http://www.w3.org/2000/svg">
<path d="M349.696 105.524C336.74 89.5792 321.349 65.6618 318.802 62.8936C317.252 61.122 315.148 59.4611 313.045 58.686C302.636 54.6997 291.231 57.025 285.473 67.5442C283.591 70.8661 249.044 145.608 244.171 156.238C234.427 118.479 209.181 26.5747 208.074 22.9207C207.41 20.5954 206.524 18.3808 205.417 16.277C198.773 3.43251 180.06 2.10377 171.202 13.2873C169.098 15.9448 143.076 58.3538 116.28 104.97C113.512 104.749 -961.328 105.081 -986.463 105.192V134.313C-955.902 134.313 104.432 134.978 117.166 134.978C129.678 134.867 136.544 133.206 141.748 126.452C144.516 123.13 168.212 84.4857 180.613 62.2293C183.16 71.9734 216.379 202.19 217.707 205.844C219.258 209.941 221.583 213.484 225.458 216.031C234.317 221.789 248.933 221.124 255.576 209.166C257.459 205.844 304.408 102.202 306.512 97.4409C314.816 109.621 321.017 117.483 325.557 124.126C333.972 134.424 339.73 133.76 349.696 133.76C351.357 133.76 1431.73 133.76 1465.17 133.76V105.413C1438.16 105.413 355.675 105.413 349.696 105.524Z" stroke="#2D3181" stroke-width="11.0728" stroke-miterlimit="10"/>
</svg>
