<svg width="17" height="17" viewBox="0 0 17 17" fill="none" xmlns="http://www.w3.org/2000/svg">
<mask id="path-1-outside-1_2061_16788" maskUnits="userSpaceOnUse" x="0" y="0" width="17" height="17" fill="black">
<rect fill="white" width="17" height="17"/>
<path d="M16 8.50147C16.0057 12.6363 12.6186 16.0163 8.46862 15.9999C4.35881 15.9839 0.975718 12.616 1.00013 8.45151C1.02426 4.34304 4.39571 0.973755 8.55123 1.00015C12.646 1.02485 16.0058 4.37328 16 8.50147ZM1.82479 7.10629C1.83393 7.10392 1.84275 7.10044 1.85105 7.09593C2.12527 6.89567 2.4381 6.79787 2.76882 6.7421C3.29314 6.65339 3.78339 6.73486 4.24384 7.00623C4.60394 7.21912 4.92684 7.48113 5.25884 7.73192C5.51191 7.9231 5.76839 8.1096 6.06703 8.22641C6.29825 8.31667 6.53415 8.33995 6.77587 8.27182C6.81093 8.26203 6.84201 8.25139 6.8501 8.20725C6.91135 7.85693 7.08368 7.53562 7.34164 7.2908C7.35487 7.27913 7.36467 7.26406 7.36997 7.24723C7.37527 7.23039 7.37588 7.21243 7.37173 7.19528C7.32259 6.90879 7.28985 6.61973 7.27365 6.3295C7.22979 5.52859 7.26996 4.73605 7.52502 3.96721C7.68257 3.49217 7.91648 3.06028 8.26551 2.69693C8.63866 2.30847 9.09145 2.05441 9.6098 1.9149C9.71739 1.88651 9.8264 1.86252 9.94535 1.834C6.18271 0.990077 2.51035 3.53489 1.82479 7.10629ZM13.0563 3.43242C13.0563 3.51758 13.0602 3.59762 13.0563 3.67711C13.0434 3.90164 12.998 4.12312 12.9216 4.33467C12.7517 4.80503 12.4919 5.20442 12.0585 5.47849C11.7346 5.68329 11.3842 5.83048 11.0322 5.97525C10.7305 6.09972 10.4265 6.21922 10.1479 6.39224C9.88403 6.55603 9.67112 6.76324 9.5729 7.0691C9.54863 7.14475 9.55558 7.19812 9.62088 7.25503C9.87168 7.47531 10.0379 7.74924 10.1232 8.07142C10.1398 8.13415 10.1699 8.16538 10.2288 8.18794C10.8696 8.43334 11.4778 8.74247 12.0364 9.14314C12.58 9.53302 13.0555 9.98819 13.3848 10.5795C13.7088 11.1614 13.8225 11.7823 13.7165 12.4419C13.6792 12.6619 13.6222 12.8781 13.5462 13.0878C16.2614 10.0934 15.6855 5.69138 13.0563 3.43185V3.43242ZM2.01357 10.5932C3.27455 14.5146 7.4867 16.1128 10.6269 14.9739C10.6127 14.9656 10.6007 14.9579 10.5883 14.9521C10.3115 14.8216 10.087 14.6269 9.88829 14.3964C9.50349 13.95 9.31088 13.4392 9.33473 12.8465C9.34736 12.5292 9.38866 12.2156 9.42841 11.9016C9.47227 11.5547 9.52663 11.2087 9.49412 10.8565C9.46801 10.5748 9.3793 10.3222 9.1759 10.1168C9.13545 10.0759 9.1011 10.0661 9.0456 10.0857C8.73394 10.1982 8.39495 10.2106 8.07588 10.1213C8.00321 10.1014 7.95495 10.1145 7.89789 10.1609C7.35938 10.5982 6.78041 10.9723 6.14552 11.2549C5.50325 11.5408 4.8387 11.7254 4.12575 11.6847C3.54172 11.6513 3.0175 11.4577 2.55308 11.104C2.35626 10.9522 2.17527 10.7809 2.01286 10.5927L2.01357 10.5932ZM4.41658 11.0169C4.57263 11.0108 4.72799 10.9928 4.88128 10.963C5.0371 10.9341 5.19075 10.8945 5.34116 10.8446C6.06675 10.6069 6.71058 10.2194 7.3168 9.76309C7.36207 9.72902 7.34518 9.71072 7.31609 9.68233C7.13524 9.50386 6.99819 9.28593 6.91568 9.04563C6.8802 8.94628 6.88034 8.94628 6.77289 8.96445C6.52944 9.00452 6.2802 8.99135 6.04234 8.92584C5.70168 8.83373 5.40205 8.65972 5.11534 8.46059C4.78122 8.22854 4.47307 7.96142 4.13597 7.73334C3.93342 7.59638 3.72435 7.47119 3.48305 7.41456C3.17434 7.34189 2.87116 7.39512 2.57351 7.47815C2.35606 7.53875 2.16956 7.65443 2.05047 7.85426C1.80478 8.26671 1.76773 8.70031 1.93692 9.14867C2.09206 9.56027 2.32427 9.92617 2.62021 10.2513C3.10124 10.7803 3.69837 11.04 4.41558 11.0163L4.41658 11.0169ZM13.0822 11.9705C13.0791 11.7661 13.0486 11.5629 12.9913 11.3666C12.8298 10.8327 12.4988 10.4121 12.091 10.0477C11.5363 9.55189 10.8939 9.19792 10.2137 8.90682C10.1529 8.88085 10.1307 8.89603 10.1144 8.9555C10.0463 9.20775 9.91711 9.43934 9.73826 9.62981C9.70348 9.66728 9.70306 9.69099 9.73826 9.73016C9.9172 9.93353 10.0439 10.1775 10.1073 10.4408C10.1892 10.7685 10.191 11.1006 10.1625 11.4343C10.1249 11.8723 10.0394 12.3051 10.0146 12.7443C9.99786 13.0376 10.0098 13.329 10.1533 13.5944C10.2677 13.8077 10.4179 13.9998 10.5976 14.1621C10.7152 14.268 10.8464 14.3558 11.0035 14.3849C11.4059 14.4593 11.7678 14.3544 12.0895 14.1103C12.3449 13.9161 12.5174 13.6518 12.6714 13.3761C12.9133 12.9423 13.0705 12.4835 13.0815 11.97L13.0822 11.9705ZM7.93252 5.92018C7.92656 6.14599 7.96261 6.47754 7.99512 6.80923C8.00108 6.87097 8.02067 6.89254 8.08894 6.87423C8.33889 6.8062 8.60183 6.80132 8.85413 6.86004C8.90934 6.87267 8.93475 6.86004 8.95249 6.80525C9.00707 6.641 9.08862 6.48699 9.19378 6.34952C9.44927 6.01044 9.79816 5.79684 10.171 5.61517C10.5518 5.42966 10.954 5.29284 11.3349 5.10904C11.5832 4.98954 11.8272 4.85896 12.002 4.63869C12.1919 4.39925 12.3012 4.11979 12.362 3.82202C12.4161 3.55774 12.3607 3.31802 12.202 3.09732C11.9695 2.774 11.6612 2.57345 11.2713 2.49951C10.8861 2.42641 10.4993 2.43777 10.1137 2.49482C9.77303 2.54507 9.45183 2.6535 9.15802 2.83546C8.66393 3.14189 8.36643 3.59748 8.17978 4.13512C7.99157 4.67928 7.93408 5.24132 7.93252 5.92018ZM9.50562 8.49721C9.50449 7.94723 9.05142 7.49546 8.50184 7.4949C7.94828 7.4949 7.49408 7.94907 7.49564 8.5026C7.49706 9.05216 7.94984 9.50463 8.49985 9.50492C9.05284 9.50492 9.50662 9.05074 9.50562 8.49721Z"/>
</mask>
<path d="M16 8.50147C16.0057 12.6363 12.6186 16.0163 8.46862 15.9999C4.35881 15.9839 0.975718 12.616 1.00013 8.45151C1.02426 4.34304 4.39571 0.973755 8.55123 1.00015C12.646 1.02485 16.0058 4.37328 16 8.50147ZM1.82479 7.10629C1.83393 7.10392 1.84275 7.10044 1.85105 7.09593C2.12527 6.89567 2.4381 6.79787 2.76882 6.7421C3.29314 6.65339 3.78339 6.73486 4.24384 7.00623C4.60394 7.21912 4.92684 7.48113 5.25884 7.73192C5.51191 7.9231 5.76839 8.1096 6.06703 8.22641C6.29825 8.31667 6.53415 8.33995 6.77587 8.27182C6.81093 8.26203 6.84201 8.25139 6.8501 8.20725C6.91135 7.85693 7.08368 7.53562 7.34164 7.2908C7.35487 7.27913 7.36467 7.26406 7.36997 7.24723C7.37527 7.23039 7.37588 7.21243 7.37173 7.19528C7.32259 6.90879 7.28985 6.61973 7.27365 6.3295C7.22979 5.52859 7.26996 4.73605 7.52502 3.96721C7.68257 3.49217 7.91648 3.06028 8.26551 2.69693C8.63866 2.30847 9.09145 2.05441 9.6098 1.9149C9.71739 1.88651 9.8264 1.86252 9.94535 1.834C6.18271 0.990077 2.51035 3.53489 1.82479 7.10629ZM13.0563 3.43242C13.0563 3.51758 13.0602 3.59762 13.0563 3.67711C13.0434 3.90164 12.998 4.12312 12.9216 4.33467C12.7517 4.80503 12.4919 5.20442 12.0585 5.47849C11.7346 5.68329 11.3842 5.83048 11.0322 5.97525C10.7305 6.09972 10.4265 6.21922 10.1479 6.39224C9.88403 6.55603 9.67112 6.76324 9.5729 7.0691C9.54863 7.14475 9.55558 7.19812 9.62088 7.25503C9.87168 7.47531 10.0379 7.74924 10.1232 8.07142C10.1398 8.13415 10.1699 8.16538 10.2288 8.18794C10.8696 8.43334 11.4778 8.74247 12.0364 9.14314C12.58 9.53302 13.0555 9.98819 13.3848 10.5795C13.7088 11.1614 13.8225 11.7823 13.7165 12.4419C13.6792 12.6619 13.6222 12.8781 13.5462 13.0878C16.2614 10.0934 15.6855 5.69138 13.0563 3.43185V3.43242ZM2.01357 10.5932C3.27455 14.5146 7.4867 16.1128 10.6269 14.9739C10.6127 14.9656 10.6007 14.9579 10.5883 14.9521C10.3115 14.8216 10.087 14.6269 9.88829 14.3964C9.50349 13.95 9.31088 13.4392 9.33473 12.8465C9.34736 12.5292 9.38866 12.2156 9.42841 11.9016C9.47227 11.5547 9.52663 11.2087 9.49412 10.8565C9.46801 10.5748 9.3793 10.3222 9.1759 10.1168C9.13545 10.0759 9.1011 10.0661 9.0456 10.0857C8.73394 10.1982 8.39495 10.2106 8.07588 10.1213C8.00321 10.1014 7.95495 10.1145 7.89789 10.1609C7.35938 10.5982 6.78041 10.9723 6.14552 11.2549C5.50325 11.5408 4.8387 11.7254 4.12575 11.6847C3.54172 11.6513 3.0175 11.4577 2.55308 11.104C2.35626 10.9522 2.17527 10.7809 2.01286 10.5927L2.01357 10.5932ZM4.41658 11.0169C4.57263 11.0108 4.72799 10.9928 4.88128 10.963C5.0371 10.9341 5.19075 10.8945 5.34116 10.8446C6.06675 10.6069 6.71058 10.2194 7.3168 9.76309C7.36207 9.72902 7.34518 9.71072 7.31609 9.68233C7.13524 9.50386 6.99819 9.28593 6.91568 9.04563C6.8802 8.94628 6.88034 8.94628 6.77289 8.96445C6.52944 9.00452 6.2802 8.99135 6.04234 8.92584C5.70168 8.83373 5.40205 8.65972 5.11534 8.46059C4.78122 8.22854 4.47307 7.96142 4.13597 7.73334C3.93342 7.59638 3.72435 7.47119 3.48305 7.41456C3.17434 7.34189 2.87116 7.39512 2.57351 7.47815C2.35606 7.53875 2.16956 7.65443 2.05047 7.85426C1.80478 8.26671 1.76773 8.70031 1.93692 9.14867C2.09206 9.56027 2.32427 9.92617 2.62021 10.2513C3.10124 10.7803 3.69837 11.04 4.41558 11.0163L4.41658 11.0169ZM13.0822 11.9705C13.0791 11.7661 13.0486 11.5629 12.9913 11.3666C12.8298 10.8327 12.4988 10.4121 12.091 10.0477C11.5363 9.55189 10.8939 9.19792 10.2137 8.90682C10.1529 8.88085 10.1307 8.89603 10.1144 8.9555C10.0463 9.20775 9.91711 9.43934 9.73826 9.62981C9.70348 9.66728 9.70306 9.69099 9.73826 9.73016C9.9172 9.93353 10.0439 10.1775 10.1073 10.4408C10.1892 10.7685 10.191 11.1006 10.1625 11.4343C10.1249 11.8723 10.0394 12.3051 10.0146 12.7443C9.99786 13.0376 10.0098 13.329 10.1533 13.5944C10.2677 13.8077 10.4179 13.9998 10.5976 14.1621C10.7152 14.268 10.8464 14.3558 11.0035 14.3849C11.4059 14.4593 11.7678 14.3544 12.0895 14.1103C12.3449 13.9161 12.5174 13.6518 12.6714 13.3761C12.9133 12.9423 13.0705 12.4835 13.0815 11.97L13.0822 11.9705ZM7.93252 5.92018C7.92656 6.14599 7.96261 6.47754 7.99512 6.80923C8.00108 6.87097 8.02067 6.89254 8.08894 6.87423C8.33889 6.8062 8.60183 6.80132 8.85413 6.86004C8.90934 6.87267 8.93475 6.86004 8.95249 6.80525C9.00707 6.641 9.08862 6.48699 9.19378 6.34952C9.44927 6.01044 9.79816 5.79684 10.171 5.61517C10.5518 5.42966 10.954 5.29284 11.3349 5.10904C11.5832 4.98954 11.8272 4.85896 12.002 4.63869C12.1919 4.39925 12.3012 4.11979 12.362 3.82202C12.4161 3.55774 12.3607 3.31802 12.202 3.09732C11.9695 2.774 11.6612 2.57345 11.2713 2.49951C10.8861 2.42641 10.4993 2.43777 10.1137 2.49482C9.77303 2.54507 9.45183 2.6535 9.15802 2.83546C8.66393 3.14189 8.36643 3.59748 8.17978 4.13512C7.99157 4.67928 7.93408 5.24132 7.93252 5.92018ZM9.50562 8.49721C9.50449 7.94723 9.05142 7.49546 8.50184 7.4949C7.94828 7.4949 7.49408 7.94907 7.49564 8.5026C7.49706 9.05216 7.94984 9.50463 8.49985 9.50492C9.05284 9.50492 9.50662 9.05074 9.50562 8.49721Z" fill="#363BC4"/>
<path d="M16 8.50147C16.0057 12.6363 12.6186 16.0163 8.46862 15.9999C4.35881 15.9839 0.975718 12.616 1.00013 8.45151C1.02426 4.34304 4.39571 0.973755 8.55123 1.00015C12.646 1.02485 16.0058 4.37328 16 8.50147ZM1.82479 7.10629C1.83393 7.10392 1.84275 7.10044 1.85105 7.09593C2.12527 6.89567 2.4381 6.79787 2.76882 6.7421C3.29314 6.65339 3.78339 6.73486 4.24384 7.00623C4.60394 7.21912 4.92684 7.48113 5.25884 7.73192C5.51191 7.9231 5.76839 8.1096 6.06703 8.22641C6.29825 8.31667 6.53415 8.33995 6.77587 8.27182C6.81093 8.26203 6.84201 8.25139 6.8501 8.20725C6.91135 7.85693 7.08368 7.53562 7.34164 7.2908C7.35487 7.27913 7.36467 7.26406 7.36997 7.24723C7.37527 7.23039 7.37588 7.21243 7.37173 7.19528C7.32259 6.90879 7.28985 6.61973 7.27365 6.3295C7.22979 5.52859 7.26996 4.73605 7.52502 3.96721C7.68257 3.49217 7.91648 3.06028 8.26551 2.69693C8.63866 2.30847 9.09145 2.05441 9.6098 1.9149C9.71739 1.88651 9.8264 1.86252 9.94535 1.834C6.18271 0.990077 2.51035 3.53489 1.82479 7.10629ZM13.0563 3.43242C13.0563 3.51758 13.0602 3.59762 13.0563 3.67711C13.0434 3.90164 12.998 4.12312 12.9216 4.33467C12.7517 4.80503 12.4919 5.20442 12.0585 5.47849C11.7346 5.68329 11.3842 5.83048 11.0322 5.97525C10.7305 6.09972 10.4265 6.21922 10.1479 6.39224C9.88403 6.55603 9.67112 6.76324 9.5729 7.0691C9.54863 7.14475 9.55558 7.19812 9.62088 7.25503C9.87168 7.47531 10.0379 7.74924 10.1232 8.07142C10.1398 8.13415 10.1699 8.16538 10.2288 8.18794C10.8696 8.43334 11.4778 8.74247 12.0364 9.14314C12.58 9.53302 13.0555 9.98819 13.3848 10.5795C13.7088 11.1614 13.8225 11.7823 13.7165 12.4419C13.6792 12.6619 13.6222 12.8781 13.5462 13.0878C16.2614 10.0934 15.6855 5.69138 13.0563 3.43185V3.43242ZM2.01357 10.5932C3.27455 14.5146 7.4867 16.1128 10.6269 14.9739C10.6127 14.9656 10.6007 14.9579 10.5883 14.9521C10.3115 14.8216 10.087 14.6269 9.88829 14.3964C9.50349 13.95 9.31088 13.4392 9.33473 12.8465C9.34736 12.5292 9.38866 12.2156 9.42841 11.9016C9.47227 11.5547 9.52663 11.2087 9.49412 10.8565C9.46801 10.5748 9.3793 10.3222 9.1759 10.1168C9.13545 10.0759 9.1011 10.0661 9.0456 10.0857C8.73394 10.1982 8.39495 10.2106 8.07588 10.1213C8.00321 10.1014 7.95495 10.1145 7.89789 10.1609C7.35938 10.5982 6.78041 10.9723 6.14552 11.2549C5.50325 11.5408 4.8387 11.7254 4.12575 11.6847C3.54172 11.6513 3.0175 11.4577 2.55308 11.104C2.35626 10.9522 2.17527 10.7809 2.01286 10.5927L2.01357 10.5932ZM4.41658 11.0169C4.57263 11.0108 4.72799 10.9928 4.88128 10.963C5.0371 10.9341 5.19075 10.8945 5.34116 10.8446C6.06675 10.6069 6.71058 10.2194 7.3168 9.76309C7.36207 9.72902 7.34518 9.71072 7.31609 9.68233C7.13524 9.50386 6.99819 9.28593 6.91568 9.04563C6.8802 8.94628 6.88034 8.94628 6.77289 8.96445C6.52944 9.00452 6.2802 8.99135 6.04234 8.92584C5.70168 8.83373 5.40205 8.65972 5.11534 8.46059C4.78122 8.22854 4.47307 7.96142 4.13597 7.73334C3.93342 7.59638 3.72435 7.47119 3.48305 7.41456C3.17434 7.34189 2.87116 7.39512 2.57351 7.47815C2.35606 7.53875 2.16956 7.65443 2.05047 7.85426C1.80478 8.26671 1.76773 8.70031 1.93692 9.14867C2.09206 9.56027 2.32427 9.92617 2.62021 10.2513C3.10124 10.7803 3.69837 11.04 4.41558 11.0163L4.41658 11.0169ZM13.0822 11.9705C13.0791 11.7661 13.0486 11.5629 12.9913 11.3666C12.8298 10.8327 12.4988 10.4121 12.091 10.0477C11.5363 9.55189 10.8939 9.19792 10.2137 8.90682C10.1529 8.88085 10.1307 8.89603 10.1144 8.9555C10.0463 9.20775 9.91711 9.43934 9.73826 9.62981C9.70348 9.66728 9.70306 9.69099 9.73826 9.73016C9.9172 9.93353 10.0439 10.1775 10.1073 10.4408C10.1892 10.7685 10.191 11.1006 10.1625 11.4343C10.1249 11.8723 10.0394 12.3051 10.0146 12.7443C9.99786 13.0376 10.0098 13.329 10.1533 13.5944C10.2677 13.8077 10.4179 13.9998 10.5976 14.1621C10.7152 14.268 10.8464 14.3558 11.0035 14.3849C11.4059 14.4593 11.7678 14.3544 12.0895 14.1103C12.3449 13.9161 12.5174 13.6518 12.6714 13.3761C12.9133 12.9423 13.0705 12.4835 13.0815 11.97L13.0822 11.9705ZM7.93252 5.92018C7.92656 6.14599 7.96261 6.47754 7.99512 6.80923C8.00108 6.87097 8.02067 6.89254 8.08894 6.87423C8.33889 6.8062 8.60183 6.80132 8.85413 6.86004C8.90934 6.87267 8.93475 6.86004 8.95249 6.80525C9.00707 6.641 9.08862 6.48699 9.19378 6.34952C9.44927 6.01044 9.79816 5.79684 10.171 5.61517C10.5518 5.42966 10.954 5.29284 11.3349 5.10904C11.5832 4.98954 11.8272 4.85896 12.002 4.63869C12.1919 4.39925 12.3012 4.11979 12.362 3.82202C12.4161 3.55774 12.3607 3.31802 12.202 3.09732C11.9695 2.774 11.6612 2.57345 11.2713 2.49951C10.8861 2.42641 10.4993 2.43777 10.1137 2.49482C9.77303 2.54507 9.45183 2.6535 9.15802 2.83546C8.66393 3.14189 8.36643 3.59748 8.17978 4.13512C7.99157 4.67928 7.93408 5.24132 7.93252 5.92018ZM9.50562 8.49721C9.50449 7.94723 9.05142 7.49546 8.50184 7.4949C7.94828 7.4949 7.49408 7.94907 7.49564 8.5026C7.49706 9.05216 7.94984 9.50463 8.49985 9.50492C9.05284 9.50492 9.50662 9.05074 9.50562 8.49721Z" stroke="#363BC4" stroke-width="0.6" mask="url(#path-1-outside-1_2061_16788)"/>
</svg>
