<svg width="26" height="32" viewBox="0 0 26 32" fill="none" xmlns="http://www.w3.org/2000/svg">
<path d="M12.8 1.60234e-08C9.42729 -0.000168623 6.19081 1.33081 3.79399 3.70365C1.39717 6.0765 0.0337271 9.29943 0 12.672C0 21.4399 11.28 31.1999 11.76 31.6159C12.0498 31.8638 12.4186 32 12.8 32C13.1814 32 13.5502 31.8638 13.84 31.6159C14.4 31.1999 25.6 21.4399 25.6 12.672C25.5663 9.29943 24.2028 6.0765 21.806 3.70365C19.4092 1.33081 16.1727 -0.000168623 12.8 1.60234e-08Z" fill="#383FB8"/>
<rect x="11.3777" y="15.3662" width="2.84444" height="5.93623" fill="white"/>
<path fill-rule="evenodd" clip-rule="evenodd" d="M8.5333 4.97778H17.0666C17.6324 4.97778 18.175 5.21232 18.5751 5.62979C18.9752 6.04726 19.2 6.61348 19.2 7.20387V19.8184C19.2 20.4088 18.9752 20.975 18.5751 21.3924C18.175 21.8099 17.6324 22.0445 17.0666 22.0445H14.9333V15.6242C14.9333 15.0719 14.4856 14.6242 13.9333 14.6242H11.6666C11.1143 14.6242 10.6666 15.0719 10.6666 15.6242V22.0445H8.5333C7.9675 22.0445 7.42488 21.8099 7.0248 21.3924C6.62472 20.975 6.39996 20.4088 6.39996 19.8184V7.20387C6.39996 6.61348 6.62472 6.04726 7.0248 5.62979C7.42488 5.21232 7.9675 4.97778 8.5333 4.97778ZM7.82275 7.20387H12.0894V8.68793H7.82275V7.20387ZM7.82259 10.172H12.0893V11.656H7.82259V10.172ZM17.7781 7.20387H13.5114V8.68793H17.7781V7.20387ZM13.5114 10.172H17.7781V11.656H13.5114V10.172Z" fill="white"/>
</svg>
