<svg width="17" height="23" viewBox="0 0 17 23" fill="none" xmlns="http://www.w3.org/2000/svg">
<path d="M10.498 13.0378C10.6594 12.9964 10.9064 12.9476 11.0482 12.9281C11.19 12.9086 11.4663 12.8939 11.6669 12.8915C11.8649 12.8891 12.151 12.9061 12.3026 12.9256C12.4518 12.9452 12.7036 12.9939 12.8577 13.033C13.0117 13.0696 13.2489 13.1427 13.3834 13.1939C13.5179 13.2427 13.7379 13.3403 13.8724 13.4086C14.0069 13.4793 14.2099 13.5964 14.3248 13.672C14.4397 13.7452 14.6158 13.8744 14.716 13.9549C14.8163 14.0354 15.0143 14.2232 15.4129 14.6403L15.9631 14.1403C16.2663 13.8647 16.5866 13.5769 16.8434 13.3525V13.8647C16.8434 14.2501 16.8507 14.3793 16.8751 14.3915C16.8972 14.4037 16.8972 14.411 16.8727 14.4354C16.8482 14.4574 16.8434 14.7598 16.8434 17.2306H14.7527C13.6035 17.2306 12.6572 17.2233 12.6498 17.2135C12.6449 17.2014 12.9433 16.9135 13.3149 16.5721C13.6841 16.2306 14.0216 15.9233 14.1341 15.8282L13.9898 15.6452C13.9091 15.5452 13.7722 15.3964 13.6866 15.3159C13.601 15.2355 13.4567 15.1184 13.3712 15.0574C13.2831 14.994 13.1413 14.9037 13.0533 14.8574C12.9653 14.8086 12.7941 14.7306 12.6743 14.6842C12.5545 14.6379 12.3393 14.5769 12.1975 14.5452C11.997 14.5037 11.86 14.4915 11.5739 14.4915C11.2878 14.4915 11.1509 14.5037 10.9504 14.5452C10.8086 14.5769 10.5934 14.6379 10.4736 14.6842C10.3538 14.7306 10.1826 14.8086 10.0946 14.8574C10.0066 14.9037 9.86962 14.9915 9.78893 15.0476C9.70824 15.1062 9.55664 15.233 9.44905 15.3306C9.3439 15.4306 9.18741 15.6038 9.10183 15.7184C9.01624 15.833 8.89154 16.0355 8.82552 16.1696C8.75705 16.3038 8.67391 16.5013 8.63968 16.6087C8.60545 16.716 8.55899 16.8965 8.53698 17.0111C8.51253 17.1428 8.49786 17.3453 8.49786 17.5599C8.49786 17.7745 8.51253 17.977 8.53698 18.1087C8.55899 18.2233 8.60545 18.4038 8.64213 18.5111C8.67636 18.6185 8.74727 18.7941 8.79862 18.9014C8.84997 19.0087 8.95267 19.1843 9.02358 19.2916C9.09449 19.399 9.26321 19.5965 9.3977 19.7307C9.53218 19.8648 9.73514 20.0356 9.85006 20.1112C9.96499 20.1868 10.1264 20.2844 10.212 20.3258C10.2951 20.3673 10.4589 20.4331 10.5763 20.4722C10.6961 20.5112 10.8795 20.5624 10.9871 20.5868C11.1265 20.6161 11.2952 20.6283 11.5739 20.6283C11.8527 20.6283 12.0214 20.6161 12.1608 20.5868C12.2684 20.5624 12.4518 20.5112 12.5716 20.4722C12.6889 20.4331 12.8528 20.3673 12.9384 20.3258C13.0215 20.2844 13.178 20.1917 13.2856 20.1209C13.3932 20.0502 13.5497 19.9307 13.7868 19.7185H14.8994C15.7724 19.7185 16.012 19.7258 16.012 19.7502C16.012 19.7648 15.9655 19.8624 15.9117 19.9624C15.8555 20.0624 15.7455 20.2453 15.6623 20.3648C15.5816 20.4844 15.4202 20.6941 15.3053 20.8258C15.1904 20.9575 15.007 21.1453 14.8994 21.238C14.7918 21.3332 14.628 21.4673 14.5326 21.538C14.4373 21.6088 14.2343 21.7405 14.0803 21.8283C13.9262 21.9161 13.6841 22.0356 13.5423 22.0966C13.4005 22.1551 13.1853 22.2307 13.0655 22.2673C12.9457 22.3015 12.7403 22.3503 12.6131 22.3771C12.486 22.4039 12.2219 22.4381 12.0263 22.4527C11.7549 22.4746 11.5959 22.4746 11.3416 22.4527C11.1607 22.4381 10.8795 22.399 10.7181 22.3649C10.5567 22.3332 10.2951 22.2624 10.1386 22.2063C9.97966 22.1527 9.73758 22.0527 9.60065 21.9844C9.46127 21.9161 9.28277 21.821 9.20208 21.7722C9.12139 21.7234 8.95511 21.6112 8.8353 21.5234C8.71548 21.4332 8.51742 21.2697 8.39761 21.1551C8.27779 21.0429 8.09685 20.8502 7.99659 20.7307C7.89389 20.6112 7.74718 20.4112 7.66649 20.2917C7.58824 20.1722 7.46843 19.9673 7.40485 19.8404C7.34128 19.7136 7.24836 19.499 7.19701 19.3648C7.14566 19.2307 7.0723 18.9941 7.03562 18.8404C6.9965 18.6868 6.9476 18.4355 6.92804 18.2867C6.90847 18.1355 6.89136 17.8575 6.89136 17.6697C6.89136 17.4818 6.90847 17.2038 6.93048 17.055C6.95004 16.9038 6.98917 16.6916 7.01362 16.5843C7.03807 16.4769 7.09431 16.2843 7.13588 16.1574C7.17745 16.0306 7.29971 15.7501 7.40485 15.5355C7.51244 15.3208 7.67382 15.0428 7.7643 14.9159C7.85721 14.7891 8.0186 14.5867 8.12863 14.4647C8.23622 14.3428 8.41717 14.1647 8.53209 14.0696C8.64457 13.972 8.82552 13.833 8.93311 13.7549C9.0407 13.6793 9.23387 13.5574 9.36102 13.4866C9.48817 13.4135 9.73025 13.3013 9.89896 13.233C10.0677 13.1647 10.3367 13.0769 10.498 13.0378Z" fill="#363BC4"/>
<path fill-rule="evenodd" clip-rule="evenodd" d="M1.66256 0C1.20238 0 0.773655 0.19552 0.466962 0.52266C0.162094 0.847853 0 1.2773 0 1.71398V16.5228C0 16.9595 0.162093 17.3889 0.466962 17.7141C0.773657 18.0412 1.20238 18.2368 1.66256 18.2368H5.90105C5.89456 18.1224 5.89127 18.0072 5.89127 17.8913C5.89127 17.3959 5.95129 16.9146 6.06446 16.4542H1.78254V1.78254H12.3407V11.9078C12.9664 11.9542 13.5655 12.0965 14.1232 12.3201V1.71398C14.1232 1.2773 13.9611 0.847854 13.6562 0.52266C13.3495 0.195519 12.9208 0 12.4606 0H1.66256ZM10.5239 12.0478C10.6054 11.9132 10.6524 11.7553 10.6524 11.5865C10.6524 11.0943 10.2534 10.6952 9.76112 10.6952H4.36208C3.86985 10.6952 3.47081 11.0943 3.47081 11.5865C3.47081 12.0787 3.86985 12.4778 4.36208 12.4778H9.30074C9.68733 12.2925 10.0969 12.1473 10.5239 12.0478ZM7.77745 13.5236C7.61502 13.305 7.35485 13.1634 7.0616 13.1634H4.36208C3.86985 13.1634 3.47081 13.5624 3.47081 14.0546C3.47081 14.5469 3.86985 14.9459 4.36208 14.9459H6.66273C6.96149 14.4167 7.33827 13.9374 7.77745 13.5236ZM6.16923 3.98389C5.83257 3.62479 5.26855 3.6066 4.90944 3.94325C4.55034 4.27991 4.53215 4.84394 4.8688 5.20305L5.83991 6.23889L4.8688 7.27474C4.53215 7.63384 4.55034 8.19787 4.90944 8.53453C5.26855 8.87119 5.83257 8.85299 6.16923 8.49389L7.0616 7.54203L7.95397 8.49389C8.29063 8.85299 8.85466 8.87119 9.21376 8.53453C9.57287 8.19787 9.59106 7.63384 9.2544 7.27474L8.2833 6.23889L9.2544 5.20305C9.59106 4.84394 9.57287 4.27991 9.21376 3.94325C8.85466 3.6066 8.29063 3.62479 7.95397 3.98389L7.0616 4.93575L6.16923 3.98389Z" fill="#363BC4"/>
</svg>
