<svg width="31" height="21" viewBox="0 0 31 21" fill="none" xmlns="http://www.w3.org/2000/svg">
<path d="M3.52138 9.99994C2.71202 10.0042 1.92596 9.76785 1.29703 9.33119C0.668093 8.89453 0.235157 8.28453 0.0719238 7.60504C-0.0913094 6.92554 0.0252507 6.21856 0.401761 5.60444C0.778271 4.99032 1.39146 4.50704 2.13693 4.23686C2.8824 3.96668 3.71408 3.9263 4.49037 4.12261C5.26667 4.31892 5.9396 4.73977 6.39459 5.31352C6.84959 5.88727 7.05854 6.57845 6.98585 7.2694C6.91317 7.96035 6.56336 8.60835 5.99597 9.10308C5.67309 9.38531 5.28816 9.60989 4.86341 9.76383C4.43866 9.91777 3.98253 9.99802 3.52138 9.99994V9.99994ZM3.52138 6.2421C3.28669 6.24236 3.06141 6.32121 2.89358 6.46183C2.76993 6.56781 2.68572 6.70285 2.6516 6.84986C2.61748 6.99687 2.63499 7.14924 2.70191 7.28772C2.76883 7.4262 2.88215 7.54456 3.02755 7.62784C3.17295 7.71111 3.34389 7.75556 3.51876 7.75556C3.69363 7.75556 3.86458 7.71111 4.00998 7.62784C4.15537 7.54456 4.2687 7.4262 4.33562 7.28772C4.40254 7.14924 4.42005 6.99687 4.38593 6.84986C4.35181 6.70285 4.2676 6.56781 4.14395 6.46183C4.0645 6.38766 3.96842 6.328 3.86145 6.28639C3.75448 6.24478 3.63882 6.22209 3.52138 6.21968V6.2421Z" fill="#7D7D7D"/>
<path d="M25.0121 8.99997C24.3174 9.00325 23.6432 8.72509 23.1046 8.21299C22.5661 7.70089 22.1966 6.98659 22.0592 6.19204C21.9219 5.39749 22.0251 4.57194 22.3514 3.85632C22.6777 3.14071 23.2067 2.5794 23.8483 2.26821C24.4898 1.95703 25.204 1.91526 25.869 2.15004C26.5339 2.38482 27.1085 2.8816 27.4944 3.55556C27.8804 4.22952 28.0539 5.03888 27.9853 5.84548C27.9168 6.65208 27.6103 7.4059 27.1184 7.97826C26.5596 8.63007 25.8023 8.99738 25.0121 8.99997ZM25.0121 4.61449C24.8364 4.61449 24.6661 4.68564 24.5303 4.81578C24.3945 4.94593 24.3017 5.12701 24.2676 5.32813C24.2335 5.52925 24.2602 5.73795 24.3433 5.91861C24.4264 6.09927 24.5606 6.24069 24.7231 6.31875C24.8856 6.39682 25.0663 6.40667 25.2343 6.34665C25.4024 6.28662 25.5473 6.16043 25.6445 5.9896C25.7417 5.81878 25.785 5.61391 25.7672 5.40995C25.7493 5.206 25.6713 5.01559 25.5466 4.87123C25.4763 4.78956 25.3929 4.72484 25.3012 4.68079C25.2095 4.63674 25.1113 4.61421 25.0121 4.61449V4.61449Z" fill="#7D7D7D"/>
<path d="M14.9817 14.9999C14.5864 14.9983 14.1953 14.9181 13.8312 14.7642C13.4671 14.6102 13.1372 14.3855 12.8606 14.1031V14.1031C12.3743 13.6083 12.0744 12.9603 12.0121 12.2694C11.9498 11.5785 12.1289 10.8873 12.5189 10.3135C12.9089 9.73977 13.4857 9.31892 14.1511 9.12261C14.8165 8.9263 15.5294 8.96668 16.1683 9.23686C16.8073 9.50704 17.3329 9.99032 17.6556 10.6044C17.9784 11.2186 18.0783 11.9255 17.9384 12.605C17.7984 13.2845 17.4273 13.8945 16.8883 14.3312C16.3492 14.7679 15.6754 15.0042 14.9817 14.9999V14.9999ZM14.9817 11.2421C14.8315 11.2421 14.6847 11.2867 14.56 11.3703C14.4352 11.4538 14.3381 11.5725 14.2809 11.7114C14.2237 11.8502 14.2091 12.0029 14.2389 12.1501C14.2686 12.2973 14.3414 12.4323 14.448 12.5381V12.5381C14.5913 12.678 14.7836 12.7564 14.9839 12.7564C15.1842 12.7564 15.3765 12.678 15.5198 12.5381C15.59 12.4672 15.6456 12.3832 15.6833 12.2909C15.721 12.1986 15.7401 12.0997 15.7395 11.9999C15.7403 11.9008 15.7212 11.8026 15.6835 11.711C15.6457 11.6193 15.5901 11.5362 15.5198 11.4663C15.3762 11.3253 15.1829 11.2464 14.9817 11.2466V11.2421Z" fill="#7D7D7D"/>
<path d="M12.9995 6C12.6042 5.99808 12.2133 5.91807 11.8492 5.76459C11.4851 5.61111 11.1552 5.3872 10.8784 5.10581V5.10581C10.316 4.5449 10 3.78422 10 2.99106C10 2.1979 10.316 1.43722 10.8784 0.876304C11.2273 0.528426 11.6568 0.271698 12.1289 0.128864C12.601 -0.01397 13.1012 -0.0385004 13.5851 0.0574459C14.069 0.153392 14.5218 0.366853 14.9032 0.678918C15.2846 0.990983 15.5829 1.39202 15.7717 1.8465C15.9605 2.30097 16.0339 2.79486 15.9855 3.28441C15.9371 3.77395 15.7684 4.24404 15.4943 4.65303C15.2201 5.06202 14.849 5.39728 14.4139 5.62912C13.9787 5.86095 13.4929 5.9822 12.9995 5.98212V6ZM12.9995 2.25335C12.8499 2.25335 12.7036 2.29751 12.5791 2.38025C12.4546 2.463 12.3575 2.58063 12.3 2.71833C12.2424 2.85603 12.227 3.00763 12.2558 3.15402C12.2845 3.30042 12.356 3.43506 12.4614 3.54098V3.54098C12.6035 3.68268 12.7963 3.76229 12.9973 3.76229C13.1983 3.76229 13.391 3.68268 13.5331 3.54098C13.6073 3.47309 13.667 3.39097 13.7086 3.29956C13.7502 3.20814 13.7729 3.1093 13.7753 3.00894C13.7748 2.80755 13.6942 2.61459 13.5511 2.47243C13.479 2.40035 13.3929 2.34374 13.298 2.30606C13.2031 2.26839 13.1016 2.25045 12.9995 2.25335V2.25335Z" fill="#7D7D7D"/>
<path d="M17.0808 12C16.8531 12.0007 16.631 11.923 16.4465 11.778C16.2619 11.6331 16.1244 11.4283 16.0535 11.1931C15.9827 10.958 15.9822 10.7044 16.0521 10.4689C16.122 10.2334 16.2588 10.028 16.4428 9.88219L22.2756 5.23428C22.5043 5.04788 22.7917 4.96784 23.0747 5.01178C23.3576 5.05571 23.6129 5.22002 23.7844 5.46855C23.9559 5.71707 24.0296 6.02947 23.9892 6.33701C23.9487 6.64455 23.7976 6.92204 23.5689 7.10844L17.7188 11.7704C17.5341 11.9189 17.3106 11.9993 17.0808 12V12Z" fill="#7D7D7D"/>
<path d="M14.6956 12C14.4025 11.9987 14.1184 11.9054 13.8889 11.7352C13.6593 11.565 13.4978 11.3277 13.43 11.0614L12.0343 5.49333C11.9953 5.33783 11.9895 5.17668 12.0172 5.01909C12.0449 4.86149 12.1056 4.71054 12.1958 4.57484C12.286 4.43914 12.4039 4.32136 12.5429 4.22823C12.6818 4.13509 12.839 4.06842 13.0056 4.03201C13.3419 3.9585 13.6957 4.01275 13.9892 4.18284C14.2827 4.35292 14.4919 4.62491 14.5706 4.93896L15.9663 10.507C16.0443 10.8211 15.9856 11.1512 15.8029 11.4248C15.6203 11.6984 15.3288 11.893 14.9924 11.9659C14.8955 11.9892 14.7957 12.0007 14.6956 12V12Z" fill="#7D7D7D"/>
<path d="M5.1179 8C4.85813 7.99983 4.60651 7.90013 4.40622 7.718C4.20593 7.53587 4.06947 7.28267 4.02026 7.00185C3.97104 6.72104 4.01214 6.43012 4.1365 6.17903C4.26086 5.92794 4.46073 5.73233 4.7018 5.62577L10.4869 3.07914C10.7608 2.96551 11.0641 2.97454 11.332 3.1043C11.5998 3.23406 11.8108 3.47421 11.9197 3.77325C12.0286 4.07229 12.0267 4.40639 11.9144 4.7039C11.8021 5.00142 11.5884 5.23864 11.3191 5.36471L5.534 7.91134C5.40164 7.96958 5.26045 7.99967 5.1179 8V8Z" fill="#7D7D7D"/>
<path d="M30.1539 15.5769C30.1539 18.1047 28.1047 20.1539 25.5769 20.1539C23.0492 20.1539 21 18.1047 21 15.5769C21 13.0492 23.0492 11 25.5769 11C28.1047 11 30.1539 13.0492 30.1539 15.5769Z" fill="#7D7D7D"/>
<path fill-rule="evenodd" clip-rule="evenodd" d="M23.2919 13.2929C23.5422 13.0427 23.9479 13.0427 24.1981 13.2929L27.8597 16.9545C28.1099 17.2047 28.1099 17.6104 27.8597 17.8606C27.6094 18.1109 27.2037 18.1109 26.9535 17.8606L23.2919 14.1991C23.0417 13.9489 23.0417 13.5431 23.2919 13.2929Z" fill="#F9F9F9"/>
<path fill-rule="evenodd" clip-rule="evenodd" d="M27.8612 13.2929C28.1114 13.5431 28.1114 13.9489 27.8612 14.1991L24.1996 17.8606C23.9494 18.1109 23.5437 18.1109 23.2934 17.8606C23.0432 17.6104 23.0432 17.2047 23.2934 16.9544L26.955 13.2929C27.2052 13.0427 27.6109 13.0427 27.8612 13.2929Z" fill="#F9F9F9"/>
</svg>
