<?xml version="1.0" encoding="UTF-8" standalone="no"?>
<svg
   xmlns:dc="http://purl.org/dc/elements/1.1/"
   xmlns:cc="http://creativecommons.org/ns#"
   xmlns:rdf="http://www.w3.org/1999/02/22-rdf-syntax-ns#"
   xmlns:svg="http://www.w3.org/2000/svg"
   xmlns="http://www.w3.org/2000/svg"
   xmlns:sodipodi="http://sodipodi.sourceforge.net/DTD/sodipodi-0.dtd"
   xmlns:inkscape="http://www.inkscape.org/namespaces/inkscape"
   width="24"
   height="24"
   viewBox="0 0 24 24"
   fill="none"
   version="1.1"
   id="svg4568"
   sodipodi:docname="UnknownHealth.svg"
   inkscape:version="0.92.4 5da689c313, 2019-01-14">
  <metadata
     id="metadata4574">
    <rdf:RDF>
      <cc:Work
         rdf:about="">
        <dc:format>image/svg+xml</dc:format>
        <dc:type
           rdf:resource="http://purl.org/dc/dcmitype/StillImage" />
        <dc:title />
      </cc:Work>
    </rdf:RDF>
  </metadata>
  <defs
     id="defs4572" />
  <sodipodi:namedview
     pagecolor="#ffffff"
     bordercolor="#666666"
     borderopacity="1"
     objecttolerance="10"
     gridtolerance="10"
     guidetolerance="10"
     inkscape:pageopacity="0"
     inkscape:pageshadow="2"
     inkscape:window-width="1920"
     inkscape:window-height="950"
     id="namedview4570"
     showgrid="false"
     inkscape:zoom="8.90625"
     inkscape:cx="23.886527"
     inkscape:cy="13.391074"
     inkscape:window-x="0"
     inkscape:window-y="27"
     inkscape:window-maximized="1"
     inkscape:current-layer="svg4568" />
  <rect
     style="opacity:1;fill:#999999;fill-opacity:1;stroke:none;stroke-width:5.00031519;stroke-linejoin:round;stroke-miterlimit:4;stroke-dasharray:none;stroke-opacity:1"
     id="rect812"
     width="23.298246"
     height="23.354385"
     x="0.33684209"
     y="0.36491227"
     ry="4.04211" />
  <text
     xml:space="preserve"
     style="font-style:normal;font-weight:normal;font-size:22.92487526px;line-height:1.25;font-family:sans-serif;letter-spacing:0px;word-spacing:0px;fill:#000000;fill-opacity:1;stroke:none;stroke-width:0.57312191"
     x="6.0453615"
     y="20.395658"
     id="text816"><tspan
       sodipodi:role="line"
       id="tspan814"
       x="6.0453615"
       y="20.395658"
       style="font-style:normal;font-variant:normal;font-weight:bold;font-stretch:normal;font-family:Roboto;-inkscape-font-specification:'Roboto Bold';stroke-width:0.57312191">?</tspan></text>
  <path
     style="opacity:1;fill:#999999;fill-opacity:1;stroke:none;stroke-width:5.00031519;stroke-linejoin:round;stroke-miterlimit:4;stroke-dasharray:none;stroke-opacity:1"
     d="M 39.185547 -20.40625 C 36.946218 -20.40625 35.144531 -18.604563 35.144531 -16.365234 L 35.144531 -1.0957031 C 35.144531 1.1436258 36.946218 2.9472656 39.185547 2.9472656 L 54.400391 2.9472656 C 56.63972 2.9472656 58.441406 1.1436258 58.441406 -1.0957031 L 58.441406 -16.365234 C 58.441406 -18.604563 56.63972 -20.40625 54.400391 -20.40625 L 39.185547 -20.40625 z M 46.449219 -16.898438 C 48.031274 -16.898438 49.259697 -16.514734 50.132812 -15.746094 C 51.005928 -14.984916 51.441406 -13.905258 51.441406 -12.509766 C 51.441406 -11.875451 51.299201 -11.276136 51.015625 -10.708984 C 50.732049 -10.149295 50.236283 -9.5244429 49.527344 -8.8378906 L 48.621094 -7.9765625 C 48.053942 -7.4317982 47.728572 -6.7938274 47.646484 -6.0625 L 47.601562 -5.3808594 L 44.736328 -5.3808594 C 44.736328 -6.4256128 44.863461 -7.2575636 45.117188 -7.8769531 C 45.370913 -8.4963427 45.834232 -9.1041699 46.505859 -9.7011719 C 47.184949 -10.305636 47.6355 -10.794842 47.859375 -11.167969 C 48.083251 -11.548557 48.195312 -11.947333 48.195312 -12.365234 C 48.195312 -13.626401 47.613373 -14.255859 46.449219 -14.255859 C 45.896992 -14.255859 45.453001 -14.085463 45.117188 -13.742188 C 44.788836 -13.406373 44.616488 -12.938799 44.601562 -12.341797 L 41.355469 -12.341797 C 41.370395 -13.76714 41.829458 -14.8835 42.732422 -15.689453 C 43.64285 -16.495406 44.882089 -16.898438 46.449219 -16.898438 z M 46.224609 -3.6679688 C 46.754449 -3.6679688 47.187624 -3.5021792 47.523438 -3.1738281 C 47.866713 -2.8529396 48.039062 -2.4433485 48.039062 -1.9433594 C 48.039063 -1.4508327 47.87097 -1.0435448 47.535156 -0.72265625 C 47.206805 -0.4017677 46.769374 -0.2421875 46.224609 -0.2421875 C 45.679845 -0.2421875 45.24011 -0.4017677 44.904297 -0.72265625 C 44.575946 -1.0435448 44.412109 -1.4508327 44.412109 -1.9433594 C 44.412109 -2.4433485 44.580202 -2.8529396 44.916016 -3.1738281 C 45.259292 -3.5021792 45.694771 -3.6679688 46.224609 -3.6679688 z "
     id="rect818" />
  <path
     d="m 45.073465,23.476246 q 0,-1.56713 0.380589,-2.496214 0.380588,-0.929084 1.388029,-1.824587 1.018635,-0.906697 1.354448,-1.466387 0.335814,-0.570883 0.335814,-1.197735 0,-1.89175 -1.746231,-1.89175 -0.82834,0 -1.33206,0.514914 -0.492527,0.503721 -0.514915,1.399224 h -3.246198 q 0.02239,-2.138014 1.376836,-3.346943 1.365642,-1.208929 3.716337,-1.208929 2.373083,0 3.682756,1.15296 1.309673,1.141767 1.309673,3.235005 0,0.951472 -0.425364,1.8022 -0.425364,0.839534 -1.488773,1.869362 l -0.906697,0.861922 q -0.850728,0.817146 -0.97386,1.914137 l -0.04478,0.682821 z m -0.32462,3.436493 q 0,-0.749984 0.50372,-1.231317 0.514915,-0.492526 1.309673,-0.492526 0.794759,0 1.29848,0.492526 0.514914,0.481333 0.514914,1.231317 0,0.73879 -0.50372,1.220123 -0.492527,0.481332 -1.309674,0.481332 -0.817146,0 -1.320866,-0.481332 -0.492527,-0.481333 -0.492527,-1.220123 z"
     style="font-style:normal;font-variant:normal;font-weight:bold;font-stretch:normal;font-size:22.92487526px;line-height:1.25;font-family:Roboto;-inkscape-font-specification:'Roboto Bold';letter-spacing:0px;word-spacing:0px;fill:#999999;fill-opacity:1;stroke:none;stroke-width:0.57312191"
     id="path842"
     inkscape:connector-curvature="0" />
</svg>
