<svg width="145" height="22" viewBox="0 0 145 22" fill="none" xmlns="http://www.w3.org/2000/svg">
<path d="M138.835 18.9895C137.53 18.9895 136.419 18.6345 135.501 17.9245C134.583 17.2086 133.882 16.1724 133.397 14.8158C132.912 13.4535 132.669 11.8082 132.669 9.88014C132.669 7.96359 132.912 6.32702 133.397 4.97042C133.887 3.60805 134.592 2.56896 135.51 1.85314C136.433 1.13155 137.542 0.770752 138.835 0.770752C140.128 0.770752 141.233 1.13155 142.151 1.85314C143.075 2.56896 143.779 3.60805 144.264 4.97042C144.755 6.32702 145 7.96359 145 9.88014C145 11.8082 144.757 13.4535 144.273 14.8158C143.788 16.1724 143.086 17.2086 142.168 17.9245C141.251 18.6345 140.139 18.9895 138.835 18.9895ZM138.835 17.0845C140.128 17.0845 141.132 16.4611 141.848 15.2142C142.564 13.9672 142.922 12.1892 142.922 9.88014C142.922 8.34459 142.757 7.03706 142.428 5.95756C142.105 4.87806 141.637 4.05544 141.025 3.48971C140.419 2.92399 139.689 2.64112 138.835 2.64112C137.553 2.64112 136.551 3.27324 135.83 4.53747C135.108 5.79592 134.748 7.57681 134.748 9.88014C134.748 11.4157 134.909 12.7203 135.232 13.7941C135.556 14.8678 136.02 15.6846 136.627 16.2446C137.238 16.8045 137.974 17.0845 138.835 17.0845Z" fill="white"/>
<path d="M125.434 18.9896C124.706 18.9781 123.979 18.8395 123.251 18.574C122.524 18.3084 121.86 17.861 121.26 17.2318C120.659 16.5968 120.177 15.7395 119.814 14.66C119.45 13.5748 119.268 12.2124 119.268 10.5729C119.268 9.00272 119.415 7.61148 119.71 6.3992C120.004 5.18115 120.431 4.15648 120.991 3.3252C121.551 2.48815 122.227 1.85315 123.018 1.42019C123.814 0.987231 124.712 0.770752 125.711 0.770752C126.704 0.770752 127.587 0.969913 128.36 1.36823C129.14 1.76078 129.775 2.30919 130.265 3.01347C130.756 3.71775 131.074 4.52882 131.218 5.44669H129.105C128.909 4.65005 128.528 3.98907 127.962 3.46375C127.396 2.93843 126.646 2.67577 125.711 2.67577C124.337 2.67577 123.254 3.27325 122.463 4.46821C121.678 5.66317 121.283 7.34016 121.277 9.49918H121.416C121.739 9.00849 122.123 8.58997 122.567 8.2436C123.018 7.89146 123.514 7.62014 124.057 7.42964C124.599 7.23914 125.174 7.14389 125.78 7.14389C126.796 7.14389 127.725 7.39789 128.568 7.90589C129.411 8.40812 130.086 9.10374 130.594 9.99275C131.102 10.876 131.356 11.8891 131.356 13.0321C131.356 14.1289 131.111 15.1334 130.62 16.0455C130.13 16.9518 129.44 17.6734 128.551 18.2103C127.668 18.7414 126.628 19.0012 125.434 18.9896ZM125.434 17.0846C126.161 17.0846 126.813 16.9028 127.39 16.5391C127.974 16.1754 128.432 15.6876 128.767 15.0757C129.108 14.4638 129.278 13.7826 129.278 13.0321C129.278 12.299 129.114 11.6322 128.785 11.0318C128.461 10.4257 128.014 9.94368 127.442 9.58577C126.877 9.22786 126.23 9.0489 125.503 9.0489C124.954 9.0489 124.443 9.15858 123.97 9.37795C123.497 9.59154 123.081 9.88595 122.723 10.2612C122.371 10.6364 122.094 11.0665 121.892 11.5514C121.69 12.0305 121.589 12.5357 121.589 13.0667C121.589 13.771 121.753 14.4291 122.082 15.041C122.417 15.6529 122.873 16.1465 123.451 16.5218C124.034 16.897 124.695 17.0846 125.434 17.0846Z" fill="white"/>
<path d="M111.723 18.9895C110.58 18.9895 109.561 18.7933 108.666 18.4007C107.777 18.0082 107.07 17.4626 106.545 16.7641C106.025 16.0599 105.742 15.243 105.696 14.3136H107.878C107.924 14.8851 108.12 15.3787 108.467 15.7943C108.813 16.2042 109.266 16.5217 109.826 16.7468C110.386 16.972 111.007 17.0845 111.688 17.0845C112.45 17.0845 113.125 16.9517 113.714 16.6862C114.303 16.4207 114.765 16.0512 115.1 15.5778C115.435 15.1045 115.602 14.5561 115.602 13.9326C115.602 13.2803 115.44 12.7059 115.117 12.2094C114.794 11.7072 114.32 11.3147 113.697 11.0318C113.074 10.7489 112.312 10.6075 111.411 10.6075H109.991V8.7025H111.411C112.115 8.7025 112.733 8.5755 113.264 8.3215C113.801 8.0675 114.219 7.70959 114.52 7.24777C114.826 6.78595 114.979 6.24331 114.979 5.61985C114.979 5.01949 114.846 4.49706 114.58 4.05256C114.315 3.60805 113.939 3.26169 113.455 3.01346C112.975 2.76523 112.41 2.64112 111.757 2.64112C111.145 2.64112 110.568 2.75369 110.025 2.97883C109.489 3.19819 109.05 3.51858 108.709 3.93999C108.369 4.35563 108.184 4.85785 108.155 5.44667H106.077C106.112 4.51726 106.392 3.7033 106.917 3.0048C107.442 2.30053 108.129 1.75212 108.978 1.35957C109.832 0.967026 110.77 0.770752 111.792 0.770752C112.889 0.770752 113.83 0.993003 114.615 1.4375C115.4 1.87623 116.003 2.45639 116.425 3.17799C116.846 3.89958 117.057 4.6789 117.057 5.51595C117.057 6.51463 116.794 7.36611 116.269 8.07038C115.749 8.77466 115.042 9.26246 114.147 9.53377V9.67232C115.267 9.85705 116.142 10.3333 116.771 11.1011C117.4 11.8631 117.715 12.8069 117.715 13.9326C117.715 14.8967 117.452 15.7626 116.927 16.5303C116.407 17.2923 115.697 17.8927 114.797 18.3314C113.896 18.7702 112.871 18.9895 111.723 18.9895Z" fill="white"/>
<path d="M103.083 9.23932L99.706 9.44714C99.6483 9.15851 99.5242 8.89873 99.3337 8.66782C99.1432 8.43114 98.8921 8.24352 98.5803 8.10498C98.2744 7.96066 97.9078 7.8885 97.4806 7.8885C96.9091 7.8885 96.4271 8.00973 96.0345 8.25218C95.642 8.48887 95.4457 8.80637 95.4457 9.20469C95.4457 9.52219 95.5727 9.79062 95.8267 10.01C96.0807 10.2294 96.5166 10.4054 97.1343 10.5382L99.5415 11.0231C100.835 11.2887 101.799 11.7158 102.434 12.3047C103.069 12.8935 103.386 13.667 103.386 14.6253C103.386 15.497 103.129 16.2619 102.616 16.92C102.108 17.5781 101.409 18.0919 100.52 18.4613C99.6368 18.825 98.6179 19.0068 97.4633 19.0068C95.7026 19.0068 94.2998 18.6403 93.2549 17.9071C92.2158 17.1682 91.6068 16.1638 91.4279 14.8937L95.0561 14.7032C95.1657 15.2401 95.4313 15.65 95.8527 15.9328C96.2741 16.2099 96.8139 16.3485 97.472 16.3485C98.1185 16.3485 98.6381 16.2244 99.0306 15.9761C99.4289 15.7221 99.631 15.396 99.6368 14.9977C99.631 14.6628 99.4896 14.3886 99.2125 14.175C98.9354 13.9557 98.5082 13.7883 97.9309 13.6728L95.6276 13.2139C94.3287 12.9541 93.3617 12.5038 92.7267 11.863C92.0975 11.2223 91.7829 10.4054 91.7829 9.41251C91.7829 8.55814 92.0138 7.82211 92.4756 7.20443C92.9432 6.58674 93.5984 6.11049 94.4413 5.77567C95.2899 5.44085 96.2828 5.27344 97.42 5.27344C99.0999 5.27344 100.422 5.62846 101.386 6.33851C102.356 7.04856 102.921 8.0155 103.083 9.23932Z" fill="white"/>
<path d="M85.7195 13.0839V5.44653H89.4083V18.747H85.8668V16.3311H85.7282C85.428 17.1104 84.9287 17.7367 84.2302 18.2101C83.5374 18.6835 82.6917 18.9201 81.6931 18.9201C80.8041 18.9201 80.0218 18.7181 79.3464 18.314C78.671 17.9099 78.1428 17.3355 77.7618 16.5908C77.3866 15.8461 77.1961 14.9543 77.1903 13.9152V5.44653H80.8791V13.2571C80.8849 14.0422 81.0956 14.6627 81.5112 15.1188C81.9269 15.5748 82.4839 15.8029 83.1824 15.8029C83.6269 15.8029 84.0426 15.7018 84.4293 15.4998C84.8161 15.292 85.1278 14.986 85.3645 14.5819C85.607 14.1778 85.7253 13.6785 85.7195 13.0839Z" fill="white"/>
<path d="M70.8889 18.747V5.4466H74.5777V18.747H70.8889ZM72.742 3.73209C72.1936 3.73209 71.7231 3.55025 71.3305 3.18657C70.9438 2.81711 70.7504 2.37549 70.7504 1.86172C70.7504 1.35371 70.9438 0.91787 71.3305 0.554186C71.7231 0.184729 72.1936 0 72.742 0C73.2904 0 73.758 0.184729 74.1447 0.554186C74.5373 0.91787 74.7336 1.35371 74.7336 1.86172C74.7336 2.37549 74.5373 2.81711 74.1447 3.18657C73.758 3.55025 73.2904 3.73209 72.742 3.73209Z" fill="white"/>
<path d="M68.6052 9.23932L65.2281 9.44714C65.1704 9.15851 65.0463 8.89873 64.8558 8.66782C64.6653 8.43114 64.4142 8.24352 64.1024 8.10498C63.7965 7.96066 63.4299 7.8885 63.0027 7.8885C62.4312 7.8885 61.9492 8.00973 61.5566 8.25218C61.1641 8.48887 60.9678 8.80637 60.9678 9.20469C60.9678 9.52219 61.0948 9.79062 61.3488 10.01C61.6028 10.2294 62.0387 10.4054 62.6564 10.5382L65.0636 11.0231C66.3567 11.2887 67.3208 11.7158 67.9558 12.3047C68.5908 12.8935 68.9083 13.667 68.9083 14.6253C68.9083 15.497 68.6514 16.2619 68.1376 16.92C67.6296 17.5781 66.9311 18.0919 66.0421 18.4613C65.1589 18.825 64.14 19.0068 62.9854 19.0068C61.2247 19.0068 59.8219 18.6403 58.777 17.9071C57.7379 17.1682 57.1289 16.1638 56.95 14.8937L60.5781 14.7032C60.6878 15.2401 60.9534 15.65 61.3748 15.9328C61.7962 16.2099 62.336 16.3485 62.9941 16.3485C63.6406 16.3485 64.1602 16.2244 64.5527 15.9761C64.951 15.7221 65.1531 15.396 65.1589 14.9977C65.1531 14.6628 65.0117 14.3886 64.7346 14.175C64.4575 13.9557 64.0303 13.7883 63.453 13.6728L61.1497 13.2139C59.8508 12.9541 58.8838 12.5038 58.2488 11.863C57.6196 11.2223 57.305 10.4054 57.305 9.41251C57.305 8.55814 57.5359 7.82211 57.9977 7.20443C58.4653 6.58674 59.1205 6.11049 59.9633 5.77567C60.8119 5.44085 61.8049 5.27344 62.9421 5.27344C64.622 5.27344 65.944 5.62846 66.908 6.33851C67.8778 7.04856 68.4436 8.0155 68.6052 9.23932Z" fill="white"/>
<path d="M54.9261 1.01318V18.7471H51.2373V1.01318H54.9261Z" fill="white"/>
<path d="M43.0674 19.0068C41.6993 19.0068 40.5216 18.7297 39.5345 18.1756C38.5531 17.6156 37.7969 16.8247 37.2658 15.803C36.7347 14.7754 36.4691 13.5602 36.4691 12.1575C36.4691 10.7893 36.7347 9.58858 37.2658 8.55525C37.7969 7.52193 38.5444 6.71663 39.5085 6.13935C40.4783 5.56207 41.6156 5.27344 42.9202 5.27344C43.7977 5.27344 44.6145 5.41487 45.3708 5.69774C46.1328 5.97483 46.7966 6.39335 47.3624 6.95331C47.9339 7.51327 48.3784 8.21755 48.6959 9.06614C49.0134 9.90897 49.1721 10.8961 49.1721 12.0276V13.0407H37.9412V10.7547H45.6998C45.6998 10.2236 45.5843 9.7531 45.3534 9.34324C45.1225 8.93337 44.8021 8.61298 44.3923 8.38207C43.9882 8.14539 43.5177 8.02705 42.9808 8.02705C42.4209 8.02705 41.9244 8.15693 41.4914 8.41671C41.0643 8.67071 40.7294 9.01419 40.487 9.44714C40.2445 9.87433 40.1204 10.3506 40.1146 10.8759V13.0493C40.1146 13.7074 40.2359 14.2761 40.4783 14.7552C40.7265 15.2343 41.0758 15.6038 41.5261 15.8636C41.9764 16.1233 42.5103 16.2532 43.128 16.2532C43.5379 16.2532 43.9131 16.1955 44.2537 16.08C44.5943 15.9646 44.8858 15.7914 45.1283 15.5605C45.3708 15.3296 45.5555 15.0467 45.6825 14.7119L49.0942 14.937C48.921 15.7568 48.566 16.4726 48.0291 17.0845C47.498 17.6906 46.8111 18.164 45.9682 18.5046C45.1312 18.8394 44.1642 19.0068 43.0674 19.0068Z" fill="white"/>
<path d="M29.0462 19.0068C27.6838 19.0068 26.512 18.7182 25.5306 18.1409C24.555 17.5579 23.8045 16.7497 23.2792 15.7164C22.7597 14.683 22.4999 13.4939 22.4999 12.1488C22.4999 10.7864 22.7625 9.59146 23.2879 8.56391C23.819 7.53059 24.5723 6.72529 25.5479 6.14801C26.5235 5.56496 27.6838 5.27344 29.0289 5.27344C30.1892 5.27344 31.2052 5.48414 32.0769 5.90555C32.9486 6.32697 33.6384 6.91867 34.1464 7.68068C34.6544 8.44268 34.9344 9.33746 34.9864 10.365H31.5054C31.4073 9.70115 31.1475 9.16717 30.7261 8.76307C30.3104 8.35321 29.7649 8.14827 29.0895 8.14827C28.518 8.14827 28.0186 8.30414 27.5915 8.61587C27.17 8.92182 26.841 9.36921 26.6043 9.95803C26.3676 10.5469 26.2493 11.2598 26.2493 12.0968C26.2493 12.9454 26.3647 13.667 26.5957 14.2616C26.8323 14.8562 27.1643 15.3094 27.5915 15.6211C28.0186 15.9328 28.518 16.0887 29.0895 16.0887C29.5109 16.0887 29.889 16.0021 30.2238 15.8289C30.5644 15.6558 30.8444 15.4046 31.0638 15.0756C31.2889 14.7408 31.4361 14.3396 31.5054 13.872H34.9864C34.9287 14.888 34.6516 15.7828 34.1551 16.5563C33.6644 17.3241 32.9861 17.9244 32.1202 18.3574C31.2543 18.7904 30.2296 19.0068 29.0462 19.0068Z" fill="white"/>
<path fill-rule="evenodd" clip-rule="evenodd" d="M19.1383 12.1055C19.1383 17.3903 14.8541 21.6746 9.56916 21.6746C4.28426 21.6746 0 17.3903 0 12.1055C0 6.82061 4.28426 2.53638 9.56916 2.53638C14.8541 2.53638 19.1383 6.82061 19.1383 12.1055ZM9.56916 17.9384C12.7906 17.9384 15.4021 15.3269 15.4021 12.1055C15.4021 8.88402 12.7906 6.27252 9.56916 6.27252C6.34768 6.27252 3.73616 8.88402 3.73616 12.1055C3.73616 15.3269 6.34768 17.9384 9.56916 17.9384Z" fill="url(#paint0_linear_618_8292)"/>
<defs>
<linearGradient id="paint0_linear_618_8292" x1="9.56916" y1="3.22261" x2="9.56916" y2="21.5221" gradientUnits="userSpaceOnUse">
<stop stop-color="#363BC4"/>
<stop offset="1" stop-color="#00FF9B"/>
</linearGradient>
</defs>
</svg>
