<svg width="145" height="22" viewBox="0 0 145 22" fill="none" xmlns="http://www.w3.org/2000/svg">
<path d="M138.834 18.9895C137.53 18.9895 136.418 18.6345 135.5 17.9245C134.583 17.2086 133.881 16.1724 133.396 14.8158C132.911 13.4535 132.669 11.8082 132.669 9.88014C132.669 7.96359 132.911 6.32702 133.396 4.97042C133.887 3.60805 134.591 2.56896 135.509 1.85314C136.433 1.13155 137.541 0.770752 138.834 0.770752C140.127 0.770752 141.233 1.13155 142.151 1.85314C143.074 2.56896 143.779 3.60805 144.264 4.97042C144.754 6.32702 145 7.96359 145 9.88014C145 11.8082 144.757 13.4535 144.272 14.8158C143.787 16.1724 143.086 17.2086 142.168 17.9245C141.25 18.6345 140.139 18.9895 138.834 18.9895ZM138.834 17.0845C140.127 17.0845 141.132 16.4611 141.848 15.2142C142.563 13.9672 142.921 12.1892 142.921 9.88014C142.921 8.34459 142.757 7.03706 142.428 5.95756C142.105 4.87806 141.637 4.05544 141.025 3.48971C140.419 2.92399 139.689 2.64112 138.834 2.64112C137.553 2.64112 136.551 3.27324 135.83 4.53747C135.108 5.79592 134.747 7.57681 134.747 9.88014C134.747 11.4157 134.909 12.7203 135.232 13.7941C135.555 14.8678 136.02 15.6846 136.626 16.2446C137.238 16.8045 137.974 17.0845 138.834 17.0845Z" fill="white"/>
<path d="M125.434 18.9896C124.707 18.9781 123.979 18.8395 123.252 18.574C122.524 18.3084 121.861 17.861 121.26 17.2318C120.66 16.5968 120.178 15.7395 119.814 14.66C119.45 13.5748 119.269 12.2124 119.269 10.5729C119.269 9.00272 119.416 7.61148 119.71 6.3992C120.005 5.18115 120.432 4.15648 120.992 3.3252C121.552 2.48815 122.227 1.85315 123.018 1.42019C123.815 0.987231 124.712 0.770752 125.711 0.770752C126.704 0.770752 127.587 0.969913 128.361 1.36823C129.14 1.76078 129.775 2.30919 130.266 3.01347C130.756 3.71775 131.074 4.52882 131.218 5.44669H129.105C128.909 4.65005 128.528 3.98907 127.962 3.46375C127.397 2.93843 126.646 2.67577 125.711 2.67577C124.337 2.67577 123.255 3.27325 122.464 4.46821C121.679 5.66317 121.283 7.34016 121.277 9.49918H121.416C121.739 9.00849 122.123 8.58997 122.568 8.2436C123.018 7.89146 123.514 7.62014 124.057 7.42964C124.6 7.23914 125.174 7.14389 125.78 7.14389C126.796 7.14389 127.726 7.39789 128.568 7.90589C129.411 8.40812 130.087 9.10374 130.595 9.99275C131.103 10.876 131.357 11.8891 131.357 13.0321C131.357 14.1289 131.111 15.1334 130.621 16.0455C130.13 16.9518 129.44 17.6734 128.551 18.2103C127.668 18.7414 126.629 19.0012 125.434 18.9896ZM125.434 17.0846C126.161 17.0846 126.814 16.9028 127.391 16.5391C127.974 16.1754 128.433 15.6876 128.768 15.0757C129.108 14.4638 129.279 13.7826 129.279 13.0321C129.279 12.299 129.114 11.6322 128.785 11.0318C128.462 10.4257 128.014 9.94368 127.443 9.58577C126.877 9.22786 126.231 9.0489 125.503 9.0489C124.955 9.0489 124.444 9.15858 123.97 9.37795C123.497 9.59154 123.081 9.88595 122.724 10.2612C122.371 10.6364 122.094 11.0665 121.892 11.5514C121.69 12.0305 121.589 12.5357 121.589 13.0667C121.589 13.771 121.754 14.4291 122.083 15.041C122.418 15.6529 122.874 16.1465 123.451 16.5218C124.034 16.897 124.695 17.0846 125.434 17.0846Z" fill="white"/>
<path d="M111.723 18.9895C110.58 18.9895 109.561 18.7933 108.666 18.4007C107.777 18.0082 107.07 17.4626 106.545 16.7641C106.025 16.0599 105.742 15.243 105.696 14.3136H107.878C107.925 14.8851 108.121 15.3787 108.467 15.7943C108.814 16.2042 109.267 16.5217 109.827 16.7468C110.387 16.972 111.007 17.0845 111.688 17.0845C112.45 17.0845 113.126 16.9517 113.715 16.6862C114.303 16.4207 114.765 16.0512 115.1 15.5778C115.435 15.1045 115.602 14.5561 115.602 13.9326C115.602 13.2803 115.441 12.7059 115.117 12.2094C114.794 11.7072 114.321 11.3147 113.697 11.0318C113.074 10.7489 112.312 10.6075 111.411 10.6075H109.991V8.7025H111.411C112.116 8.7025 112.733 8.5755 113.264 8.3215C113.801 8.0675 114.22 7.70959 114.52 7.24777C114.826 6.78595 114.979 6.24331 114.979 5.61985C114.979 5.01949 114.846 4.49706 114.581 4.05256C114.315 3.60805 113.94 3.26169 113.455 3.01346C112.976 2.76523 112.41 2.64112 111.758 2.64112C111.146 2.64112 110.568 2.75369 110.026 2.97883C109.489 3.19819 109.05 3.51858 108.71 3.93999C108.369 4.35563 108.184 4.85785 108.155 5.44667H106.077C106.112 4.51726 106.392 3.7033 106.917 3.0048C107.443 2.30053 108.13 1.75212 108.978 1.35957C109.832 0.967026 110.771 0.770752 111.792 0.770752C112.889 0.770752 113.83 0.993003 114.615 1.4375C115.4 1.87623 116.004 2.45639 116.425 3.17799C116.846 3.89958 117.057 4.6789 117.057 5.51595C117.057 6.51463 116.794 7.36611 116.269 8.07038C115.75 8.77466 115.042 9.26246 114.148 9.53377V9.67232C115.268 9.85705 116.142 10.3333 116.771 11.1011C117.401 11.8631 117.715 12.8069 117.715 13.9326C117.715 14.8967 117.453 15.7626 116.927 16.5303C116.408 17.2923 115.698 17.8927 114.797 18.3314C113.896 18.7702 112.872 18.9895 111.723 18.9895Z" fill="white"/>
<path d="M103.083 9.23932L99.7059 9.44714C99.6482 9.15851 99.5241 8.89873 99.3336 8.66782C99.1431 8.43114 98.892 8.24352 98.5802 8.10498C98.2743 7.96066 97.9077 7.8885 97.4805 7.8885C96.909 7.8885 96.427 8.00973 96.0344 8.25218C95.6419 8.48887 95.4456 8.80637 95.4456 9.20469C95.4456 9.52219 95.5726 9.79062 95.8266 10.01C96.0806 10.2294 96.5164 10.4054 97.1341 10.5382L99.5414 11.0231C100.834 11.2887 101.799 11.7158 102.434 12.3047C103.069 12.8935 103.386 13.667 103.386 14.6253C103.386 15.497 103.129 16.2619 102.615 16.92C102.107 17.5781 101.409 18.0919 100.52 18.4613C99.6366 18.825 98.6177 19.0068 97.4632 19.0068C95.7025 19.0068 94.2997 18.6403 93.2548 17.9071C92.2157 17.1682 91.6067 16.1638 91.4277 14.8937L95.0559 14.7032C95.1656 15.2401 95.4312 15.65 95.8526 15.9328C96.274 16.2099 96.8137 16.3485 97.4718 16.3485C98.1184 16.3485 98.6379 16.2244 99.0305 15.9761C99.4288 15.7221 99.6309 15.396 99.6366 14.9977C99.6309 14.6628 99.4894 14.3886 99.2123 14.175C98.9352 13.9557 98.5081 13.7883 97.9308 13.6728L95.6274 13.2139C94.3286 12.9541 93.3616 12.5038 92.7266 11.863C92.0974 11.2223 91.7828 10.4054 91.7828 9.41251C91.7828 8.55814 92.0137 7.82211 92.4755 7.20443C92.9431 6.58674 93.5983 6.11049 94.4411 5.77567C95.2897 5.44085 96.2826 5.27344 97.4199 5.27344C99.0998 5.27344 100.422 5.62846 101.386 6.33851C102.356 7.04856 102.921 8.0155 103.083 9.23932Z" fill="white"/>
<path d="M85.7197 13.0839V5.44653H89.4085V18.747H85.8669V16.3311H85.7283C85.4281 17.1104 84.9288 17.7367 84.2303 18.2101C83.5376 18.6835 82.6919 18.9201 81.6932 18.9201C80.8042 18.9201 80.022 18.7181 79.3466 18.314C78.6711 17.9099 78.1429 17.3355 77.7619 16.5908C77.3867 15.8461 77.1962 14.9543 77.1904 13.9152V5.44653H80.8792V13.2571C80.885 14.0422 81.0957 14.6627 81.5113 15.1188C81.927 15.5748 82.484 15.8029 83.1825 15.8029C83.627 15.8029 84.0427 15.7018 84.4295 15.4998C84.8162 15.292 85.128 14.986 85.3646 14.5819C85.6071 14.1778 85.7254 13.6785 85.7197 13.0839Z" fill="white"/>
<path d="M70.8895 18.747V5.4466H74.5783V18.747H70.8895ZM72.7426 3.73209C72.1942 3.73209 71.7237 3.55025 71.3311 3.18657C70.9444 2.81711 70.751 2.37549 70.751 1.86172C70.751 1.35371 70.9444 0.91787 71.3311 0.554186C71.7237 0.184729 72.1942 0 72.7426 0C73.291 0 73.7586 0.184729 74.1454 0.554186C74.5379 0.91787 74.7342 1.35371 74.7342 1.86172C74.7342 2.37549 74.5379 2.81711 74.1454 3.18657C73.7586 3.55025 73.291 3.73209 72.7426 3.73209Z" fill="white"/>
<path d="M68.6055 9.23932L65.2284 9.44714C65.1706 9.15851 65.0465 8.89873 64.856 8.66782C64.6655 8.43114 64.4144 8.24352 64.1027 8.10498C63.7967 7.96066 63.4302 7.8885 63.003 7.8885C62.4315 7.8885 61.9494 8.00973 61.5569 8.25218C61.1643 8.48887 60.9681 8.80637 60.9681 9.20469C60.9681 9.52219 61.0951 9.79062 61.3491 10.01C61.6031 10.2294 62.0389 10.4054 62.6566 10.5382L65.0639 11.0231C66.357 11.2887 67.321 11.7158 67.956 12.3047C68.591 12.8935 68.9085 13.667 68.9085 14.6253C68.9085 15.497 68.6516 16.2619 68.1379 16.92C67.6299 17.5781 66.9314 18.0919 66.0423 18.4613C65.1591 18.825 64.1402 19.0068 62.9856 19.0068C61.2249 19.0068 59.8222 18.6403 58.7773 17.9071C57.7382 17.1682 57.1292 16.1638 56.9502 14.8937L60.5784 14.7032C60.6881 15.2401 60.9536 15.65 61.375 15.9328C61.7965 16.2099 62.3362 16.3485 62.9943 16.3485C63.6409 16.3485 64.1604 16.2244 64.553 15.9761C64.9513 15.7221 65.1533 15.396 65.1591 14.9977C65.1533 14.6628 65.0119 14.3886 64.7348 14.175C64.4577 13.9557 64.0305 13.7883 63.4532 13.6728L61.1499 13.2139C59.851 12.9541 58.8841 12.5038 58.2491 11.863C57.6198 11.2223 57.3052 10.4054 57.3052 9.41251C57.3052 8.55814 57.5361 7.82211 57.998 7.20443C58.4656 6.58674 59.1208 6.11049 59.9636 5.77567C60.8122 5.44085 61.8051 5.27344 62.9424 5.27344C64.6222 5.27344 65.9442 5.62846 66.9083 6.33851C67.8781 7.04856 68.4438 8.0155 68.6055 9.23932Z" fill="white"/>
<path d="M54.9261 1.01318V18.7471H51.2373V1.01318H54.9261Z" fill="white"/>
<path d="M43.067 19.0068C41.6989 19.0068 40.5212 18.7297 39.5341 18.1756C38.5527 17.6156 37.7965 16.8247 37.2654 15.803C36.7343 14.7754 36.4688 13.5602 36.4688 12.1575C36.4688 10.7893 36.7343 9.58858 37.2654 8.55525C37.7965 7.52193 38.5441 6.71663 39.5081 6.13935C40.478 5.56207 41.6152 5.27344 42.9198 5.27344C43.7973 5.27344 44.6142 5.41487 45.3704 5.69774C46.1324 5.97483 46.7963 6.39335 47.362 6.95331C47.9335 7.51327 48.378 8.21755 48.6955 9.06614C49.013 9.90897 49.1718 10.8961 49.1718 12.0276V13.0407H37.9408V10.7547H45.6994C45.6994 10.2236 45.584 9.7531 45.3531 9.34324C45.1222 8.93337 44.8018 8.61298 44.3919 8.38207C43.9878 8.14539 43.5173 8.02705 42.9805 8.02705C42.4205 8.02705 41.924 8.15693 41.4911 8.41671C41.0639 8.67071 40.7291 9.01419 40.4866 9.44714C40.2442 9.87433 40.12 10.3506 40.1143 10.8759V13.0493C40.1143 13.7074 40.2355 14.2761 40.478 14.7552C40.7262 15.2343 41.0754 15.6038 41.5257 15.8636C41.976 16.1233 42.51 16.2532 43.1277 16.2532C43.5375 16.2532 43.9128 16.1955 44.2534 16.08C44.5939 15.9646 44.8855 15.7914 45.1279 15.5605C45.3704 15.3296 45.5551 15.0467 45.6821 14.7119L49.0938 14.937C48.9207 15.7568 48.5656 16.4726 48.0288 17.0845C47.4977 17.6906 46.8107 18.164 45.9679 18.5046C45.1308 18.8394 44.1639 19.0068 43.067 19.0068Z" fill="white"/>
<path d="M29.0463 19.0068C27.6839 19.0068 26.5121 18.7182 25.5307 18.1409C24.5551 17.5579 23.8046 16.7497 23.2793 15.7164C22.7598 14.683 22.5 13.4939 22.5 12.1488C22.5 10.7864 22.7627 9.59146 23.288 8.56391C23.8191 7.53059 24.5724 6.72529 25.548 6.14801C26.5236 5.56496 27.6839 5.27344 29.029 5.27344C30.1893 5.27344 31.2053 5.48414 32.077 5.90555C32.9487 6.32697 33.6386 6.91867 34.1466 7.68068C34.6546 8.44268 34.9345 9.33746 34.9865 10.365H31.5055C31.4074 9.70115 31.1476 9.16717 30.7262 8.76307C30.3106 8.35321 29.765 8.14827 29.0896 8.14827C28.5181 8.14827 28.0188 8.30414 27.5916 8.61587C27.1702 8.92182 26.8411 9.36921 26.6044 9.95803C26.3678 10.5469 26.2494 11.2598 26.2494 12.0968C26.2494 12.9454 26.3649 13.667 26.5958 14.2616C26.8325 14.8562 27.1644 15.3094 27.5916 15.6211C28.0188 15.9328 28.5181 16.0887 29.0896 16.0887C29.511 16.0887 29.8891 16.0021 30.224 15.8289C30.5646 15.6558 30.8445 15.4046 31.0639 15.0756C31.289 14.7408 31.4362 14.3396 31.5055 13.872H34.9865C34.9288 14.888 34.6517 15.7828 34.1552 16.5563C33.6645 17.3241 32.9862 17.9244 32.1203 18.3574C31.2544 18.7904 30.2297 19.0068 29.0463 19.0068Z" fill="white"/>
<path fill-rule="evenodd" clip-rule="evenodd" d="M19.1383 12.1055C19.1383 17.3903 14.8541 21.6746 9.56916 21.6746C4.28426 21.6746 0 17.3903 0 12.1055C0 6.82061 4.28426 2.53638 9.56916 2.53638C14.8541 2.53638 19.1383 6.82061 19.1383 12.1055ZM9.56916 17.9384C12.7906 17.9384 15.4021 15.3269 15.4021 12.1055C15.4021 8.88402 12.7906 6.27252 9.56916 6.27252C6.34768 6.27252 3.73616 8.88402 3.73616 12.1055C3.73616 15.3269 6.34768 17.9384 9.56916 17.9384Z" fill="white"/>
</svg>
