<svg width="139" height="19" viewBox="0 0 139 19" fill="none" xmlns="http://www.w3.org/2000/svg">
<path d="M39 15.0707V7.55501H39.8113V8.4233H39.911C39.9727 8.3284 40.0581 8.20741 40.1672 8.06033C40.2787 7.91087 40.4377 7.77801 40.6441 7.66177C40.8528 7.54315 41.1351 7.48384 41.491 7.48384C41.9512 7.48384 42.3569 7.5989 42.708 7.82902C43.0591 8.05914 43.3331 8.38534 43.53 8.80762C43.7269 9.2299 43.8254 9.7281 43.8254 10.3022C43.8254 10.8811 43.7269 11.3828 43.53 11.8075C43.3331 12.2298 43.0603 12.5572 42.7116 12.7896C42.3628 13.0198 41.9607 13.1348 41.5052 13.1348C41.1541 13.1348 40.873 13.0767 40.6618 12.9605C40.4507 12.8418 40.2882 12.7078 40.1743 12.5583C40.0604 12.4065 39.9727 12.2808 39.911 12.1811H39.8398V15.0707H39ZM39.8256 10.288C39.8256 10.7008 39.8861 11.0649 40.0071 11.3805C40.1281 11.6936 40.3048 11.9391 40.5373 12.1171C40.7698 12.2926 41.0545 12.3804 41.3913 12.3804C41.7425 12.3804 42.0354 12.2879 42.2703 12.1028C42.5075 11.9154 42.6855 11.664 42.8041 11.3484C42.9251 11.0305 42.9856 10.677 42.9856 10.288C42.9856 9.90366 42.9263 9.55729 42.8077 9.24888C42.6914 8.9381 42.5147 8.69256 42.2774 8.51226C42.0426 8.32959 41.7472 8.23825 41.3913 8.23825C41.0497 8.23825 40.7627 8.32484 40.5302 8.49803C40.2977 8.66884 40.1221 8.90845 40.0035 9.21686C39.8849 9.52289 39.8256 9.87993 39.8256 10.288Z" fill="white"/>
<path d="M47.327 13.1348C46.8336 13.1348 46.4006 13.0174 46.0281 12.7825C45.6581 12.5477 45.3686 12.2191 45.1599 11.7968C44.9535 11.3745 44.8503 10.8811 44.8503 10.3164C44.8503 9.74708 44.9535 9.25007 45.1599 8.82541C45.3686 8.40076 45.6581 8.071 46.0281 7.83614C46.4006 7.60127 46.8336 7.48384 47.327 7.48384C47.8205 7.48384 48.2522 7.60127 48.6223 7.83614C48.9948 8.071 49.2842 8.40076 49.4906 8.82541C49.6994 9.25007 49.8038 9.74708 49.8038 10.3164C49.8038 10.8811 49.6994 11.3745 49.4906 11.7968C49.2842 12.2191 48.9948 12.5477 48.6223 12.7825C48.2522 13.0174 47.8205 13.1348 47.327 13.1348ZM47.327 12.3804C47.7018 12.3804 48.0103 12.2843 48.2522 12.0922C48.4942 11.9 48.6733 11.6473 48.7896 11.3342C48.9058 11.021 48.9639 10.6818 48.9639 10.3164C48.9639 9.9511 48.9058 9.61067 48.7896 9.29514C48.6733 8.97962 48.4942 8.72459 48.2522 8.53005C48.0103 8.33552 47.7018 8.23825 47.327 8.23825C46.9522 8.23825 46.6438 8.33552 46.4018 8.53005C46.1598 8.72459 45.9807 8.97962 45.8644 9.29514C45.7482 9.61067 45.6901 9.9511 45.6901 10.3164C45.6901 10.6818 45.7482 11.021 45.8644 11.3342C45.9807 11.6473 46.1598 11.9 46.4018 12.0922C46.6438 12.2843 46.9522 12.3804 47.327 12.3804Z" fill="white"/>
<path d="M52.1382 13.0209L50.4728 7.55501H51.3553L52.5367 11.7399H52.5937L53.7609 7.55501H54.6576L55.8106 11.7256H55.8675L57.049 7.55501H57.9315L56.2661 13.0209H55.4405L54.2448 8.82186H54.1594L52.9638 13.0209H52.1382Z" fill="white"/>
<path d="M61.1475 13.1348C60.6209 13.1348 60.1666 13.0186 59.7846 12.7861C59.405 12.5512 59.112 12.2238 58.9056 11.8039C58.7016 11.3816 58.5996 10.8906 58.5996 10.3307C58.5996 9.7708 58.7016 9.27735 58.9056 8.85032C59.112 8.42093 59.3991 8.08642 59.7668 7.84681C60.1369 7.60483 60.5687 7.48384 61.0621 7.48384C61.3468 7.48384 61.6279 7.53129 61.9055 7.62618C62.1831 7.72108 62.4357 7.87528 62.6635 8.08879C62.8912 8.29993 63.0727 8.57987 63.2079 8.92861C63.3432 9.27735 63.4108 9.70675 63.4108 10.2168V10.5727H59.1974V9.84672H62.5567C62.5567 9.53831 62.495 9.26312 62.3717 9.02113C62.2507 8.77915 62.0775 8.58818 61.8521 8.44821C61.6291 8.30824 61.3658 8.23825 61.0621 8.23825C60.7276 8.23825 60.4382 8.32129 60.1938 8.48735C59.9519 8.65105 59.7656 8.86456 59.6351 9.12789C59.5047 9.39122 59.4394 9.67354 59.4394 9.97483V10.4588C59.4394 10.8716 59.5106 11.2215 59.6529 11.5086C59.7977 11.7932 59.9981 12.0103 60.2543 12.1598C60.5106 12.3069 60.8083 12.3804 61.1475 12.3804C61.3682 12.3804 61.5674 12.3496 61.7454 12.2879C61.9257 12.2238 62.0811 12.1289 62.2115 12.0032C62.342 11.8751 62.4428 11.7161 62.514 11.5264L63.3254 11.7541C63.24 12.0293 63.0964 12.2713 62.8948 12.48C62.6931 12.6864 62.444 12.8478 62.1475 12.964C61.8509 13.0779 61.5176 13.1348 61.1475 13.1348Z" fill="white"/>
<path d="M64.6883 13.0209V7.55501H65.4996V8.3806H65.5566C65.6562 8.11015 65.8365 7.8907 66.0975 7.72226C66.3584 7.55382 66.6526 7.46961 66.98 7.46961C67.0417 7.46961 67.1188 7.47079 67.2113 7.47316C67.3038 7.47554 67.3738 7.4791 67.4213 7.48384V8.33789C67.3928 8.33078 67.3276 8.3201 67.2255 8.30587C67.1259 8.28926 67.0203 8.28096 66.9088 8.28096C66.6431 8.28096 66.4059 8.33671 66.1971 8.44821C65.9907 8.55734 65.827 8.70917 65.706 8.9037C65.5874 9.09586 65.5281 9.31531 65.5281 9.56204V13.0209H64.6883Z" fill="white"/>
<path d="M70.5421 13.1348C70.0154 13.1348 69.5611 13.0186 69.1792 12.7861C68.7996 12.5512 68.5066 12.2238 68.3002 11.8039C68.0962 11.3816 67.9942 10.8906 67.9942 10.3307C67.9942 9.7708 68.0962 9.27735 68.3002 8.85032C68.5066 8.42093 68.7937 8.08642 69.1614 7.84681C69.5315 7.60483 69.9633 7.48384 70.4567 7.48384C70.7414 7.48384 71.0225 7.53129 71.3001 7.62618C71.5777 7.72108 71.8303 7.87528 72.0581 8.08879C72.2858 8.29993 72.4673 8.57987 72.6025 8.92861C72.7377 9.27735 72.8054 9.70675 72.8054 10.2168V10.5727H68.592V9.84672H71.9513C71.9513 9.53831 71.8896 9.26312 71.7663 9.02113C71.6453 8.77915 71.4721 8.58818 71.2467 8.44821C71.0237 8.30824 70.7604 8.23825 70.4567 8.23825C70.1222 8.23825 69.8328 8.32129 69.5884 8.48735C69.3464 8.65105 69.1602 8.86456 69.0297 9.12789C68.8992 9.39122 68.834 9.67354 68.834 9.97483V10.4588C68.834 10.8716 68.9052 11.2215 69.0475 11.5086C69.1922 11.7932 69.3927 12.0103 69.6489 12.1598C69.9051 12.3069 70.2029 12.3804 70.5421 12.3804C70.7627 12.3804 70.962 12.3496 71.1399 12.2879C71.3202 12.2238 71.4756 12.1289 71.6061 12.0032C71.7366 11.8751 71.8374 11.7161 71.9086 11.5264L72.7199 11.7541C72.6345 12.0293 72.491 12.2713 72.2894 12.48C72.0877 12.6864 71.8386 12.8478 71.5421 12.964C71.2455 13.0779 70.9122 13.1348 70.5421 13.1348Z" fill="white"/>
<path d="M76.1468 13.1348C75.6913 13.1348 75.2892 13.0198 74.9405 12.7896C74.5917 12.5572 74.3189 12.2298 74.122 11.8075C73.9251 11.3828 73.8267 10.8811 73.8267 10.3022C73.8267 9.7281 73.9251 9.2299 74.122 8.80762C74.3189 8.38534 74.5929 8.05914 74.944 7.82902C75.2952 7.5989 75.7008 7.48384 76.1611 7.48384C76.5169 7.48384 76.798 7.54315 77.0044 7.66177C77.2132 7.77801 77.3722 7.91087 77.4813 8.06033C77.5928 8.20741 77.6794 8.3284 77.7411 8.4233H77.8122V5.73303H78.6521V13.0209H77.8407V12.1811H77.7411C77.6794 12.2808 77.5916 12.4065 77.4777 12.5583C77.3639 12.7078 77.2013 12.8418 76.9902 12.9605C76.7791 13.0767 76.4979 13.1348 76.1468 13.1348ZM76.2607 12.3804C76.5976 12.3804 76.8823 12.2926 77.1148 12.1171C77.3472 11.9391 77.524 11.6936 77.645 11.3805C77.766 11.0649 77.8265 10.7008 77.8265 10.288C77.8265 9.87993 77.7672 9.52289 77.6485 9.21686C77.5299 8.90845 77.3544 8.66884 77.1219 8.49803C76.8894 8.32484 76.6023 8.23825 76.2607 8.23825C75.9049 8.23825 75.6083 8.32959 75.3711 8.51226C75.1362 8.69256 74.9595 8.9381 74.8408 9.24888C74.7246 9.55729 74.6665 9.90366 74.6665 10.288C74.6665 10.677 74.7258 11.0305 74.8444 11.3484C74.9654 11.664 75.1433 11.9154 75.3782 12.1028C75.6154 12.2879 75.9096 12.3804 76.2607 12.3804Z" fill="white"/>
<path d="M83.239 13.0209V5.73303H84.0788V8.4233H84.15C84.2117 8.3284 84.2971 8.20741 84.4062 8.06033C84.5177 7.91087 84.6767 7.77801 84.8831 7.66177C85.0918 7.54315 85.3742 7.48384 85.73 7.48384C86.1902 7.48384 86.5959 7.5989 86.947 7.82902C87.2981 8.05914 87.5722 8.38534 87.7691 8.80762C87.966 9.2299 88.0644 9.7281 88.0644 10.3022C88.0644 10.8811 87.966 11.3828 87.7691 11.8075C87.5722 12.2298 87.2993 12.5572 86.9506 12.7896C86.6019 13.0198 86.1997 13.1348 85.7442 13.1348C85.3931 13.1348 85.112 13.0767 84.9009 12.9605C84.6897 12.8418 84.5272 12.7078 84.4133 12.5583C84.2995 12.4065 84.2117 12.2808 84.15 12.1811H84.0504V13.0209H83.239ZM84.0646 10.288C84.0646 10.7008 84.1251 11.0649 84.2461 11.3805C84.3671 11.6936 84.5438 11.9391 84.7763 12.1171C85.0088 12.2926 85.2935 12.3804 85.6304 12.3804C85.9815 12.3804 86.2745 12.2879 86.5093 12.1028C86.7466 11.9154 86.9245 11.664 87.0431 11.3484C87.1641 11.0305 87.2246 10.677 87.2246 10.288C87.2246 9.90366 87.1653 9.55729 87.0467 9.24888C86.9304 8.9381 86.7537 8.69256 86.5165 8.51226C86.2816 8.32959 85.9862 8.23825 85.6304 8.23825C85.2887 8.23825 85.0017 8.32484 84.7692 8.49803C84.5367 8.66884 84.3612 8.90845 84.2425 9.21686C84.1239 9.52289 84.0646 9.87993 84.0646 10.288Z" fill="white"/>
<path d="M89.6942 15.0707C89.5519 15.0707 89.425 15.0588 89.3135 15.0351C89.202 15.0137 89.1249 14.9924 89.0822 14.971L89.2957 14.2309C89.4997 14.283 89.68 14.302 89.8366 14.2878C89.9932 14.2736 90.1319 14.2036 90.2529 14.0778C90.3763 13.9545 90.489 13.754 90.591 13.4764L90.7476 13.0494L88.7263 7.55501H89.6373L91.1461 11.9107H91.2031L92.7119 7.55501H93.6229L91.3027 13.8181C91.1983 14.1004 91.069 14.3341 90.9148 14.5191C90.7606 14.7065 90.5815 14.8453 90.3775 14.9354C90.1758 15.0256 89.9481 15.0707 89.6942 15.0707Z" fill="white"/>
<path d="M115.285 15.3053C116.661 15.3053 117.377 14.5019 117.705 13.7826H117.804V15.1649H120.135V3.65743H117.777V7.98393H117.705C117.388 7.28163 116.706 6.42189 115.279 6.42189C113.409 6.42189 111.828 7.89408 111.828 10.8608C111.828 13.7489 113.343 15.3053 115.285 15.3053ZM116.034 13.4005C114.874 13.4005 114.242 12.3554 114.242 10.8495C114.242 9.35497 114.863 8.32672 116.034 8.32672C117.183 8.32672 117.827 9.30999 117.827 10.8495C117.827 12.3891 117.172 13.4005 116.034 13.4005ZM121.766 15.1649H124.13V6.53423H121.766V15.1649ZM122.954 5.42178C123.659 5.42178 124.236 4.87669 124.236 4.20807C124.236 3.54509 123.659 3 122.954 3C122.255 3 121.677 3.54509 121.677 4.20807C121.677 4.87669 122.255 5.42178 122.954 5.42178ZM129.596 15.3334C131.704 15.3334 133.125 14.2939 133.458 12.6926L131.272 12.5464C131.033 13.2039 130.423 13.5466 129.635 13.5466C128.453 13.5466 127.703 12.7544 127.703 11.4676V11.462H133.508V10.8046C133.508 7.87159 131.754 6.42189 129.501 6.42189C126.993 6.42189 125.367 8.22557 125.367 10.8889C125.367 13.6253 126.971 15.3334 129.596 15.3334ZM127.703 9.97862C127.753 8.99535 128.491 8.20873 129.54 8.20873C130.567 8.20873 131.277 8.95036 131.283 9.97862H127.703ZM137.102 3.65743H134.738V15.1649H137.102V3.65743Z" fill="white"/>
<path d="M138.33 15.2056C138.568 15.2056 138.76 15.0112 138.76 14.7711C138.76 14.531 138.568 14.3365 138.33 14.3365C138.093 14.3365 137.901 14.531 137.901 14.7711C137.901 15.0112 138.093 15.2056 138.33 15.2056ZM138.33 15.1247C138.137 15.1247 137.981 14.9666 137.981 14.7711C137.981 14.5756 138.137 14.4175 138.33 14.4175C138.524 14.4175 138.68 14.5756 138.68 14.7711C138.68 14.9666 138.524 15.1247 138.33 15.1247ZM138.185 14.9666H138.254V14.8227H138.363L138.437 14.9666H138.515L138.43 14.8075C138.469 14.7869 138.499 14.7461 138.499 14.6912C138.499 14.6098 138.435 14.5658 138.375 14.5658H138.185V14.9666ZM138.254 14.7678V14.6207H138.354C138.388 14.6207 138.423 14.6407 138.423 14.6912C138.423 14.7407 138.389 14.7678 138.352 14.7678H138.254Z" fill="white"/>
<path fill-rule="evenodd" clip-rule="evenodd" d="M105.563 3.67273H103.235V7.45525L100.022 5.5788L98.8577 7.6179L102.087 9.50399L98.8609 11.3881L100.025 13.4272L103.235 11.5528V15.3334H105.563V11.5335L108.841 13.4482L110.005 11.4091L106.743 9.50404L110.009 7.59691L108.845 5.55781L105.563 7.47458V3.67273Z" fill="white"/>
<path d="M5.18182 15H0.880682V3.36364H5.17614C6.36174 3.36364 7.38258 3.59659 8.23864 4.0625C9.09848 4.52462 9.76136 5.19129 10.2273 6.0625C10.6932 6.92992 10.9261 7.9678 10.9261 9.17614C10.9261 10.3883 10.6932 11.4299 10.2273 12.3011C9.76515 13.1723 9.10417 13.8409 8.24432 14.3068C7.38447 14.7689 6.36364 15 5.18182 15ZM3.69318 12.6023H5.07386C5.72538 12.6023 6.27652 12.4924 6.72727 12.2727C7.18182 12.0492 7.52462 11.6875 7.75568 11.1875C7.99053 10.6837 8.10795 10.0133 8.10795 9.17614C8.10795 8.33902 7.99053 7.67235 7.75568 7.17614C7.52083 6.67614 7.17424 6.31629 6.71591 6.09659C6.26136 5.87311 5.70076 5.76136 5.03409 5.76136H3.69318V12.6023ZM14.3977 15H11.375L15.3011 3.36364H19.0455L22.9716 15H19.9489L17.2159 6.29545H17.125L14.3977 15ZM13.9943 10.4205H20.3125V12.5568H13.9943V10.4205ZM24.2244 15V3.36364H29.0312C29.9025 3.36364 30.6544 3.53409 31.2869 3.875C31.9233 4.21212 32.4138 4.68371 32.7585 5.28977C33.1032 5.89205 33.2756 6.5928 33.2756 7.39205C33.2756 8.19508 33.0994 8.89773 32.7472 9.5C32.3987 10.0985 31.9006 10.5625 31.2528 10.892C30.6051 11.2216 29.8362 11.3864 28.946 11.3864H25.9801V9.17045H28.4233C28.8475 9.17045 29.2017 9.09659 29.4858 8.94886C29.7737 8.80114 29.9915 8.5947 30.1392 8.32955C30.2869 8.06061 30.3608 7.74811 30.3608 7.39205C30.3608 7.0322 30.2869 6.72159 30.1392 6.46023C29.9915 6.19508 29.7737 5.99053 29.4858 5.84659C29.1979 5.70265 28.8438 5.63068 28.4233 5.63068H27.0369V15H24.2244Z" fill="white"/>
</svg>
