<svg width="95" height="29" viewBox="0 0 95 29" fill="none" xmlns="http://www.w3.org/2000/svg">
<path d="M38.8793 28.7817C42.1349 28.7817 43.8286 26.9025 44.6031 25.2202H44.8394V28.4532H50.3533V1.53772H44.7737V11.6572H44.6031C43.8547 10.0146 42.24 8.00368 38.8661 8.00368C34.4419 8.00368 30.7004 11.4471 30.7004 18.3862C30.7004 25.1414 34.2843 28.7817 38.8793 28.7817ZM40.6517 24.3264C37.9078 24.3264 36.4111 21.882 36.4111 18.3598C36.4111 14.8641 37.8814 12.459 40.6517 12.459C43.3691 12.459 44.892 14.7588 44.892 18.3598C44.892 21.9608 43.3427 24.3264 40.6517 24.3264ZM54.2121 28.4532H59.8047V8.26644H54.2121V28.4532ZM57.0215 5.66446C58.6888 5.66446 60.054 4.38951 60.054 2.82562C60.054 1.27495 58.6888 0 57.0215 0C55.3674 0 54.0019 1.27495 54.0019 2.82562C54.0019 4.38951 55.3674 5.66446 57.0215 5.66446ZM72.7348 28.8473C77.7235 28.8473 81.0845 26.4161 81.8722 22.6705L76.6994 22.3287C76.1351 23.8664 74.691 24.6682 72.8267 24.6682C70.0305 24.6682 68.2581 22.8151 68.2581 19.8055V19.7923H81.9902V18.2546C81.9902 11.3945 77.8418 8.00368 72.5117 8.00368C66.5779 8.00368 62.7313 12.2224 62.7313 18.4518C62.7313 24.8522 66.5253 28.8473 72.7348 28.8473ZM68.2581 16.3227C68.3764 14.0229 70.1224 12.183 72.6035 12.183C75.0324 12.183 76.7126 13.9177 76.7258 16.3227H68.2581ZM90.493 1.53772H84.9004V28.4532H90.493V1.53772Z" fill="black"/>
<path d="M93.4103 28.5484C93.9719 28.5484 94.4267 28.0936 94.4267 27.5321C94.4267 26.9705 93.9719 26.5156 93.4103 26.5156C92.8487 26.5156 92.394 26.9705 92.394 27.5321C92.394 28.0936 92.8487 28.5484 93.4103 28.5484ZM93.4103 28.359C92.9529 28.359 92.5832 27.9894 92.5832 27.5321C92.5832 27.0747 92.9529 26.705 93.4103 26.705C93.8677 26.705 94.2374 27.0747 94.2374 27.5321C94.2374 27.9894 93.8677 28.359 93.4103 28.359ZM93.066 27.9893H93.23V27.6527H93.4878L93.6631 27.9893H93.8461L93.6467 27.6171C93.7381 27.5689 93.8079 27.4736 93.8079 27.3452C93.8079 27.1547 93.6568 27.0517 93.5158 27.0517H93.066V27.9893ZM93.23 27.5244V27.1801H93.4662C93.5476 27.1801 93.6301 27.227 93.6301 27.3452C93.6301 27.4609 93.5488 27.5244 93.4624 27.5244H93.23Z" fill="black"/>
<path fill-rule="evenodd" clip-rule="evenodd" d="M15.8834 1.57349H10.3762V10.4327L2.75355 6.03173L-6.10352e-05 10.8011L7.64591 15.2155L0.0176242 19.6197L2.77123 24.3891L10.3762 19.9984V28.8473H15.8834V19.9715L23.6198 24.438L26.3734 19.6686L18.6603 15.2155L26.391 10.7522L23.6374 5.98281L15.8834 10.4596V1.57349Z" fill="url(#paint0_linear_7119_1894)"/>
<defs>
<linearGradient id="paint0_linear_7119_1894" x1="13.1954" y1="1.92705" x2="13.1954" y2="28.9061" gradientUnits="userSpaceOnUse">
<stop stop-color="#363BC4"/>
<stop offset="1" stop-color="#00FF9B"/>
</linearGradient>
</defs>
</svg>
