<svg width="90" height="28" viewBox="0 0 90 28" fill="none" xmlns="http://www.w3.org/2000/svg">
<path d="M37.0526 27.755C40.1566 27.755 41.7714 25.9428 42.5098 24.3205H42.7351V27.4381H47.9921V1.48286H42.6724V11.2414H42.5098C41.7963 9.65733 40.2568 7.71816 37.0401 7.71816C32.8221 7.71816 29.2549 11.0387 29.2549 17.7303C29.2549 24.2445 32.6718 27.755 37.0526 27.755ZM38.7424 23.4586C36.1264 23.4586 34.6994 21.1014 34.6994 17.7048C34.6994 14.3338 36.1012 12.0146 38.7424 12.0146C41.3333 12.0146 42.7852 14.2323 42.7852 17.7048C42.7852 21.1773 41.3081 23.4586 38.7424 23.4586ZM51.6711 27.4381H57.0031V7.97155H51.6711V27.4381ZM54.3495 5.46239C55.9392 5.46239 57.2407 4.23292 57.2407 2.72482C57.2407 1.22947 55.9392 0 54.3495 0C52.7725 0 51.4707 1.22947 51.4707 2.72482C51.4707 4.23292 52.7725 5.46239 54.3495 5.46239ZM69.3308 27.8182C74.087 27.8182 77.2914 25.4737 78.0424 21.8618L73.1107 21.5322C72.5727 23.015 71.1958 23.7882 69.4184 23.7882C66.7525 23.7882 65.0627 22.0012 65.0627 19.099V19.0862H78.1549V17.6034C78.1549 10.988 74.1998 7.71816 69.118 7.71816C63.4607 7.71816 59.7933 11.7864 59.7933 17.7936C59.7933 23.9656 63.4106 27.8182 69.3308 27.8182ZM65.0627 15.7404C65.1755 13.5227 66.8401 11.7484 69.2056 11.7484C71.5213 11.7484 73.1233 13.4212 73.1359 15.7404H65.0627ZM86.2616 1.48286H80.9296V27.4381H86.2616V1.48286Z" fill="white"/>
<path d="M89.0305 27.53C89.5659 27.53 89.9995 27.0915 89.9995 26.55C89.9995 26.0085 89.5659 25.5698 89.0305 25.5698C88.4951 25.5698 88.0615 26.0085 88.0615 26.55C88.0615 27.0915 88.4951 27.53 89.0305 27.53ZM89.0305 27.3474C88.5944 27.3474 88.2419 26.9909 88.2419 26.55C88.2419 26.1089 88.5944 25.7524 89.0305 25.7524C89.4666 25.7524 89.819 26.1089 89.819 26.55C89.819 26.9909 89.4666 27.3474 89.0305 27.3474ZM88.7023 26.9909H88.8585V26.6663H89.1044L89.2715 26.9909H89.446L89.2558 26.632C89.343 26.5855 89.4096 26.4936 89.4096 26.3698C89.4096 26.1861 89.2654 26.0868 89.131 26.0868H88.7023V26.9909ZM88.8585 26.5426V26.2106H89.0838C89.1613 26.2106 89.2401 26.2558 89.2401 26.3698C89.2401 26.4814 89.1625 26.5426 89.0801 26.5426H88.8585Z" fill="white"/>
<path fill-rule="evenodd" clip-rule="evenodd" d="M15.1236 1.5175H9.87297V10.049L2.62543 5.8166L0.000181298 10.4158L7.28432 14.6696L0.00605986 18.9198L2.63141 23.519L9.87297 19.2903V27.8184H15.1236V19.2475L22.519 23.5663L25.1442 18.967L17.7855 14.6697L25.1511 10.3686L22.5257 5.76934L15.1236 10.0918V1.5175Z" fill="url(#paint0_linear_1322_5082)"/>
<defs>
<linearGradient id="paint0_linear_1322_5082" x1="12.5755" y1="1.85844" x2="12.5755" y2="27.8751" gradientUnits="userSpaceOnUse">
<stop stop-color="#363BC4"/>
<stop offset="1" stop-color="#00FF9B"/>
</linearGradient>
</defs>
</svg>
