<svg width="122" height="19" viewBox="0 0 122 19" fill="none" xmlns="http://www.w3.org/2000/svg">
<path d="M116.813 15.9769C115.715 15.9769 114.78 15.6782 114.008 15.0807C113.236 14.4785 112.645 13.6066 112.237 12.4652C111.829 11.3189 111.625 9.93463 111.625 8.31235C111.625 6.69979 111.829 5.3228 112.237 4.18138C112.65 3.0351 113.243 2.16082 114.015 1.55854C114.792 0.951397 115.725 0.647827 116.813 0.647827C117.901 0.647827 118.831 0.951397 119.603 1.55854C120.38 2.16082 120.973 3.0351 121.381 4.18138C121.794 5.3228 122 6.69979 122 8.31235C122 9.93463 121.796 11.3189 121.388 12.4652C120.98 13.6066 120.39 14.4785 119.618 15.0807C118.846 15.6782 117.911 15.9769 116.813 15.9769ZM116.813 14.374C117.901 14.374 118.746 13.8495 119.348 12.8003C119.951 11.7512 120.252 10.2552 120.252 8.31235C120.252 7.02036 120.113 5.92023 119.836 5.01194C119.564 4.10366 119.171 3.41153 118.656 2.93553C118.146 2.45953 117.532 2.22153 116.813 2.22153C115.735 2.22153 114.892 2.75339 114.285 3.81709C113.678 4.87595 113.374 6.37436 113.374 8.31235C113.374 9.60435 113.51 10.7021 113.782 11.6055C114.054 12.5089 114.445 13.1962 114.955 13.6673C115.47 14.1385 116.089 14.374 116.813 14.374Z" fill="black"/>
<path d="M105.54 15.9769C104.928 15.9672 104.316 15.8507 103.704 15.6272C103.092 15.4038 102.533 15.0274 102.028 14.4979C101.523 13.9637 101.118 13.2424 100.812 12.3341C100.506 11.421 100.353 10.2747 100.353 8.89524C100.353 7.5741 100.476 6.40353 100.724 5.38353C100.972 4.35868 101.331 3.49654 101.802 2.79711C102.274 2.09283 102.842 1.55854 103.507 1.19425C104.178 0.82997 104.933 0.647827 105.773 0.647827C106.609 0.647827 107.352 0.815399 108.003 1.15054C108.658 1.48083 109.193 1.94225 109.605 2.53482C110.018 3.1274 110.285 3.80982 110.407 4.58211H108.629C108.464 3.91182 108.143 3.35568 107.667 2.91368C107.191 2.47168 106.56 2.25068 105.773 2.25068C104.617 2.25068 103.706 2.7534 103.041 3.75882C102.38 4.76425 102.048 6.17525 102.043 7.99182H102.159C102.431 7.57896 102.754 7.22682 103.128 6.93539C103.507 6.6391 103.925 6.41082 104.382 6.25053C104.838 6.09025 105.321 6.01011 105.831 6.01011C106.686 6.01011 107.468 6.22382 108.177 6.65125C108.887 7.07382 109.455 7.6591 109.882 8.4071C110.31 9.15024 110.523 10.0027 110.523 10.9644C110.523 11.8872 110.317 12.7324 109.904 13.4998C109.491 14.2624 108.911 14.8695 108.163 15.3212C107.42 15.7681 106.545 15.9867 105.54 15.9769ZM105.54 14.3741C106.152 14.3741 106.701 14.2211 107.187 13.9151C107.677 13.6091 108.063 13.1987 108.345 12.6838C108.632 12.169 108.775 11.5958 108.775 10.9644C108.775 10.3475 108.636 9.78653 108.36 9.28139C108.088 8.77139 107.711 8.36582 107.23 8.06467C106.754 7.76353 106.21 7.61296 105.598 7.61296C105.137 7.61296 104.707 7.70525 104.309 7.88982C103.91 8.06953 103.561 8.31724 103.26 8.63296C102.963 8.94867 102.73 9.31053 102.56 9.71853C102.39 10.1217 102.305 10.5467 102.305 10.9935C102.305 11.5861 102.444 12.1398 102.72 12.6547C103.002 13.1695 103.386 13.5848 103.872 13.9005C104.362 14.2162 104.918 14.3741 105.54 14.3741Z" fill="black"/>
<path d="M94.001 15.9769C93.0393 15.9769 92.182 15.8117 91.4292 15.4815C90.6812 15.1512 90.0862 14.6922 89.6442 14.1045C89.207 13.5119 88.969 12.8246 88.9302 12.0426H90.7662C90.805 12.5235 90.9702 12.9388 91.2616 13.2885C91.553 13.6333 91.9343 13.9005 92.4054 14.0899C92.8766 14.2793 93.3987 14.374 93.9719 14.374C94.613 14.374 95.1813 14.2623 95.6767 14.0389C96.1722 13.8155 96.5607 13.5046 96.8424 13.1063C97.1242 12.708 97.265 12.2466 97.265 11.722C97.265 11.1732 97.129 10.6899 96.857 10.2722C96.585 9.84963 96.1867 9.51935 95.6622 9.28135C95.1376 9.04335 94.4964 8.92435 93.7387 8.92435H92.5439V7.3215H93.7387C94.3313 7.3215 94.851 7.21465 95.2979 7.00093C95.7496 6.78722 96.1017 6.48608 96.3543 6.09751C96.6117 5.70894 96.7404 5.25237 96.7404 4.7278C96.7404 4.22266 96.6287 3.78309 96.4053 3.4091C96.1819 3.0351 95.8662 2.74367 95.4582 2.53482C95.055 2.32596 94.579 2.22153 94.0302 2.22153C93.5153 2.22153 93.0296 2.31625 92.573 2.50567C92.1213 2.69024 91.7522 2.95981 91.4656 3.31438C91.179 3.6641 91.0236 4.08666 90.9993 4.58209H89.2507C89.2799 3.80009 89.5155 3.11524 89.9575 2.52753C90.3995 1.93496 90.9775 1.47354 91.6915 1.14325C92.4103 0.812969 93.1996 0.647827 94.0593 0.647827C94.9822 0.647827 95.7739 0.834826 96.4344 1.20882C97.095 1.57796 97.6026 2.0661 97.9572 2.67324C98.3117 3.28038 98.489 3.93609 98.489 4.64038C98.489 5.48066 98.268 6.19708 97.826 6.78965C97.3889 7.38222 96.7939 7.79264 96.041 8.02093V8.1375C96.9833 8.29293 97.7191 8.69364 98.2486 9.33963C98.778 9.98077 99.0427 10.7749 99.0427 11.722C99.0427 12.5332 98.8217 13.2618 98.3797 13.9077C97.9426 14.5489 97.3452 15.054 96.5874 15.4232C95.8297 15.7923 94.9676 15.9769 94.001 15.9769Z" fill="black"/>
<path d="M86.7314 7.77362L83.89 7.94847C83.8414 7.70562 83.737 7.48704 83.5767 7.29276C83.4164 7.09362 83.2051 6.93576 82.9428 6.81919C82.6854 6.69776 82.377 6.63705 82.0175 6.63705C81.5367 6.63705 81.1311 6.73905 80.8008 6.94305C80.4705 7.14219 80.3054 7.40933 80.3054 7.74447C80.3054 8.01161 80.4122 8.23747 80.626 8.42204C80.8397 8.60661 81.2064 8.75476 81.7261 8.86647L83.7515 9.27447C84.8395 9.4979 85.6507 9.85732 86.185 10.3528C86.7193 10.8482 86.9864 11.499 86.9864 12.3053C86.9864 13.0387 86.7703 13.6823 86.338 14.236C85.9105 14.7897 85.3228 15.222 84.5748 15.5329C83.8317 15.8389 82.9744 15.9919 82.003 15.9919C80.5215 15.9919 79.3412 15.6835 78.4621 15.0666C77.5878 14.4449 77.0754 13.5997 76.9248 12.5312L79.9775 12.3709C80.0698 12.8226 80.2932 13.1675 80.6478 13.4055C81.0024 13.6386 81.4565 13.7552 82.0102 13.7552C82.5542 13.7552 82.9914 13.6507 83.3217 13.4419C83.6568 13.2282 83.8268 12.9537 83.8317 12.6186C83.8268 12.3369 83.7078 12.1062 83.4747 11.9265C83.2415 11.7419 82.8821 11.601 82.3964 11.5039L80.4584 11.1177C79.3655 10.8992 78.5519 10.5203 78.0177 9.98118C77.4882 9.44204 77.2235 8.75476 77.2235 7.91933C77.2235 7.20047 77.4178 6.58119 77.8064 6.06148C78.1998 5.54176 78.7511 5.14105 79.4602 4.85934C80.1742 4.57762 81.0097 4.43677 81.9665 4.43677C83.38 4.43677 84.4922 4.73548 85.3034 5.33291C86.1194 5.93033 86.5954 6.7439 86.7314 7.77362Z" fill="black"/>
<path d="M72.1232 11.0079V4.58191H75.2269V15.7727H72.247V13.74H72.1305C71.8779 14.3957 71.4578 14.9227 70.87 15.321C70.2872 15.7193 69.5756 15.9184 68.7353 15.9184C67.9873 15.9184 67.3292 15.7484 66.7609 15.4084C66.1926 15.0684 65.7482 14.5852 65.4276 13.9586C65.1119 13.332 64.9516 12.5816 64.9468 11.7073V4.58191H68.0505V11.1536C68.0553 11.8142 68.2326 12.3363 68.5823 12.72C68.932 13.1037 69.4008 13.2956 69.9885 13.2956C70.3625 13.2956 70.7122 13.2106 71.0376 13.0406C71.363 12.8657 71.6253 12.6083 71.8245 12.2683C72.0285 11.9283 72.128 11.5082 72.1232 11.0079Z" fill="black"/>
<path d="M59.6434 15.7735V4.5827H62.7471V15.7735H59.6434ZM61.2026 3.14014C60.7411 3.14014 60.3453 2.98714 60.015 2.68114C59.6896 2.37028 59.5269 1.99871 59.5269 1.56642C59.5269 1.139 59.6896 0.772284 60.015 0.466285C60.3453 0.155428 60.7411 0 61.2026 0C61.664 0 62.0574 0.155428 62.3828 0.466285C62.7131 0.772284 62.8783 1.139 62.8783 1.56642C62.8783 1.99871 62.7131 2.37028 62.3828 2.68114C62.0574 2.98714 61.664 3.14014 61.2026 3.14014Z" fill="black"/>
<path d="M57.7231 7.77362L54.8817 7.94847C54.8331 7.70562 54.7287 7.48704 54.5684 7.29276C54.4081 7.09362 54.1968 6.93576 53.9345 6.81919C53.6771 6.69776 53.3687 6.63705 53.0092 6.63705C52.5284 6.63705 52.1228 6.73905 51.7925 6.94305C51.4622 7.14219 51.2971 7.40933 51.2971 7.74447C51.2971 8.01161 51.4039 8.23747 51.6177 8.42204C51.8314 8.60661 52.1981 8.75476 52.7178 8.86647L54.7432 9.27447C55.8312 9.4979 56.6424 9.85732 57.1767 10.3528C57.711 10.8482 57.9781 11.499 57.9781 12.3053C57.9781 13.0387 57.762 13.6823 57.3297 14.236C56.9022 14.7897 56.3145 15.222 55.5665 15.5329C54.8234 15.8389 53.9661 15.9919 52.9947 15.9919C51.5132 15.9919 50.3329 15.6835 49.4538 15.0666C48.5795 14.4449 48.0671 13.5997 47.9165 12.5312L50.9692 12.3709C51.0615 12.8226 51.2849 13.1675 51.6395 13.4055C51.9941 13.6386 52.4482 13.7552 53.0019 13.7552C53.5459 13.7552 53.9831 13.6507 54.3134 13.4419C54.6485 13.2282 54.8185 12.9537 54.8234 12.6186C54.8185 12.3369 54.6995 12.1062 54.4664 11.9265C54.2332 11.7419 53.8738 11.601 53.3881 11.5039L51.4501 11.1177C50.3572 10.8992 49.5437 10.5203 49.0094 9.98118C48.4799 9.44204 48.2152 8.75476 48.2152 7.91933C48.2152 7.20047 48.4095 6.58119 48.7981 6.06148C49.1915 5.54176 49.7428 5.14105 50.4519 4.85934C51.1659 4.57762 52.0014 4.43677 52.9582 4.43677C54.3717 4.43677 55.484 4.73548 56.2951 5.33291C57.1111 5.93033 57.5871 6.7439 57.7231 7.77362Z" fill="black"/>
<path d="M46.216 0.853149V15.7742H43.1123V0.853149H46.216Z" fill="black"/>
<path d="M36.2373 15.9919C35.0861 15.9919 34.0953 15.7587 33.2647 15.2925C32.439 14.8213 31.8027 14.1559 31.3558 13.2962C30.909 12.4316 30.6855 11.4092 30.6855 10.2289C30.6855 9.07775 30.909 8.06747 31.3558 7.19805C31.8027 6.32862 32.4317 5.65105 33.2428 5.16534C34.0588 4.67962 35.0157 4.43677 36.1134 4.43677C36.8517 4.43677 37.539 4.55577 38.1753 4.79377C38.8164 5.02691 39.375 5.37905 39.851 5.85019C40.3319 6.32133 40.7059 6.9139 40.973 7.6279C41.2401 8.33704 41.3737 9.16761 41.3737 10.1196V10.972H31.9241V9.04861H38.4521C38.4521 8.60176 38.355 8.2059 38.1607 7.86104C37.9664 7.51619 37.6968 7.24662 37.352 7.05233C37.012 6.85319 36.6161 6.75362 36.1644 6.75362C35.6933 6.75362 35.2756 6.8629 34.9113 7.08147C34.5518 7.29519 34.2701 7.58419 34.0661 7.94847C33.8621 8.3079 33.7577 8.70861 33.7528 9.15061V10.9793C33.7528 11.533 33.8548 12.0115 34.0588 12.4146C34.2677 12.8177 34.5616 13.1286 34.9404 13.3472C35.3193 13.5657 35.7686 13.675 36.2883 13.675C36.6331 13.675 36.9488 13.6265 37.2354 13.5293C37.522 13.4322 37.7673 13.2865 37.9713 13.0922C38.1753 12.8979 38.3307 12.6599 38.4376 12.3782L41.3081 12.5676C41.1624 13.2573 40.8637 13.8596 40.412 14.3745C39.9651 14.8845 39.3871 15.2827 38.678 15.5693C37.9737 15.851 37.1601 15.9919 36.2373 15.9919Z" fill="black"/>
<path d="M24.4377 15.9919C23.2914 15.9919 22.3054 15.749 21.4797 15.2633C20.6588 14.7727 20.0274 14.0927 19.5854 13.2233C19.1483 12.3539 18.9297 11.3533 18.9297 10.2216C18.9297 9.07533 19.1507 8.0699 19.5927 7.20533C20.0395 6.3359 20.6734 5.65833 21.4943 5.17262C22.3151 4.68205 23.2914 4.43677 24.4231 4.43677C25.3994 4.43677 26.2543 4.61405 26.9877 4.96862C27.7211 5.32319 28.3015 5.82105 28.729 6.46219C29.1564 7.10333 29.392 7.85619 29.4357 8.72076H26.5068C26.4242 8.16219 26.2057 7.7129 25.8511 7.3729C25.5014 7.02805 25.0424 6.85562 24.4741 6.85562C23.9933 6.85562 23.5731 6.98676 23.2137 7.24905C22.8591 7.50647 22.5823 7.8829 22.3831 8.37833C22.184 8.87376 22.0844 9.47361 22.0844 10.1779C22.0844 10.8919 22.1815 11.499 22.3758 11.9993C22.575 12.4996 22.8543 12.8809 23.2137 13.1432C23.5731 13.4055 23.9933 13.5366 24.4741 13.5366C24.8287 13.5366 25.1468 13.4637 25.4285 13.318C25.7151 13.1723 25.9507 12.961 26.1353 12.6842C26.3247 12.4025 26.4485 12.0649 26.5068 11.6715H29.4357C29.3871 12.5263 29.154 13.2792 28.7362 13.93C28.3234 14.576 27.7527 15.0812 27.0241 15.4455C26.2955 15.8097 25.4334 15.9919 24.4377 15.9919Z" fill="black"/>
<path fill-rule="evenodd" clip-rule="evenodd" d="M16.1027 10.1862C16.1027 14.6328 12.498 18.2375 8.05137 18.2375C3.60472 18.2375 0 14.6328 0 10.1862C0 5.73958 3.60472 2.13489 8.05137 2.13489C12.498 2.13489 16.1027 5.73958 16.1027 10.1862ZM8.05137 15.094C10.7619 15.094 12.9592 12.8967 12.9592 10.1862C12.9592 7.47572 10.7619 5.27843 8.05137 5.27843C5.34086 5.27843 3.14356 7.47572 3.14356 10.1862C3.14356 12.8967 5.34086 15.094 8.05137 15.094Z" fill="url(#paint0_linear_3538_5987)"/>
<defs>
<linearGradient id="paint0_linear_3538_5987" x1="8.05137" y1="2.13489" x2="8.05137" y2="18.2375" gradientUnits="userSpaceOnUse">
<stop stop-color="#2D81FF"/>
<stop offset="1" stop-color="#3DD598"/>
</linearGradient>
</defs>
</svg>
