<svg width="76" height="34" viewBox="0 0 76 34" fill="none" xmlns="http://www.w3.org/2000/svg">
    <path
        d="M9.51211 28.638H7.41704V30.2006H9.27867V30.9156H7.41704V32.5475H9.51211V33.2625H6.53583V27.9287H9.51211V28.638Z"
        fill="#ED193F" />
    <path
        d="M21.2305 27.9277V33.2615H20.3434L17.6823 29.2828V33.2615H16.8011V27.9277H17.6823L20.3434 31.8949V27.9277H21.2305Z"
        fill="#ED193F" />
    <path
        d="M31.5775 28.637H29.4824V30.1996H31.344V30.9146H29.4824V32.5465H31.5775V33.2615H28.6012V27.9277H31.5775V28.637Z"
        fill="#ED193F" />
    <path
        d="M40.728 27.9326C42.0061 27.9326 42.6363 28.6592 42.6363 29.5241C42.6363 30.1526 42.2979 30.8273 41.3875 31.0521L42.7239 33.2606H41.6676L40.4246 31.1329H39.7476V33.2606H38.8664V27.9326H40.728ZM40.728 28.6419H39.7534V30.4294H40.728C41.4167 30.4294 41.726 30.0546 41.726 29.5241C41.726 28.9878 41.4167 28.6419 40.728 28.6419Z"
        fill="#ED193F" />
    <path
        d="M54.9325 29.4672H53.8704C53.5844 28.9309 53.0708 28.6599 52.4289 28.6599C51.3609 28.6599 50.5848 29.4095 50.5848 30.5858C50.5848 31.7564 51.3609 32.5175 52.4289 32.5175C53.4035 32.5175 54.0162 31.9351 54.1505 31.0414H52.1254V30.3379H55.0959V31.0183C54.9325 32.2523 53.8762 33.3017 52.4289 33.3017C50.9057 33.3017 49.6744 32.1831 49.6744 30.5801C49.6744 28.9886 50.9057 27.8584 52.4289 27.8584C53.5494 27.8642 54.524 28.4235 54.9325 29.4672Z"
        fill="#ED193F" />
    <path d="M62.1689 27.9326H63.0502V33.2606H62.1689V27.9326Z" fill="#ED193F" />
    <path
        d="M73.6655 32.1717H71.4071L71.0161 33.2615H70.094L72.0257 27.9277H73.0469L74.9786 33.2615H74.0507L73.6655 32.1717ZM72.545 28.983L71.658 31.4567H73.4204L72.545 28.983Z"
        fill="#ED193F" />
    <path
        d="M13.1538 12.9292C12.6052 12.2603 11.9516 11.257 11.8407 11.1416C11.7707 11.0667 11.689 10.9975 11.5956 10.9629C11.1579 10.7957 10.6677 10.8937 10.4226 11.3377C10.3467 11.4819 8.87609 14.6129 8.666 15.0569C8.25165 13.4712 7.17786 9.61936 7.13117 9.46368C7.10199 9.36565 7.06114 9.27339 7.01445 9.18113C6.73433 8.63911 5.93482 8.58721 5.56133 9.05427C5.47379 9.16383 4.37081 10.9398 3.23282 12.8946C3.12194 12.8946 1.48791 12.9061 0.425781 12.9119V14.1343C1.72134 14.1343 2.73678 14.1632 3.27951 14.1632C3.81057 14.1632 4.10236 14.0882 4.32413 13.8056C4.44084 13.6673 5.45044 12.0469 5.97567 11.1128C6.08655 11.5222 7.49299 16.9828 7.55135 17.1328C7.61554 17.3057 7.71475 17.4557 7.87816 17.5595C8.25165 17.8016 8.87609 17.7728 9.15621 17.2711C9.23791 17.1328 11.2279 12.785 11.3155 12.589C11.6656 13.1022 11.9282 13.4308 12.1267 13.7076C12.4885 14.1401 12.7277 14.1113 13.1538 14.1113C13.2238 14.1113 15.0913 14.1113 16.5094 14.1113V12.9234C15.3597 12.9234 13.4047 12.9234 13.1538 12.9292Z"
        fill="#ED193F" />
    <path d="M31.9393 0.699219H37.9327V25.0039H31.9393V0.699219Z" fill="white" />
    <path
        d="M57.3427 5.44482H48.2679V10.3634H56.2922V14.936H48.2679V20.2698H57.3427V25.0154H42.2745V0.699219H57.3427V5.44482Z"
        fill="white" />
    <path d="M67.2227 0.699219V20.437H75.072V25.0096H61.2293V0.699219H67.2227Z" fill="white" />
    <path
        d="M15.6631 0.763672H6.43658V5.82642H15.2779C19.8007 5.82642 22.4677 8.46158 22.4677 12.9304C22.4677 17.3992 19.8007 19.9652 15.2779 19.9652H6.43658V25.0971H15.6631C23.5181 25.0971 28.5719 20.1382 28.5719 12.9304C28.5719 5.68226 23.5239 0.763672 15.6631 0.763672Z"
        fill="white" />
</svg>