<svg width="45" height="14" viewBox="0 0 45 14" fill="none" xmlns="http://www.w3.org/2000/svg">
<path d="M18.1863 13.6249C19.7101 13.6249 20.5027 12.7353 20.8652 11.9389H20.9758V13.4694H23.5565V0.727937H20.9451V5.5184H20.8652C20.515 4.74079 19.7592 3.78885 18.1801 3.78885C16.1095 3.78885 14.3584 5.41892 14.3584 8.70383C14.3584 11.9016 16.0357 13.6249 18.1863 13.6249ZM19.0159 11.5158C17.7316 11.5158 17.0311 10.3587 17.0311 8.69132C17.0311 7.03647 17.7193 5.89795 19.0159 5.89795C20.2877 5.89795 21.0004 6.98666 21.0004 8.69132C21.0004 10.396 20.2753 11.5158 19.0159 11.5158ZM25.3625 13.4694H27.98V3.91324H25.3625V13.4694ZM26.6774 2.68149C27.4577 2.68149 28.0967 2.07794 28.0967 1.33762C28.0967 0.603548 27.4577 0 26.6774 0C25.9032 0 25.2641 0.603548 25.2641 1.33762C25.2641 2.07794 25.9032 2.68149 26.6774 2.68149ZM34.0317 13.656C36.3665 13.656 37.9396 12.5051 38.3082 10.732L35.8872 10.5702C35.6231 11.2981 34.9472 11.6776 34.0747 11.6776C32.766 11.6776 31.9365 10.8004 31.9365 9.3757V9.36945H38.3635V8.64151C38.3635 5.39401 36.4219 3.78885 33.9272 3.78885C31.1501 3.78885 29.3497 5.78595 29.3497 8.73487C29.3497 11.7647 31.1255 13.656 34.0317 13.656ZM31.9365 7.72699C31.9918 6.63828 32.809 5.76731 33.9702 5.76731C35.107 5.76731 35.8934 6.58847 35.8996 7.72699H31.9365ZM42.343 0.727937H39.7255V13.4694H42.343V0.727937Z" fill="white"/>
<path d="M43.7042 13.5145C43.967 13.5145 44.1799 13.2992 44.1799 13.0334C44.1799 12.7675 43.967 12.5522 43.7042 12.5522C43.4414 12.5522 43.2285 12.7675 43.2285 13.0334C43.2285 13.2992 43.4414 13.5145 43.7042 13.5145ZM43.7042 13.4248C43.4901 13.4248 43.3171 13.2498 43.3171 13.0334C43.3171 12.8168 43.4901 12.6418 43.7042 12.6418C43.9182 12.6418 44.0913 12.8168 44.0913 13.0334C44.0913 13.2498 43.9182 13.4248 43.7042 13.4248ZM43.5431 13.2498H43.6198V13.0904H43.7405L43.8225 13.2498H43.9081L43.8148 13.0736C43.8576 13.0508 43.8903 13.0057 43.8903 12.9449C43.8903 12.8547 43.8195 12.806 43.7535 12.806H43.5431V13.2498ZM43.6198 13.0297V12.8668H43.7303C43.7684 12.8668 43.8071 12.889 43.8071 12.9449C43.8071 12.9997 43.769 13.0297 43.7285 13.0297H43.6198Z" fill="white"/>
<path fill-rule="evenodd" clip-rule="evenodd" d="M7.42057 0.744965H4.84305V4.93105L1.28874 2.85541L0 5.11319L3.57525 7.20105L0.00186547 9.28774L1.29065 11.5455L4.84305 9.47107V13.6561H7.42057V9.44662L11.0545 11.5687L12.3432 9.31096L8.73029 7.2011L12.3456 5.08996L11.0568 2.83219L7.42057 4.95556V0.744965Z" fill="white"/>
</svg>
