<svg width="90" height="28" viewBox="0 0 90 28" fill="none" xmlns="http://www.w3.org/2000/svg">
<path d="M37.0566 27.4324C40.1596 27.4324 41.7739 25.6413 42.5121 24.0378H42.7374V27.1192H47.9928V1.46563H42.6747V11.1107H42.5121C41.7988 9.54509 40.2598 7.62846 37.044 7.62846C32.8273 7.62846 29.2612 10.9104 29.2612 17.5243C29.2612 23.9627 32.6771 27.4324 37.0566 27.4324ZM38.7459 23.186C36.1307 23.186 34.7041 20.8561 34.7041 17.4991C34.7041 14.1672 36.1055 11.8749 38.7459 11.8749C41.336 11.8749 42.7875 14.0669 42.7875 17.4991C42.7875 20.9312 41.3108 23.186 38.7459 23.186ZM51.6706 27.1192H57.001V7.87891H51.6706V27.1192ZM54.3483 5.39891C55.9374 5.39891 57.2386 4.18372 57.2386 2.69315C57.2386 1.21518 55.9374 0 54.3483 0C52.7717 0 51.4703 1.21518 51.4703 2.69315C51.4703 4.18372 52.7717 5.39891 54.3483 5.39891ZM69.325 27.4949C74.0798 27.4949 77.2832 25.1777 78.034 21.6077L73.1038 21.2819C72.5659 22.7476 71.1894 23.5117 69.4126 23.5117C66.7475 23.5117 65.0582 21.7455 65.0582 18.877V18.8644H78.1465V17.3988C78.1465 10.8603 74.1925 7.62846 69.1123 7.62846C63.4567 7.62846 59.7904 11.6494 59.7904 17.5868C59.7904 23.6871 63.4066 27.4949 69.325 27.4949ZM65.0582 15.5575C65.1709 13.3655 66.8351 11.6119 69.1999 11.6119C71.5149 11.6119 73.1163 13.2652 73.1289 15.5575H65.0582ZM86.2507 1.46563H80.9203V27.1192H86.2507V1.46563Z" fill="white"/>
<path d="M89.0312 27.2102C89.5664 27.2102 90 26.7767 90 26.2415C90 25.7063 89.5664 25.2727 89.0312 25.2727C88.496 25.2727 88.0625 25.7063 88.0625 26.2415C88.0625 26.7767 88.496 27.2102 89.0312 27.2102ZM89.0312 27.0297C88.5952 27.0297 88.2429 26.6773 88.2429 26.2415C88.2429 25.8055 88.5952 25.4532 89.0312 25.4532C89.4672 25.4532 89.8195 25.8055 89.8195 26.2415C89.8195 26.6773 89.4672 27.0297 89.0312 27.0297ZM88.7031 26.6773H88.8593V26.3564H89.1051L89.2722 26.6773H89.4466L89.2565 26.3226C89.3437 26.2766 89.4102 26.1858 89.4102 26.0634C89.4102 25.8818 89.2661 25.7837 89.1317 25.7837H88.7031V26.6773ZM88.8593 26.2342V25.9061H89.0845C89.162 25.9061 89.2407 25.9508 89.2407 26.0634C89.2407 26.1737 89.1632 26.2342 89.0808 26.2342H88.8593Z" fill="white"/>
<path fill-rule="evenodd" clip-rule="evenodd" d="M15.139 1.49976H9.88997V9.94363L2.62451 5.74891L0 10.2947L7.28745 14.5021L0.0166811 18.6999L2.64119 23.2457L9.88997 19.0606V27.4949H15.139V19.0352L22.5125 23.2923L25.137 18.7465L17.7855 14.5021L25.1537 10.2481L22.5292 5.7023L15.139 9.96902V1.49976Z" fill="url(#paint0_linear_64_135)"/>
<defs>
<linearGradient id="paint0_linear_64_135" x1="12.5769" y1="1.83674" x2="12.5769" y2="27.551" gradientUnits="userSpaceOnUse">
<stop stop-color="#363BC4"/>
<stop offset="1" stop-color="#00FF9B"/>
</linearGradient>
</defs>
</svg>
