<svg width="26" height="27" viewBox="0 0 26 27" fill="none" xmlns="http://www.w3.org/2000/svg">
<path d="M22.6863 10.3353H3.31373C2.43529 10.3341 1.59321 10.032 0.972057 9.49505C0.350905 8.95812 0.00134834 8.23022 0 7.47089L0 3.06411C0.00134834 2.30478 0.350905 1.57689 0.972057 1.03996C1.59321 0.503032 2.43529 0.200873 3.31373 0.199707L22.6863 0.199707C23.5647 0.200873 24.4068 0.503032 25.0279 1.03996C25.6491 1.57689 25.9987 2.30478 26 3.06411V7.47089C25.9987 8.23022 25.6491 8.95812 25.0279 9.49505C24.4068 10.032 23.5647 10.3341 22.6863 10.3353V10.3353ZM3.31373 2.4031C3.11091 2.4031 2.91641 2.47274 2.773 2.5967C2.62959 2.72067 2.54902 2.8888 2.54902 3.06411V7.47089C2.54902 7.64621 2.62959 7.81434 2.773 7.9383C2.91641 8.06227 3.11091 8.13191 3.31373 8.13191H22.6863C22.8891 8.13191 23.0836 8.06227 23.227 7.9383C23.3704 7.81434 23.451 7.64621 23.451 7.47089V3.06411C23.451 2.8888 23.3704 2.72067 23.227 2.5967C23.0836 2.47274 22.8891 2.4031 22.6863 2.4031H3.31373Z" fill="#464555"/>
<path d="M22.6865 18.2655H3.31392C2.43548 18.2643 1.5934 17.9622 0.972248 17.4252C0.351096 16.8883 0.00153907 16.1604 0.000190735 15.4011L0.000190735 10.9943C0.00153907 10.235 0.351096 9.50706 0.972248 8.97014C1.5934 8.43321 2.43548 8.13105 3.31392 8.12988H22.6865C23.5649 8.13105 24.407 8.43321 25.0281 8.97014C25.6493 9.50706 25.9988 10.235 26.0002 10.9943V15.4011C25.9988 16.1604 25.6493 16.8883 25.0281 17.4252C24.407 17.9622 23.5649 18.2643 22.6865 18.2655V18.2655ZM3.31392 10.3333C3.1111 10.3333 2.9166 10.4029 2.77319 10.5269C2.62978 10.6508 2.54921 10.819 2.54921 10.9943V15.4011C2.54921 15.5764 2.62978 15.7445 2.77319 15.8685C2.9166 15.9924 3.1111 16.0621 3.31392 16.0621H22.6865C22.8893 16.0621 23.0838 15.9924 23.2272 15.8685C23.3706 15.7445 23.4512 15.5764 23.4512 15.4011V10.9943C23.4512 10.819 23.3706 10.6508 23.2272 10.5269C23.0838 10.4029 22.8893 10.3333 22.6865 10.3333H3.31392Z" fill="#464555"/>
<path d="M22.6865 26.2H3.31392C2.43548 26.1989 1.5934 25.8967 0.972248 25.3598C0.351096 24.8229 0.00153907 24.095 0.000190735 23.3356L0.000190735 18.9289C0.00153907 18.1695 0.351096 17.4416 0.972248 16.9047C1.5934 16.3678 2.43548 16.0656 3.31392 16.0645H22.6865C23.5649 16.0656 24.407 16.3678 25.0281 16.9047C25.6493 17.4416 25.9988 18.1695 26.0002 18.9289V23.3356C25.9988 24.095 25.6493 24.8229 25.0281 25.3598C24.407 25.8967 23.5649 26.1989 22.6865 26.2V26.2ZM3.31392 18.2678C3.1111 18.2678 2.9166 18.3375 2.77319 18.4615C2.62978 18.5854 2.54921 18.7535 2.54921 18.9289V23.3356C2.54921 23.511 2.62978 23.6791 2.77319 23.8031C2.9166 23.927 3.1111 23.9967 3.31392 23.9967H22.6865C22.8893 23.9967 23.0838 23.927 23.2272 23.8031C23.3706 23.6791 23.4512 23.511 23.4512 23.3356V18.9289C23.4512 18.7535 23.3706 18.5854 23.2272 18.4615C23.0838 18.3375 22.8893 18.2678 22.6865 18.2678H3.31392Z" fill="#464555"/>
<path d="M7.64737 6.36843H6.11796C5.77994 6.36843 5.45576 6.25236 5.21675 6.04575C4.97773 5.83914 4.84345 5.55892 4.84345 5.26673C4.84345 4.97455 4.97773 4.69433 5.21675 4.48772C5.45576 4.28111 5.77994 4.16504 6.11796 4.16504H7.64737C7.98539 4.16504 8.30957 4.28111 8.54859 4.48772C8.78761 4.69433 8.92188 4.97455 8.92188 5.26673C8.92188 5.55892 8.78761 5.83914 8.54859 6.04575C8.30957 6.25236 7.98539 6.36843 7.64737 6.36843V6.36843Z" fill="#464555"/>
<path d="M19.8822 6.36843H12.7449C12.4069 6.36843 12.0827 6.25236 11.8437 6.04575C11.6047 5.83914 11.4704 5.55892 11.4704 5.26673C11.4704 4.97455 11.6047 4.69433 11.8437 4.48772C12.0827 4.28111 12.4069 4.16504 12.7449 4.16504H19.8822C20.2202 4.16504 20.5444 4.28111 20.7834 4.48772C21.0224 4.69433 21.1567 4.97455 21.1567 5.26673C21.1567 5.55892 21.0224 5.83914 20.7834 6.04575C20.5444 6.25236 20.2202 6.36843 19.8822 6.36843V6.36843Z" fill="#464555"/>
<path d="M7.64737 14.4551H6.11796C5.77994 14.4551 5.45576 14.339 5.21675 14.1324C4.97773 13.9258 4.84345 13.6456 4.84345 13.3534C4.84345 13.0612 4.97773 12.781 5.21675 12.5744C5.45576 12.3678 5.77994 12.2517 6.11796 12.2517H7.64737C7.98539 12.2517 8.30957 12.3678 8.54859 12.5744C8.78761 12.781 8.92188 13.0612 8.92188 13.3534C8.92188 13.6456 8.78761 13.9258 8.54859 14.1324C8.30957 14.339 7.98539 14.4551 7.64737 14.4551Z" fill="#464555"/>
<path d="M19.8822 14.4551H12.7449C12.4069 14.4551 12.0827 14.339 11.8437 14.1324C11.6047 13.9258 11.4704 13.6456 11.4704 13.3534C11.4704 13.0612 11.6047 12.781 11.8437 12.5744C12.0827 12.3678 12.4069 12.2517 12.7449 12.2517H19.8822C20.2202 12.2517 20.5444 12.3678 20.7834 12.5744C21.0224 12.781 21.1567 13.0612 21.1567 13.3534C21.1567 13.6456 21.0224 13.9258 20.7834 14.1324C20.5444 14.339 20.2202 14.4551 19.8822 14.4551Z" fill="#464555"/>
<path d="M7.64737 22.2334H6.11796C5.77994 22.2334 5.45576 22.1173 5.21675 21.9107C4.97773 21.7041 4.84345 21.4239 4.84345 21.1317C4.84345 20.8395 4.97773 20.5593 5.21675 20.3527C5.45576 20.1461 5.77994 20.03 6.11796 20.03H7.64737C7.98539 20.03 8.30957 20.1461 8.54859 20.3527C8.78761 20.5593 8.92188 20.8395 8.92188 21.1317C8.92188 21.4239 8.78761 21.7041 8.54859 21.9107C8.30957 22.1173 7.98539 22.2334 7.64737 22.2334Z" fill="#464555"/>
<path d="M19.8822 22.2334H12.7449C12.4069 22.2334 12.0827 22.1173 11.8437 21.9107C11.6047 21.7041 11.4704 21.4239 11.4704 21.1317C11.4704 20.8395 11.6047 20.5593 11.8437 20.3527C12.0827 20.1461 12.4069 20.03 12.7449 20.03H19.8822C20.2202 20.03 20.5444 20.1461 20.7834 20.3527C21.0224 20.5593 21.1567 20.8395 21.1567 21.1317C21.1567 21.4239 21.0224 21.7041 20.7834 21.9107C20.5444 22.1173 20.2202 22.2334 19.8822 22.2334Z" fill="#464555"/>
</svg>
