<svg width="505" height="506" viewBox="0 0 505 506" fill="none" xmlns="http://www.w3.org/2000/svg">
<path d="M504.47 255.21C504.47 292.87 504.47 330.537 504.47 368.21C504.47 379.94 498.47 387.58 488.47 392.51C463.54 404.72 438.53 416.76 413.63 429.03C382.157 444.55 350.73 460.153 319.35 475.84C302.08 484.43 284.92 493.25 267.54 501.61C262.988 503.927 257.953 505.135 252.845 505.135C247.737 505.135 242.702 503.927 238.15 501.61C202 483.81 165.98 465.88 129.86 448.08C94.1936 430.547 58.4869 413.107 22.7402 395.76C8.23025 388.69 0.470238 377.66 0.590238 361.01C0.890238 318.86 0.800238 276.7 0.840238 234.54C0.840238 203.38 0.840238 172.223 0.840238 141.07C0.840238 129.33 6.84024 121.15 16.9202 116.07C42.4202 103.07 68.0902 90.47 93.6202 77.56C128.64 59.8533 163.64 42.0667 198.62 24.2C212.1 17.35 225.53 10.37 239.14 3.77C248.54 -0.779999 258.14 -0.520002 267.51 4.22C315.404 28.4867 363.307 52.7833 411.22 77.11C436.554 89.99 461.91 102.87 487.29 115.75C498.52 121.46 504.5 130.4 504.48 143.25C504.407 180.583 504.407 217.917 504.48 255.25L504.47 255.21ZM45.6902 174.88C45.5002 177.68 45.3002 179.31 45.3002 180.94C45.3002 237.267 45.3002 293.6 45.3002 349.94C45.3002 354.49 46.7602 357.14 51.0102 359.22C81.1702 374.02 111.15 389.16 141.27 404.03C168.86 417.65 196.54 431.03 224.19 444.56C225.981 445.322 227.81 445.989 229.67 446.56C229.79 444.19 229.94 442.56 229.94 440.94C229.98 384.62 230.04 328.303 230.12 271.99C230.12 268.66 229.06 266.86 226.12 265.44C216.99 261.06 207.96 256.44 198.91 251.88C150.21 227.293 101.514 202.7 52.8202 178.1C50.7902 177.03 48.6902 176.2 45.6902 174.88ZM460.01 174.81C457.01 176.17 455.16 176.89 453.43 177.76C432.937 188.073 412.454 198.407 391.98 208.76C354.74 227.633 317.507 246.517 280.28 265.41C277.01 267.06 275.76 269.07 275.76 272.76C275.76 328.907 275.717 385.06 275.63 441.22C275.731 443.116 275.927 445.005 276.22 446.88C279.22 445.53 281.53 444.59 283.74 443.5C295.51 437.69 307.24 431.8 319.03 426.02C363.957 403.98 408.91 381.98 453.89 360.02C458.35 357.85 460.15 355.09 460.13 350.02C459.93 301.7 459.99 253.37 459.97 205.02L460.01 174.81ZM432.01 138.01C431.088 137.228 430.116 136.507 429.1 135.85C371.767 107.03 314.434 78.2067 257.1 49.38C253.71 47.67 250.87 48 247.69 49.59C229.09 58.88 210.4 67.99 191.85 77.37C154.164 96.43 116.497 115.563 78.8503 134.77C77.2203 135.6 75.6902 136.65 73.5502 137.94C75.6502 139.29 76.8303 140.22 78.1403 140.88C101.327 152.507 124.527 164.123 147.74 175.73C181.35 192.59 214.91 209.54 248.6 226.24C249.807 226.796 251.112 227.109 252.44 227.161C253.768 227.212 255.094 227.001 256.34 226.54C271.23 219.54 285.98 212.23 300.66 204.82C342.114 183.9 383.517 162.92 424.87 141.88C427.03 140.8 429.13 139.59 432.05 138.01H432.01Z" fill="#363BC4"/>
</svg>
