<svg width="24" height="28" viewBox="0 0 24 28" fill="none" xmlns="http://www.w3.org/2000/svg">
<mask id="path-1-outside-1_11946_20913" maskUnits="userSpaceOnUse" x="-0.609375" y="0.276367" width="25" height="28" fill="black">
<rect fill="white" x="-0.609375" y="0.276367" width="25" height="28"/>
<path d="M1.39062 19.6443C1.46284 19.3524 1.69042 19.2043 1.93165 19.0575C2.72532 18.5748 3.53933 18.1255 4.33647 17.6487C4.3809 17.6222 4.42482 17.5944 4.47694 17.5623C4.37047 17.48 4.25681 17.4327 4.14836 17.3779C3.4552 17.027 2.73748 16.7251 2.04953 16.3637C1.82766 16.2471 1.65518 16.0983 1.60282 15.8484C1.54698 15.5825 1.61721 15.3485 1.82468 15.1663C2.01876 14.9956 2.24088 14.9072 2.50518 14.9981C2.97498 15.1598 3.41748 15.3819 3.86693 15.5886C4.5916 15.9225 5.31354 16.2617 6.03623 16.5999C6.0881 16.6243 6.12979 16.6287 6.1834 16.5975C7.53943 15.8114 8.89671 15.0275 10.2535 14.2429C10.2738 14.2312 10.2932 14.2176 10.323 14.1986C10.1488 14.0659 9.96759 13.9639 9.79039 13.857C8.60634 13.1422 7.39921 12.4658 6.20474 11.7683C6.1355 11.7279 6.0819 11.7342 6.01439 11.7654C4.99042 12.241 3.9657 12.7156 2.93999 13.1875C2.80275 13.2506 2.6588 13.2996 2.5171 13.3529C2.05127 13.5287 1.64947 13.1698 1.58892 12.766C1.54573 12.4782 1.63756 12.2537 1.89517 12.0922C2.29845 11.8392 2.73499 11.6512 3.16384 11.4483C3.54852 11.2664 3.93666 11.0916 4.31265 10.8931C4.36328 10.8663 4.41291 10.8386 4.46701 10.8091C4.44915 10.7575 4.40174 10.7463 4.3665 10.7256C3.51898 10.2293 2.66997 9.73522 1.8227 9.23844C1.48841 9.04241 1.36705 8.7687 1.44225 8.39905C1.52315 8.00066 1.96143 7.76761 2.37539 7.91372C2.76378 8.05082 3.11098 8.27047 3.4696 8.4665C4.02973 8.77309 4.58713 9.0843 5.14578 9.39308C5.19516 9.42035 5.24604 9.44446 5.30908 9.4766C5.27905 9.09258 5.25075 8.72536 5.22197 8.35814C5.17754 7.79294 5.11748 7.22847 5.10656 6.66108C5.10036 6.3372 5.41356 6.0048 5.74785 5.97436C6.18762 5.93443 6.5229 6.20789 6.57279 6.64013C6.66635 7.45275 6.73038 8.26804 6.79764 9.08308C6.83064 9.48245 6.87929 9.88059 6.91155 10.28C6.9185 10.3669 6.95696 10.409 7.02546 10.4473C7.85462 10.9094 8.68228 11.3748 9.51243 11.8353C10.0276 12.1212 10.5463 12.4007 11.0635 12.6827C11.099 12.702 11.1362 12.7183 11.1765 12.7378C11.2013 12.6486 11.1993 12.5634 11.1998 12.4791C11.2085 10.9793 11.2152 9.47952 11.2276 7.97971C11.2283 7.88742 11.1787 7.85235 11.1184 7.81096C10.1455 7.14445 9.16474 6.48964 8.20256 5.80829C8.0199 5.67898 7.84841 5.54992 7.79778 5.31249C7.73773 5.03025 7.83253 4.72805 8.04993 4.57171C8.31399 4.38177 8.64853 4.35474 8.90465 4.52423C9.64545 5.01443 10.3813 5.51168 11.1191 6.00626C11.1516 6.02818 11.1844 6.04985 11.2489 6.0932C11.2489 5.84213 11.2464 5.62078 11.2494 5.39967C11.2584 4.70248 11.268 4.0053 11.2804 3.30836C11.2832 3.15859 11.2901 3.0081 11.3082 2.85956C11.3534 2.48747 11.71 2.23908 12.1118 2.28096C12.4153 2.31238 12.7387 2.57294 12.7489 2.95063C12.7745 3.90278 12.7849 4.85517 12.7983 5.80756C12.7995 5.8923 12.7985 5.9768 12.7985 6.06032C12.8608 6.07567 12.8856 6.03573 12.9162 6.01527C13.6659 5.51655 14.3983 4.99251 15.1721 4.5291C15.4605 4.35645 15.7757 4.38104 16.0166 4.58608C16.2598 4.79307 16.3373 5.143 16.2162 5.43741C16.1628 5.56745 16.0551 5.63953 15.9516 5.71697C15.0463 6.39297 14.1064 7.02172 13.1624 7.64366C12.9134 7.80755 12.8166 7.97168 12.8219 8.27169C12.8457 9.66995 12.8387 11.0685 12.8447 12.467C12.8459 12.7658 12.8497 12.7663 13.1083 12.624C14.367 11.932 15.6208 11.2314 16.8751 10.5315C17.0778 10.4183 17.1587 10.2768 17.1766 10.0669C17.2414 9.30444 17.3089 8.54223 17.3781 7.78003C17.4166 7.3568 17.4446 6.93162 17.5064 6.51156C17.5491 6.2208 17.7834 6.06885 18.0457 5.98045C18.4599 5.84067 18.9538 6.19596 18.9607 6.62966C18.9682 7.09648 18.9059 7.55941 18.8754 8.02403C18.8721 8.07249 18.8662 8.12071 18.863 8.16941C18.8364 8.58534 18.7865 9.00004 18.7865 9.43861C18.9578 9.35022 19.1181 9.27108 19.2747 9.18585C20.0187 8.78088 20.7635 8.37737 21.5045 7.96681C21.8855 7.75568 22.2664 7.89278 22.4523 8.09709C22.7576 8.43241 22.7067 8.91603 22.3253 9.16149C21.5787 9.64219 20.7972 10.0666 20.0341 10.5206C19.8832 10.6104 19.7331 10.7015 19.5626 10.8038C19.9041 10.9681 20.2277 11.122 20.5498 11.2791C21.0166 11.5068 21.4954 11.7113 21.954 11.9556C22.0081 11.9843 22.0597 12.0184 22.1146 12.0454C22.4384 12.2042 22.4948 12.4828 22.4538 12.796C22.4153 13.0894 22.2121 13.2543 21.9488 13.3543C21.8167 13.4045 21.6803 13.3736 21.5497 13.33C21.0392 13.1598 20.5592 12.9202 20.0718 12.6981C19.4129 12.3978 18.7553 12.0949 18.0993 11.7888C17.9968 11.7411 17.9164 11.742 17.8154 11.7993C16.7108 12.4234 15.6133 13.0599 14.5191 13.7016C14.2583 13.8545 13.999 14.0096 13.7185 14.1757C13.9233 14.2982 14.1087 14.411 14.296 14.521C15.4709 15.2116 16.648 15.8986 17.8335 16.5712C17.9085 16.6136 17.9673 16.6157 18.047 16.5792C19.1737 16.0622 20.2937 15.5314 21.4301 15.0351C21.7388 14.9004 22.0828 14.9847 22.3027 15.2452C22.5042 15.4836 22.5159 15.855 22.3335 16.1158C22.2677 16.21 22.1731 16.2639 22.0753 16.3167C21.5249 16.6145 20.9536 16.8712 20.387 17.1371C20.1098 17.2671 19.8321 17.396 19.5325 17.5357C19.8279 17.7101 20.1036 17.8742 20.3808 18.0364C20.9635 18.3773 21.5562 18.7017 22.129 19.0587C22.195 19.0998 22.2575 19.1464 22.3235 19.187C22.707 19.423 22.6854 20.0013 22.4436 20.2592C22.2496 20.4665 21.8713 20.5412 21.5624 20.4148C21.346 20.3262 21.1432 20.2103 20.9394 20.0975C20.2416 19.7108 19.5442 19.3227 18.8468 18.9352C18.8188 18.9196 18.7902 18.905 18.7438 18.8802C18.754 19.0373 18.761 19.1795 18.7729 19.3214C18.8374 20.0924 18.9126 20.8627 18.9364 21.6363C18.9466 21.9675 18.7471 22.2431 18.4349 22.3466C18.1477 22.4419 17.7956 22.3201 17.6017 22.0644C17.5129 21.9473 17.4955 21.8097 17.4814 21.6753C17.4248 21.1398 17.3776 20.6036 17.326 20.0676C17.2627 19.4111 17.2265 18.7519 17.128 18.0988C17.1146 18.0099 17.0781 17.9446 16.9939 17.8969C15.655 17.1391 14.3119 16.3881 12.9598 15.6526C12.9316 15.6373 12.9025 15.6237 12.8623 15.6035C12.8561 15.6853 12.8459 15.7574 12.8457 15.8292C12.8397 17.337 12.8355 18.8451 12.8281 20.353C12.8278 20.4253 12.8596 20.4604 12.9142 20.4974C13.9109 21.1722 14.9103 21.8435 15.8911 22.541C16.2663 22.8079 16.3685 23.1639 16.171 23.5282C15.9782 23.8837 15.4945 24.0176 15.1478 23.7929C14.5052 23.3765 13.8714 22.9474 13.2333 22.5244C13.1016 22.437 12.967 22.3537 12.8231 22.2617C12.7779 22.6742 12.7896 23.0709 12.7754 23.4661C12.7531 24.0939 12.765 24.7224 12.7514 25.3506C12.7429 25.749 12.5791 25.9979 12.196 26.1133C12.0637 26.1133 11.9317 26.1133 11.7994 26.1133C11.4355 26.033 11.2936 25.7829 11.2703 25.4449C11.2504 25.1578 11.2586 24.8697 11.2415 24.5831C11.206 23.9916 11.2338 23.4003 11.2176 22.8091C11.2132 22.6486 11.1884 22.4881 11.1968 22.3274C11.1427 22.3179 11.1184 22.3505 11.0898 22.3698C10.5466 22.7385 10.0036 23.1079 9.45858 23.4746C9.25756 23.6098 9.05405 23.7403 8.83516 23.8477C8.56192 23.9816 8.30084 23.9456 8.06308 23.7807C7.81962 23.6119 7.73872 23.3604 7.75832 23.0755C7.77247 22.8707 7.88465 22.7238 8.04596 22.6006C8.68204 22.1151 9.35087 21.6745 10.01 21.2209C10.3515 20.9859 10.693 20.7509 11.0352 20.5171C11.1142 20.4633 11.1444 20.3978 11.1477 20.3033C11.1995 18.8125 11.1566 17.3212 11.1707 15.8302C11.171 15.8138 11.171 15.8343 11.1707 15.818C11.169 15.6699 11.1588 15.6626 11.029 15.7284C10.7466 15.8718 10.4709 16.0274 10.1937 16.1801C9.17839 16.7395 8.16509 17.3027 7.15426 17.8699C7.00858 17.9514 6.94158 18.0535 6.92644 18.2137C6.85596 18.9511 6.79739 19.6894 6.73237 20.4272C6.69588 20.8424 6.65766 21.2579 6.62639 21.6736C6.58743 22.1903 5.96575 22.6505 5.38427 22.2609C5.18921 22.1304 5.08522 21.9397 5.07529 21.7059C5.05867 21.3202 5.11202 20.9381 5.14131 20.5548C5.16662 20.2239 5.19367 19.8932 5.22271 19.5625C5.2376 19.3933 5.24703 19.2236 5.26019 19.0541C5.26267 19.0234 5.28351 18.9852 5.24654 18.9654C5.21427 18.9481 5.18375 18.9752 5.1557 18.9908C4.89239 19.1349 4.63255 19.2847 4.36899 19.4281C3.75525 19.762 3.15342 20.1173 2.52529 20.4263C2.2791 20.5473 2.03563 20.5634 1.78771 20.4445C1.56112 20.3367 1.42463 20.1604 1.39062 19.912C1.39062 19.9039 1.39062 19.8957 1.39062 19.8876C1.41048 19.8146 1.41048 19.7418 1.39062 19.6687C1.39062 19.6607 1.39062 19.6524 1.39062 19.6443Z"/>
</mask>
<path d="M1.39062 19.6443C1.46284 19.3524 1.69042 19.2043 1.93165 19.0575C2.72532 18.5748 3.53933 18.1255 4.33647 17.6487C4.3809 17.6222 4.42482 17.5944 4.47694 17.5623C4.37047 17.48 4.25681 17.4327 4.14836 17.3779C3.4552 17.027 2.73748 16.7251 2.04953 16.3637C1.82766 16.2471 1.65518 16.0983 1.60282 15.8484C1.54698 15.5825 1.61721 15.3485 1.82468 15.1663C2.01876 14.9956 2.24088 14.9072 2.50518 14.9981C2.97498 15.1598 3.41748 15.3819 3.86693 15.5886C4.5916 15.9225 5.31354 16.2617 6.03623 16.5999C6.0881 16.6243 6.12979 16.6287 6.1834 16.5975C7.53943 15.8114 8.89671 15.0275 10.2535 14.2429C10.2738 14.2312 10.2932 14.2176 10.323 14.1986C10.1488 14.0659 9.96759 13.9639 9.79039 13.857C8.60634 13.1422 7.39921 12.4658 6.20474 11.7683C6.1355 11.7279 6.0819 11.7342 6.01439 11.7654C4.99042 12.241 3.9657 12.7156 2.93999 13.1875C2.80275 13.2506 2.6588 13.2996 2.5171 13.3529C2.05127 13.5287 1.64947 13.1698 1.58892 12.766C1.54573 12.4782 1.63756 12.2537 1.89517 12.0922C2.29845 11.8392 2.73499 11.6512 3.16384 11.4483C3.54852 11.2664 3.93666 11.0916 4.31265 10.8931C4.36328 10.8663 4.41291 10.8386 4.46701 10.8091C4.44915 10.7575 4.40174 10.7463 4.3665 10.7256C3.51898 10.2293 2.66997 9.73522 1.8227 9.23844C1.48841 9.04241 1.36705 8.7687 1.44225 8.39905C1.52315 8.00066 1.96143 7.76761 2.37539 7.91372C2.76378 8.05082 3.11098 8.27047 3.4696 8.4665C4.02973 8.77309 4.58713 9.0843 5.14578 9.39308C5.19516 9.42035 5.24604 9.44446 5.30908 9.4766C5.27905 9.09258 5.25075 8.72536 5.22197 8.35814C5.17754 7.79294 5.11748 7.22847 5.10656 6.66108C5.10036 6.3372 5.41356 6.0048 5.74785 5.97436C6.18762 5.93443 6.5229 6.20789 6.57279 6.64013C6.66635 7.45275 6.73038 8.26804 6.79764 9.08308C6.83064 9.48245 6.87929 9.88059 6.91155 10.28C6.9185 10.3669 6.95696 10.409 7.02546 10.4473C7.85462 10.9094 8.68228 11.3748 9.51243 11.8353C10.0276 12.1212 10.5463 12.4007 11.0635 12.6827C11.099 12.702 11.1362 12.7183 11.1765 12.7378C11.2013 12.6486 11.1993 12.5634 11.1998 12.4791C11.2085 10.9793 11.2152 9.47952 11.2276 7.97971C11.2283 7.88742 11.1787 7.85235 11.1184 7.81096C10.1455 7.14445 9.16474 6.48964 8.20256 5.80829C8.0199 5.67898 7.84841 5.54992 7.79778 5.31249C7.73773 5.03025 7.83253 4.72805 8.04993 4.57171C8.31399 4.38177 8.64853 4.35474 8.90465 4.52423C9.64545 5.01443 10.3813 5.51168 11.1191 6.00626C11.1516 6.02818 11.1844 6.04985 11.2489 6.0932C11.2489 5.84213 11.2464 5.62078 11.2494 5.39967C11.2584 4.70248 11.268 4.0053 11.2804 3.30836C11.2832 3.15859 11.2901 3.0081 11.3082 2.85956C11.3534 2.48747 11.71 2.23908 12.1118 2.28096C12.4153 2.31238 12.7387 2.57294 12.7489 2.95063C12.7745 3.90278 12.7849 4.85517 12.7983 5.80756C12.7995 5.8923 12.7985 5.9768 12.7985 6.06032C12.8608 6.07567 12.8856 6.03573 12.9162 6.01527C13.6659 5.51655 14.3983 4.99251 15.1721 4.5291C15.4605 4.35645 15.7757 4.38104 16.0166 4.58608C16.2598 4.79307 16.3373 5.143 16.2162 5.43741C16.1628 5.56745 16.0551 5.63953 15.9516 5.71697C15.0463 6.39297 14.1064 7.02172 13.1624 7.64366C12.9134 7.80755 12.8166 7.97168 12.8219 8.27169C12.8457 9.66995 12.8387 11.0685 12.8447 12.467C12.8459 12.7658 12.8497 12.7663 13.1083 12.624C14.367 11.932 15.6208 11.2314 16.8751 10.5315C17.0778 10.4183 17.1587 10.2768 17.1766 10.0669C17.2414 9.30444 17.3089 8.54223 17.3781 7.78003C17.4166 7.3568 17.4446 6.93162 17.5064 6.51156C17.5491 6.2208 17.7834 6.06885 18.0457 5.98045C18.4599 5.84067 18.9538 6.19596 18.9607 6.62966C18.9682 7.09648 18.9059 7.55941 18.8754 8.02403C18.8721 8.07249 18.8662 8.12071 18.863 8.16941C18.8364 8.58534 18.7865 9.00004 18.7865 9.43861C18.9578 9.35022 19.1181 9.27108 19.2747 9.18585C20.0187 8.78088 20.7635 8.37737 21.5045 7.96681C21.8855 7.75568 22.2664 7.89278 22.4523 8.09709C22.7576 8.43241 22.7067 8.91603 22.3253 9.16149C21.5787 9.64219 20.7972 10.0666 20.0341 10.5206C19.8832 10.6104 19.7331 10.7015 19.5626 10.8038C19.9041 10.9681 20.2277 11.122 20.5498 11.2791C21.0166 11.5068 21.4954 11.7113 21.954 11.9556C22.0081 11.9843 22.0597 12.0184 22.1146 12.0454C22.4384 12.2042 22.4948 12.4828 22.4538 12.796C22.4153 13.0894 22.2121 13.2543 21.9488 13.3543C21.8167 13.4045 21.6803 13.3736 21.5497 13.33C21.0392 13.1598 20.5592 12.9202 20.0718 12.6981C19.4129 12.3978 18.7553 12.0949 18.0993 11.7888C17.9968 11.7411 17.9164 11.742 17.8154 11.7993C16.7108 12.4234 15.6133 13.0599 14.5191 13.7016C14.2583 13.8545 13.999 14.0096 13.7185 14.1757C13.9233 14.2982 14.1087 14.411 14.296 14.521C15.4709 15.2116 16.648 15.8986 17.8335 16.5712C17.9085 16.6136 17.9673 16.6157 18.047 16.5792C19.1737 16.0622 20.2937 15.5314 21.4301 15.0351C21.7388 14.9004 22.0828 14.9847 22.3027 15.2452C22.5042 15.4836 22.5159 15.855 22.3335 16.1158C22.2677 16.21 22.1731 16.2639 22.0753 16.3167C21.5249 16.6145 20.9536 16.8712 20.387 17.1371C20.1098 17.2671 19.8321 17.396 19.5325 17.5357C19.8279 17.7101 20.1036 17.8742 20.3808 18.0364C20.9635 18.3773 21.5562 18.7017 22.129 19.0587C22.195 19.0998 22.2575 19.1464 22.3235 19.187C22.707 19.423 22.6854 20.0013 22.4436 20.2592C22.2496 20.4665 21.8713 20.5412 21.5624 20.4148C21.346 20.3262 21.1432 20.2103 20.9394 20.0975C20.2416 19.7108 19.5442 19.3227 18.8468 18.9352C18.8188 18.9196 18.7902 18.905 18.7438 18.8802C18.754 19.0373 18.761 19.1795 18.7729 19.3214C18.8374 20.0924 18.9126 20.8627 18.9364 21.6363C18.9466 21.9675 18.7471 22.2431 18.4349 22.3466C18.1477 22.4419 17.7956 22.3201 17.6017 22.0644C17.5129 21.9473 17.4955 21.8097 17.4814 21.6753C17.4248 21.1398 17.3776 20.6036 17.326 20.0676C17.2627 19.4111 17.2265 18.7519 17.128 18.0988C17.1146 18.0099 17.0781 17.9446 16.9939 17.8969C15.655 17.1391 14.3119 16.3881 12.9598 15.6526C12.9316 15.6373 12.9025 15.6237 12.8623 15.6035C12.8561 15.6853 12.8459 15.7574 12.8457 15.8292C12.8397 17.337 12.8355 18.8451 12.8281 20.353C12.8278 20.4253 12.8596 20.4604 12.9142 20.4974C13.9109 21.1722 14.9103 21.8435 15.8911 22.541C16.2663 22.8079 16.3685 23.1639 16.171 23.5282C15.9782 23.8837 15.4945 24.0176 15.1478 23.7929C14.5052 23.3765 13.8714 22.9474 13.2333 22.5244C13.1016 22.437 12.967 22.3537 12.8231 22.2617C12.7779 22.6742 12.7896 23.0709 12.7754 23.4661C12.7531 24.0939 12.765 24.7224 12.7514 25.3506C12.7429 25.749 12.5791 25.9979 12.196 26.1133C12.0637 26.1133 11.9317 26.1133 11.7994 26.1133C11.4355 26.033 11.2936 25.7829 11.2703 25.4449C11.2504 25.1578 11.2586 24.8697 11.2415 24.5831C11.206 23.9916 11.2338 23.4003 11.2176 22.8091C11.2132 22.6486 11.1884 22.4881 11.1968 22.3274C11.1427 22.3179 11.1184 22.3505 11.0898 22.3698C10.5466 22.7385 10.0036 23.1079 9.45858 23.4746C9.25756 23.6098 9.05405 23.7403 8.83516 23.8477C8.56192 23.9816 8.30084 23.9456 8.06308 23.7807C7.81962 23.6119 7.73872 23.3604 7.75832 23.0755C7.77247 22.8707 7.88465 22.7238 8.04596 22.6006C8.68204 22.1151 9.35087 21.6745 10.01 21.2209C10.3515 20.9859 10.693 20.7509 11.0352 20.5171C11.1142 20.4633 11.1444 20.3978 11.1477 20.3033C11.1995 18.8125 11.1566 17.3212 11.1707 15.8302C11.171 15.8138 11.171 15.8343 11.1707 15.818C11.169 15.6699 11.1588 15.6626 11.029 15.7284C10.7466 15.8718 10.4709 16.0274 10.1937 16.1801C9.17839 16.7395 8.16509 17.3027 7.15426 17.8699C7.00858 17.9514 6.94158 18.0535 6.92644 18.2137C6.85596 18.9511 6.79739 19.6894 6.73237 20.4272C6.69588 20.8424 6.65766 21.2579 6.62639 21.6736C6.58743 22.1903 5.96575 22.6505 5.38427 22.2609C5.18921 22.1304 5.08522 21.9397 5.07529 21.7059C5.05867 21.3202 5.11202 20.9381 5.14131 20.5548C5.16662 20.2239 5.19367 19.8932 5.22271 19.5625C5.2376 19.3933 5.24703 19.2236 5.26019 19.0541C5.26267 19.0234 5.28351 18.9852 5.24654 18.9654C5.21427 18.9481 5.18375 18.9752 5.1557 18.9908C4.89239 19.1349 4.63255 19.2847 4.36899 19.4281C3.75525 19.762 3.15342 20.1173 2.52529 20.4263C2.2791 20.5473 2.03563 20.5634 1.78771 20.4445C1.56112 20.3367 1.42463 20.1604 1.39062 19.912C1.39062 19.9039 1.39062 19.8957 1.39062 19.8876C1.41048 19.8146 1.41048 19.7418 1.39062 19.6687C1.39062 19.6607 1.39062 19.6524 1.39062 19.6443Z" fill="#363BC4"/>
<path d="M1.39062 19.6443C1.46284 19.3524 1.69042 19.2043 1.93165 19.0575C2.72532 18.5748 3.53933 18.1255 4.33647 17.6487C4.3809 17.6222 4.42482 17.5944 4.47694 17.5623C4.37047 17.48 4.25681 17.4327 4.14836 17.3779C3.4552 17.027 2.73748 16.7251 2.04953 16.3637C1.82766 16.2471 1.65518 16.0983 1.60282 15.8484C1.54698 15.5825 1.61721 15.3485 1.82468 15.1663C2.01876 14.9956 2.24088 14.9072 2.50518 14.9981C2.97498 15.1598 3.41748 15.3819 3.86693 15.5886C4.5916 15.9225 5.31354 16.2617 6.03623 16.5999C6.0881 16.6243 6.12979 16.6287 6.1834 16.5975C7.53943 15.8114 8.89671 15.0275 10.2535 14.2429C10.2738 14.2312 10.2932 14.2176 10.323 14.1986C10.1488 14.0659 9.96759 13.9639 9.79039 13.857C8.60634 13.1422 7.39921 12.4658 6.20474 11.7683C6.1355 11.7279 6.0819 11.7342 6.01439 11.7654C4.99042 12.241 3.9657 12.7156 2.93999 13.1875C2.80275 13.2506 2.6588 13.2996 2.5171 13.3529C2.05127 13.5287 1.64947 13.1698 1.58892 12.766C1.54573 12.4782 1.63756 12.2537 1.89517 12.0922C2.29845 11.8392 2.73499 11.6512 3.16384 11.4483C3.54852 11.2664 3.93666 11.0916 4.31265 10.8931C4.36328 10.8663 4.41291 10.8386 4.46701 10.8091C4.44915 10.7575 4.40174 10.7463 4.3665 10.7256C3.51898 10.2293 2.66997 9.73522 1.8227 9.23844C1.48841 9.04241 1.36705 8.7687 1.44225 8.39905C1.52315 8.00066 1.96143 7.76761 2.37539 7.91372C2.76378 8.05082 3.11098 8.27047 3.4696 8.4665C4.02973 8.77309 4.58713 9.0843 5.14578 9.39308C5.19516 9.42035 5.24604 9.44446 5.30908 9.4766C5.27905 9.09258 5.25075 8.72536 5.22197 8.35814C5.17754 7.79294 5.11748 7.22847 5.10656 6.66108C5.10036 6.3372 5.41356 6.0048 5.74785 5.97436C6.18762 5.93443 6.5229 6.20789 6.57279 6.64013C6.66635 7.45275 6.73038 8.26804 6.79764 9.08308C6.83064 9.48245 6.87929 9.88059 6.91155 10.28C6.9185 10.3669 6.95696 10.409 7.02546 10.4473C7.85462 10.9094 8.68228 11.3748 9.51243 11.8353C10.0276 12.1212 10.5463 12.4007 11.0635 12.6827C11.099 12.702 11.1362 12.7183 11.1765 12.7378C11.2013 12.6486 11.1993 12.5634 11.1998 12.4791C11.2085 10.9793 11.2152 9.47952 11.2276 7.97971C11.2283 7.88742 11.1787 7.85235 11.1184 7.81096C10.1455 7.14445 9.16474 6.48964 8.20256 5.80829C8.0199 5.67898 7.84841 5.54992 7.79778 5.31249C7.73773 5.03025 7.83253 4.72805 8.04993 4.57171C8.31399 4.38177 8.64853 4.35474 8.90465 4.52423C9.64545 5.01443 10.3813 5.51168 11.1191 6.00626C11.1516 6.02818 11.1844 6.04985 11.2489 6.0932C11.2489 5.84213 11.2464 5.62078 11.2494 5.39967C11.2584 4.70248 11.268 4.0053 11.2804 3.30836C11.2832 3.15859 11.2901 3.0081 11.3082 2.85956C11.3534 2.48747 11.71 2.23908 12.1118 2.28096C12.4153 2.31238 12.7387 2.57294 12.7489 2.95063C12.7745 3.90278 12.7849 4.85517 12.7983 5.80756C12.7995 5.8923 12.7985 5.9768 12.7985 6.06032C12.8608 6.07567 12.8856 6.03573 12.9162 6.01527C13.6659 5.51655 14.3983 4.99251 15.1721 4.5291C15.4605 4.35645 15.7757 4.38104 16.0166 4.58608C16.2598 4.79307 16.3373 5.143 16.2162 5.43741C16.1628 5.56745 16.0551 5.63953 15.9516 5.71697C15.0463 6.39297 14.1064 7.02172 13.1624 7.64366C12.9134 7.80755 12.8166 7.97168 12.8219 8.27169C12.8457 9.66995 12.8387 11.0685 12.8447 12.467C12.8459 12.7658 12.8497 12.7663 13.1083 12.624C14.367 11.932 15.6208 11.2314 16.8751 10.5315C17.0778 10.4183 17.1587 10.2768 17.1766 10.0669C17.2414 9.30444 17.3089 8.54223 17.3781 7.78003C17.4166 7.3568 17.4446 6.93162 17.5064 6.51156C17.5491 6.2208 17.7834 6.06885 18.0457 5.98045C18.4599 5.84067 18.9538 6.19596 18.9607 6.62966C18.9682 7.09648 18.9059 7.55941 18.8754 8.02403C18.8721 8.07249 18.8662 8.12071 18.863 8.16941C18.8364 8.58534 18.7865 9.00004 18.7865 9.43861C18.9578 9.35022 19.1181 9.27108 19.2747 9.18585C20.0187 8.78088 20.7635 8.37737 21.5045 7.96681C21.8855 7.75568 22.2664 7.89278 22.4523 8.09709C22.7576 8.43241 22.7067 8.91603 22.3253 9.16149C21.5787 9.64219 20.7972 10.0666 20.0341 10.5206C19.8832 10.6104 19.7331 10.7015 19.5626 10.8038C19.9041 10.9681 20.2277 11.122 20.5498 11.2791C21.0166 11.5068 21.4954 11.7113 21.954 11.9556C22.0081 11.9843 22.0597 12.0184 22.1146 12.0454C22.4384 12.2042 22.4948 12.4828 22.4538 12.796C22.4153 13.0894 22.2121 13.2543 21.9488 13.3543C21.8167 13.4045 21.6803 13.3736 21.5497 13.33C21.0392 13.1598 20.5592 12.9202 20.0718 12.6981C19.4129 12.3978 18.7553 12.0949 18.0993 11.7888C17.9968 11.7411 17.9164 11.742 17.8154 11.7993C16.7108 12.4234 15.6133 13.0599 14.5191 13.7016C14.2583 13.8545 13.999 14.0096 13.7185 14.1757C13.9233 14.2982 14.1087 14.411 14.296 14.521C15.4709 15.2116 16.648 15.8986 17.8335 16.5712C17.9085 16.6136 17.9673 16.6157 18.047 16.5792C19.1737 16.0622 20.2937 15.5314 21.4301 15.0351C21.7388 14.9004 22.0828 14.9847 22.3027 15.2452C22.5042 15.4836 22.5159 15.855 22.3335 16.1158C22.2677 16.21 22.1731 16.2639 22.0753 16.3167C21.5249 16.6145 20.9536 16.8712 20.387 17.1371C20.1098 17.2671 19.8321 17.396 19.5325 17.5357C19.8279 17.7101 20.1036 17.8742 20.3808 18.0364C20.9635 18.3773 21.5562 18.7017 22.129 19.0587C22.195 19.0998 22.2575 19.1464 22.3235 19.187C22.707 19.423 22.6854 20.0013 22.4436 20.2592C22.2496 20.4665 21.8713 20.5412 21.5624 20.4148C21.346 20.3262 21.1432 20.2103 20.9394 20.0975C20.2416 19.7108 19.5442 19.3227 18.8468 18.9352C18.8188 18.9196 18.7902 18.905 18.7438 18.8802C18.754 19.0373 18.761 19.1795 18.7729 19.3214C18.8374 20.0924 18.9126 20.8627 18.9364 21.6363C18.9466 21.9675 18.7471 22.2431 18.4349 22.3466C18.1477 22.4419 17.7956 22.3201 17.6017 22.0644C17.5129 21.9473 17.4955 21.8097 17.4814 21.6753C17.4248 21.1398 17.3776 20.6036 17.326 20.0676C17.2627 19.4111 17.2265 18.7519 17.128 18.0988C17.1146 18.0099 17.0781 17.9446 16.9939 17.8969C15.655 17.1391 14.3119 16.3881 12.9598 15.6526C12.9316 15.6373 12.9025 15.6237 12.8623 15.6035C12.8561 15.6853 12.8459 15.7574 12.8457 15.8292C12.8397 17.337 12.8355 18.8451 12.8281 20.353C12.8278 20.4253 12.8596 20.4604 12.9142 20.4974C13.9109 21.1722 14.9103 21.8435 15.8911 22.541C16.2663 22.8079 16.3685 23.1639 16.171 23.5282C15.9782 23.8837 15.4945 24.0176 15.1478 23.7929C14.5052 23.3765 13.8714 22.9474 13.2333 22.5244C13.1016 22.437 12.967 22.3537 12.8231 22.2617C12.7779 22.6742 12.7896 23.0709 12.7754 23.4661C12.7531 24.0939 12.765 24.7224 12.7514 25.3506C12.7429 25.749 12.5791 25.9979 12.196 26.1133C12.0637 26.1133 11.9317 26.1133 11.7994 26.1133C11.4355 26.033 11.2936 25.7829 11.2703 25.4449C11.2504 25.1578 11.2586 24.8697 11.2415 24.5831C11.206 23.9916 11.2338 23.4003 11.2176 22.8091C11.2132 22.6486 11.1884 22.4881 11.1968 22.3274C11.1427 22.3179 11.1184 22.3505 11.0898 22.3698C10.5466 22.7385 10.0036 23.1079 9.45858 23.4746C9.25756 23.6098 9.05405 23.7403 8.83516 23.8477C8.56192 23.9816 8.30084 23.9456 8.06308 23.7807C7.81962 23.6119 7.73872 23.3604 7.75832 23.0755C7.77247 22.8707 7.88465 22.7238 8.04596 22.6006C8.68204 22.1151 9.35087 21.6745 10.01 21.2209C10.3515 20.9859 10.693 20.7509 11.0352 20.5171C11.1142 20.4633 11.1444 20.3978 11.1477 20.3033C11.1995 18.8125 11.1566 17.3212 11.1707 15.8302C11.171 15.8138 11.171 15.8343 11.1707 15.818C11.169 15.6699 11.1588 15.6626 11.029 15.7284C10.7466 15.8718 10.4709 16.0274 10.1937 16.1801C9.17839 16.7395 8.16509 17.3027 7.15426 17.8699C7.00858 17.9514 6.94158 18.0535 6.92644 18.2137C6.85596 18.9511 6.79739 19.6894 6.73237 20.4272C6.69588 20.8424 6.65766 21.2579 6.62639 21.6736C6.58743 22.1903 5.96575 22.6505 5.38427 22.2609C5.18921 22.1304 5.08522 21.9397 5.07529 21.7059C5.05867 21.3202 5.11202 20.9381 5.14131 20.5548C5.16662 20.2239 5.19367 19.8932 5.22271 19.5625C5.2376 19.3933 5.24703 19.2236 5.26019 19.0541C5.26267 19.0234 5.28351 18.9852 5.24654 18.9654C5.21427 18.9481 5.18375 18.9752 5.1557 18.9908C4.89239 19.1349 4.63255 19.2847 4.36899 19.4281C3.75525 19.762 3.15342 20.1173 2.52529 20.4263C2.2791 20.5473 2.03563 20.5634 1.78771 20.4445C1.56112 20.3367 1.42463 20.1604 1.39062 19.912C1.39062 19.9039 1.39062 19.8957 1.39062 19.8876C1.41048 19.8146 1.41048 19.7418 1.39062 19.6687C1.39062 19.6607 1.39062 19.6524 1.39062 19.6443Z" stroke="white" stroke-width="2.6" mask="url(#path-1-outside-1_11946_20913)"/>
</svg>
