<svg width="18" height="26" viewBox="0 0 18 26" fill="none" xmlns="http://www.w3.org/2000/svg">
<path d="M7.62458 25.0319C7.5035 25.0318 7.38333 25.0108 7.26937 24.9699C7.0541 24.8924 6.87053 24.7458 6.74726 24.5531C6.62398 24.3603 6.56794 24.1322 6.58785 23.9043L7.31067 16.1598H1.01183C0.824873 16.156 0.642448 16.1016 0.484025 16.0022C0.325601 15.9029 0.197127 15.7624 0.112316 15.5957C0.0275048 15.4291 -0.0104603 15.2425 0.00247322 15.056C0.0154067 14.8694 0.0787534 14.6899 0.185752 14.5365L9.52869 1.10453C9.65906 0.91759 9.84761 0.779034 10.0649 0.710455C10.2823 0.641877 10.5162 0.647128 10.7303 0.725392C10.9443 0.803656 11.1265 0.950534 11.2483 1.14313C11.3701 1.33573 11.4248 1.56323 11.4039 1.79017L10.6811 9.52226H16.9882C17.1751 9.52602 17.3576 9.58048 17.516 9.67982C17.6744 9.77916 17.8029 9.91966 17.8877 10.0863C17.9725 10.253 18.0105 10.4395 17.9975 10.6261C17.9846 10.8126 17.9212 10.9921 17.8142 11.1455L8.47131 24.5899C8.37594 24.7261 8.24924 24.8373 8.10187 24.9142C7.95451 24.9911 7.79081 25.0315 7.62458 25.0319ZM2.99028 14.0946H8.45479C8.59846 14.0951 8.74044 14.1255 8.87166 14.184C9.00289 14.2425 9.12046 14.3277 9.21687 14.4343C9.31328 14.5408 9.3864 14.6662 9.43156 14.8026C9.47672 14.939 9.49292 15.0833 9.47912 15.2263L9.01239 20.1828L15.0097 11.5875H9.54934C9.40536 11.5876 9.26295 11.5576 9.13132 11.4992C8.99969 11.4409 8.88178 11.3556 8.78522 11.2488C8.68776 11.1435 8.61379 11.0187 8.56822 10.8827C8.52264 10.7467 8.50651 10.6026 8.52087 10.4599L8.98348 5.50339L2.99028 14.0946Z" fill="#464555"/>
</svg>
