<svg width="20" height="20" viewBox="0 0 20 20" fill="none" xmlns="http://www.w3.org/2000/svg">
<path d="M11.6667 1.89124V5.33335C11.6667 5.80006 11.6667 6.03342 11.7575 6.21168C11.8374 6.36848 11.9649 6.49596 12.1217 6.57586C12.2999 6.66669 12.5333 6.66669 13 6.66669H16.4421M13.3333 10.8333H6.66666M13.3333 14.1666H6.66666M8.33333 7.49996H6.66666M11.6667 1.66663H7.33333C5.9332 1.66663 5.23313 1.66663 4.69835 1.93911C4.22795 2.17879 3.8455 2.56124 3.60581 3.03165C3.33333 3.56643 3.33333 4.26649 3.33333 5.66663V14.3333C3.33333 15.7334 3.33333 16.4335 3.60581 16.9683C3.8455 17.4387 4.22795 17.8211 4.69835 18.0608C5.23313 18.3333 5.9332 18.3333 7.33333 18.3333H12.6667C14.0668 18.3333 14.7669 18.3333 15.3016 18.0608C15.772 17.8211 16.1545 17.4387 16.3942 16.9683C16.6667 16.4335 16.6667 15.7334 16.6667 14.3333V6.66663L11.6667 1.66663Z" stroke="white" stroke-width="2" stroke-linecap="round" stroke-linejoin="round"/>
</svg>
