<svg width="20" height="26" viewBox="0 0 20 26" fill="none" xmlns="http://www.w3.org/2000/svg">
<path fill-rule="evenodd" clip-rule="evenodd" d="M0 10C0 4.47715 4.47715 0 10 0C15.5228 0 20 4.47715 20 10C20 13.1588 18.5345 15.9754 16.25 17.8067V20.2413C16.25 21.0463 16.25 21.7106 16.2058 22.2518C16.1599 22.8139 16.0613 23.3306 15.814 23.816C15.4305 24.5686 14.8186 25.1805 14.066 25.564C13.5806 25.8113 13.0639 25.9099 12.5018 25.9558C11.9606 26 11.2963 26 10.4913 26H9.50867C8.70372 26 8.03936 26 7.49817 25.9558C6.93608 25.9099 6.41937 25.8113 5.93404 25.564C5.18139 25.1805 4.56947 24.5686 4.18597 23.816C3.93868 23.3306 3.84012 22.8139 3.79419 22.2518C3.74998 21.7106 3.74999 21.0463 3.75 20.2413L3.75 17.8067C1.46551 15.9754 0 13.1588 0 10ZM10 2C5.58172 2 2 5.58172 2 10C2 12.6759 3.31284 15.0452 5.33397 16.4992C5.59517 16.6871 5.75 16.9892 5.75 17.3109V20.2C5.75 21.0566 5.75078 21.6389 5.78755 22.089C5.82337 22.5274 5.8883 22.7516 5.96799 22.908C6.15973 23.2843 6.46569 23.5903 6.84202 23.782C6.99842 23.8617 7.22262 23.9266 7.66104 23.9624C8.11113 23.9992 8.69342 24 9.55 24H10.45C11.3066 24 11.8889 23.9992 12.339 23.9624C12.7774 23.9266 13.0016 23.8617 13.158 23.782C13.5343 23.5903 13.8403 23.2843 14.032 22.908C14.1117 22.7516 14.1766 22.5274 14.2124 22.089C14.2492 21.6389 14.25 21.0566 14.25 20.2V17.3109C14.25 16.9892 14.4048 16.6871 14.666 16.4992C16.6872 15.0452 18 12.6759 18 10C18 5.58172 14.4183 2 10 2ZM6 12.25C6 11.6977 6.44772 11.25 7 11.25H13C13.5523 11.25 14 11.6977 14 12.25C14 12.8023 13.5523 13.25 13 13.25H11V19.75C11 20.3023 10.5523 20.75 10 20.75C9.44771 20.75 9 20.3023 9 19.75V13.25H7C6.44772 13.25 6 12.8023 6 12.25Z" fill="#B6B6B6"/>
</svg>
