<svg width="13" height="15" viewBox="0 0 13 15" fill="none" xmlns="http://www.w3.org/2000/svg">
<g id="Group 4239">
<g id="Vector">
<mask id="path-1-outside-1_5382_16053" maskUnits="userSpaceOnUse" x="0" y="0.416016" width="13" height="13" fill="black">
<rect fill="white" y="0.416016" width="13" height="13"/>
<path d="M1.32404 13.0299C1.13078 12.9758 1.02087 12.843 1 12.6384V12.6246C1.0013 12.4841 1.0696 12.3769 1.1685 12.2844C1.18859 12.2656 1.20583 12.2437 1.22436 12.2233L1.23849 12.2119L1.41749 12.0318L1.42876 12.0176C1.50301 11.9525 1.57285 11.8826 1.63783 11.8083L1.65209 11.7968C1.71197 11.7367 1.77194 11.6767 1.832 11.6167L1.8434 11.6024C1.9177 11.5374 1.98758 11.4674 2.0526 11.3931L2.06686 11.3818L2.24702 11.2015L2.25843 11.1874C2.33263 11.1223 2.40243 11.0524 2.46737 10.978L2.4815 10.9667L2.66179 10.7865C2.66568 10.7818 2.66944 10.777 2.6732 10.7723C2.74737 10.7072 2.81716 10.6373 2.88214 10.563L2.89626 10.5516L3.07656 10.3714L3.08783 10.3573C3.16208 10.2922 3.23192 10.2223 3.2969 10.1479L3.31116 10.1365C3.37104 10.0764 3.43101 10.0163 3.49106 9.95637L3.50247 9.94209C3.57671 9.87706 3.64651 9.80712 3.71141 9.73275L3.72567 9.72146L3.90557 9.54119L3.91698 9.52704C3.99122 9.46197 4.06107 9.39204 4.12605 9.3177L4.14018 9.3064L4.32008 9.12613L4.33149 9.11199C4.4057 9.04689 4.47554 8.97696 4.54056 8.90264L4.55468 8.89122L4.73472 8.71108L4.746 8.69681C4.82027 8.63182 4.89012 8.56193 4.95506 8.48759L4.96932 8.47617C5.0292 8.41613 5.08917 8.35608 5.14923 8.29603L5.16063 8.28175C5.23487 8.21672 5.30467 8.14679 5.36957 8.07241L5.38383 8.06112L5.56373 7.88085L5.57514 7.8667C5.64936 7.80161 5.7192 7.73167 5.78421 7.65736L5.79834 7.64607L5.97837 7.4658L5.98965 7.45165C6.06386 7.38655 6.1337 7.31662 6.19872 7.24231L6.21284 7.23089L6.39288 7.05075L6.40416 7.03647C6.47843 6.97149 6.54828 6.90159 6.61322 6.82726L6.62748 6.81584C6.68736 6.75579 6.74733 6.69574 6.80739 6.6357L6.81879 6.62142C6.89303 6.55639 6.96283 6.48645 7.02773 6.41208L7.04199 6.40079L7.22138 6.22116C7.22527 6.21649 7.22902 6.21169 7.23278 6.20702C7.307 6.14192 7.37684 6.07199 7.44185 5.99767L7.45598 5.98638L7.63601 5.80585L7.64729 5.79171C7.72151 5.72661 7.79135 5.65668 7.85636 5.58236L7.87049 5.57094L8.05052 5.39054L8.06193 5.37627C8.13613 5.31124 8.20593 5.24135 8.27087 5.16705L8.28512 5.15563C8.34518 5.09558 8.40515 5.03554 8.46503 4.97549L8.47644 4.96121C8.55068 4.89615 8.62053 4.82621 8.6855 4.75187L8.69963 4.74058L8.87954 4.55992C8.88343 4.55525 8.88719 4.55045 8.89094 4.54577C8.96516 4.48068 9.035 4.41074 9.10001 4.33643L9.11414 4.32514L9.29418 4.14461L9.30545 4.13046C9.3797 4.0654 9.44954 3.99546 9.51452 3.92112L9.52878 3.9097L9.70868 3.72956L9.72009 3.71528C9.79429 3.65026 9.86409 3.58037 9.92903 3.50607L9.94329 3.49465C10.0033 3.4346 10.0633 3.37455 10.1232 3.31451L10.1346 3.30023C10.2088 3.23517 10.2787 3.16523 10.3437 3.09089L10.3578 3.0796L10.5377 2.89932C10.5416 2.89465 10.5453 2.88985 10.5491 2.88518C10.6233 2.82008 10.6932 2.75015 10.7582 2.67584L10.7723 2.66454L10.9523 2.48427L10.9636 2.47013C11.0379 2.40506 11.1077 2.33513 11.1727 2.26078L11.1869 2.24936C11.2468 2.18923 11.3068 2.12918 11.3668 2.06922L11.3781 2.05508C11.4524 1.99001 11.5222 1.92008 11.5872 1.84573L11.6014 1.83431C11.6615 1.77426 11.7215 1.71422 11.7814 1.65417L11.7928 1.63989C11.8757 1.56981 11.9436 1.48013 12.0507 1.44119C12.0557 1.44218 12.061 1.44153 12.0656 1.43934C12.0703 1.43714 12.0742 1.43352 12.0766 1.42899L12.1933 1.41602H12.2071C12.4187 1.43587 12.5476 1.55255 12.6035 1.75501C12.6104 1.80228 12.6118 1.85019 12.6076 1.89778C12.6033 1.90068 12.6001 1.90492 12.5984 1.90984C12.5967 1.91475 12.5967 1.92009 12.5983 1.92503C12.5746 2.0334 12.5064 2.11257 12.4298 2.18629C12.4097 2.2055 12.3922 2.2273 12.3736 2.24781L12.3593 2.25923L12.2053 2.41341L12.1939 2.42769C12.111 2.50141 12.0326 2.57998 11.9589 2.66299L11.9448 2.67428L11.7908 2.82859C11.7869 2.83326 11.7832 2.83807 11.7794 2.84274C11.6965 2.9165 11.6181 2.99507 11.5444 3.07804L11.5303 3.08933L11.3762 3.24364L11.3649 3.25779C11.282 3.33155 11.2036 3.41012 11.1299 3.49309L11.1157 3.50451L10.9617 3.65869L10.9503 3.67297C10.8674 3.74665 10.789 3.82518 10.7154 3.90814L10.7011 3.91956L10.5472 4.07375L10.5358 4.08802C10.4529 4.16178 10.3744 4.24035 10.3008 4.32332L10.2866 4.33461L10.1327 4.48893C10.1288 4.4936 10.125 4.4984 10.1212 4.50307C10.0384 4.57683 9.95992 4.6554 9.88626 4.73837L9.87213 4.74966L9.71802 4.90398L9.70674 4.91813C9.62384 4.99185 9.54538 5.07042 9.47175 5.15342L9.45749 5.16485L9.30351 5.31903L9.2921 5.33331C9.20925 5.40699 9.13083 5.48552 9.05724 5.56848L9.04298 5.5799L8.889 5.73408L8.87759 5.74836C8.79473 5.82212 8.71627 5.90068 8.6426 5.98366L8.62847 5.99495C8.57715 6.04634 8.52578 6.09778 8.47436 6.14926L8.46309 6.16341C8.38022 6.23717 8.30176 6.31574 8.22809 6.39871L8.21397 6.41L8.05985 6.56431L8.04858 6.57846C7.96568 6.65219 7.88721 6.73076 7.81359 6.81376L7.79933 6.82518L7.64535 6.97937L7.63394 6.99364C7.55106 7.06729 7.47263 7.14582 7.39908 7.22881L7.38482 7.24023L7.23084 7.39442L7.21943 7.40869C7.13657 7.48245 7.0581 7.56102 6.98444 7.64399L6.97031 7.65528C6.91899 7.70668 6.86762 7.75812 6.8162 7.8096L6.80493 7.82374C6.72206 7.8975 6.6436 7.97607 6.56993 8.05904L6.55581 8.07034L6.40169 8.22465L6.39029 8.2388C6.30747 8.31256 6.22904 8.39112 6.15543 8.4741L6.14117 8.48552L5.98719 8.6397L5.97578 8.65398C5.8929 8.72763 5.81447 8.80615 5.74092 8.88915L5.72666 8.90057L5.57268 9.05475L5.56127 9.06903C5.47841 9.14279 5.39994 9.22136 5.32628 9.30433L5.31215 9.31562C5.26082 9.36701 5.20945 9.41845 5.15804 9.46993L5.14676 9.48408C5.0639 9.55784 4.98543 9.63641 4.91177 9.71938L4.89764 9.73067L4.74353 9.88498L4.73213 9.89913C4.6493 9.97289 4.57088 10.0515 4.49726 10.1344L4.48301 10.1459L4.32902 10.3L4.31762 10.3143C4.23473 10.388 4.15631 10.4665 4.08276 10.5495L4.0685 10.5609L3.91452 10.7151L3.90311 10.7294C3.82025 10.8031 3.74178 10.8817 3.66812 10.9647L3.65399 10.976L3.49988 11.1303L3.4886 11.1444C3.40574 11.2182 3.32727 11.2967 3.25361 11.3797L3.23948 11.391L3.08537 11.5453C3.08161 11.55 3.07785 11.5548 3.07397 11.5595C2.99114 11.6332 2.91272 11.7118 2.8391 11.7948L2.82484 11.8062L2.67086 11.9604L2.65946 11.9746C2.57659 12.0484 2.49813 12.1269 2.42446 12.2098L2.41034 12.2212L2.25635 12.3754L2.24495 12.3897C2.16208 12.4635 2.08362 12.542 2.00996 12.625L1.99583 12.6363L1.84172 12.7906L1.83044 12.8048C1.78495 12.8473 1.73971 12.8901 1.69409 12.9323C1.64146 12.9803 1.5775 13.0141 1.50822 13.0306C1.50323 13.0293 1.49798 13.0296 1.49313 13.0313C1.48828 13.033 1.48406 13.0362 1.481 13.0403H1.35139C1.34864 13.0358 1.34446 13.0323 1.3395 13.0304C1.33454 13.0285 1.3291 13.0283 1.32404 13.0299Z"/>
</mask>
<path d="M1.32404 13.0299C1.13078 12.9758 1.02087 12.843 1 12.6384V12.6246C1.0013 12.4841 1.0696 12.3769 1.1685 12.2844C1.18859 12.2656 1.20583 12.2437 1.22436 12.2233L1.23849 12.2119L1.41749 12.0318L1.42876 12.0176C1.50301 11.9525 1.57285 11.8826 1.63783 11.8083L1.65209 11.7968C1.71197 11.7367 1.77194 11.6767 1.832 11.6167L1.8434 11.6024C1.9177 11.5374 1.98758 11.4674 2.0526 11.3931L2.06686 11.3818L2.24702 11.2015L2.25843 11.1874C2.33263 11.1223 2.40243 11.0524 2.46737 10.978L2.4815 10.9667L2.66179 10.7865C2.66568 10.7818 2.66944 10.777 2.6732 10.7723C2.74737 10.7072 2.81716 10.6373 2.88214 10.563L2.89626 10.5516L3.07656 10.3714L3.08783 10.3573C3.16208 10.2922 3.23192 10.2223 3.2969 10.1479L3.31116 10.1365C3.37104 10.0764 3.43101 10.0163 3.49106 9.95637L3.50247 9.94209C3.57671 9.87706 3.64651 9.80712 3.71141 9.73275L3.72567 9.72146L3.90557 9.54119L3.91698 9.52704C3.99122 9.46197 4.06107 9.39204 4.12605 9.3177L4.14018 9.3064L4.32008 9.12613L4.33149 9.11199C4.4057 9.04689 4.47554 8.97696 4.54056 8.90264L4.55468 8.89122L4.73472 8.71108L4.746 8.69681C4.82027 8.63182 4.89012 8.56193 4.95506 8.48759L4.96932 8.47617C5.0292 8.41613 5.08917 8.35608 5.14923 8.29603L5.16063 8.28175C5.23487 8.21672 5.30467 8.14679 5.36957 8.07241L5.38383 8.06112L5.56373 7.88085L5.57514 7.8667C5.64936 7.80161 5.7192 7.73167 5.78421 7.65736L5.79834 7.64607L5.97837 7.4658L5.98965 7.45165C6.06386 7.38655 6.1337 7.31662 6.19872 7.24231L6.21284 7.23089L6.39288 7.05075L6.40416 7.03647C6.47843 6.97149 6.54828 6.90159 6.61322 6.82726L6.62748 6.81584C6.68736 6.75579 6.74733 6.69574 6.80739 6.6357L6.81879 6.62142C6.89303 6.55639 6.96283 6.48645 7.02773 6.41208L7.04199 6.40079L7.22138 6.22116C7.22527 6.21649 7.22902 6.21169 7.23278 6.20702C7.307 6.14192 7.37684 6.07199 7.44185 5.99767L7.45598 5.98638L7.63601 5.80585L7.64729 5.79171C7.72151 5.72661 7.79135 5.65668 7.85636 5.58236L7.87049 5.57094L8.05052 5.39054L8.06193 5.37627C8.13613 5.31124 8.20593 5.24135 8.27087 5.16705L8.28512 5.15563C8.34518 5.09558 8.40515 5.03554 8.46503 4.97549L8.47644 4.96121C8.55068 4.89615 8.62053 4.82621 8.6855 4.75187L8.69963 4.74058L8.87954 4.55992C8.88343 4.55525 8.88719 4.55045 8.89094 4.54577C8.96516 4.48068 9.035 4.41074 9.10001 4.33643L9.11414 4.32514L9.29418 4.14461L9.30545 4.13046C9.3797 4.0654 9.44954 3.99546 9.51452 3.92112L9.52878 3.9097L9.70868 3.72956L9.72009 3.71528C9.79429 3.65026 9.86409 3.58037 9.92903 3.50607L9.94329 3.49465C10.0033 3.4346 10.0633 3.37455 10.1232 3.31451L10.1346 3.30023C10.2088 3.23517 10.2787 3.16523 10.3437 3.09089L10.3578 3.0796L10.5377 2.89932C10.5416 2.89465 10.5453 2.88985 10.5491 2.88518C10.6233 2.82008 10.6932 2.75015 10.7582 2.67584L10.7723 2.66454L10.9523 2.48427L10.9636 2.47013C11.0379 2.40506 11.1077 2.33513 11.1727 2.26078L11.1869 2.24936C11.2468 2.18923 11.3068 2.12918 11.3668 2.06922L11.3781 2.05508C11.4524 1.99001 11.5222 1.92008 11.5872 1.84573L11.6014 1.83431C11.6615 1.77426 11.7215 1.71422 11.7814 1.65417L11.7928 1.63989C11.8757 1.56981 11.9436 1.48013 12.0507 1.44119C12.0557 1.44218 12.061 1.44153 12.0656 1.43934C12.0703 1.43714 12.0742 1.43352 12.0766 1.42899L12.1933 1.41602H12.2071C12.4187 1.43587 12.5476 1.55255 12.6035 1.75501C12.6104 1.80228 12.6118 1.85019 12.6076 1.89778C12.6033 1.90068 12.6001 1.90492 12.5984 1.90984C12.5967 1.91475 12.5967 1.92009 12.5983 1.92503C12.5746 2.0334 12.5064 2.11257 12.4298 2.18629C12.4097 2.2055 12.3922 2.2273 12.3736 2.24781L12.3593 2.25923L12.2053 2.41341L12.1939 2.42769C12.111 2.50141 12.0326 2.57998 11.9589 2.66299L11.9448 2.67428L11.7908 2.82859C11.7869 2.83326 11.7832 2.83807 11.7794 2.84274C11.6965 2.9165 11.6181 2.99507 11.5444 3.07804L11.5303 3.08933L11.3762 3.24364L11.3649 3.25779C11.282 3.33155 11.2036 3.41012 11.1299 3.49309L11.1157 3.50451L10.9617 3.65869L10.9503 3.67297C10.8674 3.74665 10.789 3.82518 10.7154 3.90814L10.7011 3.91956L10.5472 4.07375L10.5358 4.08802C10.4529 4.16178 10.3744 4.24035 10.3008 4.32332L10.2866 4.33461L10.1327 4.48893C10.1288 4.4936 10.125 4.4984 10.1212 4.50307C10.0384 4.57683 9.95992 4.6554 9.88626 4.73837L9.87213 4.74966L9.71802 4.90398L9.70674 4.91813C9.62384 4.99185 9.54538 5.07042 9.47175 5.15342L9.45749 5.16485L9.30351 5.31903L9.2921 5.33331C9.20925 5.40699 9.13083 5.48552 9.05724 5.56848L9.04298 5.5799L8.889 5.73408L8.87759 5.74836C8.79473 5.82212 8.71627 5.90068 8.6426 5.98366L8.62847 5.99495C8.57715 6.04634 8.52578 6.09778 8.47436 6.14926L8.46309 6.16341C8.38022 6.23717 8.30176 6.31574 8.22809 6.39871L8.21397 6.41L8.05985 6.56431L8.04858 6.57846C7.96568 6.65219 7.88721 6.73076 7.81359 6.81376L7.79933 6.82518L7.64535 6.97937L7.63394 6.99364C7.55106 7.06729 7.47263 7.14582 7.39908 7.22881L7.38482 7.24023L7.23084 7.39442L7.21943 7.40869C7.13657 7.48245 7.0581 7.56102 6.98444 7.64399L6.97031 7.65528C6.91899 7.70668 6.86762 7.75812 6.8162 7.8096L6.80493 7.82374C6.72206 7.8975 6.6436 7.97607 6.56993 8.05904L6.55581 8.07034L6.40169 8.22465L6.39029 8.2388C6.30747 8.31256 6.22904 8.39112 6.15543 8.4741L6.14117 8.48552L5.98719 8.6397L5.97578 8.65398C5.8929 8.72763 5.81447 8.80615 5.74092 8.88915L5.72666 8.90057L5.57268 9.05475L5.56127 9.06903C5.47841 9.14279 5.39994 9.22136 5.32628 9.30433L5.31215 9.31562C5.26082 9.36701 5.20945 9.41845 5.15804 9.46993L5.14676 9.48408C5.0639 9.55784 4.98543 9.63641 4.91177 9.71938L4.89764 9.73067L4.74353 9.88498L4.73213 9.89913C4.6493 9.97289 4.57088 10.0515 4.49726 10.1344L4.48301 10.1459L4.32902 10.3L4.31762 10.3143C4.23473 10.388 4.15631 10.4665 4.08276 10.5495L4.0685 10.5609L3.91452 10.7151L3.90311 10.7294C3.82025 10.8031 3.74178 10.8817 3.66812 10.9647L3.65399 10.976L3.49988 11.1303L3.4886 11.1444C3.40574 11.2182 3.32727 11.2967 3.25361 11.3797L3.23948 11.391L3.08537 11.5453C3.08161 11.55 3.07785 11.5548 3.07397 11.5595C2.99114 11.6332 2.91272 11.7118 2.8391 11.7948L2.82484 11.8062L2.67086 11.9604L2.65946 11.9746C2.57659 12.0484 2.49813 12.1269 2.42446 12.2098L2.41034 12.2212L2.25635 12.3754L2.24495 12.3897C2.16208 12.4635 2.08362 12.542 2.00996 12.625L1.99583 12.6363L1.84172 12.7906L1.83044 12.8048C1.78495 12.8473 1.73971 12.8901 1.69409 12.9323C1.64146 12.9803 1.5775 13.0141 1.50822 13.0306C1.50323 13.0293 1.49798 13.0296 1.49313 13.0313C1.48828 13.033 1.48406 13.0362 1.481 13.0403H1.35139C1.34864 13.0358 1.34446 13.0323 1.3395 13.0304C1.33454 13.0285 1.3291 13.0283 1.32404 13.0299Z" fill="#CFCFCF"/>
<path d="M1.32404 13.0299C1.13078 12.9758 1.02087 12.843 1 12.6384V12.6246C1.0013 12.4841 1.0696 12.3769 1.1685 12.2844C1.18859 12.2656 1.20583 12.2437 1.22436 12.2233L1.23849 12.2119L1.41749 12.0318L1.42876 12.0176C1.50301 11.9525 1.57285 11.8826 1.63783 11.8083L1.65209 11.7968C1.71197 11.7367 1.77194 11.6767 1.832 11.6167L1.8434 11.6024C1.9177 11.5374 1.98758 11.4674 2.0526 11.3931L2.06686 11.3818L2.24702 11.2015L2.25843 11.1874C2.33263 11.1223 2.40243 11.0524 2.46737 10.978L2.4815 10.9667L2.66179 10.7865C2.66568 10.7818 2.66944 10.777 2.6732 10.7723C2.74737 10.7072 2.81716 10.6373 2.88214 10.563L2.89626 10.5516L3.07656 10.3714L3.08783 10.3573C3.16208 10.2922 3.23192 10.2223 3.2969 10.1479L3.31116 10.1365C3.37104 10.0764 3.43101 10.0163 3.49106 9.95637L3.50247 9.94209C3.57671 9.87706 3.64651 9.80712 3.71141 9.73275L3.72567 9.72146L3.90557 9.54119L3.91698 9.52704C3.99122 9.46197 4.06107 9.39204 4.12605 9.3177L4.14018 9.3064L4.32008 9.12613L4.33149 9.11199C4.4057 9.04689 4.47554 8.97696 4.54056 8.90264L4.55468 8.89122L4.73472 8.71108L4.746 8.69681C4.82027 8.63182 4.89012 8.56193 4.95506 8.48759L4.96932 8.47617C5.0292 8.41613 5.08917 8.35608 5.14923 8.29603L5.16063 8.28175C5.23487 8.21672 5.30467 8.14679 5.36957 8.07241L5.38383 8.06112L5.56373 7.88085L5.57514 7.8667C5.64936 7.80161 5.7192 7.73167 5.78421 7.65736L5.79834 7.64607L5.97837 7.4658L5.98965 7.45165C6.06386 7.38655 6.1337 7.31662 6.19872 7.24231L6.21284 7.23089L6.39288 7.05075L6.40416 7.03647C6.47843 6.97149 6.54828 6.90159 6.61322 6.82726L6.62748 6.81584C6.68736 6.75579 6.74733 6.69574 6.80739 6.6357L6.81879 6.62142C6.89303 6.55639 6.96283 6.48645 7.02773 6.41208L7.04199 6.40079L7.22138 6.22116C7.22527 6.21649 7.22902 6.21169 7.23278 6.20702C7.307 6.14192 7.37684 6.07199 7.44185 5.99767L7.45598 5.98638L7.63601 5.80585L7.64729 5.79171C7.72151 5.72661 7.79135 5.65668 7.85636 5.58236L7.87049 5.57094L8.05052 5.39054L8.06193 5.37627C8.13613 5.31124 8.20593 5.24135 8.27087 5.16705L8.28512 5.15563C8.34518 5.09558 8.40515 5.03554 8.46503 4.97549L8.47644 4.96121C8.55068 4.89615 8.62053 4.82621 8.6855 4.75187L8.69963 4.74058L8.87954 4.55992C8.88343 4.55525 8.88719 4.55045 8.89094 4.54577C8.96516 4.48068 9.035 4.41074 9.10001 4.33643L9.11414 4.32514L9.29418 4.14461L9.30545 4.13046C9.3797 4.0654 9.44954 3.99546 9.51452 3.92112L9.52878 3.9097L9.70868 3.72956L9.72009 3.71528C9.79429 3.65026 9.86409 3.58037 9.92903 3.50607L9.94329 3.49465C10.0033 3.4346 10.0633 3.37455 10.1232 3.31451L10.1346 3.30023C10.2088 3.23517 10.2787 3.16523 10.3437 3.09089L10.3578 3.0796L10.5377 2.89932C10.5416 2.89465 10.5453 2.88985 10.5491 2.88518C10.6233 2.82008 10.6932 2.75015 10.7582 2.67584L10.7723 2.66454L10.9523 2.48427L10.9636 2.47013C11.0379 2.40506 11.1077 2.33513 11.1727 2.26078L11.1869 2.24936C11.2468 2.18923 11.3068 2.12918 11.3668 2.06922L11.3781 2.05508C11.4524 1.99001 11.5222 1.92008 11.5872 1.84573L11.6014 1.83431C11.6615 1.77426 11.7215 1.71422 11.7814 1.65417L11.7928 1.63989C11.8757 1.56981 11.9436 1.48013 12.0507 1.44119C12.0557 1.44218 12.061 1.44153 12.0656 1.43934C12.0703 1.43714 12.0742 1.43352 12.0766 1.42899L12.1933 1.41602H12.2071C12.4187 1.43587 12.5476 1.55255 12.6035 1.75501C12.6104 1.80228 12.6118 1.85019 12.6076 1.89778C12.6033 1.90068 12.6001 1.90492 12.5984 1.90984C12.5967 1.91475 12.5967 1.92009 12.5983 1.92503C12.5746 2.0334 12.5064 2.11257 12.4298 2.18629C12.4097 2.2055 12.3922 2.2273 12.3736 2.24781L12.3593 2.25923L12.2053 2.41341L12.1939 2.42769C12.111 2.50141 12.0326 2.57998 11.9589 2.66299L11.9448 2.67428L11.7908 2.82859C11.7869 2.83326 11.7832 2.83807 11.7794 2.84274C11.6965 2.9165 11.6181 2.99507 11.5444 3.07804L11.5303 3.08933L11.3762 3.24364L11.3649 3.25779C11.282 3.33155 11.2036 3.41012 11.1299 3.49309L11.1157 3.50451L10.9617 3.65869L10.9503 3.67297C10.8674 3.74665 10.789 3.82518 10.7154 3.90814L10.7011 3.91956L10.5472 4.07375L10.5358 4.08802C10.4529 4.16178 10.3744 4.24035 10.3008 4.32332L10.2866 4.33461L10.1327 4.48893C10.1288 4.4936 10.125 4.4984 10.1212 4.50307C10.0384 4.57683 9.95992 4.6554 9.88626 4.73837L9.87213 4.74966L9.71802 4.90398L9.70674 4.91813C9.62384 4.99185 9.54538 5.07042 9.47175 5.15342L9.45749 5.16485L9.30351 5.31903L9.2921 5.33331C9.20925 5.40699 9.13083 5.48552 9.05724 5.56848L9.04298 5.5799L8.889 5.73408L8.87759 5.74836C8.79473 5.82212 8.71627 5.90068 8.6426 5.98366L8.62847 5.99495C8.57715 6.04634 8.52578 6.09778 8.47436 6.14926L8.46309 6.16341C8.38022 6.23717 8.30176 6.31574 8.22809 6.39871L8.21397 6.41L8.05985 6.56431L8.04858 6.57846C7.96568 6.65219 7.88721 6.73076 7.81359 6.81376L7.79933 6.82518L7.64535 6.97937L7.63394 6.99364C7.55106 7.06729 7.47263 7.14582 7.39908 7.22881L7.38482 7.24023L7.23084 7.39442L7.21943 7.40869C7.13657 7.48245 7.0581 7.56102 6.98444 7.64399L6.97031 7.65528C6.91899 7.70668 6.86762 7.75812 6.8162 7.8096L6.80493 7.82374C6.72206 7.8975 6.6436 7.97607 6.56993 8.05904L6.55581 8.07034L6.40169 8.22465L6.39029 8.2388C6.30747 8.31256 6.22904 8.39112 6.15543 8.4741L6.14117 8.48552L5.98719 8.6397L5.97578 8.65398C5.8929 8.72763 5.81447 8.80615 5.74092 8.88915L5.72666 8.90057L5.57268 9.05475L5.56127 9.06903C5.47841 9.14279 5.39994 9.22136 5.32628 9.30433L5.31215 9.31562C5.26082 9.36701 5.20945 9.41845 5.15804 9.46993L5.14676 9.48408C5.0639 9.55784 4.98543 9.63641 4.91177 9.71938L4.89764 9.73067L4.74353 9.88498L4.73213 9.89913C4.6493 9.97289 4.57088 10.0515 4.49726 10.1344L4.48301 10.1459L4.32902 10.3L4.31762 10.3143C4.23473 10.388 4.15631 10.4665 4.08276 10.5495L4.0685 10.5609L3.91452 10.7151L3.90311 10.7294C3.82025 10.8031 3.74178 10.8817 3.66812 10.9647L3.65399 10.976L3.49988 11.1303L3.4886 11.1444C3.40574 11.2182 3.32727 11.2967 3.25361 11.3797L3.23948 11.391L3.08537 11.5453C3.08161 11.55 3.07785 11.5548 3.07397 11.5595C2.99114 11.6332 2.91272 11.7118 2.8391 11.7948L2.82484 11.8062L2.67086 11.9604L2.65946 11.9746C2.57659 12.0484 2.49813 12.1269 2.42446 12.2098L2.41034 12.2212L2.25635 12.3754L2.24495 12.3897C2.16208 12.4635 2.08362 12.542 2.00996 12.625L1.99583 12.6363L1.84172 12.7906L1.83044 12.8048C1.78495 12.8473 1.73971 12.8901 1.69409 12.9323C1.64146 12.9803 1.5775 13.0141 1.50822 13.0306C1.50323 13.0293 1.49798 13.0296 1.49313 13.0313C1.48828 13.033 1.48406 13.0362 1.481 13.0403H1.35139C1.34864 13.0358 1.34446 13.0323 1.3395 13.0304C1.33454 13.0285 1.3291 13.0283 1.32404 13.0299Z" stroke="#CFCFCF" stroke-width="0.6" mask="url(#path-1-outside-1_5382_16053)"/>
</g>
<g id="Vector_2">
<mask id="path-2-outside-2_5382_16053" maskUnits="userSpaceOnUse" x="2.729" y="3.41357" width="10" height="11" fill="black">
<rect fill="white" x="2.729" y="3.41357" width="10" height="11"/>
<path d="M11.0448 4.74011C11.1572 4.63732 11.2646 4.52969 11.3672 4.41721C11.3712 4.4172 11.3751 4.41593 11.3783 4.41357C11.4275 4.5174 11.4395 4.63265 11.48 4.73907C11.4796 4.7412 11.4797 4.74338 11.4802 4.74548C11.4807 4.74758 11.4816 4.74955 11.4829 4.75127L11.5607 5.15283C11.5607 5.15737 11.5607 5.16204 11.5607 5.16659C11.5978 5.437 11.6154 5.70973 11.6136 5.98267V5.99695C11.6058 6.13192 11.5981 6.2669 11.5904 6.40188V6.40655C11.5714 6.54222 11.5524 6.67784 11.5334 6.81342C11.532 6.81498 11.531 6.81684 11.5305 6.81885C11.53 6.82086 11.53 6.82296 11.5305 6.82497L11.4384 7.21056C11.4344 7.21463 11.4317 7.21967 11.4303 7.22517C11.429 7.23066 11.4291 7.23642 11.4307 7.24184L11.3739 7.42964C11.3708 7.43989 11.3676 7.45015 11.3645 7.4604C11.3419 7.52183 11.3194 7.58322 11.2969 7.64456C11.2962 7.64483 11.2954 7.64526 11.2948 7.64583C11.2942 7.64641 11.2937 7.6471 11.2934 7.64788C11.2931 7.64866 11.2929 7.64949 11.293 7.65033C11.293 7.65117 11.2932 7.65199 11.2936 7.65274L11.1187 8.05871C11.1169 8.05946 11.1153 8.06071 11.1142 8.06232C11.113 8.06392 11.1124 8.06582 11.1122 8.06779L10.9614 8.35397C10.9277 8.3928 10.901 8.43714 10.8824 8.48505L10.6017 8.88868C10.5998 8.88962 10.5982 8.89099 10.597 8.89269C10.5958 8.89438 10.595 8.89635 10.5947 8.89841C10.4511 9.07012 10.3068 9.24092 10.1466 9.3977C10.0327 9.50931 9.91046 9.61145 9.79212 9.718L9.77916 9.72878C9.73794 9.74072 9.74753 9.77498 9.74753 9.80379C9.74753 10.2273 9.74753 10.6508 9.74753 11.0743C9.74753 11.1757 9.74753 11.2772 9.74857 11.3787V11.393C9.74676 11.5272 9.7449 11.6613 9.743 11.7953C9.74166 11.7966 9.74083 11.7984 9.74067 11.8002C9.7405 11.8021 9.74101 11.8039 9.74209 11.8055C9.72991 11.9443 9.71777 12.0832 9.70567 12.2222C9.70125 12.225 9.6979 12.2292 9.69618 12.2341C9.69446 12.239 9.69447 12.2444 9.69621 12.2493C9.67664 12.3776 9.6384 12.5008 9.599 12.6239L9.59187 12.638C9.52697 12.7789 9.44885 12.9133 9.35856 13.0395C9.35668 13.0404 9.35506 13.0418 9.35384 13.0435C9.35262 13.0452 9.35184 13.0472 9.35156 13.0493C9.22659 13.2014 9.08287 13.337 8.92383 13.4529L8.90245 13.4668C8.89791 13.4701 8.89337 13.4733 8.88948 13.4767L8.86356 13.4923C8.74137 13.5664 8.6119 13.6279 8.47718 13.6755C8.47002 13.6741 8.46262 13.6745 8.45564 13.6766C8.44865 13.6788 8.4423 13.6826 8.43713 13.6877C8.08613 13.7786 7.72723 13.7814 7.3682 13.7847C7.32322 13.7847 7.27837 13.7892 7.2334 13.7916H7.22044C7.0865 13.785 6.95257 13.785 6.81863 13.7916H6.80567C6.67173 13.785 6.5378 13.785 6.40386 13.7916H6.3909C6.25675 13.7881 6.12273 13.7786 5.98845 13.7899C5.98683 13.7888 5.98494 13.7883 5.983 13.7883C5.98107 13.7883 5.97918 13.7888 5.97756 13.7899C5.9576 13.7777 5.93544 13.7818 5.91444 13.7829C5.67776 13.7947 5.44445 13.7634 5.21115 13.7309C5.1943 13.7286 5.17693 13.7282 5.1593 13.7269C5.15825 13.7253 5.15668 13.7241 5.15485 13.7234C5.15302 13.7228 5.15103 13.7228 5.14919 13.7234C5.00662 13.6921 4.87259 13.6385 4.73689 13.5882C4.67739 13.5383 4.60559 13.5086 4.54117 13.4667L4.52004 13.4537C4.36258 13.3393 4.22063 13.2049 4.09776 13.0539L4.08583 13.0409L3.92835 12.7952L3.90593 12.7519C3.82168 12.5839 3.77502 12.4043 3.74093 12.2208C3.74175 12.2192 3.74191 12.2173 3.74138 12.2156C3.74084 12.2139 3.73965 12.2125 3.73808 12.2117C3.71138 12.1115 3.74443 12.0349 3.82647 11.9737C3.8568 11.9511 3.87949 11.9181 3.90567 11.89C3.94257 11.8662 3.97395 11.8348 3.99769 11.7978C4.11003 11.695 4.21752 11.5874 4.32018 11.4749C4.35712 11.4511 4.38854 11.4197 4.41233 11.3828L4.52134 11.2835C4.52393 11.3198 4.52613 11.3499 4.52821 11.38V11.3943C4.52299 11.5282 4.52655 11.6622 4.53884 11.7956C4.53884 11.8001 4.53884 11.8046 4.53884 11.8086C4.54026 11.9445 4.5518 12.0792 4.58809 12.2109L4.59081 12.2239C4.6297 12.3835 4.7155 12.5149 4.83228 12.6278L4.8433 12.6397C4.9902 12.8001 5.19071 12.9009 5.40687 12.9232C5.45871 12.9293 5.50887 12.9415 5.56111 12.9361L5.57407 12.9371C5.70783 12.9518 5.84134 12.9696 5.97588 12.95L5.98145 12.9524L5.98741 12.9509C6.12908 12.9622 6.27101 12.9585 6.41281 12.9582C6.80476 12.9574 7.19659 12.9635 7.58841 12.9511C7.60345 12.9511 7.61848 12.9487 7.63339 12.9476H7.647C7.84012 12.9459 8.03286 12.9393 8.21951 12.8827C8.31488 12.8558 8.40308 12.8079 8.4777 12.7426C8.52503 12.7165 8.56671 12.6812 8.60031 12.6388L8.61029 12.6271C8.72695 12.514 8.8156 12.3842 8.85086 12.2226C8.85341 12.2191 8.85452 12.2148 8.85397 12.2105C8.88456 12.1352 8.88443 12.0548 8.89285 11.9769C8.91281 11.9173 8.90672 11.8562 8.90504 11.7952C8.92526 11.6754 8.91709 11.5543 8.918 11.4339C8.91994 10.8814 8.91956 10.3289 8.92007 9.77628C8.92007 9.61768 8.90439 9.45701 8.98099 9.30905C9.07561 9.21016 9.19408 9.14033 9.29505 9.0487L9.3071 9.03573C9.45694 8.92489 9.58474 8.79069 9.71189 8.65572C9.71383 8.65364 9.71189 8.64793 9.71189 8.64378H9.7128C9.7719 8.6025 9.81377 8.54566 9.85395 8.48726L9.85823 8.48622L9.85952 8.48194C9.96055 8.36979 10.0498 8.24759 10.126 8.11724C10.1445 8.1032 10.1581 8.08367 10.1649 8.06143C10.3279 7.81068 10.4581 7.53998 10.5522 7.25599C10.6116 7.11425 10.6548 6.96621 10.6809 6.81472C10.7348 6.60823 10.762 6.39759 10.7767 6.18501C10.781 6.12284 10.781 6.06015 10.7829 5.99773V5.9841C10.7942 5.84977 10.7773 5.71622 10.7712 5.58242C10.7712 5.578 10.7705 5.57359 10.7702 5.56944C10.7655 5.43278 10.7473 5.29693 10.7159 5.16386C10.6958 5.10156 10.7274 5.06237 10.771 5.02213C10.8358 4.96295 10.8936 4.89728 10.9545 4.83434C10.991 4.80974 11.0218 4.77761 11.0448 4.74011Z"/>
</mask>
<path d="M11.0448 4.74011C11.1572 4.63732 11.2646 4.52969 11.3672 4.41721C11.3712 4.4172 11.3751 4.41593 11.3783 4.41357C11.4275 4.5174 11.4395 4.63265 11.48 4.73907C11.4796 4.7412 11.4797 4.74338 11.4802 4.74548C11.4807 4.74758 11.4816 4.74955 11.4829 4.75127L11.5607 5.15283C11.5607 5.15737 11.5607 5.16204 11.5607 5.16659C11.5978 5.437 11.6154 5.70973 11.6136 5.98267V5.99695C11.6058 6.13192 11.5981 6.2669 11.5904 6.40188V6.40655C11.5714 6.54222 11.5524 6.67784 11.5334 6.81342C11.532 6.81498 11.531 6.81684 11.5305 6.81885C11.53 6.82086 11.53 6.82296 11.5305 6.82497L11.4384 7.21056C11.4344 7.21463 11.4317 7.21967 11.4303 7.22517C11.429 7.23066 11.4291 7.23642 11.4307 7.24184L11.3739 7.42964C11.3708 7.43989 11.3676 7.45015 11.3645 7.4604C11.3419 7.52183 11.3194 7.58322 11.2969 7.64456C11.2962 7.64483 11.2954 7.64526 11.2948 7.64583C11.2942 7.64641 11.2937 7.6471 11.2934 7.64788C11.2931 7.64866 11.2929 7.64949 11.293 7.65033C11.293 7.65117 11.2932 7.65199 11.2936 7.65274L11.1187 8.05871C11.1169 8.05946 11.1153 8.06071 11.1142 8.06232C11.113 8.06392 11.1124 8.06582 11.1122 8.06779L10.9614 8.35397C10.9277 8.3928 10.901 8.43714 10.8824 8.48505L10.6017 8.88868C10.5998 8.88962 10.5982 8.89099 10.597 8.89269C10.5958 8.89438 10.595 8.89635 10.5947 8.89841C10.4511 9.07012 10.3068 9.24092 10.1466 9.3977C10.0327 9.50931 9.91046 9.61145 9.79212 9.718L9.77916 9.72878C9.73794 9.74072 9.74753 9.77498 9.74753 9.80379C9.74753 10.2273 9.74753 10.6508 9.74753 11.0743C9.74753 11.1757 9.74753 11.2772 9.74857 11.3787V11.393C9.74676 11.5272 9.7449 11.6613 9.743 11.7953C9.74166 11.7966 9.74083 11.7984 9.74067 11.8002C9.7405 11.8021 9.74101 11.8039 9.74209 11.8055C9.72991 11.9443 9.71777 12.0832 9.70567 12.2222C9.70125 12.225 9.6979 12.2292 9.69618 12.2341C9.69446 12.239 9.69447 12.2444 9.69621 12.2493C9.67664 12.3776 9.6384 12.5008 9.599 12.6239L9.59187 12.638C9.52697 12.7789 9.44885 12.9133 9.35856 13.0395C9.35668 13.0404 9.35506 13.0418 9.35384 13.0435C9.35262 13.0452 9.35184 13.0472 9.35156 13.0493C9.22659 13.2014 9.08287 13.337 8.92383 13.4529L8.90245 13.4668C8.89791 13.4701 8.89337 13.4733 8.88948 13.4767L8.86356 13.4923C8.74137 13.5664 8.6119 13.6279 8.47718 13.6755C8.47002 13.6741 8.46262 13.6745 8.45564 13.6766C8.44865 13.6788 8.4423 13.6826 8.43713 13.6877C8.08613 13.7786 7.72723 13.7814 7.3682 13.7847C7.32322 13.7847 7.27837 13.7892 7.2334 13.7916H7.22044C7.0865 13.785 6.95257 13.785 6.81863 13.7916H6.80567C6.67173 13.785 6.5378 13.785 6.40386 13.7916H6.3909C6.25675 13.7881 6.12273 13.7786 5.98845 13.7899C5.98683 13.7888 5.98494 13.7883 5.983 13.7883C5.98107 13.7883 5.97918 13.7888 5.97756 13.7899C5.9576 13.7777 5.93544 13.7818 5.91444 13.7829C5.67776 13.7947 5.44445 13.7634 5.21115 13.7309C5.1943 13.7286 5.17693 13.7282 5.1593 13.7269C5.15825 13.7253 5.15668 13.7241 5.15485 13.7234C5.15302 13.7228 5.15103 13.7228 5.14919 13.7234C5.00662 13.6921 4.87259 13.6385 4.73689 13.5882C4.67739 13.5383 4.60559 13.5086 4.54117 13.4667L4.52004 13.4537C4.36258 13.3393 4.22063 13.2049 4.09776 13.0539L4.08583 13.0409L3.92835 12.7952L3.90593 12.7519C3.82168 12.5839 3.77502 12.4043 3.74093 12.2208C3.74175 12.2192 3.74191 12.2173 3.74138 12.2156C3.74084 12.2139 3.73965 12.2125 3.73808 12.2117C3.71138 12.1115 3.74443 12.0349 3.82647 11.9737C3.8568 11.9511 3.87949 11.9181 3.90567 11.89C3.94257 11.8662 3.97395 11.8348 3.99769 11.7978C4.11003 11.695 4.21752 11.5874 4.32018 11.4749C4.35712 11.4511 4.38854 11.4197 4.41233 11.3828L4.52134 11.2835C4.52393 11.3198 4.52613 11.3499 4.52821 11.38V11.3943C4.52299 11.5282 4.52655 11.6622 4.53884 11.7956C4.53884 11.8001 4.53884 11.8046 4.53884 11.8086C4.54026 11.9445 4.5518 12.0792 4.58809 12.2109L4.59081 12.2239C4.6297 12.3835 4.7155 12.5149 4.83228 12.6278L4.8433 12.6397C4.9902 12.8001 5.19071 12.9009 5.40687 12.9232C5.45871 12.9293 5.50887 12.9415 5.56111 12.9361L5.57407 12.9371C5.70783 12.9518 5.84134 12.9696 5.97588 12.95L5.98145 12.9524L5.98741 12.9509C6.12908 12.9622 6.27101 12.9585 6.41281 12.9582C6.80476 12.9574 7.19659 12.9635 7.58841 12.9511C7.60345 12.9511 7.61848 12.9487 7.63339 12.9476H7.647C7.84012 12.9459 8.03286 12.9393 8.21951 12.8827C8.31488 12.8558 8.40308 12.8079 8.4777 12.7426C8.52503 12.7165 8.56671 12.6812 8.60031 12.6388L8.61029 12.6271C8.72695 12.514 8.8156 12.3842 8.85086 12.2226C8.85341 12.2191 8.85452 12.2148 8.85397 12.2105C8.88456 12.1352 8.88443 12.0548 8.89285 11.9769C8.91281 11.9173 8.90672 11.8562 8.90504 11.7952C8.92526 11.6754 8.91709 11.5543 8.918 11.4339C8.91994 10.8814 8.91956 10.3289 8.92007 9.77628C8.92007 9.61768 8.90439 9.45701 8.98099 9.30905C9.07561 9.21016 9.19408 9.14033 9.29505 9.0487L9.3071 9.03573C9.45694 8.92489 9.58474 8.79069 9.71189 8.65572C9.71383 8.65364 9.71189 8.64793 9.71189 8.64378H9.7128C9.7719 8.6025 9.81377 8.54566 9.85395 8.48726L9.85823 8.48622L9.85952 8.48194C9.96055 8.36979 10.0498 8.24759 10.126 8.11724C10.1445 8.1032 10.1581 8.08367 10.1649 8.06143C10.3279 7.81068 10.4581 7.53998 10.5522 7.25599C10.6116 7.11425 10.6548 6.96621 10.6809 6.81472C10.7348 6.60823 10.762 6.39759 10.7767 6.18501C10.781 6.12284 10.781 6.06015 10.7829 5.99773V5.9841C10.7942 5.84977 10.7773 5.71622 10.7712 5.58242C10.7712 5.578 10.7705 5.57359 10.7702 5.56944C10.7655 5.43278 10.7473 5.29693 10.7159 5.16386C10.6958 5.10156 10.7274 5.06237 10.771 5.02213C10.8358 4.96295 10.8936 4.89728 10.9545 4.83434C10.991 4.80974 11.0218 4.77761 11.0448 4.74011Z" fill="#CFCFCF"/>
<path d="M11.0448 4.74011C11.1572 4.63732 11.2646 4.52969 11.3672 4.41721C11.3712 4.4172 11.3751 4.41593 11.3783 4.41357C11.4275 4.5174 11.4395 4.63265 11.48 4.73907C11.4796 4.7412 11.4797 4.74338 11.4802 4.74548C11.4807 4.74758 11.4816 4.74955 11.4829 4.75127L11.5607 5.15283C11.5607 5.15737 11.5607 5.16204 11.5607 5.16659C11.5978 5.437 11.6154 5.70973 11.6136 5.98267V5.99695C11.6058 6.13192 11.5981 6.2669 11.5904 6.40188V6.40655C11.5714 6.54222 11.5524 6.67784 11.5334 6.81342C11.532 6.81498 11.531 6.81684 11.5305 6.81885C11.53 6.82086 11.53 6.82296 11.5305 6.82497L11.4384 7.21056C11.4344 7.21463 11.4317 7.21967 11.4303 7.22517C11.429 7.23066 11.4291 7.23642 11.4307 7.24184L11.3739 7.42964C11.3708 7.43989 11.3676 7.45015 11.3645 7.4604C11.3419 7.52183 11.3194 7.58322 11.2969 7.64456C11.2962 7.64483 11.2954 7.64526 11.2948 7.64583C11.2942 7.64641 11.2937 7.6471 11.2934 7.64788C11.2931 7.64866 11.2929 7.64949 11.293 7.65033C11.293 7.65117 11.2932 7.65199 11.2936 7.65274L11.1187 8.05871C11.1169 8.05946 11.1153 8.06071 11.1142 8.06232C11.113 8.06392 11.1124 8.06582 11.1122 8.06779L10.9614 8.35397C10.9277 8.3928 10.901 8.43714 10.8824 8.48505L10.6017 8.88868C10.5998 8.88962 10.5982 8.89099 10.597 8.89269C10.5958 8.89438 10.595 8.89635 10.5947 8.89841C10.4511 9.07012 10.3068 9.24092 10.1466 9.3977C10.0327 9.50931 9.91046 9.61145 9.79212 9.718L9.77916 9.72878C9.73794 9.74072 9.74753 9.77498 9.74753 9.80379C9.74753 10.2273 9.74753 10.6508 9.74753 11.0743C9.74753 11.1757 9.74753 11.2772 9.74857 11.3787V11.393C9.74676 11.5272 9.7449 11.6613 9.743 11.7953C9.74166 11.7966 9.74083 11.7984 9.74067 11.8002C9.7405 11.8021 9.74101 11.8039 9.74209 11.8055C9.72991 11.9443 9.71777 12.0832 9.70567 12.2222C9.70125 12.225 9.6979 12.2292 9.69618 12.2341C9.69446 12.239 9.69447 12.2444 9.69621 12.2493C9.67664 12.3776 9.6384 12.5008 9.599 12.6239L9.59187 12.638C9.52697 12.7789 9.44885 12.9133 9.35856 13.0395C9.35668 13.0404 9.35506 13.0418 9.35384 13.0435C9.35262 13.0452 9.35184 13.0472 9.35156 13.0493C9.22659 13.2014 9.08287 13.337 8.92383 13.4529L8.90245 13.4668C8.89791 13.4701 8.89337 13.4733 8.88948 13.4767L8.86356 13.4923C8.74137 13.5664 8.6119 13.6279 8.47718 13.6755C8.47002 13.6741 8.46262 13.6745 8.45564 13.6766C8.44865 13.6788 8.4423 13.6826 8.43713 13.6877C8.08613 13.7786 7.72723 13.7814 7.3682 13.7847C7.32322 13.7847 7.27837 13.7892 7.2334 13.7916H7.22044C7.0865 13.785 6.95257 13.785 6.81863 13.7916H6.80567C6.67173 13.785 6.5378 13.785 6.40386 13.7916H6.3909C6.25675 13.7881 6.12273 13.7786 5.98845 13.7899C5.98683 13.7888 5.98494 13.7883 5.983 13.7883C5.98107 13.7883 5.97918 13.7888 5.97756 13.7899C5.9576 13.7777 5.93544 13.7818 5.91444 13.7829C5.67776 13.7947 5.44445 13.7634 5.21115 13.7309C5.1943 13.7286 5.17693 13.7282 5.1593 13.7269C5.15825 13.7253 5.15668 13.7241 5.15485 13.7234C5.15302 13.7228 5.15103 13.7228 5.14919 13.7234C5.00662 13.6921 4.87259 13.6385 4.73689 13.5882C4.67739 13.5383 4.60559 13.5086 4.54117 13.4667L4.52004 13.4537C4.36258 13.3393 4.22063 13.2049 4.09776 13.0539L4.08583 13.0409L3.92835 12.7952L3.90593 12.7519C3.82168 12.5839 3.77502 12.4043 3.74093 12.2208C3.74175 12.2192 3.74191 12.2173 3.74138 12.2156C3.74084 12.2139 3.73965 12.2125 3.73808 12.2117C3.71138 12.1115 3.74443 12.0349 3.82647 11.9737C3.8568 11.9511 3.87949 11.9181 3.90567 11.89C3.94257 11.8662 3.97395 11.8348 3.99769 11.7978C4.11003 11.695 4.21752 11.5874 4.32018 11.4749C4.35712 11.4511 4.38854 11.4197 4.41233 11.3828L4.52134 11.2835C4.52393 11.3198 4.52613 11.3499 4.52821 11.38V11.3943C4.52299 11.5282 4.52655 11.6622 4.53884 11.7956C4.53884 11.8001 4.53884 11.8046 4.53884 11.8086C4.54026 11.9445 4.5518 12.0792 4.58809 12.2109L4.59081 12.2239C4.6297 12.3835 4.7155 12.5149 4.83228 12.6278L4.8433 12.6397C4.9902 12.8001 5.19071 12.9009 5.40687 12.9232C5.45871 12.9293 5.50887 12.9415 5.56111 12.9361L5.57407 12.9371C5.70783 12.9518 5.84134 12.9696 5.97588 12.95L5.98145 12.9524L5.98741 12.9509C6.12908 12.9622 6.27101 12.9585 6.41281 12.9582C6.80476 12.9574 7.19659 12.9635 7.58841 12.9511C7.60345 12.9511 7.61848 12.9487 7.63339 12.9476H7.647C7.84012 12.9459 8.03286 12.9393 8.21951 12.8827C8.31488 12.8558 8.40308 12.8079 8.4777 12.7426C8.52503 12.7165 8.56671 12.6812 8.60031 12.6388L8.61029 12.6271C8.72695 12.514 8.8156 12.3842 8.85086 12.2226C8.85341 12.2191 8.85452 12.2148 8.85397 12.2105C8.88456 12.1352 8.88443 12.0548 8.89285 11.9769C8.91281 11.9173 8.90672 11.8562 8.90504 11.7952C8.92526 11.6754 8.91709 11.5543 8.918 11.4339C8.91994 10.8814 8.91956 10.3289 8.92007 9.77628C8.92007 9.61768 8.90439 9.45701 8.98099 9.30905C9.07561 9.21016 9.19408 9.14033 9.29505 9.0487L9.3071 9.03573C9.45694 8.92489 9.58474 8.79069 9.71189 8.65572C9.71383 8.65364 9.71189 8.64793 9.71189 8.64378H9.7128C9.7719 8.6025 9.81377 8.54566 9.85395 8.48726L9.85823 8.48622L9.85952 8.48194C9.96055 8.36979 10.0498 8.24759 10.126 8.11724C10.1445 8.1032 10.1581 8.08367 10.1649 8.06143C10.3279 7.81068 10.4581 7.53998 10.5522 7.25599C10.6116 7.11425 10.6548 6.96621 10.6809 6.81472C10.7348 6.60823 10.762 6.39759 10.7767 6.18501C10.781 6.12284 10.781 6.06015 10.7829 5.99773V5.9841C10.7942 5.84977 10.7773 5.71622 10.7712 5.58242C10.7712 5.578 10.7705 5.57359 10.7702 5.56944C10.7655 5.43278 10.7473 5.29693 10.7159 5.16386C10.6958 5.10156 10.7274 5.06237 10.771 5.02213C10.8358 4.96295 10.8936 4.89728 10.9545 4.83434C10.991 4.80974 11.0218 4.77761 11.0448 4.74011Z" stroke="#CFCFCF" stroke-width="0.6" mask="url(#path-2-outside-2_5382_16053)"/>
</g>
<g id="Vector_3">
<mask id="path-3-outside-3_5382_16053" maskUnits="userSpaceOnUse" x="0.831543" y="0" width="10" height="10" fill="black">
<rect fill="white" x="0.831543" width="10" height="10"/>
<path d="M2.2419 3.91224C2.31513 3.77609 2.38642 3.63891 2.44929 3.49758C2.52822 3.39037 2.59186 3.27318 2.66224 3.16079C2.68661 3.13925 2.70534 3.11207 2.71681 3.08162L3.07675 2.62828L3.08816 2.61751L3.44356 2.26242L3.45445 2.25099C3.4713 2.24113 3.49217 2.23503 3.49217 2.20972H3.49307C3.54622 2.18558 3.5838 2.1412 3.62904 2.1059C3.72184 2.03438 3.814 1.96209 3.90641 1.89006C3.93734 1.87961 3.96461 1.86046 3.98496 1.8349L4.32002 1.62894L4.34685 1.61427L4.69266 1.44166C4.70865 1.43925 4.72331 1.43136 4.73413 1.41933H4.74036L4.7458 1.41609C5.01163 1.30344 5.28517 1.20997 5.56432 1.1364H5.56976L5.57417 1.13303L5.97597 1.05412C6.08466 1.04758 6.19286 1.03458 6.30001 1.01518L6.8046 1H6.81834L7.14173 1.01415C7.1705 1.0318 7.202 1.02712 7.23311 1.02531C7.50799 1.05892 7.78032 1.11095 8.04825 1.18105L8.06122 1.1839C8.27651 1.25347 8.49167 1.32316 8.69788 1.41752C8.70838 1.42232 8.72121 1.42959 8.73405 1.42011V1.42141C8.73535 1.42676 8.73796 1.43169 8.74165 1.43577C8.74534 1.43985 8.74999 1.44294 8.75517 1.44477C8.93216 1.52637 9.10439 1.61792 9.27104 1.71901C9.28054 1.72313 9.29058 1.72588 9.30085 1.72718H9.30163C9.36799 1.79519 9.45509 1.83413 9.53066 1.8889C9.67855 1.99675 9.82216 2.10953 9.96072 2.2288C9.99105 2.25476 9.9996 2.26968 9.96629 2.30213C9.79278 2.47267 9.62078 2.64472 9.4503 2.81828C9.42437 2.84424 9.40869 2.85008 9.37784 2.82244C9.31887 2.76948 9.25432 2.72289 9.19197 2.67357L9.16255 2.64995C9.07728 2.58081 8.98666 2.51858 8.89153 2.46384L8.87857 2.45424C8.7645 2.37961 8.64798 2.3094 8.52187 2.25658C8.5075 2.24154 8.48851 2.23176 8.46795 2.2288C8.33822 2.16112 8.20255 2.10555 8.06264 2.06281L8.04851 2.05554C7.91805 2.00744 7.78434 1.96867 7.64839 1.93951L7.63375 1.93795C7.50222 1.90243 7.36772 1.87906 7.23194 1.86813C7.23156 1.86735 7.23101 1.86666 7.23034 1.86612C7.22966 1.86557 7.22887 1.86519 7.22803 1.86499C7.22718 1.86479 7.22631 1.86478 7.22546 1.86497C7.22461 1.86515 7.22381 1.86552 7.22313 1.86605C6.99202 1.83088 6.75962 1.8301 6.52684 1.83906C6.48588 1.84062 6.44518 1.84425 6.40435 1.84685H6.39061C6.25356 1.85427 6.11733 1.87271 5.98323 1.902H5.98012C5.84219 1.92271 5.70635 1.95554 5.57417 2.00012L5.56121 2.00272C5.42195 2.0397 5.2861 2.0885 5.15512 2.14859C5.15432 2.14828 5.15345 2.14816 5.15259 2.14826C5.15173 2.14835 5.15091 2.14866 5.15019 2.14914C5.14948 2.14963 5.14889 2.15028 5.14849 2.15105C5.14808 2.15181 5.14787 2.15266 5.14787 2.15353C5.0768 2.17519 5.00874 2.20571 4.94528 2.24438L4.92234 2.25735C4.71063 2.35382 4.511 2.47487 4.32753 2.61803C4.29763 2.63045 4.27101 2.64964 4.24976 2.67409C4.09253 2.79081 3.94581 2.92109 3.81128 3.06345L3.79248 3.08655C3.68486 3.19041 3.58682 3.30378 3.49955 3.42529C3.47471 3.446 3.45568 3.47284 3.44434 3.50316C3.3133 3.6637 3.21103 3.84319 3.11525 4.02554C3.06418 4.12223 3.0135 4.21944 2.97915 4.32405L2.97513 4.32638V4.33105C2.91575 4.46235 2.86737 4.59835 2.83048 4.73767L2.82763 4.75065C2.78359 4.88321 2.7509 5.01928 2.7299 5.15739V5.16012C2.70096 5.29431 2.68263 5.43057 2.67508 5.56764V5.5814C2.65589 5.85525 2.65447 6.12857 2.69452 6.40099C2.69392 6.40164 2.69349 6.40243 2.69325 6.40328C2.69301 6.40413 2.69297 6.40502 2.69313 6.40589C2.6933 6.40675 2.69366 6.40757 2.69419 6.40828C2.69472 6.40898 2.69541 6.40955 2.6962 6.40995C2.70736 6.54611 2.73079 6.68098 2.76619 6.81293C2.76439 6.81834 2.76411 6.82415 2.76539 6.82972C2.76667 6.83528 2.76946 6.84039 2.77345 6.84446C2.80022 6.97718 2.83803 7.10742 2.88648 7.23382V7.2381L2.88998 7.24044C2.93312 7.38119 2.98954 7.51752 3.05847 7.64757C3.06069 7.66847 3.07035 7.68787 3.08569 7.70221C3.14016 7.82724 3.20639 7.94679 3.28349 8.05925L3.2936 8.07223C3.38964 8.24432 3.5129 8.39669 3.63993 8.54607C3.67337 8.58501 3.67479 8.60603 3.6363 8.64341C3.46611 8.80889 3.2993 8.97748 3.13274 9.14659C3.10384 9.17605 3.08764 9.18111 3.05925 9.1449C2.99445 9.06184 2.92419 8.98267 2.85628 8.90181L2.84422 8.88883L2.68752 8.66885C2.68594 8.66254 2.68298 8.65666 2.67885 8.65163C2.67473 8.6466 2.66954 8.64255 2.66367 8.63978C2.63553 8.5848 2.60219 8.53265 2.56412 8.48403C2.56399 8.482 2.56335 8.48003 2.56227 8.47831C2.56118 8.47659 2.55968 8.47516 2.5579 8.47417L2.33315 8.0673C2.31319 8.01538 2.29517 7.96165 2.26005 7.91662C2.22402 7.82845 2.1879 7.74032 2.15169 7.65224V7.64796L2.14806 7.64563C2.10356 7.51099 2.05906 7.37641 2.01456 7.24187L2.01261 7.22889L1.91618 6.82383C1.91657 6.82304 1.91679 6.82218 1.91684 6.8213C1.91689 6.82042 1.91675 6.81954 1.91645 6.81872C1.91615 6.81789 1.91568 6.81714 1.91508 6.8165C1.91447 6.81586 1.91375 6.81535 1.91294 6.815C1.89428 6.68089 1.87557 6.54678 1.85682 6.41267C1.8585 6.38581 1.86408 6.35829 1.84684 6.33376C1.84174 6.22128 1.83664 6.1091 1.83154 5.99723V5.9836C1.8363 5.81514 1.84113 5.64668 1.84606 5.47822C1.86575 5.37098 1.87874 5.26262 1.88494 5.15376L1.96271 4.75143C1.96436 4.75042 1.96562 4.74889 1.9663 4.74708C1.96699 4.74527 1.96704 4.74328 1.96647 4.74143C2.04204 4.46616 2.12693 4.194 2.24255 3.93236C2.24402 3.9262 2.24437 3.91982 2.24359 3.91354L2.2419 3.91224Z"/>
</mask>
<path d="M2.2419 3.91224C2.31513 3.77609 2.38642 3.63891 2.44929 3.49758C2.52822 3.39037 2.59186 3.27318 2.66224 3.16079C2.68661 3.13925 2.70534 3.11207 2.71681 3.08162L3.07675 2.62828L3.08816 2.61751L3.44356 2.26242L3.45445 2.25099C3.4713 2.24113 3.49217 2.23503 3.49217 2.20972H3.49307C3.54622 2.18558 3.5838 2.1412 3.62904 2.1059C3.72184 2.03438 3.814 1.96209 3.90641 1.89006C3.93734 1.87961 3.96461 1.86046 3.98496 1.8349L4.32002 1.62894L4.34685 1.61427L4.69266 1.44166C4.70865 1.43925 4.72331 1.43136 4.73413 1.41933H4.74036L4.7458 1.41609C5.01163 1.30344 5.28517 1.20997 5.56432 1.1364H5.56976L5.57417 1.13303L5.97597 1.05412C6.08466 1.04758 6.19286 1.03458 6.30001 1.01518L6.8046 1H6.81834L7.14173 1.01415C7.1705 1.0318 7.202 1.02712 7.23311 1.02531C7.50799 1.05892 7.78032 1.11095 8.04825 1.18105L8.06122 1.1839C8.27651 1.25347 8.49167 1.32316 8.69788 1.41752C8.70838 1.42232 8.72121 1.42959 8.73405 1.42011V1.42141C8.73535 1.42676 8.73796 1.43169 8.74165 1.43577C8.74534 1.43985 8.74999 1.44294 8.75517 1.44477C8.93216 1.52637 9.10439 1.61792 9.27104 1.71901C9.28054 1.72313 9.29058 1.72588 9.30085 1.72718H9.30163C9.36799 1.79519 9.45509 1.83413 9.53066 1.8889C9.67855 1.99675 9.82216 2.10953 9.96072 2.2288C9.99105 2.25476 9.9996 2.26968 9.96629 2.30213C9.79278 2.47267 9.62078 2.64472 9.4503 2.81828C9.42437 2.84424 9.40869 2.85008 9.37784 2.82244C9.31887 2.76948 9.25432 2.72289 9.19197 2.67357L9.16255 2.64995C9.07728 2.58081 8.98666 2.51858 8.89153 2.46384L8.87857 2.45424C8.7645 2.37961 8.64798 2.3094 8.52187 2.25658C8.5075 2.24154 8.48851 2.23176 8.46795 2.2288C8.33822 2.16112 8.20255 2.10555 8.06264 2.06281L8.04851 2.05554C7.91805 2.00744 7.78434 1.96867 7.64839 1.93951L7.63375 1.93795C7.50222 1.90243 7.36772 1.87906 7.23194 1.86813C7.23156 1.86735 7.23101 1.86666 7.23034 1.86612C7.22966 1.86557 7.22887 1.86519 7.22803 1.86499C7.22718 1.86479 7.22631 1.86478 7.22546 1.86497C7.22461 1.86515 7.22381 1.86552 7.22313 1.86605C6.99202 1.83088 6.75962 1.8301 6.52684 1.83906C6.48588 1.84062 6.44518 1.84425 6.40435 1.84685H6.39061C6.25356 1.85427 6.11733 1.87271 5.98323 1.902H5.98012C5.84219 1.92271 5.70635 1.95554 5.57417 2.00012L5.56121 2.00272C5.42195 2.0397 5.2861 2.0885 5.15512 2.14859C5.15432 2.14828 5.15345 2.14816 5.15259 2.14826C5.15173 2.14835 5.15091 2.14866 5.15019 2.14914C5.14948 2.14963 5.14889 2.15028 5.14849 2.15105C5.14808 2.15181 5.14787 2.15266 5.14787 2.15353C5.0768 2.17519 5.00874 2.20571 4.94528 2.24438L4.92234 2.25735C4.71063 2.35382 4.511 2.47487 4.32753 2.61803C4.29763 2.63045 4.27101 2.64964 4.24976 2.67409C4.09253 2.79081 3.94581 2.92109 3.81128 3.06345L3.79248 3.08655C3.68486 3.19041 3.58682 3.30378 3.49955 3.42529C3.47471 3.446 3.45568 3.47284 3.44434 3.50316C3.3133 3.6637 3.21103 3.84319 3.11525 4.02554C3.06418 4.12223 3.0135 4.21944 2.97915 4.32405L2.97513 4.32638V4.33105C2.91575 4.46235 2.86737 4.59835 2.83048 4.73767L2.82763 4.75065C2.78359 4.88321 2.7509 5.01928 2.7299 5.15739V5.16012C2.70096 5.29431 2.68263 5.43057 2.67508 5.56764V5.5814C2.65589 5.85525 2.65447 6.12857 2.69452 6.40099C2.69392 6.40164 2.69349 6.40243 2.69325 6.40328C2.69301 6.40413 2.69297 6.40502 2.69313 6.40589C2.6933 6.40675 2.69366 6.40757 2.69419 6.40828C2.69472 6.40898 2.69541 6.40955 2.6962 6.40995C2.70736 6.54611 2.73079 6.68098 2.76619 6.81293C2.76439 6.81834 2.76411 6.82415 2.76539 6.82972C2.76667 6.83528 2.76946 6.84039 2.77345 6.84446C2.80022 6.97718 2.83803 7.10742 2.88648 7.23382V7.2381L2.88998 7.24044C2.93312 7.38119 2.98954 7.51752 3.05847 7.64757C3.06069 7.66847 3.07035 7.68787 3.08569 7.70221C3.14016 7.82724 3.20639 7.94679 3.28349 8.05925L3.2936 8.07223C3.38964 8.24432 3.5129 8.39669 3.63993 8.54607C3.67337 8.58501 3.67479 8.60603 3.6363 8.64341C3.46611 8.80889 3.2993 8.97748 3.13274 9.14659C3.10384 9.17605 3.08764 9.18111 3.05925 9.1449C2.99445 9.06184 2.92419 8.98267 2.85628 8.90181L2.84422 8.88883L2.68752 8.66885C2.68594 8.66254 2.68298 8.65666 2.67885 8.65163C2.67473 8.6466 2.66954 8.64255 2.66367 8.63978C2.63553 8.5848 2.60219 8.53265 2.56412 8.48403C2.56399 8.482 2.56335 8.48003 2.56227 8.47831C2.56118 8.47659 2.55968 8.47516 2.5579 8.47417L2.33315 8.0673C2.31319 8.01538 2.29517 7.96165 2.26005 7.91662C2.22402 7.82845 2.1879 7.74032 2.15169 7.65224V7.64796L2.14806 7.64563C2.10356 7.51099 2.05906 7.37641 2.01456 7.24187L2.01261 7.22889L1.91618 6.82383C1.91657 6.82304 1.91679 6.82218 1.91684 6.8213C1.91689 6.82042 1.91675 6.81954 1.91645 6.81872C1.91615 6.81789 1.91568 6.81714 1.91508 6.8165C1.91447 6.81586 1.91375 6.81535 1.91294 6.815C1.89428 6.68089 1.87557 6.54678 1.85682 6.41267C1.8585 6.38581 1.86408 6.35829 1.84684 6.33376C1.84174 6.22128 1.83664 6.1091 1.83154 5.99723V5.9836C1.8363 5.81514 1.84113 5.64668 1.84606 5.47822C1.86575 5.37098 1.87874 5.26262 1.88494 5.15376L1.96271 4.75143C1.96436 4.75042 1.96562 4.74889 1.9663 4.74708C1.96699 4.74527 1.96704 4.74328 1.96647 4.74143C2.04204 4.46616 2.12693 4.194 2.24255 3.93236C2.24402 3.9262 2.24437 3.91982 2.24359 3.91354L2.2419 3.91224Z" fill="#CFCFCF"/>
<path d="M2.2419 3.91224C2.31513 3.77609 2.38642 3.63891 2.44929 3.49758C2.52822 3.39037 2.59186 3.27318 2.66224 3.16079C2.68661 3.13925 2.70534 3.11207 2.71681 3.08162L3.07675 2.62828L3.08816 2.61751L3.44356 2.26242L3.45445 2.25099C3.4713 2.24113 3.49217 2.23503 3.49217 2.20972H3.49307C3.54622 2.18558 3.5838 2.1412 3.62904 2.1059C3.72184 2.03438 3.814 1.96209 3.90641 1.89006C3.93734 1.87961 3.96461 1.86046 3.98496 1.8349L4.32002 1.62894L4.34685 1.61427L4.69266 1.44166C4.70865 1.43925 4.72331 1.43136 4.73413 1.41933H4.74036L4.7458 1.41609C5.01163 1.30344 5.28517 1.20997 5.56432 1.1364H5.56976L5.57417 1.13303L5.97597 1.05412C6.08466 1.04758 6.19286 1.03458 6.30001 1.01518L6.8046 1H6.81834L7.14173 1.01415C7.1705 1.0318 7.202 1.02712 7.23311 1.02531C7.50799 1.05892 7.78032 1.11095 8.04825 1.18105L8.06122 1.1839C8.27651 1.25347 8.49167 1.32316 8.69788 1.41752C8.70838 1.42232 8.72121 1.42959 8.73405 1.42011V1.42141C8.73535 1.42676 8.73796 1.43169 8.74165 1.43577C8.74534 1.43985 8.74999 1.44294 8.75517 1.44477C8.93216 1.52637 9.10439 1.61792 9.27104 1.71901C9.28054 1.72313 9.29058 1.72588 9.30085 1.72718H9.30163C9.36799 1.79519 9.45509 1.83413 9.53066 1.8889C9.67855 1.99675 9.82216 2.10953 9.96072 2.2288C9.99105 2.25476 9.9996 2.26968 9.96629 2.30213C9.79278 2.47267 9.62078 2.64472 9.4503 2.81828C9.42437 2.84424 9.40869 2.85008 9.37784 2.82244C9.31887 2.76948 9.25432 2.72289 9.19197 2.67357L9.16255 2.64995C9.07728 2.58081 8.98666 2.51858 8.89153 2.46384L8.87857 2.45424C8.7645 2.37961 8.64798 2.3094 8.52187 2.25658C8.5075 2.24154 8.48851 2.23176 8.46795 2.2288C8.33822 2.16112 8.20255 2.10555 8.06264 2.06281L8.04851 2.05554C7.91805 2.00744 7.78434 1.96867 7.64839 1.93951L7.63375 1.93795C7.50222 1.90243 7.36772 1.87906 7.23194 1.86813C7.23156 1.86735 7.23101 1.86666 7.23034 1.86612C7.22966 1.86557 7.22887 1.86519 7.22803 1.86499C7.22718 1.86479 7.22631 1.86478 7.22546 1.86497C7.22461 1.86515 7.22381 1.86552 7.22313 1.86605C6.99202 1.83088 6.75962 1.8301 6.52684 1.83906C6.48588 1.84062 6.44518 1.84425 6.40435 1.84685H6.39061C6.25356 1.85427 6.11733 1.87271 5.98323 1.902H5.98012C5.84219 1.92271 5.70635 1.95554 5.57417 2.00012L5.56121 2.00272C5.42195 2.0397 5.2861 2.0885 5.15512 2.14859C5.15432 2.14828 5.15345 2.14816 5.15259 2.14826C5.15173 2.14835 5.15091 2.14866 5.15019 2.14914C5.14948 2.14963 5.14889 2.15028 5.14849 2.15105C5.14808 2.15181 5.14787 2.15266 5.14787 2.15353C5.0768 2.17519 5.00874 2.20571 4.94528 2.24438L4.92234 2.25735C4.71063 2.35382 4.511 2.47487 4.32753 2.61803C4.29763 2.63045 4.27101 2.64964 4.24976 2.67409C4.09253 2.79081 3.94581 2.92109 3.81128 3.06345L3.79248 3.08655C3.68486 3.19041 3.58682 3.30378 3.49955 3.42529C3.47471 3.446 3.45568 3.47284 3.44434 3.50316C3.3133 3.6637 3.21103 3.84319 3.11525 4.02554C3.06418 4.12223 3.0135 4.21944 2.97915 4.32405L2.97513 4.32638V4.33105C2.91575 4.46235 2.86737 4.59835 2.83048 4.73767L2.82763 4.75065C2.78359 4.88321 2.7509 5.01928 2.7299 5.15739V5.16012C2.70096 5.29431 2.68263 5.43057 2.67508 5.56764V5.5814C2.65589 5.85525 2.65447 6.12857 2.69452 6.40099C2.69392 6.40164 2.69349 6.40243 2.69325 6.40328C2.69301 6.40413 2.69297 6.40502 2.69313 6.40589C2.6933 6.40675 2.69366 6.40757 2.69419 6.40828C2.69472 6.40898 2.69541 6.40955 2.6962 6.40995C2.70736 6.54611 2.73079 6.68098 2.76619 6.81293C2.76439 6.81834 2.76411 6.82415 2.76539 6.82972C2.76667 6.83528 2.76946 6.84039 2.77345 6.84446C2.80022 6.97718 2.83803 7.10742 2.88648 7.23382V7.2381L2.88998 7.24044C2.93312 7.38119 2.98954 7.51752 3.05847 7.64757C3.06069 7.66847 3.07035 7.68787 3.08569 7.70221C3.14016 7.82724 3.20639 7.94679 3.28349 8.05925L3.2936 8.07223C3.38964 8.24432 3.5129 8.39669 3.63993 8.54607C3.67337 8.58501 3.67479 8.60603 3.6363 8.64341C3.46611 8.80889 3.2993 8.97748 3.13274 9.14659C3.10384 9.17605 3.08764 9.18111 3.05925 9.1449C2.99445 9.06184 2.92419 8.98267 2.85628 8.90181L2.84422 8.88883L2.68752 8.66885C2.68594 8.66254 2.68298 8.65666 2.67885 8.65163C2.67473 8.6466 2.66954 8.64255 2.66367 8.63978C2.63553 8.5848 2.60219 8.53265 2.56412 8.48403C2.56399 8.482 2.56335 8.48003 2.56227 8.47831C2.56118 8.47659 2.55968 8.47516 2.5579 8.47417L2.33315 8.0673C2.31319 8.01538 2.29517 7.96165 2.26005 7.91662C2.22402 7.82845 2.1879 7.74032 2.15169 7.65224V7.64796L2.14806 7.64563C2.10356 7.51099 2.05906 7.37641 2.01456 7.24187L2.01261 7.22889L1.91618 6.82383C1.91657 6.82304 1.91679 6.82218 1.91684 6.8213C1.91689 6.82042 1.91675 6.81954 1.91645 6.81872C1.91615 6.81789 1.91568 6.81714 1.91508 6.8165C1.91447 6.81586 1.91375 6.81535 1.91294 6.815C1.89428 6.68089 1.87557 6.54678 1.85682 6.41267C1.8585 6.38581 1.86408 6.35829 1.84684 6.33376C1.84174 6.22128 1.83664 6.1091 1.83154 5.99723V5.9836C1.8363 5.81514 1.84113 5.64668 1.84606 5.47822C1.86575 5.37098 1.87874 5.26262 1.88494 5.15376L1.96271 4.75143C1.96436 4.75042 1.96562 4.74889 1.9663 4.74708C1.96699 4.74527 1.96704 4.74328 1.96647 4.74143C2.04204 4.46616 2.12693 4.194 2.24255 3.93236C2.24402 3.9262 2.24437 3.91982 2.24359 3.91354L2.2419 3.91224Z" stroke="#CFCFCF" stroke-width="0.6" mask="url(#path-3-outside-3_5382_16053)"/>
</g>
</g>
</svg>
