<svg width="33" height="33" viewBox="0 0 33 33" fill="none" xmlns="http://www.w3.org/2000/svg">
<path d="M22.8939 12.6486C22.188 12.6486 20.6927 13.1299 19.3066 13.8229C19.8841 11.9619 19.9676 9.74791 19.9676 9.70941C19.9676 8.06015 18.3247 6.72534 16.3033 6.72534C14.2818 6.72534 12.639 8.06657 12.639 9.70941C12.639 10.4153 13.1203 11.917 13.8198 13.3031C11.9587 12.7256 9.75115 12.6486 9.71907 12.6486C8.06981 12.6486 6.735 14.2914 6.735 16.3129C6.735 18.3343 8.07623 19.9772 9.71907 19.9772C10.4186 19.9772 11.9074 19.5023 13.2871 18.8092C12.716 20.6638 12.639 22.8521 12.639 22.8906C12.639 24.5399 14.2818 25.8747 16.3033 25.8747C18.3247 25.8747 19.9676 24.5335 19.9676 22.8906C19.9676 22.1976 19.4927 20.7087 18.806 19.329C20.6606 19.9002 22.8618 19.9772 22.8939 19.9772C24.5431 19.9772 25.8779 18.3343 25.8779 16.3129C25.8779 14.2914 24.5367 12.6486 22.8939 12.6486ZM13.8839 16.3129V16.3385C12.594 17.314 10.2774 18.1675 9.71907 18.1675C9.16076 18.1675 8.54469 17.4038 8.54469 16.3129C8.54469 15.2219 9.16076 14.4582 9.71907 14.4582C10.8293 14.4582 13.0689 14.824 14.1021 15.3246C13.9609 15.639 13.8839 15.9727 13.8839 16.3129ZM16.3033 24.0586C15.2123 24.0586 14.4486 23.4425 14.4486 22.8842C14.4486 21.7804 14.8144 19.5536 15.315 18.514C15.6359 18.6616 15.9824 18.7322 16.3418 18.7258C17.3108 20.0157 18.1579 22.3259 18.1579 22.8778C18.1579 23.4425 17.3942 24.0586 16.3033 24.0586ZM15.6936 16.3C15.6936 15.9663 15.9631 15.6904 16.3033 15.6904C16.637 15.6904 16.9129 15.9599 16.9129 16.3C16.9129 16.6337 16.6434 16.9097 16.3033 16.9097C15.9696 16.9097 15.6936 16.6337 15.6936 16.3ZM17.2787 14.1053C16.9771 13.9705 16.6434 13.8999 16.3033 13.8999H16.2904C15.315 12.6165 14.4551 10.2806 14.4551 9.71582C14.4551 9.15752 15.2187 8.54145 16.3097 8.54145C17.4006 8.54145 18.1643 9.15752 18.1643 9.71582C18.1579 10.9159 17.7536 13.1042 17.2787 14.1053ZM22.8875 18.1675C21.7773 18.1675 19.5376 17.8017 18.5044 17.3011C18.6456 16.9931 18.7162 16.6594 18.7162 16.3193V16.2936C20.0061 15.3182 22.3227 14.4647 22.881 14.4647C23.4458 14.4582 24.0618 15.2219 24.0618 16.3129C24.0618 17.4038 23.4458 18.1675 22.8875 18.1675Z" fill="#464555"/>
<path d="M16.3033 3.63208C9.32119 3.63208 3.63542 9.31784 3.63542 16.2999C3.63542 23.282 9.31477 28.9677 16.3033 28.9677C23.2917 28.9677 28.9711 23.282 28.9711 16.2999C28.9711 9.31784 23.2853 3.63208 16.3033 3.63208ZM16.3033 27.1581C10.3159 27.1581 5.44511 22.2873 5.44511 16.2999C5.44511 10.3125 10.3159 5.44177 16.3033 5.44177C22.2906 5.44177 27.1614 10.3125 27.1614 16.2999C27.1614 22.2873 22.2906 27.1581 16.3033 27.1581Z" fill="#464555"/>
</svg>
