<svg width="25" height="25" viewBox="0 0 25 25" fill="none" xmlns="http://www.w3.org/2000/svg">
<path d="M12.5 9.28811L4.16706 14.8109C3.44481 15.2896 3.08369 15.529 2.95862 15.8325C2.84932 16.0977 2.84932 16.3967 2.95862 16.6619M12.5 9.28811L20.8329 14.8109C21.5552 15.2896 21.9163 15.529 22.0414 15.8325C22.1507 16.0977 22.1507 16.3967 22.0414 16.6619M12.5 9.28811V2.32902M12.5 15.7119L4.16705 10.1891C3.44481 9.71038 3.08369 9.47104 2.95862 9.16752C2.84932 8.90227 2.84932 8.60333 2.95862 8.33808M12.5 15.7119L20.8329 10.1891C21.5552 9.71038 21.9163 9.47104 22.0414 9.16752C22.1507 8.90227 22.1507 8.60333 22.0414 8.33808M12.5 15.7119V22.671M22.2356 16.7538L13.4156 22.5995C13.0842 22.8191 12.9185 22.9289 12.7399 22.9717C12.5821 23.0094 12.4179 23.0094 12.2601 22.9717C12.0815 22.9289 11.9158 22.8191 11.5844 22.5995L2.76442 16.7538C2.48511 16.5687 2.34546 16.4762 2.24428 16.3527C2.15471 16.2434 2.08743 16.117 2.04638 15.9809C2 15.8271 2 15.6572 2 15.3176V9.68242C2 9.34275 2 9.17292 2.04638 9.01913C2.08743 8.883 2.15471 8.75659 2.24428 8.6473C2.34546 8.52384 2.48511 8.43128 2.76442 8.24616L11.5844 2.40052C11.9158 2.18088 12.0815 2.07106 12.2601 2.02833C12.4179 1.99056 12.5821 1.99056 12.7399 2.02833C12.9185 2.07106 13.0842 2.18088 13.4156 2.40052L22.2356 8.24616C22.5149 8.43128 22.6545 8.52384 22.7557 8.6473C22.8453 8.75659 22.9126 8.883 22.9536 9.01913C23 9.17292 23 9.34275 23 9.68242V15.3176C23 15.6572 23 15.8271 22.9536 15.9809C22.9126 16.117 22.8453 16.2434 22.7557 16.3527C22.6545 16.4762 22.5149 16.5687 22.2356 16.7538Z" stroke="#464555" stroke-width="2.2" stroke-linecap="round" stroke-linejoin="round"/>
</svg>
