<svg width="20" height="26" viewBox="0 0 20 26" fill="none" xmlns="http://www.w3.org/2000/svg">
<g id="Group">
<path id="Vector" d="M1 22.8574V2.28573C1 1.94473 1.13546 1.6177 1.37658 1.37658C1.6177 1.13546 1.94473 1 2.28573 1H10.2213C10.9032 1.00015 11.5571 1.27116 12.0393 1.75344L18.2468 7.96094C18.7291 8.44307 19.0001 9.09703 19.0002 9.77896V22.8574C19.0002 23.1984 18.8648 23.5254 18.6236 23.7666C18.3825 24.0077 18.0555 24.1431 17.7145 24.1431H2.28573C1.94473 24.1431 1.6177 24.0077 1.37658 23.7666C1.13546 23.5254 1 23.1984 1 22.8574Z" stroke="#363BC4" stroke-width="2" stroke-linejoin="round"/>
<path id="Vector_2" d="M10 1V8.71438C10 9.05538 10.1355 9.38241 10.3766 9.62353C10.6177 9.86465 10.9447 10.0001 11.2857 10.0001H19.0001" stroke="#363BC4" stroke-width="2" stroke-linejoin="round"/>
</g>
</svg>
