<svg width="15" height="15" viewBox="0 0 15 15" fill="none" xmlns="http://www.w3.org/2000/svg">
<path d="M0.614711 15C0.451669 14.9992 0.295383 14.9326 0.1792 14.8144C0.103964 14.736 0.0496784 14.6389 0.0216466 14.5324C-0.00638527 14.4259 -0.00720538 14.3137 0.0192663 14.2067L0.782026 11.1252C0.809449 11.0148 0.864626 10.914 0.94196 10.8328L11.2466 0.184654C11.3626 0.0663377 11.5191 0 11.6821 0C11.8451 0 12.0016 0.0663377 12.1176 0.184654L14.3321 2.47293C14.4466 2.59284 14.5108 2.75451 14.5108 2.92296C14.5108 3.09141 14.4466 3.25309 14.3321 3.37299L4.03237 14.0262C3.95381 14.1061 3.85618 14.1631 3.74941 14.1915L0.767263 14.9797C0.717372 14.9927 0.666162 14.9995 0.614711 15ZM1.93109 11.6083L1.47589 13.4745L3.28929 12.9965L13.0403 2.92805L11.6821 1.52457L1.93109 11.6083Z" fill="black"/>
</svg>
