<svg width="14" height="14" viewBox="0 0 14 14" fill="none" xmlns="http://www.w3.org/2000/svg">
<g id="Layer 29">
<g id="colorize">
<path id="Vector" d="M12.2846 6.28861C12.209 6.28843 12.1342 6.27283 12.0644 6.2427C11.9947 6.21256 11.9314 6.16849 11.8782 6.113L7.63197 1.72527C7.52722 1.61353 7.46914 1.46376 7.47023 1.3082C7.47132 1.15264 7.5315 1.00375 7.6378 0.893593C7.7441 0.783439 7.88801 0.720836 8.03855 0.719268C8.18909 0.717701 8.3342 0.777295 8.44262 0.885214L12.6911 5.27532C12.7705 5.35873 12.8244 5.46445 12.846 5.57929C12.8676 5.69413 12.856 5.813 12.8126 5.92108C12.7693 6.02915 12.6961 6.12164 12.6022 6.187C12.5083 6.25236 12.3979 6.2877 12.2846 6.28861Z" fill="#363BC4"/>
<path id="Vector_2" d="M0.573731 14C0.421558 13.9993 0.275691 13.9371 0.167253 13.8268C0.0970326 13.7536 0.0463665 13.6629 0.0202035 13.5635C-0.00595958 13.4641 -0.00672502 13.3594 0.0179819 13.2596L0.729891 10.3835C0.755486 10.2805 0.806984 10.1864 0.879163 10.1106L10.4968 0.172344C10.6051 0.0619152 10.7512 0 10.9033 0C11.0555 0 11.2015 0.0619152 11.3098 0.172344L13.3766 2.30807C13.4835 2.41998 13.5434 2.57088 13.5434 2.7281C13.5434 2.88532 13.4835 3.03622 13.3766 3.14813L3.76354 13.0911C3.69022 13.1657 3.5991 13.2189 3.49945 13.2454L0.716112 13.981C0.669547 13.9931 0.621751 13.9995 0.573731 14ZM1.80235 10.8344L1.3775 12.5762L3.07001 12.1301L12.171 2.73285L10.9033 1.42293L1.80235 10.8344Z" fill="#363BC4"/>
</g>
</g>
</svg>
