<?xml version="1.0" encoding="UTF-8" standalone="no"?>
<svg
   xmlns:dc="http://purl.org/dc/elements/1.1/"
   xmlns:cc="http://creativecommons.org/ns#"
   xmlns:rdf="http://www.w3.org/1999/02/22-rdf-syntax-ns#"
   xmlns:svg="http://www.w3.org/2000/svg"
   xmlns="http://www.w3.org/2000/svg"
   xmlns:sodipodi="http://sodipodi.sourceforge.net/DTD/sodipodi-0.dtd"
   xmlns:inkscape="http://www.inkscape.org/namespaces/inkscape"
   width="38.699242"
   height="31.991055"
   id="svg4427"
   version="1.1"
   sodipodi:docname="wifi_icon.svg"
   viewBox="0 0 38.699242 31.991054"
   inkscape:version="1.0.1 (3bc2e813f5, 2020-09-07, custom)">
  <sodipodi:namedview
     pagecolor="#ffffff"
     bordercolor="#666666"
     borderopacity="1"
     objecttolerance="10"
     gridtolerance="10"
     guidetolerance="10"
     inkscape:pageopacity="0"
     inkscape:pageshadow="2"
     inkscape:window-width="1866"
     inkscape:window-height="1010"
     id="namedview10"
     showgrid="false"
     fit-margin-top="0"
     fit-margin-left="0"
     fit-margin-right="0"
     fit-margin-bottom="0"
     scale-x="5"
     inkscape:zoom="6.5625"
     inkscape:cx="41.018298"
     inkscape:cy="18.331586"
     inkscape:window-x="54"
     inkscape:window-y="27"
     inkscape:window-maximized="1"
     inkscape:current-layer="svg4427" />
  <defs
     id="defs4429" />
  <metadata
     id="metadata4432">
    <rdf:RDF>
      <cc:Work
         rdf:about="">
        <dc:format>image/svg+xml</dc:format>
        <dc:type
           rdf:resource="http://purl.org/dc/dcmitype/StillImage" />
        <dc:title></dc:title>
      </cc:Work>
    </rdf:RDF>
  </metadata>
  <g
     id="layer1"
     transform="matrix(0.06301205,0,0,0.06301205,-3.5147518,-17.729739)">
    <path
       style="color:#000000;display:inline;overflow:visible;visibility:visible;fill:#000000;fill-opacity:1;fill-rule:nonzero;stroke:none;stroke-width:0.531496;marker:none;enable-background:accumulate"
       d="m 362.46655,399.37379 c -80.4519,0.30312 -160.7693,30.42522 -222.3125,90.28125 l 55.9062,55.28125 c 92.2564,-89.61065 240.7455,-90.14152 333.6562,-1.15625 l 55.7813,-55.81255 C 523.48725,428.577 442.91835,399.07062 362.46655,399.37374 Z m -166.4063,145.5625 -0.125,0.0937 z"
       id="path4391" />
    <path
       style="color:#000000;display:inline;overflow:visible;visibility:visible;fill:#000000;fill-opacity:1;fill-rule:nonzero;stroke:none;stroke-width:0.531496;marker:none;enable-background:accumulate"
       d="m 362.37275,281.3738 c -110.9452,0.41801 -221.724,41.957 -306.593707,124.49999 l 55.468707,54.84375 c 138.9415,-134.55514 362.2624,-135.23852 502.0313,-1.375 l 56.6562,-55.78125 C 584.42125,321.6603 473.31795,280.95579 362.37275,281.3738 Z m -251.125,179.34374 -0.5625,0.53125 z"
       id="path4395" />
    <path
       style="color:#000000;display:inline;overflow:visible;visibility:visible;fill:#000000;fill-opacity:1;fill-rule:nonzero;stroke:none;stroke-width:0.531496;marker:none;enable-background:accumulate"
       d="m 362.34155,516.87379 c -50.088,0.18872 -100.1218,18.95343 -138.4375,56.21875 l 53.4375,52.8125 c 47.1813,-45.82127 123.1117,-46.06831 170.625,-0.5625 l 53.2192,-53.3125 c -38.6066,-36.97548 -88.7558,-55.34497 -138.8437,-55.15625 z m -85,109.03125 -0.063,0.0625 z"
       id="path4381" />
    <path
       style="color:#000000;display:inline;overflow:visible;visibility:visible;fill:#000000;fill-opacity:1;fill-rule:nonzero;stroke:none;stroke-width:0.531496;marker:none;enable-background:accumulate"
       id="path4411"
       d="m 780.99212,634.37006 a 78.5,78.5 0 0 1 -0.0574,-110.95833 78.5,78.5 0 0 1 110.95822,-0.17211 78.5,78.5 0 0 1 0.28684,110.95798 78.5,78.5 0 0 1 -110.95762,0.40159 L 836.5,578.86218 Z"
       transform="translate(-473.54519,131.70585)" />
  </g>
</svg>
