<svg width="20" height="20" viewBox="0 0 20 20" fill="none" xmlns="http://www.w3.org/2000/svg">
<path fill-rule="evenodd" clip-rule="evenodd" d="M9.56909 0.536345C14.854 0.536344 19.1382 4.8206 19.1382 10.1055C19.1382 15.3904 14.854 19.6747 9.56909 19.6747C4.28423 19.6747 -1.87271e-07 15.3904 -4.18281e-07 10.1055C-6.49291e-07 4.8206 4.28423 0.536345 9.56909 0.536345ZM15.402 10.1055C15.402 6.88403 12.7905 4.27251 9.56909 4.27251C6.34764 4.27251 3.73614 6.88403 3.73614 10.1055C3.73614 13.327 6.34764 15.9385 9.56909 15.9385C12.7905 15.9385 15.402 13.327 15.402 10.1055Z" fill="url(#paint0_linear_4655_30554)"/>
<defs>
<linearGradient id="paint0_linear_4655_30554" x1="9.56909" y1="19.6747" x2="9.56909" y2="0.536344" gradientUnits="userSpaceOnUse">
<stop stop-color="#00FF9B"/>
<stop offset="1" stop-color="#0057FF"/>
</linearGradient>
</defs>
</svg>
