<svg width="41" height="15" viewBox="0 0 41 15" fill="none" xmlns="http://www.w3.org/2000/svg">
<path d="M2.67099 14H0.574396L5.28533 0.909091H7.56729L12.2782 14H10.1816L6.48065 3.28693H6.37837L2.67099 14ZM3.02255 8.87358H9.82369V10.5355H3.02255V8.87358ZM20.2347 9.92827V4.18182H22.1523V14H20.2731V12.2997H20.1708C19.945 12.8239 19.5827 13.2607 19.0842 13.6101C18.5898 13.9553 17.9741 14.1278 17.2369 14.1278C16.6062 14.1278 16.0479 13.9893 15.5621 13.7124C15.0806 13.4311 14.7013 13.0156 14.4244 12.4659C14.1516 11.9162 14.0153 11.2365 14.0153 10.4268V4.18182H15.9265V10.1967C15.9265 10.8658 16.1119 11.3984 16.4826 11.7947C16.8533 12.1911 17.3349 12.3892 17.9272 12.3892C18.2852 12.3892 18.641 12.2997 18.9947 12.1207C19.3526 11.9418 19.6488 11.6712 19.8832 11.3089C20.1218 10.9467 20.239 10.4865 20.2347 9.92827ZM29.3034 4.18182V5.71591H23.9405V4.18182H29.3034ZM25.3787 1.82955H27.29V11.1172C27.29 11.4879 27.3453 11.767 27.4561 11.9545C27.5669 12.1378 27.7097 12.2635 27.8844 12.3317C28.0634 12.3956 28.2573 12.4276 28.4661 12.4276C28.6195 12.4276 28.7537 12.4169 28.8688 12.3956C28.9838 12.3743 29.0733 12.3572 29.1373 12.3445L29.4824 13.9233C29.3716 13.9659 29.214 14.0085 29.0094 14.0511C28.8049 14.098 28.5492 14.1236 28.2424 14.1278C27.7395 14.1364 27.2708 14.0469 26.8361 13.8594C26.4015 13.6719 26.0499 13.3821 25.7814 12.9901C25.513 12.598 25.3787 12.1058 25.3787 11.5135V1.82955ZM35.4478 14.1982C34.5273 14.1982 33.7241 13.9872 33.038 13.5653C32.3519 13.1435 31.8192 12.5533 31.44 11.7947C31.0607 11.0362 30.8711 10.1499 30.8711 9.13565C30.8711 8.11719 31.0607 7.22656 31.44 6.46378C31.8192 5.70099 32.3519 5.10866 33.038 4.68679C33.7241 4.26491 34.5273 4.05398 35.4478 4.05398C36.3683 4.05398 37.1715 4.26491 37.8576 4.68679C38.5437 5.10866 39.0763 5.70099 39.4556 6.46378C39.8349 7.22656 40.0245 8.11719 40.0245 9.13565C40.0245 10.1499 39.8349 11.0362 39.4556 11.7947C39.0763 12.5533 38.5437 13.1435 37.8576 13.5653C37.1715 13.9872 36.3683 14.1982 35.4478 14.1982ZM35.4542 12.5938C36.0508 12.5938 36.5451 12.4361 36.9371 12.1207C37.3292 11.8054 37.619 11.3857 37.8065 10.8615C37.9982 10.3374 38.0941 9.75994 38.0941 9.12926C38.0941 8.50284 37.9982 7.92756 37.8065 7.40341C37.619 6.875 37.3292 6.45099 36.9371 6.13139C36.5451 5.81179 36.0508 5.65199 35.4542 5.65199C34.8533 5.65199 34.3548 5.81179 33.9585 6.13139C33.5664 6.45099 33.2745 6.875 33.0827 7.40341C32.8952 7.92756 32.8015 8.50284 32.8015 9.12926C32.8015 9.75994 32.8952 10.3374 33.0827 10.8615C33.2745 11.3857 33.5664 11.8054 33.9585 12.1207C34.3548 12.4361 34.8533 12.5938 35.4542 12.5938Z" fill="#363BC4"/>
</svg>
