<svg width="31" height="35" viewBox="0 0 31 35" fill="none" xmlns="http://www.w3.org/2000/svg">
<path d="M6.26065 28.5043C6.2884 28.5846 6.35039 28.6078 6.39665 28.6437C7.24724 29.2991 8.08764 29.9672 9.04 30.4787C10.207 31.1051 11.4295 31.5714 12.723 31.8541C13.8684 32.1045 15.0274 32.2095 16.1969 32.1579C17.8906 32.0834 19.5221 31.716 21.0801 31.0408C22.8976 30.2531 24.4797 29.1288 25.8206 27.6715C27.1021 26.2787 28.0772 24.6925 28.7394 22.9156C29.1619 21.782 29.4395 20.6133 29.5782 19.4131C29.6995 18.363 29.709 17.3107 29.5977 16.2576C29.5317 15.6327 29.4314 15.0144 29.2967 14.4013C29.2655 14.2594 29.2649 14.1136 29.2939 13.9717C29.3485 13.7022 29.548 13.5187 29.8185 13.4773C30.1069 13.4328 30.3468 13.5502 30.4914 13.8058C30.5531 13.9149 30.5843 14.0341 30.6092 14.1553C30.8177 15.1636 30.9565 16.1797 30.9907 17.2115C31.0759 19.7675 30.5732 22.2023 29.5122 24.5228C28.8381 25.9978 27.9474 27.3319 26.8637 28.5374C25.6831 29.8504 24.3141 30.9206 22.7646 31.7633C21.4505 32.4784 20.0643 32.9929 18.5978 33.2859C17.9582 33.4138 17.312 33.4942 16.6601 33.5359C15.3873 33.6175 14.1244 33.5383 12.8722 33.309C11.3092 33.0226 9.83075 32.4938 8.43521 31.7274C7.45757 31.1904 6.57738 30.5154 5.69534 29.8408C5.64754 29.8041 5.59357 29.7284 5.54546 29.7506C5.481 29.7803 5.51739 29.8699 5.51554 29.9332C5.48963 30.9163 5.55718 31.8974 5.58617 32.8792C5.59974 33.3365 5.62965 33.7933 5.63983 34.2506C5.64692 34.5825 5.47113 34.8523 5.20713 34.9543C4.78339 35.1184 4.33959 34.8131 4.30844 34.3301C4.285 33.9657 4.26619 33.6014 4.25293 33.2364C4.22671 32.5272 4.2079 31.8177 4.182 31.1085C4.14622 30.1372 4.10644 29.1662 4.06943 28.1953C4.06388 28.0463 4.06203 27.8977 4.08608 27.749C4.15146 27.3436 4.33589 27.161 4.74884 27.1307C5.14299 27.1019 5.53805 27.0859 5.93281 27.0707C6.61007 27.0445 7.28733 27.0278 7.96459 26.9981C8.96444 26.9545 9.96429 26.9039 10.9651 26.8853C11.2766 26.8794 11.5079 27.0179 11.6358 27.3105C11.8249 27.7426 11.5541 28.2036 11.0869 28.2534C10.5604 28.3096 10.0318 28.3192 9.50384 28.3414C8.50892 28.3835 7.51277 28.3881 6.51971 28.4703C6.43459 28.478 6.35039 28.4926 6.26065 28.5043Z" fill="#363BC4"/>
<path d="M25.5025 5.28146C25.5367 5.09574 25.4938 4.93906 25.4824 4.78331C25.422 3.9579 25.3495 3.13342 25.2807 2.30894C25.2385 1.80183 25.195 1.29471 25.1518 0.787603C25.1435 0.688714 25.1592 0.592298 25.1857 0.497736C25.265 0.214977 25.4812 0.0221431 25.7689 0.00174732C26.0453 -0.0177213 26.2322 0.134939 26.3719 0.358674C26.4897 0.54718 26.4841 0.763188 26.5032 0.971162C26.5631 1.6263 26.6133 2.28267 26.6698 2.93811C26.7259 3.58862 26.7864 4.2385 26.8428 4.889C26.9063 5.62139 26.9751 6.35347 27.0275 7.08648C27.0584 7.51726 26.8274 7.78983 26.4002 7.83464C25.5376 7.92518 24.6738 8.00491 23.8106 8.08742C22.8758 8.17673 21.9407 8.2648 21.0056 8.35256C20.7398 8.37759 20.4742 8.40664 20.2078 8.42055C19.6878 8.44805 19.3217 8.03983 19.446 7.57011C19.5234 7.27777 19.7288 7.09792 20.0215 7.05774C20.4992 6.99223 20.9803 6.95113 21.4602 6.90508C22.3543 6.81917 23.2483 6.73636 24.1427 6.65477C24.2371 6.64612 24.2951 6.60409 24.3268 6.51788C24.481 6.09914 24.539 6.23295 24.1779 5.98419C23.5092 5.52343 22.8588 5.03609 22.1535 4.63034C20.6701 3.77743 19.083 3.22829 17.3896 2.98756C16.6565 2.88342 15.9203 2.8281 15.1792 2.83521C13.6178 2.85004 12.105 3.13064 10.6444 3.68071C9.09745 4.26322 7.68279 5.07689 6.41463 6.1421C5.15294 7.20206 4.12903 8.45918 3.30991 9.88626C2.59626 11.1292 2.05871 12.4447 1.7247 13.8403C1.49772 14.7883 1.37898 15.75 1.34783 16.7259C1.30867 17.9574 1.46718 19.1676 1.6806 20.3743C1.70836 20.5313 1.73581 20.6877 1.73087 20.849C1.71977 21.2136 1.50173 21.484 1.16772 21.5387C0.869495 21.5875 0.560473 21.3836 0.454998 21.0489C0.352607 20.7247 0.30542 20.3873 0.24744 20.0526C0.0830594 19.103 -0.00545143 18.1453 0.000408275 17.1821C0.0142865 14.9234 0.492624 12.763 1.4018 10.6975C2.04884 9.22711 2.88863 7.87821 3.94954 6.67177C5.1039 5.35903 6.44701 4.27496 7.95727 3.39887C9.44379 2.53638 11.0379 1.96561 12.7295 1.67358C13.5336 1.53483 14.3428 1.4415 15.1616 1.42945C15.8336 1.41956 16.5035 1.44428 17.1684 1.52896C18.0384 1.6399 18.8946 1.81913 19.7374 2.07593C20.6315 2.34818 21.4812 2.71593 22.3111 3.13651C23.1481 3.5608 23.9247 4.08028 24.6624 4.6597C24.9313 4.87138 25.212 5.06731 25.5025 5.28146Z" fill="#363BC4"/>
</svg>
