<svg width="37" height="37" viewBox="0 0 37 37" fill="none" xmlns="http://www.w3.org/2000/svg">
<path d="M18.5195 9.39128C23.5962 9.36112 27.7852 13.5503 27.8452 18.6638C27.9071 23.9223 23.6781 28.144 18.5847 28.1722C13.3933 28.2014 9.20574 24.0415 9.16148 18.8509C9.11721 13.6192 13.3633 9.36208 18.5195 9.39128ZM18.5343 10.7842C14.1758 10.7698 10.626 14.275 10.5513 18.6216C10.4737 23.1129 14.0245 26.7358 18.41 26.7779C22.877 26.821 26.3959 23.2258 26.4558 18.9031C26.5177 14.4593 22.9556 10.7885 18.5343 10.7842Z" fill="#363BC4"/>
<path d="M30.7952 32.6243C30.6277 32.5319 30.4263 32.473 30.2983 32.3419C29.3711 31.3927 28.4582 30.4292 27.541 29.47C27.1288 29.0392 26.72 28.605 26.3064 28.1762C26.0665 27.9273 25.9513 27.6463 26.0793 27.3074C26.2154 26.9475 26.4858 26.7139 26.8642 26.7139C27.0641 26.7139 27.3159 26.8125 27.4553 26.9546C28.5153 28.0383 29.552 29.145 30.5982 30.2425C30.8614 30.5187 31.1341 30.7853 31.3983 31.0601C31.9095 31.5918 31.7486 32.3395 31.0813 32.5367C30.9989 32.5611 30.9114 32.5673 30.8262 32.5817C30.8157 32.5961 30.8052 32.6099 30.7952 32.6243Z" fill="#363BC4"/>
<path d="M13.8201 7.96591C13.793 8.36463 13.5198 8.6973 13.1228 8.79207C12.7316 8.88541 12.4117 8.73415 12.2194 8.36272C11.3403 6.66301 10.4584 4.96523 9.58399 3.26313C9.29746 2.70502 9.5602 2.14978 10.1585 2.01241C10.5155 1.93056 10.8686 2.08995 11.0386 2.4183C11.5707 3.44885 12.1009 4.47987 12.6302 5.51137C12.9853 6.20351 13.3408 6.89564 13.6902 7.59113C13.7492 7.70792 13.7778 7.8405 13.8201 7.96591Z" fill="#363BC4"/>
<path d="M29.6406 17.0069C29.6425 16.5905 29.8924 16.266 30.3027 16.2009C31.3489 16.0343 32.3975 15.8816 33.4451 15.7256C34.2818 15.6006 35.1195 15.4814 35.9558 15.3541C36.3937 15.2876 36.7098 15.425 36.8997 15.7801C37.0758 16.1094 37.0153 16.5091 36.7512 16.7953C36.5479 17.016 36.2676 17.0151 36.0058 17.0548C34.4037 17.2984 32.8001 17.5354 31.1975 17.7737C30.9786 17.8063 30.7592 17.8359 30.5397 17.8651C30.0695 17.9279 29.6387 17.5157 29.6406 17.0069Z" fill="#363BC4"/>
<path d="M0.905766 15.3883C1.43933 15.4649 2.04191 15.5506 2.64448 15.6377C3.83393 15.8091 5.02291 15.9804 6.21188 16.1537C6.38371 16.1786 6.55553 16.2063 6.72593 16.2422C7.15192 16.3313 7.41656 16.7209 7.35706 17.1646C7.29614 17.6198 6.92441 17.9439 6.48414 17.8883C5.6212 17.7797 4.76017 17.6538 3.89962 17.5298C2.83535 17.3766 1.77156 17.2192 0.708238 17.0617C0.270346 16.9966 -0.032847 16.6199 0.00285079 16.1929C0.0423563 15.709 0.382199 15.3807 0.905766 15.3883Z" fill="#363BC4"/>
<path d="M36.2119 24.5884C36.2124 25.1915 35.696 25.5864 35.1324 25.3949C33.299 24.7717 31.4679 24.1423 29.6378 23.51C29.2204 23.3659 29.0105 22.9012 29.1528 22.4795C29.3127 22.0061 29.744 21.7672 30.2037 21.9218C31.2518 22.2746 32.2966 22.6384 33.3418 22.9998C34.1115 23.2659 34.8802 23.5354 35.6493 23.802C36.0291 23.9336 36.2119 24.1873 36.2119 24.5884Z" fill="#363BC4"/>
<path d="M1.67722 25.4955C1.20696 25.4936 0.88092 25.192 0.808096 24.7416C0.749552 24.3788 0.97421 23.982 1.31691 23.8628C3.13797 23.2286 4.95998 22.5963 6.78247 21.9659C7.17467 21.8304 7.51927 21.9434 7.74488 22.2665C7.9724 22.5919 7.9643 23.0266 7.69919 23.3257C7.60971 23.4267 7.47453 23.5047 7.34507 23.5507C5.86861 24.0719 4.38977 24.5851 2.91093 25.0991C2.56728 25.2183 2.22315 25.3346 1.8776 25.4486C1.79669 25.4754 1.71054 25.4878 1.67722 25.4955Z" fill="#363BC4"/>
<path d="M24.0305 8.79417C23.496 8.82624 22.9501 8.18389 23.2918 7.53674C24.1143 5.9792 24.8973 4.40012 25.6964 2.82966C25.765 2.69515 25.8378 2.56304 25.9068 2.42902C26.131 1.99345 26.596 1.8465 27.0377 2.07242C27.4604 2.2883 27.6217 2.75546 27.4032 3.18673C26.6645 4.64567 25.9192 6.10126 25.1757 7.55781C25.042 7.81963 24.9044 8.07954 24.7726 8.34232C24.6236 8.64148 24.3846 8.79226 24.0305 8.79417Z" fill="#363BC4"/>
<path d="M23.3695 36.9382C22.9821 36.9377 22.7032 36.7338 22.5932 36.3619C22.0482 34.5195 21.5037 32.6772 20.9616 30.8339C20.8174 30.3437 21.0392 29.9144 21.5018 29.7727C21.9964 29.6214 22.4181 29.8531 22.5689 30.3634C23.1092 32.1899 23.648 34.0174 24.1882 35.844C24.3624 36.4342 23.9859 36.9387 23.3695 36.9382Z" fill="#363BC4"/>
<path d="M32.98 7.44434C33.3764 7.49029 33.7082 7.73679 33.8243 8.10057C33.9409 8.46674 33.8315 8.78983 33.4892 9.03825C32.6868 9.6203 31.8814 10.1976 31.0761 10.7753C30.3159 11.321 29.5506 11.8594 28.7943 12.4108C28.4221 12.6822 27.9323 12.5535 27.6857 12.2074C27.3944 11.7991 27.4534 11.3238 27.8342 11.0448C28.2693 10.7255 28.711 10.4158 29.1479 10.0994C30.2455 9.30486 31.3402 8.50551 32.4421 7.71669C32.6044 7.60038 32.8 7.53337 32.98 7.44434Z" fill="#363BC4"/>
<path d="M15.6374 29.7785C16.2138 29.7651 16.5969 30.3706 16.4584 30.8306C15.8973 32.6907 15.3642 34.5584 14.8173 36.4223C14.6888 36.8598 14.2485 37.0895 13.7992 36.966C13.3332 36.8382 13.0762 36.4175 13.2085 35.959C13.6878 34.2985 14.1757 32.6399 14.6607 30.9809C14.7188 30.7828 14.7763 30.5851 14.8339 30.3869C14.9463 29.9978 15.2366 29.7781 15.6374 29.7785Z" fill="#363BC4"/>
<path d="M3.99264 7.49023C4.16018 7.56825 4.3439 7.6233 4.4924 7.7286C6.03883 8.82568 7.57907 9.93089 9.12216 11.0327C9.46581 11.2783 9.58576 11.6971 9.41012 12.0647C9.22021 12.4625 8.80088 12.6769 8.40821 12.5482C8.25542 12.4979 8.11787 12.3897 7.98364 12.294C6.48577 11.2252 4.98979 10.1535 3.49287 9.08367C3.16254 8.84769 3.04022 8.51312 3.15588 8.14695C3.27249 7.77551 3.59425 7.53475 3.99264 7.49023Z" fill="#363BC4"/>
<path d="M11.0474 27.625C10.9532 27.8002 10.8909 28.0051 10.76 28.1453C9.43581 29.5602 8.10024 30.9651 6.76801 32.3723C6.4729 32.6839 5.95219 32.6916 5.62949 32.3915C5.28869 32.0741 5.23443 31.5553 5.53144 31.2341C6.08737 30.6329 6.65615 30.0437 7.2197 29.4497C7.78277 28.8561 8.34537 28.2621 8.90939 27.6695C9.13357 27.4341 9.3549 27.1942 9.5905 26.9702C9.84372 26.7295 10.1369 26.6716 10.4663 26.818C10.808 26.9707 10.9856 27.2225 11.0474 27.625Z" fill="#363BC4"/>
<path d="M17.6429 3.69818C17.6429 2.74135 17.6419 1.78452 17.6434 0.827213C17.6443 0.348079 17.9875 0.0072772 18.4701 9.73771e-05C18.9485 -0.00660379 19.3126 0.333241 19.314 0.808545C19.3193 2.7538 19.3212 4.69953 19.3197 6.64478C19.3193 7.12344 18.9689 7.44509 18.4725 7.4427C18.0022 7.44031 17.6486 7.10333 17.6467 6.64095C17.6429 5.66019 17.6453 4.67895 17.6453 3.69818C17.6443 3.69818 17.6438 3.69818 17.6429 3.69818Z" fill="#363BC4"/>
</svg>
