<svg width="36" height="36" viewBox="0 0 36 36" fill="none" xmlns="http://www.w3.org/2000/svg">
<mask id="path-1-outside-1_4148_599" maskUnits="userSpaceOnUse" x="-0.000976562" y="0" width="36" height="36" fill="black">
<rect fill="white" x="-0.000976562" width="36" height="36"/>
<path d="M11.7449 2.18668C11.5341 2.53862 11.3623 2.81688 11.1984 3.10035C8.48145 7.77099 5.87814 12.5014 3.73287 17.4694C2.99724 19.1745 2.30152 20.8979 1.94325 22.7295C1.3924 25.5503 2.11502 28.0911 3.84824 30.3163C6.0421 33.1336 8.995 34.4139 12.556 34.1929C16.9515 33.9198 20.8266 30.4221 21.5665 26.1129C21.6611 25.5624 21.6984 25.0007 21.7391 24.4425C21.76 24.1625 21.7816 23.8946 22.1338 23.8911C22.5147 23.8877 22.5537 24.1703 22.5433 24.4667C22.3646 29.4052 19.1168 33.2636 14.8227 34.5518C8.71393 36.3852 2.2408 32.3976 1.13737 26.1467C0.800784 24.2405 1.11221 22.4305 1.70643 20.6309C2.85324 17.16 4.42251 13.872 6.13839 10.6585C7.78747 7.57075 9.53804 4.5376 11.2513 1.48539C11.6122 0.843044 11.8811 0.842177 12.2472 1.45938C14.7464 5.67319 17.1207 9.95461 19.2339 14.3773C19.2894 14.4944 19.3935 14.6175 19.3839 14.7301C19.3709 14.8897 19.3102 15.1272 19.2018 15.1757C19.0794 15.2303 18.84 15.1566 18.7246 15.0552C18.5937 14.9408 18.5416 14.7345 18.4609 14.5654C16.5091 10.4652 14.3083 6.49844 12.0147 2.5811C11.9505 2.47187 11.8716 2.37132 11.7449 2.18668Z"/>
<path d="M25.4288 7.64016C24.8727 8.20016 24.3176 8.76015 23.7606 9.31841C23.6591 9.4207 23.5672 9.57673 23.4466 9.60534C23.2792 9.64521 23.0493 9.64348 22.9235 9.55333C22.848 9.49958 22.8515 9.18058 22.9365 9.08436C23.3373 8.63185 23.7788 8.21489 24.2065 7.7858C24.655 7.33676 25.1061 6.89033 25.5528 6.44043C25.8261 6.16563 26.0785 6.1457 26.3657 6.4387C27.2037 7.29255 28.0547 8.13514 28.9013 8.98033C29.0939 9.17278 29.2127 9.37475 28.9768 9.60967C28.7339 9.85239 28.5387 9.70416 28.3522 9.51692C27.823 8.9864 27.2921 8.45588 26.7604 7.9271C26.6623 7.83001 26.5539 7.74419 26.3579 7.57082C26.3579 8.07793 26.3266 8.47582 26.3631 8.86677C26.5253 10.617 25.9311 12.1236 24.8918 13.4819C23.8205 14.8828 22.4074 15.8121 20.7071 16.229C19.7225 16.4709 18.6937 16.6373 17.6831 16.6486C15.0693 16.6781 13.1479 17.8553 11.7261 19.9695C10.9462 21.1294 10.4344 22.408 10.1013 23.7586C10.0258 24.0646 9.92432 24.3004 9.56518 24.2059C9.20778 24.1114 9.28846 23.8392 9.35352 23.5748C9.85232 21.5559 10.7068 19.7207 12.1589 18.202C13.6762 16.6148 15.5629 15.8823 17.7394 15.8727C19.536 15.8649 21.2311 15.5087 22.7353 14.4771C24.0799 13.5539 24.9872 12.2909 25.4461 10.7375C25.5884 10.2555 25.5364 9.71283 25.552 9.19791C25.5676 8.69687 25.5554 8.19582 25.5554 7.69478C25.5121 7.67744 25.4704 7.65837 25.4288 7.64016Z"/>
<path d="M31.4422 13.4419C31.2306 13.6352 31.1152 13.7341 31.0076 13.8407C30.4646 14.379 29.9241 14.9199 29.3828 15.4591C29.205 15.6359 29.0159 15.688 28.8198 15.4912C28.6498 15.3213 28.6342 15.1349 28.8077 14.9598C29.7237 14.0401 30.6415 13.122 31.5619 12.2075C31.7493 12.022 31.9523 12.0393 32.1336 12.2196C33.0436 13.1246 33.951 14.0323 34.8575 14.9416C35.0223 15.1072 35.0579 15.2918 34.8844 15.473C34.6996 15.6663 34.501 15.6524 34.317 15.4721C33.7931 14.9555 33.2691 14.4397 32.7556 13.9126C32.6272 13.7809 32.5387 13.6101 32.432 13.4575C32.3834 13.4905 32.3357 13.5225 32.2871 13.5555C32.2724 13.6595 32.2472 13.7635 32.2455 13.8675C32.2403 14.1848 32.2446 14.5021 32.2446 14.8194C32.2472 18.0137 30.5227 20.5658 27.5524 21.8028C26.3215 22.316 25.0289 22.544 23.7164 22.537C20.4877 22.5188 18.3806 24.1832 17.0065 26.9303C16.5728 27.7971 16.3021 28.7489 15.9881 29.6722C15.8927 29.9522 15.8042 30.1758 15.4693 30.0978C15.1492 30.0232 15.1648 29.7935 15.2282 29.5205C15.6671 27.6385 16.4496 25.9221 17.71 24.4485C19.2767 22.6185 21.297 21.7551 23.6948 21.7534C25.2328 21.7525 26.7023 21.4673 28.0564 20.7105C29.6812 19.8029 30.7387 18.4264 31.3303 16.6814C31.4075 16.4551 31.4335 16.2029 31.437 15.9619C31.45 15.1644 31.4422 14.366 31.4422 13.4419Z"/>
<path d="M20.6007 17.4482C20.671 17.606 20.7491 17.7603 20.8089 17.9224C21.1386 18.811 21.476 19.6969 21.7744 20.5967C21.8178 20.7276 21.6634 20.9235 21.6001 21.0891C21.4222 21.011 21.1368 20.9764 21.0839 20.8472C20.7196 19.9578 20.4012 19.0485 20.075 18.1435C19.9614 17.8253 20.1644 17.7014 20.6007 17.4482Z"/>
</mask>
<path d="M11.7449 2.18668C11.5341 2.53862 11.3623 2.81688 11.1984 3.10035C8.48145 7.77099 5.87814 12.5014 3.73287 17.4694C2.99724 19.1745 2.30152 20.8979 1.94325 22.7295C1.3924 25.5503 2.11502 28.0911 3.84824 30.3163C6.0421 33.1336 8.995 34.4139 12.556 34.1929C16.9515 33.9198 20.8266 30.4221 21.5665 26.1129C21.6611 25.5624 21.6984 25.0007 21.7391 24.4425C21.76 24.1625 21.7816 23.8946 22.1338 23.8911C22.5147 23.8877 22.5537 24.1703 22.5433 24.4667C22.3646 29.4052 19.1168 33.2636 14.8227 34.5518C8.71393 36.3852 2.2408 32.3976 1.13737 26.1467C0.800784 24.2405 1.11221 22.4305 1.70643 20.6309C2.85324 17.16 4.42251 13.872 6.13839 10.6585C7.78747 7.57075 9.53804 4.5376 11.2513 1.48539C11.6122 0.843044 11.8811 0.842177 12.2472 1.45938C14.7464 5.67319 17.1207 9.95461 19.2339 14.3773C19.2894 14.4944 19.3935 14.6175 19.3839 14.7301C19.3709 14.8897 19.3102 15.1272 19.2018 15.1757C19.0794 15.2303 18.84 15.1566 18.7246 15.0552C18.5937 14.9408 18.5416 14.7345 18.4609 14.5654C16.5091 10.4652 14.3083 6.49844 12.0147 2.5811C11.9505 2.47187 11.8716 2.37132 11.7449 2.18668Z" fill="#363BC4"/>
<path d="M25.4288 7.64016C24.8727 8.20016 24.3176 8.76015 23.7606 9.31841C23.6591 9.4207 23.5672 9.57673 23.4466 9.60534C23.2792 9.64521 23.0493 9.64348 22.9235 9.55333C22.848 9.49958 22.8515 9.18058 22.9365 9.08436C23.3373 8.63185 23.7788 8.21489 24.2065 7.7858C24.655 7.33676 25.1061 6.89033 25.5528 6.44043C25.8261 6.16563 26.0785 6.1457 26.3657 6.4387C27.2037 7.29255 28.0547 8.13514 28.9013 8.98033C29.0939 9.17278 29.2127 9.37475 28.9768 9.60967C28.7339 9.85239 28.5387 9.70416 28.3522 9.51692C27.823 8.9864 27.2921 8.45588 26.7604 7.9271C26.6623 7.83001 26.5539 7.74419 26.3579 7.57082C26.3579 8.07793 26.3266 8.47582 26.3631 8.86677C26.5253 10.617 25.9311 12.1236 24.8918 13.4819C23.8205 14.8828 22.4074 15.8121 20.7071 16.229C19.7225 16.4709 18.6937 16.6373 17.6831 16.6486C15.0693 16.6781 13.1479 17.8553 11.7261 19.9695C10.9462 21.1294 10.4344 22.408 10.1013 23.7586C10.0258 24.0646 9.92432 24.3004 9.56518 24.2059C9.20778 24.1114 9.28846 23.8392 9.35352 23.5748C9.85232 21.5559 10.7068 19.7207 12.1589 18.202C13.6762 16.6148 15.5629 15.8823 17.7394 15.8727C19.536 15.8649 21.2311 15.5087 22.7353 14.4771C24.0799 13.5539 24.9872 12.2909 25.4461 10.7375C25.5884 10.2555 25.5364 9.71283 25.552 9.19791C25.5676 8.69687 25.5554 8.19582 25.5554 7.69478C25.5121 7.67744 25.4704 7.65837 25.4288 7.64016Z" fill="#363BC4"/>
<path d="M31.4422 13.4419C31.2306 13.6352 31.1152 13.7341 31.0076 13.8407C30.4646 14.379 29.9241 14.9199 29.3828 15.4591C29.205 15.6359 29.0159 15.688 28.8198 15.4912C28.6498 15.3213 28.6342 15.1349 28.8077 14.9598C29.7237 14.0401 30.6415 13.122 31.5619 12.2075C31.7493 12.022 31.9523 12.0393 32.1336 12.2196C33.0436 13.1246 33.951 14.0323 34.8575 14.9416C35.0223 15.1072 35.0579 15.2918 34.8844 15.473C34.6996 15.6663 34.501 15.6524 34.317 15.4721C33.7931 14.9555 33.2691 14.4397 32.7556 13.9126C32.6272 13.7809 32.5387 13.6101 32.432 13.4575C32.3834 13.4905 32.3357 13.5225 32.2871 13.5555C32.2724 13.6595 32.2472 13.7635 32.2455 13.8675C32.2403 14.1848 32.2446 14.5021 32.2446 14.8194C32.2472 18.0137 30.5227 20.5658 27.5524 21.8028C26.3215 22.316 25.0289 22.544 23.7164 22.537C20.4877 22.5188 18.3806 24.1832 17.0065 26.9303C16.5728 27.7971 16.3021 28.7489 15.9881 29.6722C15.8927 29.9522 15.8042 30.1758 15.4693 30.0978C15.1492 30.0232 15.1648 29.7935 15.2282 29.5205C15.6671 27.6385 16.4496 25.9221 17.71 24.4485C19.2767 22.6185 21.297 21.7551 23.6948 21.7534C25.2328 21.7525 26.7023 21.4673 28.0564 20.7105C29.6812 19.8029 30.7387 18.4264 31.3303 16.6814C31.4075 16.4551 31.4335 16.2029 31.437 15.9619C31.45 15.1644 31.4422 14.366 31.4422 13.4419Z" fill="#363BC4"/>
<path d="M20.6007 17.4482C20.671 17.606 20.7491 17.7603 20.8089 17.9224C21.1386 18.811 21.476 19.6969 21.7744 20.5967C21.8178 20.7276 21.6634 20.9235 21.6001 21.0891C21.4222 21.011 21.1368 20.9764 21.0839 20.8472C20.7196 19.9578 20.4012 19.0485 20.075 18.1435C19.9614 17.8253 20.1644 17.7014 20.6007 17.4482Z" fill="#363BC4"/>
<path d="M11.7449 2.18668L11.9923 2.01698L11.7278 1.63138L11.4875 2.03253L11.7449 2.18668ZM11.1984 3.10035L11.4577 3.2512L11.4581 3.25055L11.1984 3.10035ZM3.73287 17.4694L3.45745 17.3505L3.45741 17.3506L3.73287 17.4694ZM1.94325 22.7295L1.64883 22.6719L1.64882 22.672L1.94325 22.7295ZM3.84824 30.3163L4.08494 30.132L4.08492 30.132L3.84824 30.3163ZM12.556 34.1929L12.5746 34.4923L12.5746 34.4923L12.556 34.1929ZM21.5665 26.1129L21.2708 26.0621L21.2708 26.0621L21.5665 26.1129ZM21.7391 24.4425L21.44 24.4202L21.4399 24.4206L21.7391 24.4425ZM22.1338 23.8911L22.1311 23.5911L22.1309 23.5911L22.1338 23.8911ZM22.5433 24.4667L22.8431 24.4776L22.8431 24.4772L22.5433 24.4667ZM14.8227 34.5518L14.7365 34.2644L14.7365 34.2644L14.8227 34.5518ZM1.13737 26.1467L1.4328 26.0945L1.4328 26.0945L1.13737 26.1467ZM1.70643 20.6309L1.42158 20.5368L1.42156 20.5368L1.70643 20.6309ZM6.13839 10.6585L5.87376 10.5172L5.87375 10.5172L6.13839 10.6585ZM11.2513 1.48539L10.9898 1.33845L10.9897 1.33854L11.2513 1.48539ZM12.2472 1.45938L12.5052 1.30634L12.5052 1.30634L12.2472 1.45938ZM19.2339 14.3773L19.5049 14.2487L19.5045 14.248L19.2339 14.3773ZM19.3839 14.7301L19.085 14.7048L19.0849 14.7058L19.3839 14.7301ZM19.2018 15.1757L19.3241 15.4496L19.3243 15.4495L19.2018 15.1757ZM18.7246 15.0552L18.9227 14.8299L18.922 14.8293L18.7246 15.0552ZM18.4609 14.5654L18.1901 14.6944L18.1902 14.6947L18.4609 14.5654ZM12.0147 2.5811L12.2736 2.42952L12.2733 2.42909L12.0147 2.5811ZM25.4288 7.64016L25.549 7.36529L25.3607 7.28298L25.2159 7.42878L25.4288 7.64016ZM23.7606 9.31841L23.5482 9.10653L23.5477 9.1071L23.7606 9.31841ZM23.4466 9.60534L23.3774 9.31344L23.3771 9.3135L23.4466 9.60534ZM22.9235 9.55333L23.0983 9.30949L23.0975 9.30896L22.9235 9.55333ZM22.9365 9.08436L22.7119 8.88545L22.7117 8.88572L22.9365 9.08436ZM24.2065 7.7858L23.9943 7.57379L23.994 7.57402L24.2065 7.7858ZM25.5528 6.44043L25.3401 6.22889L25.34 6.22904L25.5528 6.44043ZM26.3657 6.4387L26.1514 6.64867L26.1516 6.64883L26.3657 6.4387ZM28.9013 8.98033L29.1134 8.76812L29.1133 8.76802L28.9013 8.98033ZM28.9768 9.60967L28.7651 9.39708L28.7647 9.39747L28.9768 9.60967ZM28.3522 9.51692L28.5647 9.3052L28.5646 9.30506L28.3522 9.51692ZM26.7604 7.9271L26.9719 7.71437L26.9715 7.71395L26.7604 7.9271ZM26.3579 7.57082L26.5566 7.34609L26.0579 6.90504V7.57082H26.3579ZM26.3631 8.86677L26.6618 8.83909L26.6618 8.83894L26.3631 8.86677ZM24.8918 13.4819L24.6536 13.2997L24.6535 13.2997L24.8918 13.4819ZM20.7071 16.229L20.6356 15.9377L20.6355 15.9377L20.7071 16.229ZM17.6831 16.6486L17.6797 16.3486L17.6797 16.3486L17.6831 16.6486ZM11.7261 19.9695L11.4771 19.8021L11.4771 19.8021L11.7261 19.9695ZM10.1013 23.7586L9.81001 23.6867L9.81001 23.6867L10.1013 23.7586ZM9.56518 24.2059L9.4885 24.4959L9.48885 24.496L9.56518 24.2059ZM9.35352 23.5748L9.06227 23.5028L9.06221 23.5031L9.35352 23.5748ZM12.1589 18.202L12.3758 18.4093L12.3758 18.4093L12.1589 18.202ZM17.7394 15.8727L17.7381 15.5727L17.7381 15.5727L17.7394 15.8727ZM22.7353 14.4771L22.9049 14.7245L22.9051 14.7244L22.7353 14.4771ZM25.4461 10.7375L25.7339 10.8225L25.7339 10.8224L25.4461 10.7375ZM25.552 9.19791L25.2521 9.18857L25.2521 9.18882L25.552 9.19791ZM25.5554 7.69478H25.8554V7.49161L25.6668 7.41621L25.5554 7.69478ZM31.4422 13.4419H31.7422V12.7616L31.2399 13.2204L31.4422 13.4419ZM31.0076 13.8407L30.7964 13.6276L30.7964 13.6276L31.0076 13.8407ZM29.3828 15.4591L29.5944 15.6718L29.5945 15.6717L29.3828 15.4591ZM28.8198 15.4912L29.0324 15.2794L29.0319 15.279L28.8198 15.4912ZM28.8077 14.9598L28.5951 14.7481L28.5946 14.7486L28.8077 14.9598ZM31.5619 12.2075L31.3509 11.9943L31.3505 11.9947L31.5619 12.2075ZM32.1336 12.2196L32.3451 12.0069L32.3451 12.0069L32.1336 12.2196ZM34.8575 14.9416L35.0701 14.7299L35.0699 14.7298L34.8575 14.9416ZM34.8844 15.473L34.6677 15.2655L34.6675 15.2657L34.8844 15.473ZM34.317 15.4721L34.1064 15.6857L34.107 15.6863L34.317 15.4721ZM32.432 13.4575L32.6779 13.2856L32.5084 13.0433L32.2636 13.2092L32.432 13.4575ZM32.2871 13.5555L32.1188 13.3072L32.0088 13.3818L31.9901 13.5134L32.2871 13.5555ZM32.2455 13.8675L31.9455 13.8625L31.9455 13.8626L32.2455 13.8675ZM32.2446 14.8194L31.9446 14.8194L31.9446 14.8196L32.2446 14.8194ZM27.5524 21.8028L27.4371 21.5258L27.437 21.5259L27.5524 21.8028ZM23.7164 22.537L23.7148 22.837L23.7149 22.837L23.7164 22.537ZM17.0065 26.9303L17.2748 27.0645L17.2748 27.0645L17.0065 26.9303ZM15.9881 29.6722L16.272 29.7689L16.2721 29.7688L15.9881 29.6722ZM15.4693 30.0978L15.5374 29.8056L15.5374 29.8056L15.4693 30.0978ZM15.2282 29.5205L14.936 29.4523L14.9359 29.4527L15.2282 29.5205ZM17.71 24.4485L17.4821 24.2533L17.482 24.2535L17.71 24.4485ZM23.6948 21.7534L23.6946 21.4534L23.6945 21.4534L23.6948 21.7534ZM28.0564 20.7105L27.9101 20.4486L27.9101 20.4487L28.0564 20.7105ZM31.3303 16.6814L31.0464 16.5845L31.0462 16.5851L31.3303 16.6814ZM31.437 15.9619L31.1371 15.957L31.137 15.9576L31.437 15.9619ZM20.6007 17.4482L20.8748 17.3262L20.739 17.0212L20.4502 17.1887L20.6007 17.4482ZM20.8089 17.9224L20.5275 18.0263L20.5277 18.0268L20.8089 17.9224ZM21.7744 20.5967L22.0592 20.5023L22.0592 20.5023L21.7744 20.5967ZM21.6001 21.0891L21.4795 21.3638L21.7678 21.4903L21.8803 21.1962L21.6001 21.0891ZM21.0839 20.8472L20.8063 20.9609L20.8063 20.9609L21.0839 20.8472ZM20.075 18.1435L19.7925 18.2444L19.7928 18.2452L20.075 18.1435ZM11.4875 2.03253C11.2795 2.37984 11.1041 2.6642 10.9387 2.95014L11.4581 3.25055C11.6206 2.96957 11.7887 2.6974 12.0023 2.34083L11.4875 2.03253ZM10.9391 2.9495C8.22028 7.62332 5.60987 12.366 3.45745 17.3505L4.00828 17.5884C6.14642 12.6369 8.74261 7.91866 11.4577 3.25119L10.9391 2.9495ZM3.45741 17.3506C2.72122 19.057 2.01381 20.806 1.64883 22.6719L2.23768 22.7871C2.58924 20.9897 3.27326 19.2921 4.00832 17.5883L3.45741 17.3506ZM1.64882 22.672C1.07973 25.5862 1.83036 28.2138 3.61156 30.5006L4.08492 30.132C2.39967 27.9683 1.70508 25.5144 2.23769 22.787L1.64882 22.672ZM3.61154 30.5006C5.86825 33.3986 8.91797 34.7193 12.5746 34.4923L12.5374 33.8935C9.07202 34.1086 6.21594 32.8686 4.08494 30.132L3.61154 30.5006ZM12.5746 34.4923C17.1093 34.2106 21.0987 30.6096 21.8622 26.1637L21.2708 26.0621C20.5544 30.2345 16.7938 33.6291 12.5374 33.8935L12.5746 34.4923ZM21.8622 26.1637C21.9597 25.5958 21.9979 25.018 22.0383 24.4643L21.4399 24.4206C21.3988 24.9834 21.3624 25.5291 21.2708 26.0621L21.8622 26.1637ZM22.0383 24.4647C22.0437 24.3924 22.0482 24.3362 22.0562 24.2867C22.0642 24.2372 22.0734 24.2114 22.0797 24.199C22.0838 24.1909 22.0828 24.1956 22.0766 24.1991C22.0728 24.2013 22.0862 24.1916 22.1368 24.1911L22.1309 23.5911C22.0054 23.5924 21.884 23.6175 21.7765 23.6796C21.6665 23.7431 21.5927 23.8328 21.5448 23.9272C21.4599 24.0942 21.449 24.2984 21.44 24.4202L22.0383 24.4647ZM22.1366 24.1911C22.1955 24.1906 22.2164 24.2014 22.218 24.2022C22.2188 24.2027 22.218 24.2022 22.2169 24.2011C22.216 24.2002 22.2171 24.201 22.2194 24.2054C22.2249 24.2159 22.2338 24.2402 22.2394 24.2868C22.2449 24.3329 22.2458 24.3887 22.2435 24.4562L22.8431 24.4772C22.8483 24.3286 22.8473 24.1114 22.7512 23.9275C22.6984 23.8266 22.6175 23.7357 22.5019 23.6736C22.3894 23.6132 22.2626 23.5899 22.1311 23.5911L22.1366 24.1911ZM22.2435 24.4559C22.0696 29.2617 18.9116 33.0119 14.7365 34.2644L14.9089 34.8391C19.3219 33.5153 22.6596 29.5488 22.8431 24.4776L22.2435 24.4559ZM14.7365 34.2644C8.79906 36.0464 2.50491 32.168 1.4328 26.0945L0.841933 26.1988C1.97669 32.6272 8.62881 36.724 14.909 34.8391L14.7365 34.2644ZM1.4328 26.0945C1.10793 24.2547 1.40591 22.4978 1.9913 20.7249L1.42156 20.5368C0.818504 22.3632 0.493638 24.2263 0.841936 26.1989L1.4328 26.0945ZM1.99129 20.725C3.13047 17.2772 4.69095 14.0061 6.40302 10.7998L5.87375 10.5172C4.15407 13.7378 2.57601 17.0428 1.42158 20.5368L1.99129 20.725ZM6.40301 10.7998C8.05012 7.71576 9.7973 4.68863 11.5129 1.63223L10.9897 1.33854C9.27878 4.38658 7.52481 7.42573 5.87376 10.5172L6.40301 10.7998ZM11.5129 1.63233C11.5975 1.4817 11.6659 1.389 11.7186 1.33686C11.7713 1.28479 11.781 1.2994 11.7537 1.29999C11.7252 1.30059 11.7323 1.28466 11.7834 1.33227C11.8352 1.38049 11.9035 1.46804 11.9892 1.61242L12.5052 1.30634C12.4078 1.14213 12.3052 0.998332 12.1923 0.893197C12.0788 0.787454 11.9274 0.696158 11.7409 0.700121C11.5554 0.704062 11.4074 0.800759 11.2967 0.910222C11.1861 1.01962 11.0856 1.1679 10.9898 1.33845L11.5129 1.63233ZM11.9891 1.61242C14.4855 5.82148 16.8551 10.0946 18.9632 14.5067L19.5045 14.248C17.3863 9.81459 15.0072 5.5249 12.5052 1.30634L11.9891 1.61242ZM18.9628 14.5059C18.9828 14.548 19.0055 14.5873 19.0232 14.6175C19.0429 14.6513 19.0564 14.6737 19.0687 14.6967C19.0805 14.7189 19.085 14.7303 19.0864 14.7348C19.0877 14.7388 19.0831 14.7269 19.085 14.7048L19.6829 14.7555C19.6955 14.6057 19.6328 14.4793 19.5979 14.414C19.5784 14.3776 19.556 14.3402 19.541 14.3144C19.5238 14.2851 19.5127 14.2652 19.5049 14.2487L18.9628 14.5059ZM19.0849 14.7058C19.0801 14.7643 19.0661 14.8374 19.046 14.894C19.0359 14.9223 19.0277 14.9369 19.0248 14.9412C19.0201 14.9482 19.0349 14.9217 19.0792 14.9019L19.3243 15.4495C19.4228 15.4054 19.4859 15.3311 19.5234 15.2749C19.5629 15.216 19.591 15.1522 19.6113 15.0951C19.6519 14.9809 19.6747 14.8555 19.6829 14.7545L19.0849 14.7058ZM19.0795 14.9018C19.1023 14.8916 19.1122 14.8945 19.0977 14.8942C19.0856 14.894 19.0653 14.8915 19.0391 14.8844C19.0134 14.8775 18.9876 14.8676 18.965 14.8563C18.9416 14.8445 18.9279 14.8345 18.9227 14.8299L18.5266 15.2805C18.627 15.3688 18.7604 15.4305 18.8821 15.4635C18.9932 15.4936 19.1673 15.5197 19.3241 15.4496L19.0795 14.9018ZM18.922 14.8293C18.9061 14.8154 18.8818 14.7834 18.8471 14.7069C18.8304 14.67 18.8148 14.6313 18.7956 14.5841C18.7775 14.5395 18.7561 14.4874 18.7317 14.4362L18.1902 14.6947C18.2061 14.728 18.2215 14.7651 18.2399 14.8103C18.2572 14.8529 18.278 14.9046 18.3007 14.9547C18.345 15.0523 18.4122 15.1806 18.5273 15.2812L18.922 14.8293ZM18.7318 14.4365C16.7748 10.3254 14.5693 6.35047 12.2736 2.42952L11.7558 2.73268C14.0473 6.64641 16.2434 10.605 18.1901 14.6944L18.7318 14.4365ZM12.2733 2.42909C12.2025 2.30859 12.1049 2.18108 11.9923 2.01698L11.4975 2.35637C11.6383 2.56155 11.6985 2.63516 11.7561 2.73311L12.2733 2.42909ZM25.2159 7.42878C24.6596 7.989 24.1048 8.5486 23.5482 9.10653L23.973 9.53029C24.5303 8.9717 25.0858 8.41131 25.6417 7.85155L25.2159 7.42878ZM23.5477 9.1071C23.5127 9.14234 23.4809 9.17978 23.4561 9.20927C23.4287 9.24185 23.4095 9.26515 23.3896 9.28681C23.3702 9.30795 23.3587 9.31802 23.353 9.3223C23.3476 9.3263 23.3562 9.31845 23.3774 9.31344L23.5159 9.89724C23.6712 9.86039 23.7771 9.75204 23.8319 9.6922C23.8628 9.65848 23.8931 9.62181 23.9153 9.59547C23.94 9.56604 23.9578 9.54562 23.9736 9.52971L23.5477 9.1071ZM23.3771 9.3135C23.3214 9.32676 23.2527 9.33327 23.1908 9.32885C23.1232 9.32403 23.0973 9.30882 23.0983 9.30949L22.7487 9.79716C22.8755 9.88798 23.0275 9.91872 23.1481 9.92733C23.2744 9.93635 23.4044 9.92379 23.5161 9.89717L23.3771 9.3135ZM23.0975 9.30896C23.1214 9.32592 23.1376 9.34372 23.1478 9.35698C23.158 9.37027 23.1643 9.38157 23.1677 9.38853C23.1742 9.40158 23.1751 9.40814 23.1741 9.40369C23.1733 9.4003 23.172 9.39272 23.1709 9.38087C23.1699 9.36931 23.1695 9.35577 23.1698 9.34104C23.1704 9.3103 23.1743 9.28253 23.179 9.26362C23.1813 9.25444 23.1829 9.25117 23.1822 9.25262C23.182 9.25314 23.1764 9.2659 23.1613 9.28299L22.7117 8.88572C22.6436 8.96275 22.6126 9.0554 22.597 9.11771C22.5796 9.18736 22.5713 9.26074 22.5699 9.3285C22.5685 9.39543 22.5735 9.46906 22.5894 9.53813C22.5973 9.57265 22.6097 9.61369 22.6301 9.65486C22.6492 9.69349 22.685 9.75177 22.7495 9.79769L23.0975 9.30896ZM23.1611 9.28326C23.5541 8.83958 23.9827 8.4353 24.419 7.99758L23.994 7.57402C23.575 7.99448 23.1205 8.42413 22.7119 8.88545L23.1611 9.28326ZM24.4188 7.9978C24.8652 7.55087 25.319 7.10167 25.7657 6.65182L25.34 6.22904C24.8932 6.67899 24.4448 7.12266 23.9943 7.57379L24.4188 7.9978ZM25.7656 6.65196C25.878 6.5389 25.9394 6.527 25.9602 6.52658C25.9768 6.52624 26.0368 6.53174 26.1514 6.64867L26.5799 6.22872C26.4074 6.05265 26.1976 5.92162 25.948 5.9267C25.7024 5.9317 25.5009 6.06717 25.3401 6.22889L25.7656 6.65196ZM26.1516 6.64883C26.991 7.50414 27.8439 8.34863 28.6894 9.19265L29.1133 8.76802C28.2654 7.92166 27.4163 7.08097 26.5798 6.22856L26.1516 6.64883ZM28.6893 9.19254C28.7308 9.23406 28.7608 9.26869 28.7812 9.29809C28.8017 9.3276 28.8067 9.34341 28.8076 9.34736C28.8079 9.34871 28.8075 9.34759 28.8077 9.34488C28.8078 9.34205 28.8083 9.34053 28.8081 9.34116C28.8076 9.34267 28.8006 9.3618 28.7651 9.39708L29.1885 9.82227C29.3617 9.64983 29.4452 9.43895 29.3919 9.21079C29.3471 9.01905 29.2148 8.86945 29.1134 8.76812L28.6893 9.19254ZM28.7647 9.39747C28.7283 9.4339 28.7107 9.43842 28.7134 9.43758C28.7149 9.43712 28.7185 9.43634 28.723 9.43636C28.7273 9.43638 28.7293 9.4371 28.728 9.43671C28.7235 9.43539 28.7066 9.42885 28.6749 9.405C28.6436 9.38137 28.6082 9.34879 28.5647 9.3052L28.1397 9.72863C28.2299 9.81919 28.3739 9.95801 28.5587 10.0124C28.6615 10.0425 28.7753 10.0469 28.8925 10.0102C29.0059 9.97478 29.1039 9.90681 29.1888 9.82188L28.7647 9.39747ZM28.5646 9.30506C28.0352 8.77431 27.504 8.2435 26.9719 7.71437L26.5488 8.13982C27.0803 8.66827 27.6109 9.19849 28.1398 9.72878L28.5646 9.30506ZM26.9715 7.71395C26.866 7.60949 26.7371 7.5057 26.5566 7.34609L26.1591 7.79555C26.3707 7.98268 26.4587 8.05053 26.5493 8.14024L26.9715 7.71395ZM26.0579 7.57082C26.0579 8.04603 26.0263 8.48615 26.0644 8.89461L26.6618 8.83894C26.627 8.46549 26.6579 8.10983 26.6579 7.57082H26.0579ZM26.0643 8.89446C26.2179 10.5514 25.6594 11.9849 24.6536 13.2997L25.1301 13.6642C26.2027 12.2622 26.8327 10.6825 26.6618 8.83909L26.0643 8.89446ZM24.6535 13.2997C23.6232 14.6469 22.2687 15.5372 20.6356 15.9377L20.7786 16.5204C22.546 16.0869 24.0177 15.1187 25.1301 13.6642L24.6535 13.2997ZM20.6355 15.9377C19.6659 16.1759 18.6608 16.3377 17.6797 16.3486L17.6864 16.9486C18.7266 16.937 19.7791 16.7659 20.7787 16.5204L20.6355 15.9377ZM17.6797 16.3486C14.9568 16.3793 12.9479 17.6151 11.4771 19.8021L11.975 20.1369C13.3479 18.0954 15.1819 16.9768 17.6864 16.9486L17.6797 16.3486ZM11.4771 19.8021C10.6738 20.9968 10.1497 22.3095 9.81001 23.6867L10.3926 23.8304C10.7191 22.5065 11.2186 21.2619 11.975 20.1369L11.4771 19.8021ZM9.81001 23.6867C9.79229 23.7586 9.7758 23.8145 9.75806 23.8584C9.74013 23.9027 9.7261 23.9215 9.7203 23.9277C9.71812 23.93 9.71825 23.9294 9.72073 23.9279C9.7234 23.9263 9.72532 23.9259 9.72477 23.926C9.72303 23.9264 9.69963 23.931 9.64151 23.9158L9.48885 24.496C9.6103 24.528 9.73427 24.5385 9.85492 24.5117C9.9801 24.4839 10.0813 24.4203 10.1589 24.3371C10.2983 24.1878 10.356 23.9785 10.3926 23.8304L9.81001 23.6867ZM9.64186 23.9158C9.58832 23.9017 9.58059 23.8886 9.58744 23.8956C9.59725 23.9057 9.59862 23.9165 9.59782 23.911C9.59617 23.8996 9.5957 23.8735 9.60447 23.8229C9.61333 23.7718 9.62711 23.7185 9.64483 23.6465L9.06221 23.5031C9.0474 23.5633 9.02669 23.6431 9.01329 23.7204C8.99981 23.7982 8.9893 23.8956 9.00403 23.9971C9.01961 24.1045 9.06375 24.2176 9.15692 24.3135C9.24713 24.4065 9.36334 24.4628 9.4885 24.4959L9.64186 23.9158ZM9.64476 23.6468C10.1345 21.6647 10.9686 19.881 12.3758 18.4093L11.9421 17.9947C10.445 19.5605 9.57018 21.4471 9.06227 23.5028L9.64476 23.6468ZM12.3758 18.4093C13.8317 16.8862 15.6382 16.182 17.7408 16.1727L17.7381 15.5727C15.4877 15.5826 13.5206 16.3434 11.9421 17.9947L12.3758 18.4093ZM17.7408 16.1727C19.5764 16.1648 21.3363 15.8003 22.9049 14.7245L22.5656 14.2297C21.1258 15.217 19.4956 15.5651 17.7381 15.5727L17.7408 16.1727ZM22.9051 14.7244C24.3071 13.7618 25.2557 12.4411 25.7339 10.8225L25.1584 10.6525C24.7188 12.1407 23.8526 13.346 22.5655 14.2298L22.9051 14.7244ZM25.7339 10.8224C25.8159 10.5444 25.8395 10.2579 25.8465 9.98779C25.85 9.85241 25.8493 9.71661 25.8489 9.58686C25.8484 9.45546 25.8481 9.3299 25.8518 9.20701L25.2521 9.18882C25.248 9.32338 25.2484 9.45875 25.2489 9.58898C25.2493 9.72086 25.2499 9.8474 25.2467 9.97229C25.2402 10.2228 25.2186 10.4486 25.1584 10.6525L25.7339 10.8224ZM25.8518 9.20726C25.8676 8.70023 25.8554 8.18589 25.8554 7.69478H25.2554C25.2554 8.20576 25.2675 8.69351 25.2521 9.18857L25.8518 9.20726ZM25.6668 7.41621C25.6293 7.40124 25.5968 7.38622 25.549 7.36529L25.3086 7.91504C25.344 7.93052 25.3948 7.95364 25.4441 7.97335L25.6668 7.41621ZM31.2399 13.2204C31.0372 13.4055 30.9096 13.5154 30.7964 13.6276L31.2188 14.0537C31.3207 13.9527 31.4239 13.8649 31.6445 13.6634L31.2399 13.2204ZM30.7964 13.6276C30.2531 14.1662 29.7117 14.7081 29.1711 15.2466L29.5945 15.6717C30.1366 15.1317 30.6761 14.5918 31.2188 14.0537L30.7964 13.6276ZM29.1713 15.2464C29.1397 15.2778 29.1146 15.2966 29.0964 15.3071C29.0789 15.3174 29.0722 15.3174 29.0748 15.3171C29.0794 15.3166 29.0829 15.318 29.0809 15.3171C29.0768 15.3154 29.0601 15.3073 29.0324 15.2794L28.6073 15.7029C28.751 15.8471 28.933 15.9367 29.1415 15.9134C29.3327 15.892 29.4843 15.7813 29.5944 15.6718L29.1713 15.2464ZM29.0319 15.279C28.9799 15.227 28.9843 15.2054 28.9847 15.2158C28.9849 15.2205 28.9834 15.2217 28.9857 15.2166C28.9886 15.2103 28.9974 15.1946 29.0208 15.1709L28.5946 14.7486C28.4671 14.8773 28.3776 15.0441 28.3852 15.239C28.3925 15.429 28.4898 15.5855 28.6078 15.7034L29.0319 15.279ZM29.0202 15.1715C29.936 14.252 30.8535 13.3344 31.7734 12.4203L31.3505 11.9947C30.4296 12.9097 29.5114 13.8281 28.5951 14.7481L29.0202 15.1715ZM31.773 12.4207C31.7992 12.3947 31.818 12.3838 31.8277 12.3795C31.8324 12.3773 31.8353 12.3766 31.8365 12.3764C31.8376 12.3762 31.8382 12.3762 31.8386 12.3762C31.8388 12.3762 31.8449 12.3763 31.8584 12.3831C31.8727 12.3904 31.8944 12.4049 31.9221 12.4324L32.3451 12.0069C32.2205 11.883 32.0571 11.7841 31.8614 11.7766C31.6608 11.769 31.4869 11.8596 31.3509 11.9943L31.773 12.4207ZM31.922 12.4324C32.8316 13.337 33.7387 14.2442 34.645 15.1534L35.0699 14.7298C34.1632 13.8203 33.2555 12.9123 32.3451 12.0069L31.922 12.4324ZM34.6449 15.1532C34.6994 15.208 34.6995 15.2336 34.6989 15.2275C34.6986 15.2234 34.6998 15.221 34.6987 15.2236C34.6971 15.2276 34.6902 15.242 34.6677 15.2655L35.1011 15.6805C35.232 15.5437 35.3137 15.371 35.2967 15.1754C35.2805 14.9903 35.1804 14.8407 35.0701 14.7299L34.6449 15.1532ZM34.6675 15.2657C34.6145 15.3211 34.5944 15.3125 34.6062 15.3127C34.6128 15.3128 34.5861 15.3158 34.5271 15.2579L34.107 15.6863C34.2319 15.8087 34.3965 15.9088 34.5946 15.9126C34.7979 15.9165 34.9695 15.8181 35.1012 15.6803L34.6675 15.2657ZM34.5277 15.2585C34.0032 14.7413 33.4815 14.2277 32.9704 13.7033L32.5407 14.122C33.0568 14.6516 33.583 15.1696 34.1064 15.6857L34.5277 15.2585ZM32.9704 13.7033C32.9263 13.6579 32.8844 13.6011 32.8362 13.5279C32.7947 13.4648 32.7331 13.3646 32.6779 13.2856L32.1862 13.6295C32.2376 13.703 32.2736 13.7645 32.3351 13.8578C32.3899 13.9411 32.4565 14.0356 32.5407 14.122L32.9704 13.7033ZM32.2636 13.2092C32.2396 13.2255 32.2158 13.2416 32.1917 13.2579C32.1677 13.2741 32.1434 13.2905 32.1188 13.3072L32.4555 13.8038C32.4795 13.7875 32.5033 13.7714 32.5275 13.7551C32.5515 13.7389 32.5758 13.7225 32.6004 13.7058L32.2636 13.2092ZM31.9901 13.5134C31.9811 13.5772 31.9477 13.7347 31.9455 13.8625L32.5455 13.8725C32.5468 13.7923 32.5637 13.7418 32.5842 13.5976L31.9901 13.5134ZM31.9455 13.8626C31.9403 14.183 31.9446 14.5077 31.9446 14.8194H32.5446C32.5446 14.4964 32.5403 14.1866 32.5455 13.8725L31.9455 13.8626ZM31.9446 14.8196C31.9471 17.8905 30.2975 20.3346 27.4371 21.5258L27.6678 22.0797C30.7479 20.797 32.5473 18.1369 32.5446 14.8191L31.9446 14.8196ZM27.437 21.5259C26.2466 22.0222 24.9943 22.2438 23.718 22.237L23.7149 22.837C25.0636 22.8441 26.3964 22.6098 27.6679 22.0797L27.437 21.5259ZM23.7181 22.237C22.0486 22.2276 20.6535 22.6542 19.4961 23.4494C18.3416 24.2426 17.4414 25.3901 16.7382 26.7961L17.2748 27.0645C17.9456 25.7233 18.7861 24.6651 19.8359 23.9439C20.8827 23.2247 22.1555 22.8282 23.7148 22.837L23.7181 22.237ZM16.7382 26.796C16.2924 27.6871 16.0113 28.6723 15.7041 29.5755L16.2721 29.7688C16.5929 28.8256 16.8532 27.9072 17.2748 27.0645L16.7382 26.796ZM15.7041 29.5754C15.6801 29.6458 15.6609 29.6994 15.6409 29.7433C15.6208 29.7874 15.6064 29.8068 15.5994 29.8143C15.5959 29.818 15.5994 29.8141 15.6047 29.8127C15.6064 29.8123 15.5884 29.8175 15.5374 29.8056L15.4012 30.39C15.5177 30.4171 15.6363 30.4236 15.7517 30.3944C15.8708 30.3643 15.9651 30.3016 16.0376 30.2241C16.1657 30.0872 16.2293 29.8943 16.272 29.7689L15.7041 29.5754ZM15.5374 29.8056C15.4898 29.7945 15.4787 29.7831 15.4823 29.7862C15.4843 29.7879 15.4876 29.7913 15.4905 29.7961C15.4933 29.8006 15.4941 29.8035 15.4939 29.8028C15.493 29.7995 15.4894 29.7822 15.493 29.7416C15.4965 29.7015 15.5056 29.6519 15.5204 29.5882L14.9359 29.4527C14.9053 29.5846 14.8647 29.7807 14.916 29.9643C14.9447 30.0669 15.0011 30.1644 15.0931 30.2428C15.1818 30.3185 15.2888 30.3638 15.4013 30.39L15.5374 29.8056ZM15.5203 29.5886C15.9503 27.7451 16.714 26.0745 17.938 24.6434L17.482 24.2535C16.1852 25.7697 15.3839 27.5319 14.936 29.4523L15.5203 29.5886ZM17.9379 24.6436C19.4438 22.8846 21.3788 22.0551 23.695 22.0534L23.6945 21.4534C21.2153 21.4552 19.1095 22.3525 17.4821 24.2533L17.9379 24.6436ZM23.6949 22.0534C25.2705 22.0525 26.7934 21.7601 28.2028 20.9724L27.9101 20.4487C26.6112 21.1746 25.1951 21.4525 23.6946 21.4534L23.6949 22.0534ZM28.2027 20.9725C29.8992 20.0248 31.0016 18.5853 31.6144 16.7777L31.0462 16.5851C30.4758 18.2674 29.4633 19.5811 27.9101 20.4486L28.2027 20.9725ZM31.6142 16.7783C31.7058 16.51 31.7333 16.2225 31.737 15.9662L31.137 15.9576C31.1338 16.1832 31.1093 16.4003 31.0464 16.5845L31.6142 16.7783ZM31.737 15.9668C31.75 15.166 31.7422 14.3621 31.7422 13.4419H31.1422C31.1422 14.3699 31.15 15.1627 31.1371 15.957L31.737 15.9668ZM20.3267 17.5703C20.4052 17.7465 20.472 17.8761 20.5275 18.0263L21.0903 17.8185C21.0261 17.6446 20.9368 17.4655 20.8748 17.3262L20.3267 17.5703ZM20.5277 18.0268C20.8586 18.9188 21.1934 19.7978 21.4897 20.6911L22.0592 20.5023C21.7586 19.596 21.4185 18.7031 21.0902 17.8181L20.5277 18.0268ZM21.4897 20.6911C21.4766 20.6516 21.4847 20.6271 21.4825 20.6361C21.4805 20.6448 21.4738 20.6644 21.4566 20.7006C21.4389 20.7375 21.4199 20.7723 21.3939 20.8224C21.3707 20.8671 21.3422 20.9234 21.3199 20.9819L21.8803 21.1962C21.8895 21.172 21.9042 21.1416 21.9263 21.099C21.9457 21.0617 21.9745 21.0083 21.998 20.9592C22.0218 20.9093 22.0496 20.845 22.0662 20.775C22.0828 20.7053 22.0939 20.6072 22.0592 20.5023L21.4897 20.6911ZM21.7206 20.8143C21.6592 20.7874 21.5939 20.7664 21.5403 20.7499C21.4809 20.7315 21.4369 20.7189 21.393 20.7037C21.3494 20.6887 21.3275 20.6782 21.3185 20.6726C21.3077 20.666 21.3405 20.6821 21.3615 20.7335L20.8063 20.9609C20.8538 21.0769 20.9421 21.1457 21.0053 21.1844C21.0702 21.2241 21.1407 21.2514 21.1973 21.2709C21.2536 21.2903 21.3175 21.309 21.3633 21.3232C21.415 21.3391 21.452 21.3517 21.4795 21.3638L21.7206 20.8143ZM21.3615 20.7335C21.0003 19.8517 20.6848 18.9505 20.3573 18.0417L19.7928 18.2452C20.1176 19.1464 20.4388 20.0639 20.8063 20.9609L21.3615 20.7335ZM20.3576 18.0426C20.3404 17.9945 20.3447 17.9801 20.3439 17.9847C20.3427 17.9923 20.3392 17.9896 20.3558 17.9709C20.376 17.9481 20.4139 17.9157 20.4844 17.8689C20.5542 17.8226 20.6406 17.772 20.7513 17.7077L20.4502 17.1887C20.2496 17.3051 20.0381 17.4252 19.9075 17.5721C19.833 17.6558 19.7728 17.7595 19.7518 17.8878C19.7313 18.013 19.7529 18.1334 19.7925 18.2444L20.3576 18.0426Z" fill="#363BC4" mask="url(#path-1-outside-1_4148_599)"/>
</svg>
