<svg width="41" height="38" viewBox="0 0 41 38" fill="none" xmlns="http://www.w3.org/2000/svg">
<path d="M24.0532 24.5592C23.2009 25.4616 22.2634 26.0295 21.1375 26.2445C20.7016 26.3279 20.2482 26.3362 19.8021 26.3423C19.5909 26.3451 19.476 26.3885 19.3684 26.5841C18.2101 28.7028 16.9386 30.7499 15.393 32.6175C14.2745 33.9688 13.0612 35.223 11.5134 36.1026C10.4061 36.7316 9.23322 37.0639 7.94377 36.7877C7.03986 36.5944 6.29511 36.1137 5.61256 35.5236C4.26314 34.3573 3.31833 32.9025 2.59655 31.2972C1.54974 28.969 0.99944 26.5296 1 23.9774C1 22.9656 1.10199 21.9615 1.48698 21.0091C1.58336 20.7701 1.70273 20.5351 1.84563 20.3211C2.44132 19.4276 3.37717 19.1409 4.36065 19.591C5.30826 20.025 6.22226 20.5301 7.16819 20.9691C8.84319 21.7459 10.5546 22.4305 12.3882 22.7522C13.0988 22.8767 13.8138 22.9444 14.5289 22.7783C14.6623 22.7472 14.7912 22.6972 14.9391 22.6505C14.7009 21.8431 14.6455 21.0463 14.7738 20.24C14.8808 19.5654 15.1061 18.9292 15.4821 18.3569C15.6009 18.1763 15.5796 18.0635 15.4737 17.8946C14.2358 15.9192 13.1302 13.8754 12.2655 11.7094C11.7113 10.3208 11.2691 8.90111 11.0932 7.41137C10.9906 6.54176 10.994 5.67436 11.2136 4.8192C11.6093 3.28 12.6028 2.28258 14.0716 1.71025C15.5673 1.12902 17.124 0.933984 18.7139 1.019C21.4928 1.16792 24.1132 1.90306 26.5677 3.2061C27.4604 3.68008 28.3077 4.22741 28.9835 4.98423C29.2761 5.31207 29.5406 5.68492 29.7283 6.07944C30.1239 6.91239 29.916 7.787 29.1752 8.34045C28.5358 8.81832 27.8381 9.2184 27.1724 9.66237C25.6122 10.7015 24.1042 11.8061 22.7969 13.1558C22.2258 13.7448 21.7024 14.3727 21.355 15.1223C21.2435 15.3624 21.1712 15.6208 21.0725 15.8919C21.3398 15.9747 21.5702 16.0364 21.7943 16.1164C23.0877 16.5782 24.0656 17.41 24.7195 18.6069C24.8165 18.7842 24.923 18.8281 25.1146 18.822C27.9199 18.7342 30.7135 18.8397 33.4734 19.3954C34.9153 19.6855 36.3106 20.1144 37.5777 20.8824C39.581 22.0954 40.346 23.8885 39.8568 26.1634C39.4544 28.0316 38.5662 29.663 37.4062 31.1611C35.9352 33.0603 34.1828 34.654 32.0909 35.8637C31.1427 36.4121 30.1475 36.8527 29.0413 36.9778C27.6952 37.1295 26.5969 36.5116 26.5386 34.9163C26.4719 33.0937 26.362 31.2744 26.0359 29.4757C25.8078 28.2177 25.5338 26.9675 24.9174 25.83C24.682 25.3955 24.3615 25.0076 24.0532 24.5592ZM15.3465 23.6212C14.8175 23.699 14.3339 23.8079 13.8458 23.8335C12.7037 23.8935 11.6025 23.6374 10.5182 23.3145C8.32876 22.6622 6.27942 21.6864 4.26874 20.6245C3.39174 20.1611 2.86553 20.3339 2.45757 21.2285C2.41162 21.3291 2.3595 21.4319 2.33933 21.5386C2.22221 22.1454 2.04905 22.7494 2.01374 23.3617C1.86188 26 2.43403 28.5078 3.5083 30.9105C4.11071 32.2574 4.89021 33.4921 5.9712 34.5189C6.54112 35.0596 7.1525 35.5453 7.92696 35.7736C9.03653 36.1009 10.0497 35.8081 11.013 35.2713C12.2257 34.5956 13.2025 33.6421 14.108 32.613C15.6245 30.8899 16.864 28.9762 18.0134 27.0014C18.1742 26.7252 18.3227 26.4424 18.4835 26.1517C17.0753 25.6889 16.038 24.8337 15.3465 23.6212ZM24.5907 23.8335C25.2233 24.3558 25.6498 25.0137 25.9737 25.7394C26.8244 27.6437 27.127 29.673 27.3198 31.7212C27.4173 32.7614 27.4447 33.8083 27.5064 34.8523C27.5574 35.7142 27.9592 36.0709 28.8222 36.0154C29.67 35.9609 30.4361 35.6408 31.1691 35.2502C33.4868 34.015 35.3832 32.298 36.9282 30.197C37.8724 28.9134 38.5791 27.5165 38.9007 25.945C39.135 24.8004 39.0694 23.7163 38.2938 22.7644C37.8769 22.2526 37.3569 21.8631 36.7785 21.5508C35.1445 20.6679 33.3591 20.2828 31.5378 20.075C30.1497 19.9166 28.7487 19.8561 27.3523 19.7827C26.6462 19.7455 25.9367 19.776 25.2048 19.776C25.5237 21.2174 25.3466 22.5499 24.5907 23.8335ZM16.251 17.3122C16.3193 17.28 16.3389 17.2755 16.3518 17.2639C17.365 16.3315 18.562 15.848 19.9439 15.7997C20.0157 15.7969 20.1143 15.6902 20.1479 15.6102C20.3194 15.2024 20.4387 14.7706 20.6405 14.3789C21.0512 13.5804 21.6453 12.9102 22.2796 12.2796C23.9249 10.6442 25.8241 9.3362 27.7815 8.10429C28.0796 7.91647 28.3761 7.72032 28.6445 7.49417C28.9454 7.24078 29.0295 6.89016 28.8586 6.53731C28.7112 6.23281 28.5291 5.93275 28.306 5.67937C27.7221 5.01535 26.9852 4.53914 26.2124 4.12017C24.0219 2.93382 21.6783 2.23257 19.1941 2.02531C17.6872 1.89973 16.1938 1.99753 14.7474 2.50152C12.9262 3.13609 12.0828 4.26964 12.0228 6.16668C11.9853 7.35747 12.2335 8.50159 12.5787 9.62903C13.1851 11.6116 14.0789 13.472 15.0792 15.2835C15.4541 15.9636 15.8553 16.6293 16.251 17.3122ZM24.3559 21.0713C24.3536 18.6792 22.4169 16.7938 19.9635 16.7943C17.6497 16.7949 15.6956 18.7636 15.6962 21.093C15.6967 23.4423 17.6631 25.3933 20.0308 25.3944C22.4248 25.3955 24.3581 23.4629 24.3559 21.0713Z" fill="#363BC4" stroke="#363BC4" stroke-width="0.5"/>
</svg>
