<svg width="36" height="41" viewBox="0 0 36 41" fill="none" xmlns="http://www.w3.org/2000/svg">
<path d="M12.3883 3.41756C12.0666 3.20312 11.632 3.29004 11.4176 3.61171C11.2031 3.93338 11.29 4.36799 11.6117 4.58244L12.3883 3.41756ZM24.3883 4.58244C24.71 4.36799 24.7969 3.93338 24.5824 3.61171C24.368 3.29004 23.9334 3.20312 23.6117 3.41756L24.3883 4.58244ZM0.862394 16.9017C0.524386 17.0893 0.402489 17.5154 0.590129 17.8534C0.77777 18.1914 1.20389 18.3133 1.5419 18.1257L0.862394 16.9017ZM6.89131 14.3554L7.23106 14.9674L7.59827 14.7636L7.59121 14.3436L6.89131 14.3554ZM7.48176 7.83756C7.47526 7.45101 7.15663 7.14293 6.77008 7.14943C6.38354 7.15593 6.07545 7.47456 6.08196 7.8611L7.48176 7.83756ZM34.6327 24.489C34.9707 24.3013 35.0926 23.8752 34.905 23.5372C34.7173 23.1992 34.2912 23.0773 33.9532 23.2649L34.6327 24.489ZM28.6038 27.0352L28.2641 26.4232L27.8968 26.627L27.9039 27.047L28.6038 27.0352ZM28.0134 33.5531C28.0199 33.9396 28.3385 34.2477 28.725 34.2412C29.1116 34.2347 29.4197 33.9161 29.4132 33.5295L28.0134 33.5531ZM33.9532 18.1257C34.2912 18.3133 34.7173 18.1914 34.905 17.8534C35.0926 17.5154 34.9707 17.0893 34.6327 16.9017L33.9532 18.1257ZM28.6038 14.3554L27.9039 14.3436L27.8968 14.7636L28.2641 14.9674L28.6038 14.3554ZM29.4132 7.8611C29.4197 7.47456 29.1116 7.15593 28.725 7.14943C28.3385 7.14293 28.0199 7.45101 28.0134 7.83756L29.4132 7.8611ZM1.5419 23.2649C1.20389 23.0773 0.77777 23.1992 0.590129 23.5372C0.402489 23.8752 0.524386 24.3013 0.862394 24.489L1.5419 23.2649ZM6.89131 27.0352L7.59121 27.047L7.59827 26.627L7.23106 26.4232L6.89131 27.0352ZM6.08196 33.5295C6.07545 33.9161 6.38354 34.2347 6.77008 34.2412C7.15663 34.2477 7.47526 33.9396 7.48176 33.5531L6.08196 33.5295ZM23.6117 36.5824C23.9334 36.7969 24.368 36.71 24.5824 36.3883C24.7969 36.0666 24.71 35.632 24.3883 35.4176L23.6117 36.5824ZM11.6117 35.4176C11.29 35.632 11.2031 36.0666 11.4176 36.3883C11.632 36.71 12.0666 36.7969 12.3883 36.5824L11.6117 35.4176ZM18.7 1C18.7 0.613401 18.3866 0.3 18 0.3C17.6134 0.3 17.3 0.613401 17.3 1H18.7ZM17.3 40C17.3 40.3866 17.6134 40.7 18 40.7C18.3866 40.7 18.7 40.3866 18.7 40H17.3ZM35.0922 11.6497C35.427 11.4564 35.5417 11.0283 35.3484 10.6935C35.1551 10.3587 34.727 10.2439 34.3922 10.4372L35.0922 11.6497ZM1.05021 29.6872C0.715403 29.8805 0.60069 30.3087 0.79399 30.6435C0.98729 30.9783 1.4154 31.093 1.75021 30.8997L1.05021 29.6872ZM34.3922 30.8997C34.727 31.093 35.1551 30.9783 35.3484 30.6435C35.5417 30.3087 35.427 29.8805 35.0922 29.6872L34.3922 30.8997ZM1.75021 10.4372C1.41541 10.2439 0.987292 10.3587 0.793992 10.6935C0.600693 11.0283 0.715405 11.4564 1.05021 11.6497L1.75021 10.4372ZM11.6117 4.58244L17.6117 8.58244L18.3883 7.41756L12.3883 3.41756L11.6117 4.58244ZM18.3883 8.58244L24.3883 4.58244L23.6117 3.41756L17.6117 7.41756L18.3883 8.58244ZM1.5419 18.1257L7.23106 14.9674L6.55155 13.7434L0.862394 16.9017L1.5419 18.1257ZM7.59121 14.3436L7.5888 14.2006L6.189 14.2241L6.1914 14.3672L7.59121 14.3436ZM7.5888 14.2006L7.48176 7.83756L6.08196 7.8611L6.189 14.2241L7.5888 14.2006ZM33.9532 23.2649L28.5164 26.2831L29.1959 27.5072L34.6327 24.489L33.9532 23.2649ZM28.5164 26.2831L28.2641 26.4232L28.9436 27.6472L29.1959 27.5072L28.5164 26.2831ZM27.9039 27.047L28.0134 33.5531L29.4132 33.5295L29.3037 27.0234L27.9039 27.047ZM34.6327 16.9017L29.1485 13.8571L28.4689 15.0812L33.9532 18.1257L34.6327 16.9017ZM29.1485 13.8571L28.9436 13.7434L28.2641 14.9674L28.4689 15.0812L29.1485 13.8571ZM29.3037 14.3672L29.4132 7.8611L28.0134 7.83756L27.9039 14.3436L29.3037 14.3672ZM0.862394 24.489L6.55155 27.6472L7.23106 26.4232L1.5419 23.2649L0.862394 24.489ZM6.1914 27.0234L6.18991 27.1123L7.58971 27.1358L7.59121 27.047L6.1914 27.0234ZM6.18991 27.1123L6.08196 33.5295L7.48176 33.5531L7.58971 27.1358L6.18991 27.1123ZM24.3883 35.4176L18.3883 31.4176L17.6117 32.5824L23.6117 36.5824L24.3883 35.4176ZM17.6117 31.4176L11.6117 35.4176L12.3883 36.5824L18.3883 32.5824L17.6117 31.4176ZM17.3 1V8H18.7V1H17.3ZM17.3 8V20.6273H18.7V8H17.3ZM17.3 20.6273V20.7096H18.7V20.6273H17.3ZM17.3 20.7096V32H18.7V20.7096H17.3ZM17.3 32V40H18.7V32H17.3ZM34.3922 10.4372L28.4587 13.8629L29.1587 15.0754L35.0922 11.6497L34.3922 10.4372ZM28.4587 13.8629L17.7212 20.0622L18.4212 21.2747L29.1587 15.0754L28.4587 13.8629ZM17.7212 20.0622L17.65 20.1033L18.35 21.3158L18.4212 21.2747L17.7212 20.0622ZM17.65 20.1033L6.53981 26.5178L7.23981 27.7302L18.35 21.3158L17.65 20.1033ZM6.53981 26.5178L1.05021 29.6872L1.75021 30.8997L7.23981 27.7302L6.53981 26.5178ZM35.0922 29.6872L29.2061 26.2889L28.5061 27.5014L34.3922 30.8997L35.0922 29.6872ZM29.2061 26.2889L18.4212 20.0622L17.7212 21.2747L28.5061 27.5014L29.2061 26.2889ZM18.4212 20.0622L18.35 20.0211L17.65 21.2336L17.7212 21.2747L18.4212 20.0622ZM18.35 20.0211L7.2389 13.6061L6.5389 14.8186L17.65 21.2336L18.35 20.0211ZM7.2389 13.6061L1.75021 10.4372L1.05021 11.6497L6.5389 14.8186L7.2389 13.6061Z" fill="#363BC4"/>
</svg>
