<?xml version="1.0" encoding="UTF-8" standalone="no"?>
<svg
   width="31.246416"
   height="33.915451"
   viewBox="0 0 31.246416 33.915451"
   fill="none"
   version="1.1"
   id="svg9"
   xmlns="http://www.w3.org/2000/svg"
   xmlns:svg="http://www.w3.org/2000/svg">
  <defs
     id="defs13" />

  <path
     style="fill:none;stroke:#363bc4;stroke-width:1.9;stroke-linecap:round;stroke-linejoin:round;stroke-miterlimit:4;stroke-dasharray:none;stroke-opacity:1"
     id="path1974"
     d="M 23.483232,7.9676493 A 12.974766,12.974766 0 0 1 27.912048,22.453588 12.974766,12.974766 0 0 1 15.590984,31.265411 12.974766,12.974766 0 0 1 3.3138864,22.392435 12.974766,12.974766 0 0 1 7.8146734,7.9286961" />
  <mask
     id="path-2-inside-1_2346_352"
     fill="#363bc4">
    <path
       d="m 9.08195,32.0848 c 0.51591,0.2369 1.03105,0.4737 1.54695,0.7106 0.2758,0.2458 0.6067,0.3358 0.9669,0.3472 0.2506,0.0657 0.5102,0.1038 0.7438,0.2271 0.5095,0.1095 1.0189,0.2199 1.5283,0.3294 0.5411,0.0568 1.0821,0.1135 1.6232,0.1703 0.5402,0 1.0805,0 1.6207,0 0.5411,-0.0568 1.0821,-0.1135 1.6232,-0.1703 0.5094,-0.1095 1.0188,-0.2199 1.5283,-0.3294 0.2336,-0.1241 0.4932,-0.1606 0.7438,-0.2271 0.3545,0.0211 0.6506,-0.1671 0.9726,-0.2653 0.5638,-0.2401 1.1365,-0.4599 1.667,-0.7714 0.322,-0.1711 0.636,-0.3577 0.9661,-0.5159 0.1963,-0.202 0.4591,-0.3115 0.6717,-0.4908 1.1153,-0.7617 2.1139,-1.6515 2.9762,-2.6923 0.1062,-0.107 0.1857,-0.2344 0.2782,-0.3528 0.3083,-0.4243 0.6563,-0.8201 0.911,-1.2817 0.2555,-0.3748 0.4623,-0.7787 0.6992,-1.1657 0.0827,-0.1736 0.1687,-0.3463 0.2612,-0.5159 0.2499,-0.597 0.537,-1.1786 0.7357,-1.7967 0.288,-0.8161 0.4843,-1.6548 0.6441,-2.5042 0.0365,-0.1995 0.039,-0.4047 0.0917,-0.6027 0.0178,-0.5288 0.1346,-1.0512 0.1087,-1.5834 8e-4,-0.4656 0.0324,-0.932 -0.0243,-1.396 -0.086,-0.8396 -0.185,-1.6767 -0.3845,-2.4985 -0.0763,-0.3131 -0.142,-0.6286 -0.2458,-0.9336 C 31.1469,13.2241 30.953,12.6733 30.7356,12.1314 30.4565,11.5912 30.2278,11.025 29.9163,10.5009 29.5675,9.93473 29.2106,9.37502 28.8042,8.84775 28.7068,8.71309 28.5949,8.5898 28.5081,8.44703 28.1268,8.04306 27.7959,7.59286 27.3838,7.21809 27.2053,7.05504 27.048,6.86928 26.8573,6.71921 26.5572,6.49289 26.2895,6.22683 25.9918,5.99726 25.8004,5.84963 25.6138,5.6955 25.3672,5.64683 25.3064,5.64197 25.2463,5.6371 25.2204,5.56815 24.6436,5.3394 24.0523,5.25747 23.439,5.38644 23.2224,5.47 23.005,5.55436 22.7885,5.63791 22.4048,5.7604 22.1046,5.97212 21.9838,6.37933 c -0.1412,0.29365 -0.2831,0.58729 -0.4243,0.88094 -0.1322,0.55079 -0.0519,1.08942 0.0925,1.62398 0.1387,0.23768 0.2766,0.47617 0.4153,0.71384 0.1947,0.45831 0.666,0.62781 0.9905,0.94991 0.1768,0.1574 0.339,0.3293 0.5045,0.498 0.3764,0.3489 0.7171,0.7293 1.0197,1.1438 0.1987,0.2969 0.4031,0.5906 0.5897,0.8956 0.3983,0.717 0.7422,1.4576 0.9637,2.251 0.1866,0.5556 0.2758,1.1316 0.352,1.71 0.0511,0.4623 0.099,0.9239 0.0755,1.3895 0.0251,0.6206 -0.1079,1.2249 -0.1906,1.8341 -0.086,0.5199 -0.2426,1.0213 -0.4227,1.5153 -0.2052,0.5767 -0.4453,1.1372 -0.7746,1.6564 -0.3229,0.6173 -0.748,1.1616 -1.2055,1.6824 -0.1411,0.1501 -0.2871,0.2944 -0.4372,0.4364 -0.9085,0.9596 -1.9914,1.6605 -3.2074,2.1658 -0.5118,0.2296 -1.0424,0.4081 -1.5859,0.546 -0.0803,0.0227 -0.1606,0.0405 -0.2433,0.0527 -0.4267,0.1079 -0.8615,0.1525 -1.2979,0.1866 -0.2377,0.0778 -0.4835,0.0446 -0.726,0.0454 -0.1119,-0.0032 -0.2239,-8e-4 -0.3358,-8e-4 -0.2434,0.0016 -0.4884,0.0308 -0.7268,-0.0438 C 14.9719,28.4791 14.5363,28.4288 14.1096,28.3258 14.0269,28.3185 13.9458,28.299 13.8671,28.2731 13.3252,28.1352 12.7947,27.9608 12.2869,27.7247 11.0628,27.2291 9.98236,26.5193 9.07059,25.5605 8.91971,25.4202 8.77451,25.2742 8.63255,25.1249 8.17342,24.6057 7.75242,24.0598 7.42876,23.4433 7.09455,22.9266 6.86337,22.362 6.65246,21.7869 6.46995,21.2945 6.31826,20.7932 6.23065,20.274 6.13655,19.6665 6.04083,19.0597 6.0384,18.4424 c -0.03488,-0.4672 0.05273,-0.928 0.07787,-1.392 0.06895,-0.58 0.16792,-1.1543 0.34881,-1.7116 0.22145,-0.7714 0.53213,-1.5047 0.95151,-2.1902 0.16549,-0.3407 0.3991,-0.64 0.6019,-0.9572 C 8.31944,11.7745 8.66581,11.3973 9.04058,11.0452 9.20525,10.8741 9.37073,10.7037 9.54756,10.5447 9.90367,10.1976 10.4147,10.0086 10.6118,9.50075 10.7246,9.29471 10.8373,9.08867 10.9509,8.88344 11.0977,8.34888 11.1756,7.81025 11.045,7.25946 10.7724,6.45071 10.2711,5.84071 9.48916,5.47567 9.3545,5.44404 9.21904,5.4124 9.08438,5.38077 8.49627,5.24692 7.93413,5.35724 7.38252,5.5649 7.35413,5.63223 7.29492,5.64116 7.23327,5.64521 6.77333,5.77176 6.47562,6.1376 6.11546,6.41097 5.98811,6.5075 5.88184,6.63242 5.74475,6.71921 5.55575,6.8709 5.39676,7.05423 5.21911,7.2189 4.81108,7.59448 4.47606,8.03738 4.09968,8.44297 3.99504,8.60602 3.87498,8.7569 3.75412,8.90778 3.67949,8.98078 3.60243,9.05136 3.56187,9.15113 3.51238,9.26064 3.44343,9.35961 3.37448,9.45776 3.35258,9.48534 3.33311,9.51373 3.31364,9.54293 3.20008,9.72139 3.08246,9.89661 2.96078,10.0694 c -0.05516,0.0908 -0.11519,0.1793 -0.17521,0.2669 -0.03894,0.0632 -0.07463,0.1281 -0.10951,0.193 -0.28229,0.5305 -0.55809,1.0651 -0.80307,1.6143 -0.21172,0.5402 -0.4283,1.0788 -0.60514,1.6321 -0.296893,1.018 -0.513478,2.0514 -0.573506,3.1125 -0.006489,0.1087 -0.032448,0.2109 -0.056782,0.3155 -0.055973,0.464 -0.028393,0.9296 -0.025959,1.3944 -0.02677,0.5322 0.090042,1.0546 0.107076,1.5843 0.052727,0.1971 0.056784,0.4023 0.092476,0.6027 0.172781,0.9117 0.386935,1.813 0.705725,2.6866 0.18738,0.5557 0.45426,1.0789 0.6749,1.6207 0.0941,0.168 0.17846,0.3407 0.26039,0.5151 0.24092,0.3845 0.44128,0.7934 0.70086,1.1673 0.2612,0.4632 0.60595,0.8672 0.91745,1.2947 0.92474,1.1786 2.00604,2.191 3.24796,3.0305 0.2685,0.2037 0.54917,0.387 0.87445,0.4908 0.31718,0.1257 0.60109,0.3131 0.88906,0.494 z"
       id="path4" />
  </mask>
  <path
     style="fill:#800080;stroke:#363bc4;stroke-width:1.9;stroke-linecap:round;stroke-linejoin:miter;stroke-miterlimit:4;stroke-dasharray:none;stroke-opacity:1"
     d="M 15.638958,2.6500001 V 15.788536"
     id="path2489" />
</svg>
