<?xml version="1.0" encoding="UTF-8" standalone="no"?>
<svg
   width="38"
   height="38"
   viewBox="0 0 38 38"
   fill="none"
   version="1.1"
   id="svg14"
   sodipodi:docname="swing_off.svg"
   inkscape:version="1.1.1 (3bf5ae0d25, 2021-09-20, custom)"
   xmlns:inkscape="http://www.inkscape.org/namespaces/inkscape"
   xmlns:sodipodi="http://sodipodi.sourceforge.net/DTD/sodipodi-0.dtd"
   xmlns="http://www.w3.org/2000/svg"
   xmlns:svg="http://www.w3.org/2000/svg">
  <defs
     id="defs18" />
  <sodipodi:namedview
     id="namedview16"
     pagecolor="#ffffff"
     bordercolor="#666666"
     borderopacity="1.0"
     inkscape:pageshadow="2"
     inkscape:pageopacity="0.0"
     inkscape:pagecheckerboard="0"
     showgrid="false"
     inkscape:zoom="22.973684"
     inkscape:cx="19"
     inkscape:cy="18.978236"
     inkscape:window-width="3770"
     inkscape:window-height="2085"
     inkscape:window-x="70"
     inkscape:window-y="32"
     inkscape:window-maximized="1"
     inkscape:current-layer="svg14" />
  <path
     d="M16.1452 2.24065C22.4717 3.4185 26.6832 9.63597 25.5337 16.0154C24.3518 22.5759 18.0769 26.8186 11.7301 25.6344C5.26094 24.4279 1.04425 18.2471 2.23179 11.7754C3.42919 5.25255 9.73385 0.969886 16.1452 2.24065ZM15.8301 3.97801C10.4082 2.9167 5.15035 6.43004 4.01671 11.8228C2.84492 17.3948 6.39744 22.7546 11.8464 23.8569C17.3965 24.98 22.6374 21.3472 23.7469 15.9807C24.8878 10.464 21.3325 5.04185 15.8301 3.97801Z"
     fill="#363BC4"
     id="path2"
     style="fill:#bbbbbb;fill-opacity:1" />
  <path
     d="M25.863 34.0994C25.6765 33.9443 25.44 33.8229 25.312 33.6289C24.3851 32.2255 23.4794 30.8075 22.5674 29.3939C22.1574 28.759 21.7524 28.1207 21.3402 27.4878C21.1012 27.1206 21.0251 26.7433 21.2656 26.3521C21.5212 25.9366 21.9137 25.7106 22.3847 25.8012C22.6335 25.849 22.9234 26.032 23.0629 26.2424C24.1229 27.8451 25.1484 29.4708 26.1879 31.0875C26.4494 31.4943 26.7251 31.8914 26.9881 32.2967C27.4971 33.081 27.1179 33.9732 26.24 34.0589C26.1317 34.0696 26.0212 34.0563 25.9117 34.0538C25.8952 34.0692 25.8788 34.084 25.863 34.0994Z"
     fill="#BBBBBB"
     id="path4" />
  <path
     d="M28.1639 14.3823C28.266 13.8643 28.6547 13.5202 29.181 13.5374C30.5232 13.5805 31.865 13.6415 33.2064 13.698C34.2779 13.7429 35.3491 13.7951 36.4206 13.8368C36.9816 13.8588 37.3421 14.1055 37.4935 14.593C37.6339 15.0451 37.463 15.5281 37.0656 15.8212C36.7598 16.0472 36.4111 15.9789 36.0757 15.9657C34.0231 15.8854 31.9703 15.7964 29.9183 15.7095C29.638 15.6976 29.3578 15.682 29.0776 15.6658C28.4773 15.6313 28.0397 15.0152 28.1639 14.3823Z"
     fill="#BBBBBB"
     id="path6" />
  <path
     d="M34.5286 25.3926C34.3848 26.1435 33.6475 26.5114 32.9918 26.1381C30.8588 24.9235 28.7302 23.7016 26.6035 22.4764C26.1184 22.1971 25.9684 21.5684 26.2465 21.0775C26.5589 20.5265 27.1529 20.3325 27.6882 20.635C28.9084 21.325 30.1218 22.028 31.3363 22.728C32.2306 23.2436 33.123 23.763 34.0166 24.279C34.4579 24.5338 34.6247 24.8934 34.5286 25.3926Z"
     fill="#BBBBBB"
     id="path8" />
  <path
     d="M15.587 37.6901C15.1048 37.5968 14.8064 37.2762 14.7586 36.7869C14.5213 34.3631 14.2846 31.9395 14.051 29.5152C13.9889 28.8705 14.3678 28.3892 14.9776 28.3236C15.6294 28.2537 16.0988 28.643 16.1645 29.3143C16.3997 31.7173 16.6328 34.1211 16.868 36.5241C16.9436 37.3004 16.3541 37.8383 15.587 37.6901Z"
     fill="#BBBBBB"
     id="path10" />
  <path
     d="M7.67491 26.927C8.39561 27.0483 8.72759 27.8937 8.44506 28.4331C7.30122 30.6142 6.19051 32.8114 5.06353 35.0006C4.79882 35.5144 4.19577 35.695 3.66604 35.4337C3.1166 35.1631 2.89739 34.5778 3.17188 34.0387C4.16603 32.0866 5.17038 30.1388 6.17129 28.1898C6.29101 27.9571 6.41003 27.7248 6.52916 27.4919C6.76215 27.0344 7.17616 26.8304 7.67491 26.927Z"
     fill="#363BC4"
     id="path12"
     style="fill:#bbbbbb;fill-opacity:1" />
</svg>
