<svg width="288" height="288" viewBox="0 0 288 288" fill="none" xmlns="http://www.w3.org/2000/svg">
<path d="M288 174.777V113.23L267.246 109.77C264.473 99.7617 260.48 90.1523 255.344 81.0781L267.594 63.9375L224.062 20.4062L206.922 32.6562C197.848 27.5117 188.238 23.5195 178.23 20.7539L174.777 0H113.23L109.77 20.7539C99.7617 23.5273 90.1523 27.5195 81.0781 32.6562L63.9375 20.4062L20.4062 63.9375L32.6562 81.0781C27.5117 90.1523 23.5195 99.7617 20.7539 109.77L0 113.223V174.77L20.7539 178.23C23.5273 188.23 27.5195 197.84 32.6562 206.922L20.4062 224.062L63.9375 267.594L81.0781 255.344C90.1523 260.488 99.7617 264.48 109.77 267.246L113.223 288H174.77L178.23 267.246C188.238 264.473 197.848 260.48 206.922 255.344L224.062 267.594L267.594 224.062L255.344 206.922C260.488 197.84 264.48 188.23 267.246 178.23L288 174.777ZM144 200C113.07 200 88 174.93 88 144C88 113.07 113.07 88 144 88C174.93 88 200 113.07 200 144C200 174.93 174.93 200 144 200Z" fill="white"/>
<path d="M144 240C91.0625 240 48 196.938 48 144C48 91.0625 91.0625 48 144 48C196.938 48 240 91.0625 240 144C240 196.938 196.938 240 144 240ZM144 64C99.8867 64 64 99.8867 64 144C64 188.113 99.8867 224 144 224C188.113 224 224 188.113 224 144C224 99.8867 188.113 64 144 64Z" fill="#ED193F"/>
<path d="M195.496 180.289L182.687 170.695C188.969 162.312 192.289 152.383 192.289 142C192.289 115.527 170.762 94 144.289 94C133.906 94 123.977 97.3203 115.594 103.602L106 90.793C117.176 82.4258 130.418 78 144.289 78C179.578 78 208.289 106.711 208.289 142C208.289 155.871 203.863 169.113 195.496 180.289Z" fill="#ED193F"/>
<path d="M145 205.289C109.711 205.289 81 176.578 81 141.289C81 127.418 85.4258 114.176 93.793 103L106.602 112.594C100.32 120.977 97 130.906 97 141.289C97 167.762 118.527 189.289 145 189.289C155.383 189.289 165.312 185.969 173.695 179.687L183.289 192.496C172.113 200.863 158.871 205.289 145 205.289Z" fill="#ED193F"/>
</svg>
