<svg width="21" height="21" viewBox="0 0 21 21" fill="none" xmlns="http://www.w3.org/2000/svg">
<path fill-rule="evenodd" clip-rule="evenodd" d="M8.75 1.75H12.25C13.2165 1.75 14 2.5335 14 3.5V9.625H17.5C18.4665 9.625 19.25 10.4085 19.25 11.375V18.375C19.25 18.8582 18.8582 19.25 18.375 19.25H13.125H7.875H2.625C2.14175 19.25 1.75 18.8582 1.75 18.375V7.4375C1.75 6.471 2.5335 5.6875 3.5 5.6875H7V3.5C7 2.5335 7.7835 1.75 8.75 1.75ZM8.75 7.4375V17.5H12.25V11.375V3.5H8.75V7.4375ZM7 7.4375H3.5V17.5H7V7.4375ZM14 17.5H17.5V11.375H14V17.5Z" fill="white"/>
</svg>
