<svg width="24" height="23" viewBox="0 0 24 23" fill="none" xmlns="http://www.w3.org/2000/svg">
<path fill-rule="evenodd" clip-rule="evenodd" d="M4.86059 2.9707H9.70908C10.8471 2.9707 11.7697 3.85483 11.7697 4.94545V9.59192C11.7697 10.6825 10.8471 11.5667 9.70908 11.5667H4.86059C3.72255 11.5667 2.79999 10.6825 2.79999 9.59192V4.94545C2.79999 3.85483 3.72255 2.9707 4.86059 2.9707ZM4.86059 4.59696C4.65976 4.59696 4.49696 4.75298 4.49696 4.94544V9.59191C4.49696 9.78437 4.65976 9.94039 4.86059 9.94039H9.70908C9.90991 9.94039 10.0727 9.78437 10.0727 9.59191V4.94544C10.0727 4.75298 9.90991 4.59696 9.70908 4.59696H4.86059ZM14.5576 12.2636H19.4061C20.5441 12.2636 21.4667 13.1478 21.4667 14.2384V18.8848C21.4667 19.9755 20.5441 20.8596 19.4061 20.8596H14.5576C13.4195 20.8596 12.497 19.9755 12.497 18.8848V14.2384C12.497 13.1478 13.4195 12.2636 14.5576 12.2636ZM14.5576 13.8899C14.3567 13.8899 14.1939 14.0459 14.1939 14.2384V18.8849C14.1939 19.0773 14.3567 19.2333 14.5576 19.2333H19.4061C19.6069 19.2333 19.7697 19.0773 19.7697 18.8849V14.2384C19.7697 14.0459 19.6069 13.8899 19.4061 13.8899H14.5576ZM14.5576 2.9707H19.4061C20.5441 2.9707 21.4667 3.85483 21.4667 4.94545V9.59192C21.4667 10.6825 20.5441 11.5667 19.4061 11.5667H14.5576C13.4195 11.5667 12.497 10.6825 12.497 9.59192V4.94545C12.497 3.85483 13.4195 2.9707 14.5576 2.9707ZM14.5576 4.59696C14.3567 4.59696 14.1939 4.75298 14.1939 4.94544V9.59191C14.1939 9.78437 14.3567 9.94039 14.5576 9.94039H19.4061C19.6069 9.94039 19.7697 9.78437 19.7697 9.59191V4.94544C19.7697 4.75298 19.6069 4.59696 19.4061 4.59696H14.5576ZM4.86059 12.2636H9.70908C10.8471 12.2636 11.7697 13.1478 11.7697 14.2384V18.8848C11.7697 19.9755 10.8471 20.8596 9.70908 20.8596H4.86059C3.72255 20.8596 2.79999 19.9755 2.79999 18.8848V14.2384C2.79999 13.1478 3.72255 12.2636 4.86059 12.2636ZM4.86059 13.8899C4.65976 13.8899 4.49696 14.0459 4.49696 14.2384V18.8849C4.49696 19.0773 4.65976 19.2333 4.86059 19.2333H9.70908C9.90991 19.2333 10.0727 19.0773 10.0727 18.8849V14.2384C10.0727 14.0459 9.90991 13.8899 9.70908 13.8899H4.86059Z" fill="white"/>
</svg>
