<svg width="19" height="19" viewBox="0 0 19 19" fill="none" xmlns="http://www.w3.org/2000/svg">
<path d="M9.49992 11.8747C10.8116 11.8747 11.8749 10.8114 11.8749 9.49967C11.8749 8.188 10.8116 7.12467 9.49992 7.12467C8.18824 7.12467 7.12492 8.188 7.12492 9.49967C7.12492 10.8114 8.18824 11.8747 9.49992 11.8747Z" stroke="white" stroke-width="2" stroke-linecap="round" stroke-linejoin="round"/>
<path d="M14.8257 11.6588C14.7299 11.8758 14.7013 12.1166 14.7436 12.3501C14.786 12.5836 14.8973 12.799 15.0632 12.9686L15.1064 13.0118C15.2402 13.1455 15.3464 13.3042 15.4188 13.479C15.4912 13.6537 15.5285 13.841 15.5285 14.0302C15.5285 14.2193 15.4912 14.4066 15.4188 14.5814C15.3464 14.7561 15.2402 14.9149 15.1064 15.0485C14.9727 15.1824 14.8139 15.2885 14.6392 15.361C14.4644 15.4334 14.2771 15.4707 14.088 15.4707C13.8988 15.4707 13.7115 15.4334 13.5368 15.361C13.362 15.2885 13.2033 15.1824 13.0696 15.0485L13.0264 15.0054C12.8568 14.8394 12.6414 14.7281 12.4079 14.6858C12.1745 14.6435 11.9337 14.6721 11.7166 14.7679C11.5037 14.8591 11.3222 15.0106 11.1943 15.2037C11.0664 15.3967 10.9978 15.623 10.9969 15.8546V15.9769C10.9969 16.3587 10.8452 16.7248 10.5753 16.9948C10.3054 17.2647 9.93924 17.4163 9.55749 17.4163C9.17574 17.4163 8.80963 17.2647 8.53969 16.9948C8.26975 16.7248 8.1181 16.3587 8.1181 15.9769V15.9122C8.11253 15.674 8.03542 15.4429 7.8968 15.2491C7.75818 15.0553 7.56446 14.9077 7.34083 14.8254C7.12376 14.7296 6.88296 14.7011 6.64949 14.7434C6.41603 14.7857 6.2006 14.897 6.03098 15.0629L5.9878 15.1061C5.85412 15.2399 5.69537 15.3461 5.52063 15.4185C5.34589 15.491 5.15858 15.5283 4.96943 15.5283C4.78027 15.5283 4.59296 15.491 4.41822 15.4185C4.24348 15.3461 4.08474 15.2399 3.95105 15.1061C3.81723 14.9724 3.71106 14.8137 3.63862 14.6389C3.56618 14.4642 3.5289 14.2769 3.5289 14.0877C3.5289 13.8986 3.56618 13.7113 3.63862 13.5365C3.71106 13.3618 3.81723 13.2031 3.95105 13.0694L3.99424 13.0262C4.16015 12.8566 4.27145 12.6411 4.31379 12.4077C4.35612 12.1742 4.32754 11.9334 4.23174 11.7163C4.14051 11.5035 3.98902 11.3219 3.79594 11.1941C3.60285 11.0662 3.37658 10.9976 3.14499 10.9966H3.02265C2.64089 10.9966 2.27478 10.845 2.00484 10.5751C1.7349 10.3051 1.58325 9.939 1.58325 9.55725C1.58325 9.1755 1.7349 8.80938 2.00484 8.53944C2.27478 8.26951 2.64089 8.11786 3.02265 8.11786H3.08742C3.32563 8.11228 3.55666 8.03518 3.75047 7.89656C3.94429 7.75794 4.09191 7.56422 4.17416 7.34058C4.26996 7.12351 4.29854 6.88272 4.25621 6.64925C4.21388 6.41578 4.10258 6.20035 3.93666 6.03073L3.89348 5.98755C3.75965 5.85387 3.65348 5.69512 3.58104 5.52038C3.50861 5.34564 3.47132 5.15834 3.47132 4.96918C3.47132 4.78002 3.50861 4.59272 3.58104 4.41798C3.65348 4.24324 3.75965 4.08449 3.89348 3.95081C4.02716 3.81698 4.18591 3.71081 4.36065 3.63838C4.53539 3.56594 4.72269 3.52866 4.91185 3.52866C5.10101 3.52866 5.28831 3.56594 5.46305 3.63838C5.63779 3.71081 5.79654 3.81698 5.93022 3.95081L5.9734 3.99399C6.14302 4.15991 6.35845 4.27121 6.59192 4.31354C6.82539 4.35587 7.06618 4.3273 7.28325 4.23149H7.34083C7.55369 4.14026 7.73523 3.98878 7.86311 3.79569C7.99098 3.6026 8.0596 3.37634 8.06052 3.14475V3.0224C8.06052 2.64065 8.21217 2.27454 8.48211 2.0046C8.75205 1.73466 9.11817 1.58301 9.49992 1.58301C9.88167 1.58301 10.2478 1.73466 10.5177 2.0046C10.7877 2.27454 10.9393 2.64065 10.9393 3.0224V3.08717C10.9402 3.31876 11.0089 3.54503 11.1367 3.73812C11.2646 3.9312 11.4461 4.08269 11.659 4.17392C11.8761 4.26972 12.1169 4.2983 12.3503 4.25597C12.5838 4.21363 12.7992 4.10233 12.9689 3.93642L13.012 3.89324C13.1457 3.75941 13.3045 3.65324 13.4792 3.5808C13.6539 3.50836 13.8413 3.47108 14.0304 3.47108C14.2196 3.47108 14.4069 3.50836 14.5816 3.5808C14.7564 3.65324 14.9151 3.75941 15.0488 3.89324C15.1826 4.02692 15.2888 4.18566 15.3612 4.3604C15.4337 4.53514 15.4709 4.72245 15.4709 4.91161C15.4709 5.10076 15.4337 5.28807 15.3612 5.46281C15.2888 5.63755 15.1826 5.7963 15.0488 5.92998L15.0056 5.97316C14.8397 6.14278 14.7284 6.35821 14.6861 6.59167C14.6437 6.82514 14.6723 7.06594 14.7681 7.28301V7.34058C14.8593 7.55345 15.0108 7.73499 15.2039 7.86286C15.397 7.99074 15.6233 8.05936 15.8548 8.06028H15.9772C16.3589 8.06028 16.7251 8.21193 16.995 8.48187C17.2649 8.75181 17.4166 9.11792 17.4166 9.49967C17.4166 9.88143 17.2649 10.2475 16.995 10.5175C16.7251 10.7874 16.3589 10.9391 15.9772 10.9391H15.9124C15.6808 10.94 15.4546 11.0086 15.2615 11.1365C15.0684 11.2644 14.9169 11.4459 14.8257 11.6588Z" stroke="white" stroke-width="2" stroke-linecap="round" stroke-linejoin="round"/>
</svg>
