<svg width="23" height="23" viewBox="0 0 23 23" fill="none" xmlns="http://www.w3.org/2000/svg">
<path fill-rule="evenodd" clip-rule="evenodd" d="M10.0625 2.6355C10.0625 1.84008 10.7046 1.198 11.5 1.198C12.2954 1.198 12.9375 1.84008 12.9375 2.6355V3.75675C15.9467 4.40841 18.2083 7.09175 18.2083 10.3022V16.0522L20.125 17.9688V18.9272H2.875V17.9688L4.79167 16.0522V10.3022C4.79167 7.09175 7.05333 4.40841 10.0625 3.75675V2.6355ZM11.5 5.5105C14.145 5.5105 16.2917 7.65716 16.2917 10.3022V17.0105H6.70833V10.3022C6.70833 7.65716 8.855 5.5105 11.5 5.5105ZM9.59293 19.8951C9.59293 20.9492 10.4458 21.8022 11.5 21.8022C12.5542 21.8022 13.4071 20.9492 13.4071 19.8951H9.59293Z" fill="white"/>
</svg>
