<svg width="17" height="19" viewBox="0 0 17 19" fill="none" xmlns="http://www.w3.org/2000/svg">
<path d="M10.8748 15.0413C10.8748 16.353 9.81146 17.4163 8.49978 17.4163C7.1881 17.4163 6.12478 16.353 6.12478 15.0413M9.92201 4.93853C10.2668 4.58235 10.4789 4.09704 10.4789 3.56217C10.4789 2.46911 9.59284 1.58301 8.49978 1.58301C7.40672 1.58301 6.52061 2.46911 6.52061 3.56217C6.52061 4.09704 6.73278 4.58235 7.07755 4.93853M13.2498 8.86634C13.2498 7.77453 12.7493 6.72744 11.8585 5.95542C10.9677 5.18339 9.75956 4.74967 8.49978 4.74967C7.24 4.74967 6.03182 5.18339 5.14102 5.95542C4.25022 6.72744 3.74978 7.77453 3.74978 8.86634C3.74978 10.6728 3.3018 11.9939 2.74283 12.9392C2.10576 14.0166 1.78722 14.5553 1.7998 14.684C1.81419 14.8312 1.84069 14.8777 1.96009 14.965C2.06446 15.0413 2.58881 15.0413 3.63751 15.0413H13.362C14.4108 15.0413 14.9351 15.0413 15.0395 14.965C15.1589 14.8777 15.1854 14.8312 15.1998 14.684C15.2123 14.5553 14.8938 14.0166 14.2567 12.9392C13.6978 11.9939 13.2498 10.6728 13.2498 8.86634Z" stroke="white" stroke-width="2" stroke-linecap="round" stroke-linejoin="round"/>
</svg>
