<svg width="17" height="17" viewBox="0 0 17 17" fill="none" xmlns="http://www.w3.org/2000/svg">
<path d="M8.125 8.125L15.25 8.125M8.125 1L8.125 15.25M4.8 1H11.45C12.7801 1 13.4452 1 13.9532 1.25886C14.4001 1.48656 14.7634 1.84989 14.9911 2.29677C15.25 2.80481 15.25 3.46988 15.25 4.8V11.45C15.25 12.7801 15.25 13.4452 14.9911 13.9532C14.7634 14.4001 14.4001 14.7634 13.9532 14.9911C13.4452 15.25 12.7801 15.25 11.45 15.25H4.8C3.46988 15.25 2.80481 15.25 2.29677 14.9911C1.84989 14.7634 1.48656 14.4001 1.25886 13.9532C1 13.4452 1 12.7801 1 11.45V4.8C1 3.46988 1 2.80481 1.25886 2.29677C1.48656 1.84989 1.84989 1.48656 2.29677 1.25886C2.80481 1 3.46988 1 4.8 1Z" stroke="white" stroke-width="2" stroke-linecap="round" stroke-linejoin="round"/>
</svg>
