<svg width="17" height="19" viewBox="0 0 17 19" fill="none" xmlns="http://www.w3.org/2000/svg">
<path d="M10.1713 5.32204H14.9445C15.2986 5.32204 15.4757 5.32204 15.5792 5.39649C15.6696 5.46145 15.7284 5.56143 15.7413 5.67196C15.7561 5.79863 15.6701 5.9534 15.4982 6.26295L14.3348 8.35706C14.2724 8.46932 14.2412 8.52545 14.229 8.58489C14.2182 8.6375 14.2182 8.69177 14.229 8.74438C14.2412 8.80382 14.2724 8.85995 14.3348 8.97221L15.4982 11.0663C15.6701 11.3759 15.7561 11.5306 15.7413 11.6573C15.7284 11.7678 15.6696 11.8678 15.5792 11.9328C15.4757 12.0072 15.2986 12.0072 14.9445 12.0072H8.93107C8.4877 12.0072 8.26601 12.0072 8.09666 11.9209C7.9477 11.845 7.82659 11.7239 7.75069 11.575C7.6644 11.4056 7.6644 11.1839 7.6644 10.7406V8.66463M4.73964 17.0213L1.39705 3.65096M2.65056 8.66468H8.90469C9.34806 8.66468 9.56975 8.66468 9.7391 8.57839C9.88806 8.50249 10.0092 8.38138 10.0851 8.23242C10.1714 8.06307 10.1714 7.84139 10.1714 7.39801V3.24616C10.1714 2.80278 10.1714 2.5811 10.0851 2.41175C10.0092 2.26279 9.88806 2.14168 9.7391 2.06578C9.56975 1.97949 9.34806 1.97949 8.90469 1.97949H2.60153C2.04853 1.97949 1.77203 1.97949 1.58292 2.09407C1.41717 2.1945 1.29401 2.35224 1.23679 2.5374C1.17149 2.74866 1.23856 3.0169 1.37268 3.55338L2.65056 8.66468Z" stroke="white" stroke-width="2" stroke-linecap="round" stroke-linejoin="round"/>
</svg>
