<svg width="23" height="22" viewBox="0 0 23 22" fill="none" xmlns="http://www.w3.org/2000/svg">
<path d="M1.84627 12.5406L1.84628 12.5406C2.1089 12.5432 2.36186 12.4417 2.54989 12.2584L2.5499 12.2584L2.55091 12.2573L11.4896 3.28672L20.439 12.2503L20.439 12.2503C20.6256 12.4369 20.8787 12.5417 21.1426 12.5417C21.4064 12.5417 21.6595 12.4369 21.8461 12.2503C22.0327 12.0637 22.1375 11.8107 22.1375 11.5468C22.1375 11.2829 22.0327 11.0299 21.8461 10.8433L12.1931 1.19028L12.1929 1.19007C12.006 1.00425 11.7531 0.899964 11.4895 0.899972L11.4872 0.900029C11.2263 0.906269 10.9783 1.0145 10.7963 1.20148C10.7961 1.20166 10.7959 1.20184 10.7958 1.20202L1.14375 10.854L1.14374 10.854L1.14266 10.8551C1.00735 10.9947 0.915948 11.1709 0.879767 11.3619C0.843586 11.5529 0.864217 11.7503 0.939105 11.9297C1.01399 12.1091 1.13985 12.2626 1.30109 12.3712C1.46233 12.4797 1.65188 12.5387 1.84627 12.5406Z" fill="white" stroke="white" stroke-width="0.2"/>
<path d="M15.808 21.7869L15.8084 21.7869C16.827 21.783 17.8026 21.3756 18.5215 20.654C19.2405 19.9323 19.6441 18.9552 19.6441 17.9365V9.07007C19.6441 8.8065 19.5394 8.55372 19.353 8.36735C19.1666 8.18097 18.9139 8.07627 18.6503 8.07627C18.3867 8.07627 18.134 8.18097 17.9476 8.36735C17.7612 8.55372 17.6565 8.8065 17.6565 9.07007V17.9365C17.6566 18.4259 17.464 18.8957 17.1205 19.2442C16.7772 19.5926 16.3107 19.792 15.8216 19.7993H7.20612C6.9615 19.7993 6.71927 19.7511 6.49327 19.6575C6.26726 19.5639 6.06191 19.4267 5.88894 19.2537C5.5396 18.9044 5.34334 18.4306 5.34334 17.9365V9.07007C5.34334 8.8065 5.23864 8.55372 5.05227 8.36735C4.86589 8.18097 4.61312 8.07627 4.34955 8.07627C4.08598 8.07627 3.8332 8.18097 3.64683 8.36735C3.46045 8.55372 3.35575 8.8065 3.35575 9.07007V17.9365C3.35574 18.9552 3.75939 19.9323 4.4783 20.654C5.19721 21.3756 6.1728 21.783 7.19144 21.7869H7.19182H15.808Z" fill="white" stroke="white" stroke-width="0.2"/>
</svg>
